<?xml version="1.0" encoding="UTF-8" standalone="no"?>
<!DOCTYPE svg PUBLIC "-//W3C//DTD SVG 1.0//EN"
 "http://www.w3.org/TR/2001/REC-SVG-20010904/DTD/svg10.dtd">
<!-- Generated by dot version 2.2 (Fri Mar 11 00:51:40 UTC 2005)
     For user: (root) root   Title: scufl_graph    Pages: 1 -->
<svg width="241pt" height="398pt"
 viewBox = "-1 -1 240 397"
 xmlns="http://www.w3.org/2000/svg">
<g id="graph0" class="graph" style="font-family:Times-Roman;font-size:14.00;">
<title>scufl_graph</title>
<g id="graph2" class="cluster"><title>cluster_sources</title>
<polygon style="fill:none;stroke:black;stroke-dasharray:1,5;" points="114,67 226,67 226,12 114,12 114,67"/>
<text text-anchor="middle" style="font-family:Helvetica;font-size:10.00;" x="158" y="24">Workflow Inputs</text>
</g>
<g id="graph3" class="cluster"><title>cluster_sinks</title>
<polygon style="fill:none;stroke:black;stroke-dasharray:1,5;" points="13,374 119,374 119,319 13,319 13,374"/>
<text text-anchor="middle" style="font-family:Helvetica;font-size:10.00;" x="61" y="331">Workflow Outputs</text>
</g>
<g id="node1" class="node"><title>get_linkdb_by_entry</title>
<polygon style="fill:#a3cd5a;stroke:black;" points="172,76 66,76 66,94 172,94 172,76"/>
<text text-anchor="middle" style="font-family:Helvetica;font-size:10.00;" x="119" y="88">get_linkdb_by_entry</text>
</g>
<g id="node2" class="node"><title>returnXML</title>
<polygon style="fill:#ce5fee;stroke:black;" points="150,112 88,112 88,130 150,130 150,112"/>
<text text-anchor="middle" style="font-family:Helvetica;font-size:10.00;" x="119" y="124">returnXML</text>
</g>
<g id="edge14" class="edge"><title>get_linkdb_by_entry&#45;&gt;returnXML</title>
<path style="fill:none;stroke:black;" d="M119,95C119,97 119,99 119,101"/>
<polygon style="fill:black;stroke:black;" points="123,101 119,111 116,101 123,101"/>
</g>
<g id="node4" class="node"><title>returnXML1</title>
<polygon style="fill:#ce5fee;stroke:black;" points="153,148 85,148 85,166 153,166 153,148"/>
<text text-anchor="middle" style="font-family:Helvetica;font-size:10.00;" x="119" y="160">returnXML1</text>
</g>
<g id="edge20" class="edge"><title>returnXML&#45;&gt;returnXML1</title>
<path style="fill:none;stroke:black;" d="M119,131C119,133 119,135 119,137"/>
<polygon style="fill:black;stroke:black;" points="123,137 119,147 116,137 123,137"/>
</g>
<g id="node3" class="node"><title>database</title>
<polygon style="fill:lightsteelblue;stroke:black;" points="106,40 48,40 48,58 106,58 106,40"/>
<text text-anchor="middle" style="font-family:Helvetica;font-size:10.00;" x="77" y="52">database</text>
</g>
<g id="edge8" class="edge"><title>database&#45;&gt;get_linkdb_by_entry</title>
<path style="fill:none;stroke:black;" d="M88,59C92,62 96,65 100,69"/>
<polygon style="fill:black;stroke:black;" points="102,66 108,75 98,72 102,66"/>
</g>
<g id="node5" class="node"><title>split</title>
<polygon style="fill:#ce5fee;stroke:black;" points="107,184 73,184 73,202 107,202 107,184"/>
<text text-anchor="middle" style="font-family:Helvetica;font-size:10.00;" x="90" y="196">split</text>
</g>
<g id="edge18" class="edge"><title>returnXML1&#45;&gt;split</title>
<path style="fill:none;stroke:black;" d="M111,167C109,169 107,172 104,175"/>
<polygon style="fill:black;stroke:black;" points="107,177 98,183 101,173 107,177"/>
</g>
<g id="node7" class="node"><title>extract</title>
<polygon style="fill:#ce5fee;stroke:black;" points="80,220 34,220 34,238 80,238 80,220"/>
<text text-anchor="middle" style="font-family:Helvetica;font-size:10.00;" x="57" y="232">extract</text>
</g>
<g id="edge22" class="edge"><title>split&#45;&gt;extract</title>
<path style="fill:none;stroke:black;" d="M81,203C78,206 75,209 73,212"/>
<polygon style="fill:black;stroke:black;" points="76,214 66,219 71,209 76,214"/>
</g>
<g id="node6" class="node"><title>colon</title>
<polygon style="fill:lightsteelblue;stroke:black;" points="81,148 41,148 41,166 81,166 81,148"/>
<text text-anchor="middle" style="font-family:Helvetica;font-size:10.00;" x="61" y="160">colon</text>
</g>
<g id="edge6" class="edge"><title>colon&#45;&gt;split</title>
<path style="fill:none;stroke:black;" d="M69,167C71,169 73,172 75,175"/>
<polygon style="fill:black;stroke:black;" points="78,173 82,183 73,178 78,173"/>
</g>
<g id="node10" class="node"><title>merge</title>
<polygon style="fill:#ce5fee;stroke:black;" points="79,256 35,256 35,274 79,274 79,256"/>
<text text-anchor="middle" style="font-family:Helvetica;font-size:10.00;" x="57" y="268">merge</text>
</g>
<g id="edge10" class="edge"><title>extract&#45;&gt;merge</title>
<path style="fill:none;stroke:black;" d="M57,239C57,241 57,243 57,245"/>
<polygon style="fill:black;stroke:black;" points="61,245 57,255 54,245 61,245"/>
</g>
<g id="node8" class="node"><title>from</title>
<polygon style="fill:lightsteelblue;stroke:black;" points="41,184 5,184 5,202 41,202 41,184"/>
<text text-anchor="middle" style="font-family:Helvetica;font-size:10.00;" x="23" y="196">from</text>
</g>
<g id="edge12" class="edge"><title>from&#45;&gt;extract</title>
<path style="fill:none;stroke:black;" d="M32,203C35,206 38,209 41,212"/>
<polygon style="fill:black;stroke:black;" points="43,209 48,219 38,214 43,209"/>
</g>
<g id="node9" class="node"><title>to</title>
<polygon style="fill:lightsteelblue;stroke:black;" points="69,184 45,184 45,202 69,202 69,184"/>
<text text-anchor="middle" style="font-family:Helvetica;font-size:10.00;" x="57" y="196">to</text>
</g>
<g id="edge24" class="edge"><title>to&#45;&gt;extract</title>
<path style="fill:none;stroke:black;" d="M57,203C57,205 57,207 57,209"/>
<polygon style="fill:black;stroke:black;" points="61,209 57,219 54,209 61,209"/>
</g>
<g id="node11" class="node"><title>merge1</title>
<polygon style="fill:#ce5fee;stroke:black;" points="82,292 32,292 32,310 82,310 82,292"/>
<text text-anchor="middle" style="font-family:Helvetica;font-size:10.00;" x="57" y="304">merge1</text>
</g>
<g id="edge16" class="edge"><title>merge&#45;&gt;merge1</title>
<path style="fill:none;stroke:black;" d="M57,275C57,277 57,279 57,281"/>
<polygon style="fill:black;stroke:black;" points="61,281 57,291 54,281 61,281"/>
</g>
<g id="node17" class="node"><title>WORKFLOWINTERNALSINK_swissprot_id</title>
<polygon style="fill:#bcd2ee;stroke:black;" points="93,347 21,347 21,365 93,365 93,347"/>
<text text-anchor="middle" style="font-family:Helvetica;font-size:10.00;" x="57" y="359">swissprot_id</text>
</g>
<g id="edge26" class="edge"><title>merge1&#45;&gt;WORKFLOWINTERNALSINK_swissprot_id</title>
<path style="fill:none;stroke:black;" d="M57,311C57,318 57,327 57,336"/>
<polygon style="fill:black;stroke:black;" points="61,336 57,346 54,336 61,336"/>
</g>
<g id="node13" class="node"><title>WORKFLOWINTERNALSOURCECONTROL</title>
<polygon style="fill:#ff3f3f;stroke:black;" points="211,42 204,52 218,52 211,42"/>
</g>
<g id="node14" class="node"><title>WORKFLOWINTERNALSOURCE_kegg_entry_id</title>
<polygon style="fill:skyblue;stroke:black;" points="200,40 122,40 122,58 200,58 200,40"/>
<text text-anchor="middle" style="font-family:Helvetica;font-size:10.00;" x="161" y="52">kegg_entry_id</text>
</g>
<g id="edge4" class="edge"><title>WORKFLOWINTERNALSOURCE_kegg_entry_id&#45;&gt;get_linkdb_by_entry</title>
<path style="fill:none;stroke:black;" d="M150,59C146,62 142,65 138,69"/>
<polygon style="fill:black;stroke:black;" points="140,72 130,75 136,66 140,72"/>
</g>
<g id="node16" class="node"><title>WORKFLOWINTERNALSINKCONTROL</title>
<polygon style="fill:#6acd00;stroke:black;" points="104,363 111,353 97,353 104,363"/>
</g>
</g>
</svg>
