<?xml version="1.0" encoding="UTF-8" standalone="no"?>
<!DOCTYPE svg PUBLIC "-//W3C//DTD SVG 1.0//EN"
 "http://www.w3.org/TR/2001/REC-SVG-20010904/DTD/svg10.dtd">
<!-- Generated by dot version 2.2 (Fri Mar 11 00:51:40 UTC 2005)
     For user: (root) root   Title: scufl_graph    Pages: 1 -->
<svg width="194pt" height="291pt"
 viewBox = "-1 -1 193 290"
 xmlns="http://www.w3.org/2000/svg">
<g id="graph0" class="graph" style="font-family:Times-Roman;font-size:14.00;">
<title>scufl_graph</title>
<g id="graph2" class="cluster"><title>cluster_sinks</title>
<polygon style="fill:none;stroke:black;stroke-dasharray:1,5;" points="57,267 153,267 153,212 57,212 57,267"/>
<text text-anchor="middle" style="font-family:Helvetica;font-size:10.00;" x="105" y="224">Workflow Outputs</text>
</g>
<g id="node1" class="node"><title>id</title>
<polygon style="fill:lightsteelblue;stroke:black;" points="83,5 59,5 59,23 83,23 83,5"/>
<text text-anchor="middle" style="font-family:Helvetica;font-size:10.00;" x="71" y="17">id</text>
</g>
<g id="node7" class="node"><title>Object</title>
<polygon style="fill:gold;stroke:black;" points="118,41 74,41 74,59 118,59 118,41"/>
<text text-anchor="middle" style="font-family:Helvetica;font-size:10.00;" x="96" y="53">Object</text>
</g>
<g id="edge13" class="edge"><title>id&#45;&gt;Object</title>
<path style="fill:none;stroke:black;" d="M78,24C79,26 81,29 83,32"/>
<polygon style="fill:black;stroke:black;" points="86,30 89,40 80,34 86,30"/>
</g>
<g id="node2" class="node"><title>namespace</title>
<polygon style="fill:lightsteelblue;stroke:black;" points="155,5 87,5 87,23 155,23 155,5"/>
<text text-anchor="middle" style="font-family:Helvetica;font-size:10.00;" x="121" y="17">namespace</text>
</g>
<g id="edge15" class="edge"><title>namespace&#45;&gt;Object</title>
<path style="fill:none;stroke:black;" d="M114,24C113,26 111,29 109,32"/>
<polygon style="fill:black;stroke:black;" points="112,34 103,40 106,30 112,34"/>
</g>
<g id="node3" class="node"><title>Decode_base64_to_byte</title>
<polygon style="fill:#ce5fee;stroke:black;" points="159,185 33,185 33,203 159,203 159,185"/>
<text text-anchor="middle" style="font-family:Helvetica;font-size:10.00;" x="96" y="197">Decode_base64_to_byte</text>
</g>
<g id="node10" class="node"><title>WORKFLOWINTERNALSINK_images</title>
<polygon style="fill:#bcd2ee;stroke:black;" points="120,240 72,240 72,258 120,258 120,240"/>
<text text-anchor="middle" style="font-family:Helvetica;font-size:10.00;" x="96" y="252">images</text>
</g>
<g id="edge3" class="edge"><title>Decode_base64_to_byte&#45;&gt;WORKFLOWINTERNALSINK_images</title>
<path style="fill:none;stroke:black;" d="M96,204C96,211 96,220 96,229"/>
<polygon style="fill:black;stroke:black;" points="100,229 96,239 93,229 100,229"/>
</g>
<g id="node4" class="node"><title>Parse_moby_data___updated__2006</title>
<polygon style="fill:#ce5fee;stroke:black;" points="187,149 5,149 5,167 187,167 187,149"/>
<text text-anchor="middle" style="font-family:Helvetica;font-size:10.00;" x="96" y="161">Parse_moby_data___updated__2006</text>
</g>
<g id="edge7" class="edge"><title>Parse_moby_data___updated__2006&#45;&gt;Decode_base64_to_byte</title>
<path style="fill:none;stroke:black;" d="M96,168C96,170 96,172 96,174"/>
<polygon style="fill:black;stroke:black;" points="100,174 96,184 93,174 100,174"/>
</g>
<g id="node5" class="node"><title>getJpegFromAnnotatedImage</title>
<polygon style="fill:#ffb80f;stroke:black;" points="170,113 22,113 22,131 170,131 170,113"/>
<text text-anchor="middle" style="font-family:Helvetica;font-size:10.00;" x="96" y="125">getJpegFromAnnotatedImage</text>
</g>
<g id="edge11" class="edge"><title>getJpegFromAnnotatedImage&#45;&gt;Parse_moby_data___updated__2006</title>
<path style="fill:none;stroke:black;" d="M96,132C96,134 96,136 96,138"/>
<polygon style="fill:black;stroke:black;" points="100,138 96,148 93,138 100,138"/>
</g>
<g id="node6" class="node"><title>getDragonSimpleAnnotatedImages</title>
<polygon style="fill:#ffb80f;stroke:black;" points="182,77 10,77 10,95 182,95 182,77"/>
<text text-anchor="middle" style="font-family:Helvetica;font-size:10.00;" x="96" y="89">getDragonSimpleAnnotatedImages</text>
</g>
<g id="edge9" class="edge"><title>getDragonSimpleAnnotatedImages&#45;&gt;getJpegFromAnnotatedImage</title>
<path style="fill:none;stroke:black;" d="M96,96C96,98 96,100 96,102"/>
<polygon style="fill:black;stroke:black;" points="100,102 96,112 93,102 100,102"/>
</g>
<g id="edge5" class="edge"><title>Object&#45;&gt;getDragonSimpleAnnotatedImages</title>
<path style="fill:none;stroke:black;" d="M96,60C96,62 96,64 96,66"/>
<polygon style="fill:black;stroke:black;" points="100,66 96,76 93,66 100,66"/>
</g>
<g id="node9" class="node"><title>WORKFLOWINTERNALSINKCONTROL</title>
<polygon style="fill:#6acd00;stroke:black;" points="134,256 141,246 127,246 134,256"/>
</g>
</g>
</svg>
