<?xml version="1.0" encoding="UTF-8" standalone="no"?>
<!DOCTYPE svg PUBLIC "-//W3C//DTD SVG 1.0//EN"
 "http://www.w3.org/TR/2001/REC-SVG-20010904/DTD/svg10.dtd">
<!-- Generated by dot version 2.2 (Fri Mar 11 00:51:40 UTC 2005)
     For user: (root) root   Title: scufl_graph    Pages: 1 -->
<svg width="841pt" height="1047pt"
 viewBox = "-1 -1 840 1046"
 xmlns="http://www.w3.org/2000/svg">
<g id="graph0" class="graph" style="font-family:Times-Roman;font-size:14.00;">
<title>scufl_graph</title>
<g id="graph2" class="cluster"><title>cluster_Get_PathwaysGet_Pathways</title>
<polygon style="fill:aliceblue;stroke:black;" points="70,860 366,860 366,463 70,463 70,860"/>
<text text-anchor="middle" style="font-family:Helvetica;font-size:10.00;" x="110" y="475">Get_Pathways</text>
</g>
<g id="graph3" class="cluster"><title>cluster_Get_Pathwayssources</title>
<polygon style="fill:none;stroke:black;stroke-dasharray:1,5;" points="268,545 358,545 358,490 268,490 268,545"/>
<text text-anchor="middle" style="font-family:Helvetica;font-size:10.00;" x="312" y="502">Workflow Inputs</text>
</g>
<g id="graph4" class="cluster"><title>cluster_Get_Pathwayssinks</title>
<polygon style="fill:none;stroke:black;stroke-dasharray:1,5;" points="78,852 358,852 358,797 78,797 78,852"/>
<text text-anchor="middle" style="font-family:Helvetica;font-size:10.00;" x="126" y="809">Workflow Outputs</text>
</g>
<g id="graph5" class="cluster"><title>cluster_sources</title>
<polygon style="fill:none;stroke:black;stroke-dasharray:1,5;" points="458,67 564,67 564,12 458,12 458,67"/>
<text text-anchor="middle" style="font-family:Helvetica;font-size:10.00;" x="502" y="24">Workflow Inputs</text>
</g>
<g id="graph6" class="cluster"><title>cluster_sinks</title>
<polygon style="fill:none;stroke:black;stroke-dasharray:1,5;" points="92,1023 826,1023 826,968 92,968 92,1023"/>
<text text-anchor="middle" style="font-family:Helvetica;font-size:10.00;" x="140" y="980">Workflow Outputs</text>
</g>
<g id="node1" class="node"><title>concat_kegg_genes</title>
<polygon style="fill:#ce5fee;stroke:black;" points="368,328 262,328 262,346 368,346 368,328"/>
<text text-anchor="middle" style="font-family:Helvetica;font-size:10.00;" x="315" y="340">concat_kegg_genes</text>
</g>
<g id="node27" class="node"><title>split_gene_ids</title>
<polygon style="fill:#eec391;stroke:black;" points="352,364 272,364 272,382 352,382 352,364"/>
<text text-anchor="middle" style="font-family:Helvetica;font-size:10.00;" x="312" y="376">split_gene_ids</text>
</g>
<g id="edge51" class="edge"><title>concat_kegg_genes&#45;&gt;split_gene_ids</title>
<path style="fill:none;stroke:black;" d="M314,347C314,349 314,351 314,353"/>
<polygon style="fill:black;stroke:black;" points="317,353 313,363 311,353 317,353"/>
</g>
<g id="node2" class="node"><title>split_probesets</title>
<polygon style="fill:#ce5fee;stroke:black;" points="544,76 460,76 460,94 544,94 544,76"/>
<text text-anchor="middle" style="font-family:Helvetica;font-size:10.00;" x="502" y="88">split_probesets</text>
</g>
<g id="node31" class="node"><title>mmusculus_gene_ensembl</title>
<polygon style="fill:#d1eeed;stroke:black;" points="632,112 494,112 494,130 632,130 632,112"/>
<text text-anchor="middle" style="font-family:Helvetica;font-size:10.00;" x="563" y="124">mmusculus_gene_ensembl</text>
</g>
<g id="edge131" class="edge"><title>split_probesets&#45;&gt;mmusculus_gene_ensembl</title>
<path style="fill:none;stroke:black;" d="M518,95C524,98 531,102 537,106"/>
<polygon style="fill:black;stroke:black;" points="539,103 546,111 536,109 539,103"/>
</g>
<g id="node3" class="node"><title>split_for_duplicates</title>
<polygon style="fill:#ce5fee;stroke:black;" points="361,400 259,400 259,418 361,418 361,400"/>
<text text-anchor="middle" style="font-family:Helvetica;font-size:10.00;" x="310" y="412">split_for_duplicates</text>
</g>
<g id="node10" class="node"><title>remove_duplicate_kegg_genes</title>
<polygon style="fill:#ce5fee;stroke:black;" points="387,436 233,436 233,454 387,454 387,436"/>
<text text-anchor="middle" style="font-family:Helvetica;font-size:10.00;" x="310" y="448">remove_duplicate_kegg_genes</text>
</g>
<g id="edge129" class="edge"><title>split_for_duplicates&#45;&gt;remove_duplicate_kegg_genes</title>
<path style="fill:none;stroke:black;" d="M310,419C310,421 310,423 310,425"/>
<polygon style="fill:black;stroke:black;" points="314,425 310,435 307,425 314,425"/>
</g>
<g id="node4" class="node"><title>merge_pathway_ids_2</title>
<polygon style="fill:#ce5fee;stroke:black;" points="387,941 271,941 271,959 387,959 387,941"/>
<text text-anchor="middle" style="font-family:Helvetica;font-size:10.00;" x="329" y="953">merge_pathway_ids_2</text>
</g>
<g id="node79" class="node"><title>WORKFLOWINTERNALSINK_pathway_list</title>
<polygon style="fill:#bcd2ee;stroke:black;" points="388,996 318,996 318,1014 388,1014 388,996"/>
<text text-anchor="middle" style="font-family:Helvetica;font-size:10.00;" x="353" y="1008">pathway_list</text>
</g>
<g id="edge109" class="edge"><title>merge_pathway_ids_2&#45;&gt;WORKFLOWINTERNALSINK_pathway_list</title>
<path style="fill:none;stroke:black;" d="M333,960C336,967 340,977 345,986"/>
<polygon style="fill:black;stroke:black;" points="348,984 349,995 342,987 348,984"/>
</g>
<g id="node5" class="node"><title>merge_gene_desc</title>
<polygon style="fill:#ce5fee;stroke:black;" points="507,905 409,905 409,923 507,923 507,905"/>
<text text-anchor="middle" style="font-family:Helvetica;font-size:10.00;" x="458" y="917">merge_gene_desc</text>
</g>
<g id="node24" class="node"><title>remove_description_nulls</title>
<polygon style="fill:#eec391;stroke:black;" points="519,941 391,941 391,959 519,959 519,941"/>
<text text-anchor="middle" style="font-family:Helvetica;font-size:10.00;" x="455" y="953">remove_description_nulls</text>
</g>
<g id="edge61" class="edge"><title>merge_gene_desc&#45;&gt;remove_description_nulls</title>
<path style="fill:none;stroke:black;" d="M457,924C457,926 457,928 457,930"/>
<polygon style="fill:black;stroke:black;" points="460,930 456,940 454,930 460,930"/>
</g>
<g id="node6" class="node"><title>merge_genes_and_pathways</title>
<polygon style="fill:#ce5fee;stroke:black;" points="175,869 29,869 29,887 175,887 175,869"/>
<text text-anchor="middle" style="font-family:Helvetica;font-size:10.00;" x="102" y="881">merge_genes_and_pathways</text>
</g>
<g id="node17" class="node"><title>merge_genes_pathways_2</title>
<polygon style="fill:#ce5fee;stroke:black;" points="141,905 5,905 5,923 141,923 141,905"/>
<text text-anchor="middle" style="font-family:Helvetica;font-size:10.00;" x="73" y="917">merge_genes_pathways_2</text>
</g>
<g id="edge63" class="edge"><title>merge_genes_and_pathways&#45;&gt;merge_genes_pathways_2</title>
<path style="fill:none;stroke:black;" d="M94,888C92,890 90,893 87,896"/>
<polygon style="fill:black;stroke:black;" points="90,898 81,904 84,894 90,898"/>
</g>
<g id="node7" class="node"><title>regex_2</title>
<polygon style="fill:lightsteelblue;stroke:black;" points="389,40 337,40 337,58 389,58 389,40"/>
<text text-anchor="middle" style="font-family:Helvetica;font-size:10.00;" x="363" y="52">regex_2</text>
</g>
<g id="edge93" class="edge"><title>regex_2&#45;&gt;split_probesets</title>
<path style="fill:none;stroke:black;" d="M389,56C407,60 433,67 455,73"/>
<polygon style="fill:black;stroke:black;" points="456,70 465,75 455,76 456,70"/>
</g>
<g id="edge91" class="edge"><title>regex_2&#45;&gt;split_for_duplicates</title>
<path style="fill:none;stroke:black;" d="M337,53C301,60 242,78 242,121 242,121 242,121 242,337 242,362 264,382 282,394"/>
<polygon style="fill:black;stroke:black;" points="284,391 291,399 281,397 284,391"/>
</g>
<g id="node8" class="node"><title>merge_entrez_genes</title>
<polygon style="fill:#ce5fee;stroke:black;" points="370,184 260,184 260,202 370,202 370,184"/>
<text text-anchor="middle" style="font-family:Helvetica;font-size:10.00;" x="315" y="196">merge_entrez_genes</text>
</g>
<g id="node29" class="node"><title>remove_Nulls</title>
<polygon style="fill:#eec391;stroke:black;" points="353,220 277,220 277,238 353,238 353,220"/>
<text text-anchor="middle" style="font-family:Helvetica;font-size:10.00;" x="315" y="232">remove_Nulls</text>
</g>
<g id="edge59" class="edge"><title>merge_entrez_genes&#45;&gt;remove_Nulls</title>
<path style="fill:none;stroke:black;" d="M315,203C315,205 315,207 315,209"/>
<polygon style="fill:black;stroke:black;" points="319,209 315,219 312,209 319,209"/>
</g>
<g id="node9" class="node"><title>merge_genes_pathways_3</title>
<polygon style="fill:#ce5fee;stroke:black;" points="142,941 6,941 6,959 142,959 142,941"/>
<text text-anchor="middle" style="font-family:Helvetica;font-size:10.00;" x="74" y="953">merge_genes_pathways_3</text>
</g>
<g id="node73" class="node"><title>WORKFLOWINTERNALSINK_merged_pathways</title>
<polygon style="fill:#bcd2ee;stroke:black;" points="198,996 100,996 100,1014 198,1014 198,996"/>
<text text-anchor="middle" style="font-family:Helvetica;font-size:10.00;" x="149" y="1008">merged_pathways</text>
</g>
<g id="edge107" class="edge"><title>merge_genes_pathways_3&#45;&gt;WORKFLOWINTERNALSINK_merged_pathways</title>
<path style="fill:none;stroke:black;" d="M87,960C98,968 115,980 128,989"/>
<polygon style="fill:black;stroke:black;" points="130,986 136,995 126,992 130,986"/>
</g>
<g id="node28" class="node"><title>gene_descriptions</title>
<polygon style="fill:#a3cd5a;stroke:black;" points="495,869 397,869 397,887 495,887 495,869"/>
<text text-anchor="middle" style="font-family:Helvetica;font-size:10.00;" x="446" y="881">gene_descriptions</text>
</g>
<g id="edge99" class="edge"><title>remove_duplicate_kegg_genes&#45;&gt;gene_descriptions</title>
<path style="fill:none;stroke:black;" d="M346,455C351,457 355,460 359,463 395,497 405,515 405,563 405,563 405,563 405,779 405,809 421,841 433,860"/>
<polygon style="fill:black;stroke:black;" points="436,858 439,868 430,862 436,858"/>
</g>
<g id="node47" class="node"><title>Get_PathwaysWORKFLOWINTERNALSOURCE_gene_ids</title>
<polygon style="fill:skyblue;stroke:black;" points="332,518 276,518 276,536 332,536 332,518"/>
<text text-anchor="middle" style="font-family:Helvetica;font-size:10.00;" x="304" y="530">gene_ids</text>
</g>
<g id="edge97" class="edge"><title>remove_duplicate_kegg_genes&#45;&gt;Get_PathwaysWORKFLOWINTERNALSOURCE_gene_ids</title>
<path style="fill:none;stroke:black;" d="M309,455C308,467 307,491 306,507"/>
<polygon style="fill:black;stroke:black;" points="309,507 305,517 303,507 309,507"/>
</g>
<g id="node11" class="node"><title>species</title>
<polygon style="fill:lightsteelblue;stroke:black;" points="756,905 706,905 706,923 756,923 756,905"/>
<text text-anchor="middle" style="font-family:Helvetica;font-size:10.00;" x="731" y="917">species</text>
</g>
<g id="node67" class="node"><title>getcurrentdatabase</title>
<polygon style="fill:lightgoldenrodyellow;stroke:black;" points="782,941 680,941 680,959 782,959 782,941"/>
<text text-anchor="middle" style="font-family:Helvetica;font-size:10.00;" x="731" y="953">getcurrentdatabase</text>
</g>
<g id="edge127" class="edge"><title>species&#45;&gt;getcurrentdatabase</title>
<path style="fill:none;stroke:black;" d="M731,924C731,926 731,928 731,930"/>
<polygon style="fill:black;stroke:black;" points="735,930 731,940 728,930 735,930"/>
</g>
<g id="node12" class="node"><title>remove_pathway_duplicates</title>
<polygon style="fill:#ce5fee;stroke:black;" points="405,905 263,905 263,923 405,923 405,905"/>
<text text-anchor="middle" style="font-family:Helvetica;font-size:10.00;" x="334" y="917">remove_pathway_duplicates</text>
</g>
<g id="edge121" class="edge"><title>remove_pathway_duplicates&#45;&gt;merge_pathway_ids_2</title>
<path style="fill:none;stroke:black;" d="M333,924C333,926 332,928 332,930"/>
<polygon style="fill:black;stroke:black;" points="335,931 330,940 329,930 335,931"/>
</g>
<g id="node13" class="node"><title>kegg_pathway_release</title>
<polygon style="fill:lightsteelblue;stroke:black;" points="688,905 570,905 570,923 688,923 688,905"/>
<text text-anchor="middle" style="font-family:Helvetica;font-size:10.00;" x="629" y="917">kegg_pathway_release</text>
</g>
<g id="node33" class="node"><title>binfo</title>
<polygon style="fill:#a3cd5a;stroke:black;" points="648,941 610,941 610,959 648,959 648,941"/>
<text text-anchor="middle" style="font-family:Helvetica;font-size:10.00;" x="629" y="953">binfo</text>
</g>
<g id="edge57" class="edge"><title>kegg_pathway_release&#45;&gt;binfo</title>
<path style="fill:none;stroke:black;" d="M629,924C629,926 629,928 629,930"/>
<polygon style="fill:black;stroke:black;" points="633,930 629,940 626,930 633,930"/>
</g>
<g id="node14" class="node"><title>remove_uniprot_duplicates</title>
<polygon style="fill:#ce5fee;stroke:black;" points="521,148 385,148 385,166 521,166 521,148"/>
<text text-anchor="middle" style="font-family:Helvetica;font-size:10.00;" x="453" y="160">remove_uniprot_duplicates</text>
</g>
<g id="node20" class="node"><title>merge_uniprot_ids</title>
<polygon style="fill:#ce5fee;stroke:black;" points="488,184 390,184 390,202 488,202 488,184"/>
<text text-anchor="middle" style="font-family:Helvetica;font-size:10.00;" x="439" y="196">merge_uniprot_ids</text>
</g>
<g id="edge125" class="edge"><title>remove_uniprot_duplicates&#45;&gt;merge_uniprot_ids</title>
<path style="fill:none;stroke:black;" d="M449,167C448,169 447,171 447,173"/>
<polygon style="fill:black;stroke:black;" points="450,175 443,183 443,172 450,175"/>
</g>
<g id="node15" class="node"><title>remove_entrez_duplicates</title>
<polygon style="fill:#ce5fee;stroke:black;" points="381,148 249,148 249,166 381,166 381,148"/>
<text text-anchor="middle" style="font-family:Helvetica;font-size:10.00;" x="315" y="160">remove_entrez_duplicates</text>
</g>
<g id="edge119" class="edge"><title>remove_entrez_duplicates&#45;&gt;merge_entrez_genes</title>
<path style="fill:none;stroke:black;" d="M315,167C315,169 315,171 315,173"/>
<polygon style="fill:black;stroke:black;" points="319,173 315,183 312,173 319,173"/>
</g>
<g id="node16" class="node"><title>merge_pathway_desc</title>
<polygon style="fill:#ce5fee;stroke:black;" points="259,905 145,905 145,923 259,923 259,905"/>
<text text-anchor="middle" style="font-family:Helvetica;font-size:10.00;" x="202" y="917">merge_pathway_desc</text>
</g>
<g id="node26" class="node"><title>remove_pathway_nulls</title>
<polygon style="fill:#eec391;stroke:black;" points="265,941 147,941 147,959 265,959 265,941"/>
<text text-anchor="middle" style="font-family:Helvetica;font-size:10.00;" x="206" y="953">remove_pathway_nulls</text>
</g>
<g id="edge67" class="edge"><title>merge_pathway_desc&#45;&gt;remove_pathway_nulls</title>
<path style="fill:none;stroke:black;" d="M203,924C203,926 203,928 203,930"/>
<polygon style="fill:black;stroke:black;" points="206,930 205,940 200,931 206,930"/>
</g>
<g id="edge65" class="edge"><title>merge_genes_pathways_2&#45;&gt;merge_genes_pathways_3</title>
<path style="fill:none;stroke:black;" d="M73,924C73,926 73,928 73,930"/>
<polygon style="fill:black;stroke:black;" points="76,930 74,940 70,930 76,930"/>
</g>
<g id="node18" class="node"><title>merge_pathway_ids_1</title>
<polygon style="fill:#ce5fee;stroke:black;" points="380,869 264,869 264,887 380,887 380,869"/>
<text text-anchor="middle" style="font-family:Helvetica;font-size:10.00;" x="322" y="881">merge_pathway_ids_1</text>
</g>
<g id="edge69" class="edge"><title>merge_pathway_ids_1&#45;&gt;remove_pathway_duplicates</title>
<path style="fill:none;stroke:black;" d="M325,888C326,890 327,892 327,894"/>
<polygon style="fill:black;stroke:black;" points="331,893 331,904 324,896 331,893"/>
</g>
<g id="node19" class="node"><title>merge_reports</title>
<polygon style="fill:#ce5fee;stroke:black;" points="605,941 523,941 523,959 605,959 605,941"/>
<text text-anchor="middle" style="font-family:Helvetica;font-size:10.00;" x="564" y="953">merge_reports</text>
</g>
<g id="node78" class="node"><title>WORKFLOWINTERNALSINK_report</title>
<polygon style="fill:#bcd2ee;stroke:black;" points="536,996 494,996 494,1014 536,1014 536,996"/>
<text text-anchor="middle" style="font-family:Helvetica;font-size:10.00;" x="515" y="1008">report</text>
</g>
<g id="edge111" class="edge"><title>merge_reports&#45;&gt;WORKFLOWINTERNALSINK_report</title>
<path style="fill:none;stroke:black;" d="M548,960C545,962 541,965 538,968 533,974 529,980 525,986"/>
<polygon style="fill:black;stroke:black;" points="528,988 520,995 522,985 528,988"/>
</g>
<g id="node22" class="node"><title>REMOVE_NULLS_2</title>
<polygon style="fill:#eec391;stroke:black;" points="490,220 382,220 382,238 490,238 490,220"/>
<text text-anchor="middle" style="font-family:Helvetica;font-size:10.00;" x="436" y="232">REMOVE_NULLS_2</text>
</g>
<g id="edge71" class="edge"><title>merge_uniprot_ids&#45;&gt;REMOVE_NULLS_2</title>
<path style="fill:none;stroke:black;" d="M438,203C438,205 438,207 438,209"/>
<polygon style="fill:black;stroke:black;" points="441,209 437,219 435,209 441,209"/>
</g>
<g id="node21" class="node"><title>add_ncbi_to_string</title>
<polygon style="fill:#eec391;stroke:black;" points="365,256 265,256 265,274 365,274 365,256"/>
<text text-anchor="middle" style="font-family:Helvetica;font-size:10.00;" x="315" y="268">add_ncbi_to_string</text>
</g>
<g id="node25" class="node"><title>Kegg_gene_ids_2</title>
<polygon style="fill:#a3cd5a;stroke:black;" points="363,292 267,292 267,310 363,310 363,292"/>
<text text-anchor="middle" style="font-family:Helvetica;font-size:10.00;" x="315" y="304">Kegg_gene_ids_2</text>
</g>
<g id="edge47" class="edge"><title>add_ncbi_to_string&#45;&gt;Kegg_gene_ids_2</title>
<path style="fill:none;stroke:black;" d="M315,275C315,277 315,279 315,281"/>
<polygon style="fill:black;stroke:black;" points="319,281 315,291 312,281 319,281"/>
</g>
<g id="node23" class="node"><title>add_uniprot_to_string</title>
<polygon style="fill:#eec391;stroke:black;" points="485,256 373,256 373,274 485,274 485,256"/>
<text text-anchor="middle" style="font-family:Helvetica;font-size:10.00;" x="429" y="268">add_uniprot_to_string</text>
</g>
<g id="edge45" class="edge"><title>REMOVE_NULLS_2&#45;&gt;add_uniprot_to_string</title>
<path style="fill:none;stroke:black;" d="M434,239C434,241 433,243 433,245"/>
<polygon style="fill:black;stroke:black;" points="436,246 431,255 430,245 436,246"/>
</g>
<g id="node32" class="node"><title>Kegg_gene_ids</title>
<polygon style="fill:#a3cd5a;stroke:black;" points="458,292 372,292 372,310 458,310 458,292"/>
<text text-anchor="middle" style="font-family:Helvetica;font-size:10.00;" x="415" y="304">Kegg_gene_ids</text>
</g>
<g id="edge49" class="edge"><title>add_uniprot_to_string&#45;&gt;Kegg_gene_ids</title>
<path style="fill:none;stroke:black;" d="M425,275C424,277 423,279 423,281"/>
<polygon style="fill:black;stroke:black;" points="426,283 419,291 419,280 426,283"/>
</g>
<g id="node74" class="node"><title>WORKFLOWINTERNALSINK_gene_descriptions</title>
<polygon style="fill:#bcd2ee;stroke:black;" points="490,996 392,996 392,1014 490,1014 490,996"/>
<text text-anchor="middle" style="font-family:Helvetica;font-size:10.00;" x="441" y="1008">gene_descriptions</text>
</g>
<g id="edge117" class="edge"><title>remove_description_nulls&#45;&gt;WORKFLOWINTERNALSINK_gene_descriptions</title>
<path style="fill:none;stroke:black;" d="M453,960C451,967 448,977 446,985"/>
<polygon style="fill:black;stroke:black;" points="449,986 444,995 443,985 449,986"/>
</g>
<g id="edge43" class="edge"><title>Kegg_gene_ids_2&#45;&gt;concat_kegg_genes</title>
<path style="fill:none;stroke:black;" d="M315,311C315,313 315,315 315,317"/>
<polygon style="fill:black;stroke:black;" points="319,317 315,327 312,317 319,317"/>
</g>
<g id="node75" class="node"><title>WORKFLOWINTERNALSINK_pathway_descriptions</title>
<polygon style="fill:#bcd2ee;stroke:black;" points="314,996 202,996 202,1014 314,1014 314,996"/>
<text text-anchor="middle" style="font-family:Helvetica;font-size:10.00;" x="258" y="1008">pathway_descriptions</text>
</g>
<g id="edge123" class="edge"><title>remove_pathway_nulls&#45;&gt;WORKFLOWINTERNALSINK_pathway_descriptions</title>
<path style="fill:none;stroke:black;" d="M215,960C223,968 233,978 242,988"/>
<polygon style="fill:black;stroke:black;" points="244,985 249,995 239,990 244,985"/>
</g>
<g id="edge101" class="edge"><title>split_gene_ids&#45;&gt;split_for_duplicates</title>
<path style="fill:none;stroke:black;" d="M311,383C311,385 311,387 311,389"/>
<polygon style="fill:black;stroke:black;" points="315,389 311,399 308,389 315,389"/>
</g>
<g id="edge55" class="edge"><title>gene_descriptions&#45;&gt;merge_gene_desc</title>
<path style="fill:none;stroke:black;" d="M449,888C450,890 451,892 451,894"/>
<polygon style="fill:black;stroke:black;" points="455,893 455,904 448,896 455,893"/>
</g>
<g id="edge95" class="edge"><title>remove_Nulls&#45;&gt;add_ncbi_to_string</title>
<path style="fill:none;stroke:black;" d="M315,239C315,241 315,243 315,245"/>
<polygon style="fill:black;stroke:black;" points="319,245 315,255 312,245 319,245"/>
</g>
<g id="node30" class="node"><title>create_report</title>
<polygon style="fill:#eec391;stroke:black;" points="601,148 525,148 525,166 601,166 601,148"/>
<text text-anchor="middle" style="font-family:Helvetica;font-size:10.00;" x="563" y="160">create_report</text>
</g>
<g id="edge53" class="edge"><title>create_report&#45;&gt;merge_reports</title>
<path style="fill:none;stroke:black;" d="M563,167C563,181 563,207 563,229 563,229 563,229 563,878 563,896 563,916 563,930"/>
<polygon style="fill:black;stroke:black;" points="566,930 564,940 560,930 566,930"/>
</g>
<g id="edge87" class="edge"><title>mmusculus_gene_ensembl&#45;&gt;remove_uniprot_duplicates</title>
<path style="fill:none;stroke:black;" d="M534,131C521,135 506,140 492,144"/>
<polygon style="fill:black;stroke:black;" points="493,147 482,147 491,141 493,147"/>
</g>
<g id="edge83" class="edge"><title>mmusculus_gene_ensembl&#45;&gt;remove_entrez_duplicates</title>
<path style="fill:none;stroke:black;" d="M498,131C467,136 428,141 390,146"/>
<polygon style="fill:black;stroke:black;" points="390,149 380,147 390,143 390,149"/>
</g>
<g id="edge73" class="edge"><title>mmusculus_gene_ensembl&#45;&gt;create_report</title>
<path style="fill:none;stroke:black;" d="M554,131C554,133 553,135 553,137"/>
<polygon style="fill:black;stroke:black;" points="556,137 554,147 550,137 556,137"/>
</g>
<g id="edge75" class="edge"><title>mmusculus_gene_ensembl&#45;&gt;create_report</title>
<path style="fill:none;stroke:black;" d="M556,131C556,133 555,135 555,137"/>
<polygon style="fill:black;stroke:black;" points="558,137 556,147 552,137 558,137"/>
</g>
<g id="edge77" class="edge"><title>mmusculus_gene_ensembl&#45;&gt;create_report</title>
<path style="fill:none;stroke:black;" d="M559,131C559,133 559,135 559,137"/>
<polygon style="fill:black;stroke:black;" points="563,137 559,147 556,137 563,137"/>
</g>
<g id="edge79" class="edge"><title>mmusculus_gene_ensembl&#45;&gt;create_report</title>
<path style="fill:none;stroke:black;" d="M562,131C562,133 562,135 562,137"/>
<polygon style="fill:black;stroke:black;" points="566,137 562,147 559,137 566,137"/>
</g>
<g id="edge81" class="edge"><title>mmusculus_gene_ensembl&#45;&gt;create_report</title>
<path style="fill:none;stroke:black;" d="M564,131C564,133 564,135 564,137"/>
<polygon style="fill:black;stroke:black;" points="568,137 564,147 561,137 568,137"/>
</g>
<g id="edge85" class="edge"><title>mmusculus_gene_ensembl&#45;&gt;create_report</title>
<path style="fill:none;stroke:black;" d="M567,131C567,133 567,135 567,137"/>
<polygon style="fill:black;stroke:black;" points="571,137 567,147 564,137 571,137"/>
</g>
<g id="edge113" class="edge"><title>mmusculus_gene_ensembl&#45;&gt;create_report</title>
<path style="fill:none;stroke:black;" d="M570,131C570,133 571,135 571,137"/>
<polygon style="fill:black;stroke:black;" points="574,137 570,147 568,137 574,137"/>
</g>
<g id="edge115" class="edge"><title>mmusculus_gene_ensembl&#45;&gt;create_report</title>
<path style="fill:none;stroke:black;" d="M572,131C572,133 573,135 573,137"/>
<polygon style="fill:black;stroke:black;" points="576,137 572,147 570,137 576,137"/>
</g>
<g id="edge41" class="edge"><title>Kegg_gene_ids&#45;&gt;concat_kegg_genes</title>
<path style="fill:none;stroke:black;" d="M388,311C377,315 364,319 352,324"/>
<polygon style="fill:black;stroke:black;" points="353,327 342,327 351,321 353,327"/>
</g>
<g id="node77" class="node"><title>WORKFLOWINTERNALSINK_kegg_pathway_release</title>
<polygon style="fill:#bcd2ee;stroke:black;" points="658,996 540,996 540,1014 658,1014 658,996"/>
<text text-anchor="middle" style="font-family:Helvetica;font-size:10.00;" x="599" y="1008">kegg_pathway_release</text>
</g>
<g id="edge103" class="edge"><title>binfo&#45;&gt;WORKFLOWINTERNALSINK_kegg_pathway_release</title>
<path style="fill:none;stroke:black;" d="M624,960C620,967 614,977 609,986"/>
<polygon style="fill:black;stroke:black;" points="612,988 604,995 606,985 612,988"/>
</g>
<g id="node35" class="node"><title>Get_Pathwaysconcat_ids</title>
<polygon style="fill:#eec391;stroke:black;" points="244,698 180,698 180,716 244,716 244,698"/>
<text text-anchor="middle" style="font-family:Helvetica;font-size:10.00;" x="212" y="710">concat_ids</text>
</g>
<g id="node42" class="node"><title>Get_Pathwaysconcat_gene_pathway_ids</title>
<polygon style="fill:#eec391;stroke:black;" points="215,734 81,734 81,752 215,752 215,734"/>
<text text-anchor="middle" style="font-family:Helvetica;font-size:10.00;" x="148" y="746">concat_gene_pathway_ids</text>
</g>
<g id="edge17" class="edge"><title>Get_Pathwaysconcat_ids&#45;&gt;Get_Pathwaysconcat_gene_pathway_ids</title>
<path style="fill:none;stroke:black;" d="M195,717C189,720 181,724 174,728"/>
<polygon style="fill:black;stroke:black;" points="175,731 165,733 172,725 175,731"/>
</g>
<g id="node36" class="node"><title>Get_Pathwaysregex</title>
<polygon style="fill:lightsteelblue;stroke:black;" points="260,518 220,518 220,536 260,536 260,518"/>
<text text-anchor="middle" style="font-family:Helvetica;font-size:10.00;" x="240" y="530">regex</text>
</g>
<g id="node43" class="node"><title>Get_Pathwayssplit_by_regex</title>
<polygon style="fill:#ce5fee;stroke:black;" points="281,554 201,554 201,572 281,572 281,554"/>
<text text-anchor="middle" style="font-family:Helvetica;font-size:10.00;" x="241" y="566">split_by_regex</text>
</g>
<g id="edge29" class="edge"><title>Get_Pathwaysregex&#45;&gt;Get_Pathwayssplit_by_regex</title>
<path style="fill:none;stroke:black;" d="M240,537C240,539 240,541 240,543"/>
<polygon style="fill:black;stroke:black;" points="243,543 241,553 237,543 243,543"/>
</g>
<g id="node37" class="node"><title>Get_PathwaysMerge_pathway_desc</title>
<polygon style="fill:#ce5fee;stroke:black;" points="316,770 202,770 202,788 316,788 316,770"/>
<text text-anchor="middle" style="font-family:Helvetica;font-size:10.00;" x="259" y="782">Merge_pathway_desc</text>
</g>
<g id="node51" class="node"><title>Get_PathwaysWORKFLOWINTERNALSINK_pathway_desc</title>
<polygon style="fill:#bcd2ee;stroke:black;" points="256,825 176,825 176,843 256,843 256,825"/>
<text text-anchor="middle" style="font-family:Helvetica;font-size:10.00;" x="216" y="837">pathway_desc</text>
</g>
<g id="edge7" class="edge"><title>Get_PathwaysMerge_pathway_desc&#45;&gt;Get_PathwaysWORKFLOWINTERNALSINK_pathway_desc</title>
<path style="fill:none;stroke:black;" d="M252,789C246,797 237,807 230,816"/>
<polygon style="fill:black;stroke:black;" points="232,819 223,824 227,814 232,819"/>
</g>
<g id="node38" class="node"><title>Get_Pathwayspathway_desc</title>
<polygon style="fill:#a3cd5a;stroke:black;" points="299,734 219,734 219,752 299,752 299,734"/>
<text text-anchor="middle" style="font-family:Helvetica;font-size:10.00;" x="259" y="746">pathway_desc</text>
</g>
<g id="edge27" class="edge"><title>Get_Pathwayspathway_desc&#45;&gt;Get_PathwaysMerge_pathway_desc</title>
<path style="fill:none;stroke:black;" d="M259,753C259,755 259,757 259,759"/>
<polygon style="fill:black;stroke:black;" points="263,759 259,769 256,759 263,759"/>
</g>
<g id="node39" class="node"><title>Get_Pathwayslister</title>
<polygon style="fill:#a3cd5a;stroke:black;" points="260,590 222,590 222,608 260,608 260,590"/>
<text text-anchor="middle" style="font-family:Helvetica;font-size:10.00;" x="241" y="602">lister</text>
</g>
<g id="edge23" class="edge"><title>Get_Pathwayslister&#45;&gt;Get_Pathwaysconcat_gene_pathway_ids</title>
<path style="fill:none;stroke:black;" d="M222,602C207,605 187,612 175,625 152,653 148,698 147,723"/>
<polygon style="fill:black;stroke:black;" points="151,723 147,733 144,723 151,723"/>
</g>
<g id="node44" class="node"><title>Get_Pathwaysget_pathways_by_genes1</title>
<polygon style="fill:#a3cd5a;stroke:black;" points="309,626 177,626 177,644 309,644 309,626"/>
<text text-anchor="middle" style="font-family:Helvetica;font-size:10.00;" x="243" y="638">get_pathways_by_genes1</text>
</g>
<g id="edge25" class="edge"><title>Get_Pathwayslister&#45;&gt;Get_Pathwaysget_pathways_by_genes1</title>
<path style="fill:none;stroke:black;" d="M242,609C242,611 242,613 242,615"/>
<polygon style="fill:black;stroke:black;" points="246,615 242,625 239,615 246,615"/>
</g>
<g id="node40" class="node"><title>Get_PathwaysMerge_gene_pathways</title>
<polygon style="fill:#ce5fee;stroke:black;" points="198,770 78,770 78,788 198,788 198,770"/>
<text text-anchor="middle" style="font-family:Helvetica;font-size:10.00;" x="138" y="782">Merge_gene_pathways</text>
</g>
<g id="node50" class="node"><title>Get_PathwaysWORKFLOWINTERNALSINK_pathway_genes</title>
<polygon style="fill:#bcd2ee;stroke:black;" points="172,825 86,825 86,843 172,843 172,825"/>
<text text-anchor="middle" style="font-family:Helvetica;font-size:10.00;" x="129" y="837">pathway_genes</text>
</g>
<g id="edge5" class="edge"><title>Get_PathwaysMerge_gene_pathways&#45;&gt;Get_PathwaysWORKFLOWINTERNALSINK_pathway_genes</title>
<path style="fill:none;stroke:black;" d="M136,789C135,796 134,806 132,814"/>
<polygon style="fill:black;stroke:black;" points="135,814 131,824 129,814 135,814"/>
</g>
<g id="node41" class="node"><title>Get_PathwaysMerge_pathways</title>
<polygon style="fill:#ce5fee;stroke:black;" points="290,662 198,662 198,680 290,680 290,662"/>
<text text-anchor="middle" style="font-family:Helvetica;font-size:10.00;" x="244" y="674">Merge_pathways</text>
</g>
<g id="edge9" class="edge"><title>Get_PathwaysMerge_pathways&#45;&gt;Get_Pathwaysconcat_ids</title>
<path style="fill:none;stroke:black;" d="M235,681C233,684 230,686 228,689"/>
<polygon style="fill:black;stroke:black;" points="230,692 221,697 225,687 230,692"/>
</g>
<g id="edge11" class="edge"><title>Get_PathwaysMerge_pathways&#45;&gt;Get_Pathwayspathway_desc</title>
<path style="fill:none;stroke:black;" d="M246,681C248,691 252,709 255,723"/>
<polygon style="fill:black;stroke:black;" points="258,723 257,733 252,724 258,723"/>
</g>
<g id="node52" class="node"><title>Get_PathwaysWORKFLOWINTERNALSINK_pathway_ids</title>
<polygon style="fill:#bcd2ee;stroke:black;" points="332,825 260,825 260,843 332,843 332,825"/>
<text text-anchor="middle" style="font-family:Helvetica;font-size:10.00;" x="296" y="837">pathway_ids</text>
</g>
<g id="edge13" class="edge"><title>Get_PathwaysMerge_pathways&#45;&gt;Get_PathwaysWORKFLOWINTERNALSINK_pathway_ids</title>
<path style="fill:none;stroke:black;" d="M255,681C267,692 288,713 301,733 311,748 315,752 318,769 320,778 321,781 318,789 316,798 312,807 307,815"/>
<polygon style="fill:black;stroke:black;" points="310,817 302,824 304,814 310,817"/>
</g>
<g id="edge15" class="edge"><title>Get_Pathwaysconcat_gene_pathway_ids&#45;&gt;Get_PathwaysMerge_gene_pathways</title>
<path style="fill:none;stroke:black;" d="M145,753C145,755 144,757 143,759"/>
<polygon style="fill:black;stroke:black;" points="146,760 141,769 140,759 146,760"/>
</g>
<g id="edge31" class="edge"><title>Get_Pathwayssplit_by_regex&#45;&gt;Get_Pathwayslister</title>
<path style="fill:none;stroke:black;" d="M241,573C241,575 241,577 241,579"/>
<polygon style="fill:black;stroke:black;" points="245,579 241,589 238,579 245,579"/>
</g>
<g id="edge21" class="edge"><title>Get_Pathwaysget_pathways_by_genes1&#45;&gt;Get_PathwaysMerge_pathways</title>
<path style="fill:none;stroke:black;" d="M243,645C243,647 243,649 243,651"/>
<polygon style="fill:black;stroke:black;" points="246,651 244,661 240,651 246,651"/>
</g>
<g id="node46" class="node"><title>Get_PathwaysWORKFLOWINTERNALSOURCECONTROL</title>
<polygon style="fill:#ff3f3f;stroke:black;" points="343,520 336,530 350,530 343,520"/>
</g>
<g id="edge19" class="edge"><title>Get_PathwaysWORKFLOWINTERNALSOURCE_gene_ids&#45;&gt;Get_Pathwayssplit_by_regex</title>
<path style="fill:none;stroke:black;" d="M291,537C286,540 281,543 276,545 270,548 265,548 260,549"/>
<polygon style="fill:black;stroke:black;" points="262,552 251,553 259,546 262,552"/>
</g>
<g id="node49" class="node"><title>Get_PathwaysWORKFLOWINTERNALSINKCONTROL</title>
<polygon style="fill:#6acd00;stroke:black;" points="343,841 350,831 336,831 343,841"/>
</g>
<g id="edge37" class="edge"><title>Get_PathwaysWORKFLOWINTERNALSINK_pathway_genes&#45;&gt;merge_genes_and_pathways</title>
<path style="fill:none;stroke:black;" d="M123,844C120,848 116,854 113,859"/>
<polygon style="fill:black;stroke:black;" points="116,861 108,868 110,858 116,861"/>
</g>
<g id="edge35" class="edge"><title>Get_PathwaysWORKFLOWINTERNALSINK_pathway_desc&#45;&gt;merge_pathway_desc</title>
<path style="fill:none;stroke:black;" d="M214,844C212,856 209,878 206,894"/>
<polygon style="fill:black;stroke:black;" points="209,895 204,904 203,894 209,895"/>
</g>
<g id="edge39" class="edge"><title>Get_PathwaysWORKFLOWINTERNALSINK_pathway_ids&#45;&gt;merge_pathway_ids_1</title>
<path style="fill:none;stroke:black;" d="M302,844C304,848 308,854 311,859"/>
<polygon style="fill:black;stroke:black;" points="314,858 316,868 308,861 314,858"/>
</g>
<g id="node76" class="node"><title>WORKFLOWINTERNALSINK_ensembl_database_release</title>
<polygon style="fill:#bcd2ee;stroke:black;" points="800,996 662,996 662,1014 800,1014 800,996"/>
<text text-anchor="middle" style="font-family:Helvetica;font-size:10.00;" x="731" y="1008">ensembl_database_release</text>
</g>
<g id="edge105" class="edge"><title>getcurrentdatabase&#45;&gt;WORKFLOWINTERNALSINK_ensembl_database_release</title>
<path style="fill:none;stroke:black;" d="M731,960C731,967 731,976 731,985"/>
<polygon style="fill:black;stroke:black;" points="735,985 731,995 728,985 735,985"/>
</g>
<g id="node69" class="node"><title>WORKFLOWINTERNALSOURCECONTROL</title>
<polygon style="fill:#ff3f3f;stroke:black;" points="549,42 542,52 556,52 549,42"/>
</g>
<g id="node70" class="node"><title>WORKFLOWINTERNALSOURCE_probeset_list</title>
<polygon style="fill:skyblue;stroke:black;" points="538,40 466,40 466,58 538,58 538,40"/>
<text text-anchor="middle" style="font-family:Helvetica;font-size:10.00;" x="502" y="52">probeset_list</text>
</g>
<g id="edge89" class="edge"><title>WORKFLOWINTERNALSOURCE_probeset_list&#45;&gt;split_probesets</title>
<path style="fill:none;stroke:black;" d="M502,59C502,61 502,63 502,65"/>
<polygon style="fill:black;stroke:black;" points="506,65 502,75 499,65 506,65"/>
</g>
<g id="node72" class="node"><title>WORKFLOWINTERNALSINKCONTROL</title>
<polygon style="fill:#6acd00;stroke:black;" points="811,1012 818,1002 804,1002 811,1012"/>
</g>
</g>
</svg>
