<?xml version="1.0" encoding="UTF-8" standalone="no"?>
<!DOCTYPE svg PUBLIC "-//W3C//DTD SVG 1.0//EN"
 "http://www.w3.org/TR/2001/REC-SVG-20010904/DTD/svg10.dtd">
<!-- Generated by dot version 2.2 (Fri Mar 11 00:51:40 UTC 2005)
     For user: (root) root   Title: scufl_graph    Pages: 1 -->
<svg width="135pt" height="183pt"
 viewBox = "-1 -1 134 182"
 xmlns="http://www.w3.org/2000/svg">
<g id="graph0" class="graph" style="font-family:Times-Roman;font-size:14.00;">
<title>scufl_graph</title>
<g id="graph2" class="cluster"><title>cluster_sinks</title>
<polygon style="fill:none;stroke:black;stroke-dasharray:1,5;" points="24,159 120,159 120,104 24,104 24,159"/>
<text text-anchor="middle" style="font-family:Helvetica;font-size:10.00;" x="72" y="116">Workflow Outputs</text>
</g>
<g id="node1" class="node"><title>DailyDilbertImagePath</title>
<polygon style="fill:#a3cd5a;stroke:black;" points="121,5 5,5 5,23 121,23 121,5"/>
<text text-anchor="middle" style="font-family:Helvetica;font-size:10.00;" x="63" y="17">DailyDilbertImagePath</text>
</g>
<g id="node2" class="node"><title>parametersXML</title>
<polygon style="fill:#ce5fee;stroke:black;" points="107,41 19,41 19,59 107,59 107,41"/>
<text text-anchor="middle" style="font-family:Helvetica;font-size:10.00;" x="63" y="53">parametersXML</text>
</g>
<g id="edge3" class="edge"><title>DailyDilbertImagePath&#45;&gt;parametersXML</title>
<path style="fill:none;stroke:black;" d="M63,24C63,26 63,28 63,30"/>
<polygon style="fill:black;stroke:black;" points="67,30 63,40 60,30 67,30"/>
</g>
<g id="node3" class="node"><title>GetImage</title>
<polygon style="fill:#ce5fee;stroke:black;" points="93,77 33,77 33,95 93,95 93,77"/>
<text text-anchor="middle" style="font-family:Helvetica;font-size:10.00;" x="63" y="89">GetImage</text>
</g>
<g id="edge7" class="edge"><title>parametersXML&#45;&gt;GetImage</title>
<path style="fill:none;stroke:black;" d="M63,60C63,62 63,64 63,66"/>
<polygon style="fill:black;stroke:black;" points="67,66 63,76 60,66 67,66"/>
</g>
<g id="node6" class="node"><title>WORKFLOWINTERNALSINK_image</title>
<polygon style="fill:#bcd2ee;stroke:black;" points="85,132 41,132 41,150 85,150 85,132"/>
<text text-anchor="middle" style="font-family:Helvetica;font-size:10.00;" x="63" y="144">image</text>
</g>
<g id="edge5" class="edge"><title>GetImage&#45;&gt;WORKFLOWINTERNALSINK_image</title>
<path style="fill:none;stroke:black;" d="M63,96C63,103 63,112 63,121"/>
<polygon style="fill:black;stroke:black;" points="67,121 63,131 60,121 67,121"/>
</g>
<g id="node5" class="node"><title>WORKFLOWINTERNALSINKCONTROL</title>
<polygon style="fill:#6acd00;stroke:black;" points="100,148 107,138 93,138 100,148"/>
</g>
</g>
</svg>
