<?xml version="1.0" encoding="UTF-8" standalone="no"?>
<!DOCTYPE svg PUBLIC "-//W3C//DTD SVG 1.0//EN"
 "http://www.w3.org/TR/2001/REC-SVG-20010904/DTD/svg10.dtd">
<!-- Generated by dot version 2.2 (Fri Mar 11 00:51:40 UTC 2005)
     For user: (root) root   Title: scufl_graph    Pages: 1 -->
<svg width="142pt" height="182pt"
 viewBox = "-1 -1 141 181"
 xmlns="http://www.w3.org/2000/svg">
<g id="graph0" class="graph" style="font-family:Times-Roman;font-size:14.00;">
<title>scufl_graph</title>
<g id="graph2" class="cluster"><title>cluster_sources</title>
<polygon style="fill:none;stroke:black;stroke-dasharray:1,5;" points="19,67 121,67 121,12 19,12 19,67"/>
<text text-anchor="middle" style="font-family:Helvetica;font-size:10.00;" x="63" y="24">Workflow Inputs</text>
</g>
<g id="graph3" class="cluster"><title>cluster_sinks</title>
<polygon style="fill:none;stroke:black;stroke-dasharray:1,5;" points="13,158 127,158 127,103 13,103 13,158"/>
<text text-anchor="middle" style="font-family:Helvetica;font-size:10.00;" x="61" y="115">Workflow Outputs</text>
</g>
<g id="node1" class="node"><title>remove_Nulls</title>
<polygon style="fill:#eec391;stroke:black;" points="99,76 23,76 23,94 99,94 99,76"/>
<text text-anchor="middle" style="font-family:Helvetica;font-size:10.00;" x="61" y="88">remove_Nulls</text>
</g>
<g id="node7" class="node"><title>WORKFLOWINTERNALSINK_removed_nulls</title>
<polygon style="fill:#bcd2ee;stroke:black;" points="101,131 21,131 21,149 101,149 101,131"/>
<text text-anchor="middle" style="font-family:Helvetica;font-size:10.00;" x="61" y="143">removed_nulls</text>
</g>
<g id="edge6" class="edge"><title>remove_Nulls&#45;&gt;WORKFLOWINTERNALSINK_removed_nulls</title>
<path style="fill:none;stroke:black;" d="M61,95C61,102 61,111 61,120"/>
<polygon style="fill:black;stroke:black;" points="65,120 61,130 58,120 65,120"/>
</g>
<g id="node3" class="node"><title>WORKFLOWINTERNALSOURCECONTROL</title>
<polygon style="fill:#ff3f3f;stroke:black;" points="106,42 99,52 113,52 106,42"/>
</g>
<g id="node4" class="node"><title>WORKFLOWINTERNALSOURCE_input_string</title>
<polygon style="fill:skyblue;stroke:black;" points="95,40 27,40 27,58 95,58 95,40"/>
<text text-anchor="middle" style="font-family:Helvetica;font-size:10.00;" x="61" y="52">input_string</text>
</g>
<g id="edge4" class="edge"><title>WORKFLOWINTERNALSOURCE_input_string&#45;&gt;remove_Nulls</title>
<path style="fill:none;stroke:black;" d="M61,59C61,61 61,63 61,65"/>
<polygon style="fill:black;stroke:black;" points="65,65 61,75 58,65 65,65"/>
</g>
<g id="node6" class="node"><title>WORKFLOWINTERNALSINKCONTROL</title>
<polygon style="fill:#6acd00;stroke:black;" points="112,147 119,137 105,137 112,147"/>
</g>
</g>
</svg>
