<?xml version="1.0" encoding="UTF-8" standalone="no"?>
<!DOCTYPE svg PUBLIC "-//W3C//DTD SVG 1.0//EN"
 "http://www.w3.org/TR/2001/REC-SVG-20010904/DTD/svg10.dtd">
<!-- Generated by dot version 2.2 (Fri Mar 11 00:51:40 UTC 2005)
     For user: (root) root   Title: scufl_graph    Pages: 1 -->
<svg width="226pt" height="362pt"
 viewBox = "-1 -1 225 361"
 xmlns="http://www.w3.org/2000/svg">
<g id="graph0" class="graph" style="font-family:Times-Roman;font-size:14.00;">
<title>scufl_graph</title>
<g id="graph2" class="cluster"><title>cluster_sources</title>
<polygon style="fill:none;stroke:black;stroke-dasharray:1,5;" points="13,67 211,67 211,12 13,12 13,67"/>
<text text-anchor="middle" style="font-family:Helvetica;font-size:10.00;" x="57" y="24">Workflow Inputs</text>
</g>
<g id="graph3" class="cluster"><title>cluster_sinks</title>
<polygon style="fill:none;stroke:black;stroke-dasharray:1,5;" points="46,338 176,338 176,283 46,283 46,338"/>
<text text-anchor="middle" style="font-family:Helvetica;font-size:10.00;" x="94" y="295">Workflow Outputs</text>
</g>
<g id="node1" class="node"><title>parametersXML3</title>
<polygon style="fill:#ce5fee;stroke:black;" points="148,256 56,256 56,274 148,274 148,256"/>
<text text-anchor="middle" style="font-family:Helvetica;font-size:10.00;" x="102" y="268">parametersXML3</text>
</g>
<g id="node13" class="node"><title>WORKFLOWINTERNALSINK_CompoundDetails</title>
<polygon style="fill:#bcd2ee;stroke:black;" points="150,311 54,311 54,329 150,329 150,311"/>
<text text-anchor="middle" style="font-family:Helvetica;font-size:10.00;" x="102" y="323">CompoundDetails</text>
</g>
<g id="edge16" class="edge"><title>parametersXML3&#45;&gt;WORKFLOWINTERNALSINK_CompoundDetails</title>
<path style="fill:none;stroke:black;" d="M102,275C102,282 102,291 102,300"/>
<polygon style="fill:black;stroke:black;" points="106,300 102,310 99,300 106,300"/>
</g>
<g id="node2" class="node"><title>parametersXML1</title>
<polygon style="fill:#ce5fee;stroke:black;" points="148,148 56,148 56,166 148,166 148,148"/>
<text text-anchor="middle" style="font-family:Helvetica;font-size:10.00;" x="102" y="160">parametersXML1</text>
</g>
<g id="node3" class="node"><title>parametersXML2</title>
<polygon style="fill:#ce5fee;stroke:black;" points="148,184 56,184 56,202 148,202 148,184"/>
<text text-anchor="middle" style="font-family:Helvetica;font-size:10.00;" x="102" y="196">parametersXML2</text>
</g>
<g id="edge12" class="edge"><title>parametersXML1&#45;&gt;parametersXML2</title>
<path style="fill:none;stroke:black;" d="M102,167C102,169 102,171 102,173"/>
<polygon style="fill:black;stroke:black;" points="106,173 102,183 99,173 106,173"/>
</g>
<g id="node5" class="node"><title>GetCompoundDetails</title>
<polygon style="fill:#a3cd5a;stroke:black;" points="158,220 46,220 46,238 158,238 158,220"/>
<text text-anchor="middle" style="font-family:Helvetica;font-size:10.00;" x="102" y="232">GetCompoundDetails</text>
</g>
<g id="edge14" class="edge"><title>parametersXML2&#45;&gt;GetCompoundDetails</title>
<path style="fill:none;stroke:black;" d="M102,203C102,205 102,207 102,209"/>
<polygon style="fill:black;stroke:black;" points="106,209 102,219 99,209 106,209"/>
</g>
<g id="node4" class="node"><title>parametersXML</title>
<polygon style="fill:#ce5fee;stroke:black;" points="146,76 58,76 58,94 146,94 146,76"/>
<text text-anchor="middle" style="font-family:Helvetica;font-size:10.00;" x="102" y="88">parametersXML</text>
</g>
<g id="node6" class="node"><title>SearchByMass</title>
<polygon style="fill:#a3cd5a;stroke:black;" points="144,112 60,112 60,130 144,130 144,112"/>
<text text-anchor="middle" style="font-family:Helvetica;font-size:10.00;" x="102" y="124">SearchByMass</text>
</g>
<g id="edge18" class="edge"><title>parametersXML&#45;&gt;SearchByMass</title>
<path style="fill:none;stroke:black;" d="M102,95C102,97 102,99 102,101"/>
<polygon style="fill:black;stroke:black;" points="106,101 102,111 99,101 106,101"/>
</g>
<g id="edge6" class="edge"><title>GetCompoundDetails&#45;&gt;parametersXML3</title>
<path style="fill:none;stroke:black;" d="M102,239C102,241 102,243 102,245"/>
<polygon style="fill:black;stroke:black;" points="106,245 102,255 99,245 106,245"/>
</g>
<g id="edge10" class="edge"><title>SearchByMass&#45;&gt;parametersXML1</title>
<path style="fill:none;stroke:black;" d="M102,131C102,133 102,135 102,137"/>
<polygon style="fill:black;stroke:black;" points="106,137 102,147 99,137 106,137"/>
</g>
<g id="node8" class="node"><title>WORKFLOWINTERNALSOURCECONTROL</title>
<polygon style="fill:#ff3f3f;stroke:black;" points="196,42 189,52 203,52 196,42"/>
</g>
<g id="node9" class="node"><title>WORKFLOWINTERNALSOURCE_Mass_Range</title>
<polygon style="fill:skyblue;stroke:black;" points="185,40 111,40 111,58 185,58 185,40"/>
<text text-anchor="middle" style="font-family:Helvetica;font-size:10.00;" x="148" y="52">Mass_Range</text>
</g>
<g id="edge8" class="edge"><title>WORKFLOWINTERNALSOURCE_Mass_Range&#45;&gt;parametersXML</title>
<path style="fill:none;stroke:black;" d="M135,59C131,62 127,66 122,69"/>
<polygon style="fill:black;stroke:black;" points="124,72 114,75 120,66 124,72"/>
</g>
<g id="node10" class="node"><title>WORKFLOWINTERNALSOURCE_Accurate_Mass</title>
<polygon style="fill:skyblue;stroke:black;" points="107,40 21,40 21,58 107,58 107,40"/>
<text text-anchor="middle" style="font-family:Helvetica;font-size:10.00;" x="64" y="52">Accurate_Mass</text>
</g>
<g id="edge4" class="edge"><title>WORKFLOWINTERNALSOURCE_Accurate_Mass&#45;&gt;parametersXML</title>
<path style="fill:none;stroke:black;" d="M74,59C77,62 81,65 85,68"/>
<polygon style="fill:black;stroke:black;" points="87,65 92,75 82,70 87,65"/>
</g>
<g id="node12" class="node"><title>WORKFLOWINTERNALSINKCONTROL</title>
<polygon style="fill:#6acd00;stroke:black;" points="161,327 168,317 154,317 161,327"/>
</g>
</g>
</svg>
