<?xml version="1.0" encoding="UTF-8" standalone="no"?>
<!DOCTYPE svg PUBLIC "-//W3C//DTD SVG 1.0//EN"
 "http://www.w3.org/TR/2001/REC-SVG-20010904/DTD/svg10.dtd">
<!-- Generated by dot version 2.2 (Fri Mar 11 00:51:40 UTC 2005)
     For user: (root) root   Title: scufl_graph    Pages: 1 -->
<svg width="219pt" height="219pt"
 viewBox = "-1 -1 218 218"
 xmlns="http://www.w3.org/2000/svg">
<g id="graph0" class="graph" style="font-family:Times-Roman;font-size:14.00;">
<title>scufl_graph</title>
<g id="graph2" class="cluster"><title>cluster_sinks</title>
<polygon style="fill:none;stroke:black;stroke-dasharray:1,5;" points="101,195 197,195 197,140 101,140 101,195"/>
<text text-anchor="middle" style="font-family:Helvetica;font-size:10.00;" x="149" y="152">Workflow Outputs</text>
</g>
<g id="node1" class="node"><title>Colours</title>
<polygon style="fill:lightsteelblue;stroke:black;" points="63,5 13,5 13,23 63,23 63,5"/>
<text text-anchor="middle" style="font-family:Helvetica;font-size:10.00;" x="38" y="17">Colours</text>
</g>
<g id="node6" class="node"><title>ColoursList</title>
<polygon style="fill:#ce5fee;stroke:black;" points="71,41 5,41 5,59 71,59 71,41"/>
<text text-anchor="middle" style="font-family:Helvetica;font-size:10.00;" x="38" y="53">ColoursList</text>
</g>
<g id="edge7" class="edge"><title>Colours&#45;&gt;ColoursList</title>
<path style="fill:none;stroke:black;" d="M38,24C38,26 38,28 38,30"/>
<polygon style="fill:black;stroke:black;" points="42,30 38,40 35,30 42,30"/>
</g>
<g id="node2" class="node"><title>ShapeAnimals</title>
<polygon style="fill:#ce5fee;stroke:black;" points="180,113 100,113 100,131 180,131 180,113"/>
<text text-anchor="middle" style="font-family:Helvetica;font-size:10.00;" x="140" y="125">ShapeAnimals</text>
</g>
<g id="node11" class="node"><title>WORKFLOWINTERNALSINK_Output</title>
<polygon style="fill:#bcd2ee;stroke:black;" points="163,168 117,168 117,186 163,186 163,168"/>
<text text-anchor="middle" style="font-family:Helvetica;font-size:10.00;" x="140" y="180">Output</text>
</g>
<g id="edge17" class="edge"><title>ShapeAnimals&#45;&gt;WORKFLOWINTERNALSINK_Output</title>
<path style="fill:none;stroke:black;" d="M140,132C140,139 140,148 140,157"/>
<polygon style="fill:black;stroke:black;" points="144,157 140,167 137,157 144,157"/>
</g>
<g id="node3" class="node"><title>ColourAnimals</title>
<polygon style="fill:#ce5fee;stroke:black;" points="142,77 62,77 62,95 142,95 142,77"/>
<text text-anchor="middle" style="font-family:Helvetica;font-size:10.00;" x="102" y="89">ColourAnimals</text>
</g>
<g id="edge13" class="edge"><title>ColourAnimals&#45;&gt;ShapeAnimals</title>
<path style="fill:none;stroke:black;" d="M112,96C115,99 119,102 123,105"/>
<polygon style="fill:black;stroke:black;" points="125,102 130,112 120,107 125,102"/>
</g>
<g id="node4" class="node"><title>ShapesList</title>
<polygon style="fill:#ce5fee;stroke:black;" points="212,77 146,77 146,95 212,95 212,77"/>
<text text-anchor="middle" style="font-family:Helvetica;font-size:10.00;" x="179" y="89">ShapesList</text>
</g>
<g id="edge15" class="edge"><title>ShapesList&#45;&gt;ShapeAnimals</title>
<path style="fill:none;stroke:black;" d="M168,96C165,99 162,102 158,105"/>
<polygon style="fill:black;stroke:black;" points="160,108 150,112 155,103 160,108"/>
</g>
<g id="node5" class="node"><title>AnimalsList</title>
<polygon style="fill:#ce5fee;stroke:black;" points="143,41 75,41 75,59 143,59 143,41"/>
<text text-anchor="middle" style="font-family:Helvetica;font-size:10.00;" x="109" y="53">AnimalsList</text>
</g>
<g id="edge11" class="edge"><title>AnimalsList&#45;&gt;ColourAnimals</title>
<path style="fill:none;stroke:black;" d="M107,60C107,62 106,64 106,66"/>
<polygon style="fill:black;stroke:black;" points="109,67 104,76 103,66 109,67"/>
</g>
<g id="edge9" class="edge"><title>ColoursList&#45;&gt;ColourAnimals</title>
<path style="fill:none;stroke:black;" d="M55,60C61,63 69,67 76,71"/>
<polygon style="fill:black;stroke:black;" points="78,68 85,76 75,74 78,68"/>
</g>
<g id="node7" class="node"><title>Shapes</title>
<polygon style="fill:lightsteelblue;stroke:black;" points="204,41 154,41 154,59 204,59 204,41"/>
<text text-anchor="middle" style="font-family:Helvetica;font-size:10.00;" x="179" y="53">Shapes</text>
</g>
<g id="edge3" class="edge"><title>Shapes&#45;&gt;ShapesList</title>
<path style="fill:none;stroke:black;" d="M179,60C179,62 179,64 179,66"/>
<polygon style="fill:black;stroke:black;" points="183,66 179,76 176,66 183,66"/>
</g>
<g id="node8" class="node"><title>Animals</title>
<polygon style="fill:lightsteelblue;stroke:black;" points="135,5 83,5 83,23 135,23 135,5"/>
<text text-anchor="middle" style="font-family:Helvetica;font-size:10.00;" x="109" y="17">Animals</text>
</g>
<g id="edge5" class="edge"><title>Animals&#45;&gt;AnimalsList</title>
<path style="fill:none;stroke:black;" d="M109,24C109,26 109,28 109,30"/>
<polygon style="fill:black;stroke:black;" points="113,30 109,40 106,30 113,30"/>
</g>
<g id="node10" class="node"><title>WORKFLOWINTERNALSINKCONTROL</title>
<polygon style="fill:#6acd00;stroke:black;" points="178,184 185,174 171,174 178,184"/>
</g>
</g>
</svg>
