<?xml version="1.0" encoding="UTF-8" standalone="no"?>
<!DOCTYPE svg PUBLIC "-//W3C//DTD SVG 1.0//EN"
 "http://www.w3.org/TR/2001/REC-SVG-20010904/DTD/svg10.dtd">
<!-- Generated by dot version 2.2 (Fri Mar 11 00:51:40 UTC 2005)
     For user: (root) root   Title: scufl_graph    Pages: 1 -->
<svg width="145pt" height="326pt"
 viewBox = "-1 -1 144 325"
 xmlns="http://www.w3.org/2000/svg">
<g id="graph0" class="graph" style="font-family:Times-Roman;font-size:14.00;">
<title>scufl_graph</title>
<g id="graph2" class="cluster"><title>cluster_sources</title>
<polygon style="fill:none;stroke:black;stroke-dasharray:1,5;" points="37,67 126,67 126,12 37,12 37,67"/>
<text text-anchor="middle" style="font-family:Helvetica;font-size:10.00;" x="81" y="24">Workflow Inputs</text>
</g>
<g id="graph3" class="cluster"><title>cluster_sinks</title>
<polygon style="fill:none;stroke:black;stroke-dasharray:1,5;" points="34,302 130,302 130,247 34,247 34,302"/>
<text text-anchor="middle" style="font-family:Helvetica;font-size:10.00;" x="82" y="259">Workflow Outputs</text>
</g>
<g id="node1" class="node"><title>returnXML</title>
<polygon style="fill:#ce5fee;stroke:black;" points="100,184 38,184 38,202 100,202 100,184"/>
<text text-anchor="middle" style="font-family:Helvetica;font-size:10.00;" x="69" y="196">returnXML</text>
</g>
<g id="node5" class="node"><title>Beanshell_scripting_host</title>
<polygon style="fill:#eec391;stroke:black;" points="133,220 5,220 5,238 133,238 133,220"/>
<text text-anchor="middle" style="font-family:Helvetica;font-size:10.00;" x="69" y="232">Beanshell_scripting_host</text>
</g>
<g id="edge14" class="edge"><title>returnXML&#45;&gt;Beanshell_scripting_host</title>
<path style="fill:none;stroke:black;" d="M64,203C64,205 63,207 63,209"/>
<polygon style="fill:black;stroke:black;" points="66,209 64,219 60,209 66,209"/>
</g>
<g id="edge16" class="edge"><title>returnXML&#45;&gt;Beanshell_scripting_host</title>
<path style="fill:none;stroke:black;" d="M66,203C66,205 66,207 66,209"/>
<polygon style="fill:black;stroke:black;" points="70,209 66,219 63,209 70,209"/>
</g>
<g id="edge18" class="edge"><title>returnXML&#45;&gt;Beanshell_scripting_host</title>
<path style="fill:none;stroke:black;" d="M69,203C69,205 69,207 69,209"/>
<polygon style="fill:black;stroke:black;" points="73,209 69,219 66,209 73,209"/>
</g>
<g id="edge20" class="edge"><title>returnXML&#45;&gt;Beanshell_scripting_host</title>
<path style="fill:none;stroke:black;" d="M72,203C72,205 72,207 72,209"/>
<polygon style="fill:black;stroke:black;" points="76,209 72,219 69,209 76,209"/>
</g>
<g id="edge22" class="edge"><title>returnXML&#45;&gt;Beanshell_scripting_host</title>
<path style="fill:none;stroke:black;" d="M74,203C74,205 75,207 75,209"/>
<polygon style="fill:black;stroke:black;" points="78,209 74,219 72,209 78,209"/>
</g>
<g id="node2" class="node"><title>part1XML1</title>
<polygon style="fill:#ce5fee;stroke:black;" points="102,76 36,76 36,94 102,94 102,76"/>
<text text-anchor="middle" style="font-family:Helvetica;font-size:10.00;" x="69" y="88">part1XML1</text>
</g>
<g id="node4" class="node"><title>findEntry</title>
<polygon style="fill:#a3cd5a;stroke:black;" points="97,112 41,112 41,130 97,130 97,112"/>
<text text-anchor="middle" style="font-family:Helvetica;font-size:10.00;" x="69" y="124">findEntry</text>
</g>
<g id="edge10" class="edge"><title>part1XML1&#45;&gt;findEntry</title>
<path style="fill:none;stroke:black;" d="M69,95C69,97 69,99 69,101"/>
<polygon style="fill:black;stroke:black;" points="73,101 69,111 66,101 73,101"/>
</g>
<g id="node3" class="node"><title>part1XML</title>
<polygon style="fill:#ce5fee;stroke:black;" points="99,148 39,148 39,166 99,166 99,148"/>
<text text-anchor="middle" style="font-family:Helvetica;font-size:10.00;" x="69" y="160">part1XML</text>
</g>
<g id="edge12" class="edge"><title>part1XML&#45;&gt;returnXML</title>
<path style="fill:none;stroke:black;" d="M69,167C69,169 69,171 69,173"/>
<polygon style="fill:black;stroke:black;" points="73,173 69,183 66,173 73,173"/>
</g>
<g id="edge8" class="edge"><title>findEntry&#45;&gt;part1XML</title>
<path style="fill:none;stroke:black;" d="M69,131C69,133 69,135 69,137"/>
<polygon style="fill:black;stroke:black;" points="73,137 69,147 66,137 73,137"/>
</g>
<g id="node11" class="node"><title>WORKFLOWINTERNALSINK_address</title>
<polygon style="fill:#bcd2ee;stroke:black;" points="95,275 43,275 43,293 95,293 95,275"/>
<text text-anchor="middle" style="font-family:Helvetica;font-size:10.00;" x="69" y="287">address</text>
</g>
<g id="edge6" class="edge"><title>Beanshell_scripting_host&#45;&gt;WORKFLOWINTERNALSINK_address</title>
<path style="fill:none;stroke:black;" d="M69,239C69,246 69,255 69,264"/>
<polygon style="fill:black;stroke:black;" points="73,264 69,274 66,264 73,264"/>
</g>
<g id="node7" class="node"><title>WORKFLOWINTERNALSOURCECONTROL</title>
<polygon style="fill:#ff3f3f;stroke:black;" points="106,42 99,52 113,52 106,42"/>
</g>
<g id="node8" class="node"><title>WORKFLOWINTERNALSOURCE_param</title>
<polygon style="fill:skyblue;stroke:black;" points="91,40 47,40 47,58 91,58 91,40"/>
<text text-anchor="middle" style="font-family:Helvetica;font-size:10.00;" x="69" y="52">param</text>
</g>
<g id="edge4" class="edge"><title>WORKFLOWINTERNALSOURCE_param&#45;&gt;part1XML1</title>
<path style="fill:none;stroke:black;" d="M69,59C69,61 69,63 69,65"/>
<polygon style="fill:black;stroke:black;" points="73,65 69,75 66,65 73,65"/>
</g>
<g id="node10" class="node"><title>WORKFLOWINTERNALSINKCONTROL</title>
<polygon style="fill:#6acd00;stroke:black;" points="110,291 117,281 103,281 110,291"/>
</g>
</g>
</svg>
