<?xml version="1.0" encoding="UTF-8" standalone="no"?>
<!DOCTYPE svg PUBLIC "-//W3C//DTD SVG 1.0//EN"
 "http://www.w3.org/TR/2001/REC-SVG-20010904/DTD/svg10.dtd">
<!-- Generated by dot version 2.2 (Fri Mar 11 00:51:40 UTC 2005)
     For user: (root) root   Title: scufl_graph    Pages: 1 -->
<svg width="301pt" height="255pt"
 viewBox = "-1 -1 300 254"
 xmlns="http://www.w3.org/2000/svg">
<g id="graph0" class="graph" style="font-family:Times-Roman;font-size:14.00;">
<title>scufl_graph</title>
<g id="graph2" class="cluster"><title>cluster_sinks</title>
<polygon style="fill:none;stroke:black;stroke-dasharray:1,5;" points="13,231 275,231 275,176 13,176 13,231"/>
<text text-anchor="middle" style="font-family:Helvetica;font-size:10.00;" x="61" y="188">Workflow Outputs</text>
</g>
<g id="node1" class="node"><title>gi_number</title>
<polygon style="fill:lightsteelblue;stroke:black;" points="162,41 98,41 98,59 162,59 162,41"/>
<text text-anchor="middle" style="font-family:Helvetica;font-size:10.00;" x="130" y="53">gi_number</text>
</g>
<g id="node6" class="node"><title>blastsimplifier</title>
<polygon style="fill:lightgoldenrodyellow;stroke:black;" points="168,77 92,77 92,95 168,95 168,77"/>
<text text-anchor="middle" style="font-family:Helvetica;font-size:10.00;" x="130" y="89">blastsimplifier</text>
</g>
<g id="edge11" class="edge"><title>gi_number&#45;&gt;blastsimplifier</title>
<path style="fill:none;stroke:black;" d="M130,60C130,62 130,64 130,66"/>
<polygon style="fill:black;stroke:black;" points="134,66 130,76 127,66 134,66"/>
</g>
<g id="node2" class="node"><title>program</title>
<polygon style="fill:lightsteelblue;stroke:black;" points="166,5 112,5 112,23 166,23 166,5"/>
<text text-anchor="middle" style="font-family:Helvetica;font-size:10.00;" x="139" y="17">program</text>
</g>
<g id="node4" class="node"><title>blast_ddbj</title>
<polygon style="fill:#a3cd5a;stroke:black;" points="232,41 170,41 170,59 232,59 232,41"/>
<text text-anchor="middle" style="font-family:Helvetica;font-size:10.00;" x="201" y="53">blast_ddbj</text>
</g>
<g id="edge13" class="edge"><title>program&#45;&gt;blast_ddbj</title>
<path style="fill:none;stroke:black;" d="M156,24C162,27 169,31 175,35"/>
<polygon style="fill:black;stroke:black;" points="177,32 184,40 174,38 177,32"/>
</g>
<g id="node3" class="node"><title>query_seq</title>
<polygon style="fill:lightsteelblue;stroke:black;" points="232,5 170,5 170,23 232,23 232,5"/>
<text text-anchor="middle" style="font-family:Helvetica;font-size:10.00;" x="201" y="17">query_seq</text>
</g>
<g id="edge15" class="edge"><title>query_seq&#45;&gt;blast_ddbj</title>
<path style="fill:none;stroke:black;" d="M201,24C201,26 201,28 201,30"/>
<polygon style="fill:black;stroke:black;" points="205,30 201,40 198,30 205,30"/>
</g>
<g id="edge5" class="edge"><title>blast_ddbj&#45;&gt;blastsimplifier</title>
<path style="fill:none;stroke:black;" d="M182,60C175,64 166,68 158,72"/>
<polygon style="fill:black;stroke:black;" points="160,75 149,76 157,69 160,75"/>
</g>
<g id="node11" class="node"><title>WORKFLOWINTERNALSINK_blast_report</title>
<polygon style="fill:#bcd2ee;stroke:black;" points="249,204 179,204 179,222 249,222 249,204"/>
<text text-anchor="middle" style="font-family:Helvetica;font-size:10.00;" x="214" y="216">blast_report</text>
</g>
<g id="edge19" class="edge"><title>blast_ddbj&#45;&gt;WORKFLOWINTERNALSINK_blast_report</title>
<path style="fill:none;stroke:black;" d="M202,60C204,86 210,158 212,193"/>
<polygon style="fill:black;stroke:black;" points="215,193 213,203 209,193 215,193"/>
</g>
<g id="node5" class="node"><title>database</title>
<polygon style="fill:lightsteelblue;stroke:black;" points="294,5 236,5 236,23 294,23 294,5"/>
<text text-anchor="middle" style="font-family:Helvetica;font-size:10.00;" x="265" y="17">database</text>
</g>
<g id="edge9" class="edge"><title>database&#45;&gt;blast_ddbj</title>
<path style="fill:none;stroke:black;" d="M248,24C242,27 234,31 227,35"/>
<polygon style="fill:black;stroke:black;" points="228,38 218,40 225,32 228,38"/>
</g>
<g id="node8" class="node"><title>split_by_newline</title>
<polygon style="fill:#ce5fee;stroke:black;" points="114,113 26,113 26,131 114,131 114,113"/>
<text text-anchor="middle" style="font-family:Helvetica;font-size:10.00;" x="70" y="125">split_by_newline</text>
</g>
<g id="edge7" class="edge"><title>blastsimplifier&#45;&gt;split_by_newline</title>
<path style="fill:none;stroke:black;" d="M114,96C108,99 101,103 95,107"/>
<polygon style="fill:black;stroke:black;" points="96,110 86,112 93,104 96,110"/>
</g>
<g id="node12" class="node"><title>WORKFLOWINTERNALSINK_simplified_report</title>
<polygon style="fill:#bcd2ee;stroke:black;" points="175,204 85,204 85,222 175,222 175,204"/>
<text text-anchor="middle" style="font-family:Helvetica;font-size:10.00;" x="130" y="216">simplified_report</text>
</g>
<g id="edge21" class="edge"><title>blastsimplifier&#45;&gt;WORKFLOWINTERNALSINK_simplified_report</title>
<path style="fill:none;stroke:black;" d="M130,96C130,116 130,165 130,193"/>
<polygon style="fill:black;stroke:black;" points="134,193 130,203 127,193 134,193"/>
</g>
<g id="node7" class="node"><title>Get_Protein_FASTA</title>
<polygon style="fill:#ce5fee;stroke:black;" points="113,149 9,149 9,167 113,167 113,149"/>
<text text-anchor="middle" style="font-family:Helvetica;font-size:10.00;" x="61" y="161">Get_Protein_FASTA</text>
</g>
<g id="node13" class="node"><title>WORKFLOWINTERNALSINK_sequence</title>
<polygon style="fill:#bcd2ee;stroke:black;" points="81,204 21,204 21,222 81,222 81,204"/>
<text text-anchor="middle" style="font-family:Helvetica;font-size:10.00;" x="51" y="216">sequence</text>
</g>
<g id="edge3" class="edge"><title>Get_Protein_FASTA&#45;&gt;WORKFLOWINTERNALSINK_sequence</title>
<path style="fill:none;stroke:black;" d="M59,168C58,175 56,185 54,193"/>
<polygon style="fill:black;stroke:black;" points="57,193 53,203 51,193 57,193"/>
</g>
<g id="edge17" class="edge"><title>split_by_newline&#45;&gt;Get_Protein_FASTA</title>
<path style="fill:none;stroke:black;" d="M68,132C68,134 67,136 66,138"/>
<polygon style="fill:black;stroke:black;" points="69,139 64,148 63,138 69,139"/>
</g>
<g id="node10" class="node"><title>WORKFLOWINTERNALSINKCONTROL</title>
<polygon style="fill:#6acd00;stroke:black;" points="260,220 267,210 253,210 260,220"/>
</g>
</g>
</svg>
