<?xml version="1.0" encoding="UTF-8" standalone="no"?>
<!DOCTYPE svg PUBLIC "-//W3C//DTD SVG 1.0//EN"
 "http://www.w3.org/TR/2001/REC-SVG-20010904/DTD/svg10.dtd">
<!-- Generated by dot version 2.2 (Fri Mar 11 00:51:40 UTC 2005)
     For user: (root) root   Title: scufl_graph    Pages: 1 -->
<svg width="730pt" height="290pt"
 viewBox = "-1 -1 729 289"
 xmlns="http://www.w3.org/2000/svg">
<g id="graph0" class="graph" style="font-family:Times-Roman;font-size:14.00;">
<title>scufl_graph</title>
<g id="graph2" class="cluster"><title>cluster_sources</title>
<polygon style="fill:none;stroke:black;stroke-dasharray:1,5;" points="597,67 715,67 715,12 597,12 597,67"/>
<text text-anchor="middle" style="font-family:Helvetica;font-size:10.00;" x="641" y="24">Workflow Inputs</text>
</g>
<g id="graph3" class="cluster"><title>cluster_sinks</title>
<polygon style="fill:none;stroke:black;stroke-dasharray:1,5;" points="288,266 432,266 432,211 288,211 288,266"/>
<text text-anchor="middle" style="font-family:Helvetica;font-size:10.00;" x="336" y="223">Workflow Outputs</text>
</g>
<g id="node1" class="node"><title>initiation_age_threshold</title>
<polygon style="fill:lightsteelblue;stroke:black;" points="127,148 5,148 5,166 127,166 127,148"/>
<text text-anchor="middle" style="font-family:Helvetica;font-size:10.00;" x="66" y="160">initiation_age_threshold</text>
</g>
<g id="node8" class="node"><title>Classification</title>
<polygon style="fill:lightgoldenrodyellow;stroke:black;" points="388,184 314,184 314,202 388,202 388,184"/>
<text text-anchor="middle" style="font-family:Helvetica;font-size:10.00;" x="351" y="196">Classification</text>
</g>
<g id="edge26" class="edge"><title>initiation_age_threshold&#45;&gt;Classification</title>
<path style="fill:none;stroke:black;" d="M125,167C126,167 128,167 129,167 189,175 259,184 304,188"/>
<polygon style="fill:black;stroke:black;" points="304,185 314,189 304,191 304,185"/>
</g>
<g id="node2" class="node"><title>mortality_threshold</title>
<polygon style="fill:lightsteelblue;stroke:black;" points="231,148 131,148 131,166 231,166 231,148"/>
<text text-anchor="middle" style="font-family:Helvetica;font-size:10.00;" x="181" y="160">mortality_threshold</text>
</g>
<g id="edge28" class="edge"><title>mortality_threshold&#45;&gt;Classification</title>
<path style="fill:none;stroke:black;" d="M226,167C250,171 280,178 304,183"/>
<polygon style="fill:black;stroke:black;" points="305,180 314,185 304,186 305,180"/>
</g>
<g id="node3" class="node"><title>download_threshold</title>
<polygon style="fill:lightsteelblue;stroke:black;" points="341,148 235,148 235,166 341,166 341,148"/>
<text text-anchor="middle" style="font-family:Helvetica;font-size:10.00;" x="288" y="160">download_threshold</text>
</g>
<g id="edge24" class="edge"><title>download_threshold&#45;&gt;Classification</title>
<path style="fill:none;stroke:black;" d="M305,167C311,170 318,174 325,178"/>
<polygon style="fill:black;stroke:black;" points="327,175 334,183 324,181 327,175"/>
</g>
<g id="node4" class="node"><title>release_recency_threshold</title>
<polygon style="fill:lightsteelblue;stroke:black;" points="481,148 345,148 345,166 481,166 481,148"/>
<text text-anchor="middle" style="font-family:Helvetica;font-size:10.00;" x="413" y="160">release_recency_threshold</text>
</g>
<g id="edge32" class="edge"><title>release_recency_threshold&#45;&gt;Classification</title>
<path style="fill:none;stroke:black;" d="M396,167C390,170 383,174 377,178"/>
<polygon style="fill:black;stroke:black;" points="378,181 368,183 375,175 378,181"/>
</g>
<g id="node5" class="node"><title>release_lag_threshold</title>
<polygon style="fill:lightsteelblue;stroke:black;" points="599,148 485,148 485,166 599,166 599,148"/>
<text text-anchor="middle" style="font-family:Helvetica;font-size:10.00;" x="542" y="160">release_lag_threshold</text>
</g>
<g id="edge30" class="edge"><title>release_lag_threshold&#45;&gt;Classification</title>
<path style="fill:none;stroke:black;" d="M492,167C462,172 427,179 398,184"/>
<polygon style="fill:black;stroke:black;" points="398,187 388,186 397,181 398,187"/>
</g>
<g id="node6" class="node"><title>Fetch_Data</title>
<polygon style="fill:lightgoldenrodyellow;stroke:black;" points="681,76 613,76 613,94 681,94 681,76"/>
<text text-anchor="middle" style="font-family:Helvetica;font-size:10.00;" x="647" y="88">Fetch_Data</text>
</g>
<g id="node7" class="node"><title>Assemble_Data</title>
<polygon style="fill:lightgoldenrodyellow;stroke:black;" points="691,148 603,148 603,166 691,166 691,148"/>
<text text-anchor="middle" style="font-family:Helvetica;font-size:10.00;" x="647" y="160">Assemble_Data</text>
</g>
<g id="edge18" class="edge"><title>Fetch_Data&#45;&gt;Assemble_Data</title>
<path style="fill:none;stroke:black;" d="M613,91C602,95 591,101 584,111 580,119 580,124 584,131 587,135 591,139 595,142"/>
<polygon style="fill:black;stroke:black;" points="597,139 604,147 594,145 597,139"/>
</g>
<g id="node9" class="node"><title>Compute_Project_Stats</title>
<polygon style="fill:lightgoldenrodyellow;stroke:black;" points="708,112 586,112 586,130 708,130 708,112"/>
<text text-anchor="middle" style="font-family:Helvetica;font-size:10.00;" x="647" y="124">Compute_Project_Stats</text>
</g>
<g id="edge16" class="edge"><title>Fetch_Data&#45;&gt;Compute_Project_Stats</title>
<path style="fill:none;stroke:black;" d="M644,95C644,97 644,99 644,101"/>
<polygon style="fill:black;stroke:black;" points="648,101 644,111 641,101 648,101"/>
</g>
<g id="edge20" class="edge"><title>Fetch_Data&#45;&gt;Compute_Project_Stats</title>
<path style="fill:none;stroke:black;" d="M647,95C647,97 647,99 647,101"/>
<polygon style="fill:black;stroke:black;" points="651,101 647,111 644,101 651,101"/>
</g>
<g id="edge22" class="edge"><title>Fetch_Data&#45;&gt;Compute_Project_Stats</title>
<path style="fill:none;stroke:black;" d="M650,95C650,97 650,99 650,101"/>
<polygon style="fill:black;stroke:black;" points="654,101 650,111 647,101 654,101"/>
</g>
<g id="edge6" class="edge"><title>Assemble_Data&#45;&gt;Classification</title>
<path style="fill:none;stroke:black;" d="M604,167C603,167 602,167 601,167 531,178 449,186 398,190"/>
<polygon style="fill:black;stroke:black;" points="398,193 388,191 398,187 398,193"/>
</g>
<g id="node15" class="node"><title>WORKFLOWINTERNALSINK_Classification_Output</title>
<polygon style="fill:#bcd2ee;stroke:black;" points="406,239 296,239 296,257 406,257 406,239"/>
<text text-anchor="middle" style="font-family:Helvetica;font-size:10.00;" x="351" y="251">Classification_Output</text>
</g>
<g id="edge34" class="edge"><title>Classification&#45;&gt;WORKFLOWINTERNALSINK_Classification_Output</title>
<path style="fill:none;stroke:black;" d="M351,203C351,210 351,219 351,228"/>
<polygon style="fill:black;stroke:black;" points="355,228 351,238 348,228 355,228"/>
</g>
<g id="edge8" class="edge"><title>Compute_Project_Stats&#45;&gt;Assemble_Data</title>
<path style="fill:none;stroke:black;" d="M643,131C643,133 643,135 643,137"/>
<polygon style="fill:black;stroke:black;" points="647,137 643,147 640,137 647,137"/>
</g>
<g id="edge10" class="edge"><title>Compute_Project_Stats&#45;&gt;Assemble_Data</title>
<path style="fill:none;stroke:black;" d="M646,131C646,133 646,135 646,137"/>
<polygon style="fill:black;stroke:black;" points="650,137 646,147 643,137 650,137"/>
</g>
<g id="edge12" class="edge"><title>Compute_Project_Stats&#45;&gt;Assemble_Data</title>
<path style="fill:none;stroke:black;" d="M648,131C648,133 648,135 648,137"/>
<polygon style="fill:black;stroke:black;" points="652,137 648,147 645,137 652,137"/>
</g>
<g id="edge14" class="edge"><title>Compute_Project_Stats&#45;&gt;Assemble_Data</title>
<path style="fill:none;stroke:black;" d="M651,131C651,133 651,135 651,137"/>
<polygon style="fill:black;stroke:black;" points="655,137 651,147 648,137 655,137"/>
</g>
<g id="node11" class="node"><title>WORKFLOWINTERNALSOURCECONTROL</title>
<polygon style="fill:#ff3f3f;stroke:black;" points="700,42 693,52 707,52 700,42"/>
</g>
<g id="node12" class="node"><title>WORKFLOWINTERNALSOURCE_Project_Names</title>
<polygon style="fill:skyblue;stroke:black;" points="689,40 605,40 605,58 689,58 689,40"/>
<text text-anchor="middle" style="font-family:Helvetica;font-size:10.00;" x="647" y="52">Project_Names</text>
</g>
<g id="edge4" class="edge"><title>WORKFLOWINTERNALSOURCE_Project_Names&#45;&gt;Fetch_Data</title>
<path style="fill:none;stroke:black;" d="M647,59C647,61 647,63 647,65"/>
<polygon style="fill:black;stroke:black;" points="651,65 647,75 644,65 651,65"/>
</g>
<g id="node14" class="node"><title>WORKFLOWINTERNALSINKCONTROL</title>
<polygon style="fill:#6acd00;stroke:black;" points="417,255 424,245 410,245 417,255"/>
</g>
</g>
</svg>
