<?xml version="1.0" encoding="UTF-8" standalone="no"?>
<!DOCTYPE svg PUBLIC "-//W3C//DTD SVG 1.0//EN"
 "http://www.w3.org/TR/2001/REC-SVG-20010904/DTD/svg10.dtd">
<!-- Generated by dot version 2.2 (Fri Mar 11 00:51:40 UTC 2005)
     For user: (root) root   Title: scufl_graph    Pages: 1 -->
<svg width="526pt" height="506pt"
 viewBox = "-1 -1 525 505"
 xmlns="http://www.w3.org/2000/svg">
<g id="graph0" class="graph" style="font-family:Times-Roman;font-size:14.00;">
<title>scufl_graph</title>
<g id="graph2" class="cluster"><title>cluster_sources</title>
<polygon style="fill:none;stroke:black;stroke-dasharray:1,5;" points="181,67 499,67 499,12 181,12 181,67"/>
<text text-anchor="middle" style="font-family:Helvetica;font-size:10.00;" x="225" y="24">Workflow Inputs</text>
</g>
<g id="graph3" class="cluster"><title>cluster_sinks</title>
<polygon style="fill:none;stroke:black;stroke-dasharray:1,5;" points="324,482 424,482 424,427 324,427 324,482"/>
<text text-anchor="middle" style="font-family:Helvetica;font-size:10.00;" x="372" y="439">Workflow Outputs</text>
</g>
<g id="node1" class="node"><title>Calculate_weight</title>
<polygon style="fill:lightgoldenrodyellow;stroke:black;" points="297,292 205,292 205,310 297,310 297,292"/>
<text text-anchor="middle" style="font-family:Helvetica;font-size:10.00;" x="251" y="304">Calculate_weight</text>
</g>
<g id="node17" class="node"><title>MatrixBuilderR</title>
<polygon style="fill:#a3cd5a;stroke:black;" points="406,328 324,328 324,346 406,346 406,328"/>
<text text-anchor="middle" style="font-family:Helvetica;font-size:10.00;" x="365" y="340">MatrixBuilderR</text>
</g>
<g id="edge30" class="edge"><title>Calculate_weight&#45;&gt;MatrixBuilderR</title>
<path style="fill:none;stroke:black;" d="M281,311C295,315 311,320 325,324"/>
<polygon style="fill:black;stroke:black;" points="326,321 335,327 324,327 326,321"/>
</g>
<g id="node2" class="node"><title>step</title>
<polygon style="fill:lightsteelblue;stroke:black;" points="173,40 139,40 139,58 173,58 173,40"/>
<text text-anchor="middle" style="font-family:Helvetica;font-size:10.00;" x="156" y="52">step</text>
</g>
<g id="node15" class="node"><title>GetPeriods</title>
<polygon style="fill:#a3cd5a;stroke:black;" points="314,76 248,76 248,94 314,94 314,76"/>
<text text-anchor="middle" style="font-family:Helvetica;font-size:10.00;" x="281" y="88">GetPeriods</text>
</g>
<g id="edge52" class="edge"><title>step&#45;&gt;GetPeriods</title>
<path style="fill:none;stroke:black;" d="M167,59C171,62 175,65 180,67 190,72 215,77 238,80"/>
<polygon style="fill:black;stroke:black;" points="238,77 248,81 238,83 238,77"/>
</g>
<g id="node3" class="node"><title>delist_dates</title>
<polygon style="fill:#ce5fee;stroke:black;" points="235,328 165,328 165,346 235,346 235,328"/>
<text text-anchor="middle" style="font-family:Helvetica;font-size:10.00;" x="200" y="340">delist_dates</text>
</g>
<g id="node5" class="node"><title>Centralization_Plot</title>
<polygon style="fill:lightgoldenrodyellow;stroke:black;" points="415,400 315,400 315,418 415,418 415,400"/>
<text text-anchor="middle" style="font-family:Helvetica;font-size:10.00;" x="365" y="412">Centralization_Plot</text>
</g>
<g id="edge32" class="edge"><title>delist_dates&#45;&gt;Centralization_Plot</title>
<path style="fill:none;stroke:black;" d="M220,347C240,356 273,371 301,383 311,387 321,392 331,395"/>
<polygon style="fill:black;stroke:black;" points="332,392 340,399 329,398 332,392"/>
</g>
<g id="node4" class="node"><title>Calculate_Centralization</title>
<polygon style="fill:lightgoldenrodyellow;stroke:black;" points="427,364 303,364 303,382 427,382 427,364"/>
<text text-anchor="middle" style="font-family:Helvetica;font-size:10.00;" x="365" y="376">Calculate_Centralization</text>
</g>
<g id="edge6" class="edge"><title>Calculate_Centralization&#45;&gt;Centralization_Plot</title>
<path style="fill:none;stroke:black;" d="M365,383C365,385 365,387 365,389"/>
<polygon style="fill:black;stroke:black;" points="369,389 365,399 362,389 369,389"/>
</g>
<g id="node31" class="node"><title>WORKFLOWINTERNALSINK_PNGoutput</title>
<polygon style="fill:#bcd2ee;stroke:black;" points="398,455 332,455 332,473 398,473 398,455"/>
<text text-anchor="middle" style="font-family:Helvetica;font-size:10.00;" x="365" y="467">PNGoutput</text>
</g>
<g id="edge54" class="edge"><title>Centralization_Plot&#45;&gt;WORKFLOWINTERNALSINK_PNGoutput</title>
<path style="fill:none;stroke:black;" d="M365,419C365,426 365,435 365,444"/>
<polygon style="fill:black;stroke:black;" points="369,444 365,454 362,444 369,444"/>
</g>
<g id="node6" class="node"><title>delist_from</title>
<polygon style="fill:#ce5fee;stroke:black;" points="398,256 332,256 332,274 398,274 398,256"/>
<text text-anchor="middle" style="font-family:Helvetica;font-size:10.00;" x="365" y="268">delist_from</text>
</g>
<g id="edge34" class="edge"><title>delist_from&#45;&gt;MatrixBuilderR</title>
<path style="fill:none;stroke:black;" d="M365,275C365,285 365,303 365,317"/>
<polygon style="fill:black;stroke:black;" points="369,317 365,327 362,317 369,317"/>
</g>
<g id="node7" class="node"><title>Split_to_single_events</title>
<polygon style="fill:#ce5fee;stroke:black;" points="333,184 217,184 217,202 333,202 333,184"/>
<text text-anchor="middle" style="font-family:Helvetica;font-size:10.00;" x="275" y="196">Split_to_single_events</text>
</g>
<g id="node10" class="node"><title>Extract_To</title>
<polygon style="fill:#ce5fee;stroke:black;" points="471,220 407,220 407,238 471,238 471,220"/>
<text text-anchor="middle" style="font-family:Helvetica;font-size:10.00;" x="439" y="232">Extract_To</text>
</g>
<g id="edge24" class="edge"><title>Split_to_single_events&#45;&gt;Extract_To</title>
<path style="fill:none;stroke:black;" d="M328,203C349,207 373,212 397,217"/>
<polygon style="fill:black;stroke:black;" points="398,214 407,219 397,220 398,214"/>
</g>
<g id="node12" class="node"><title>Extract_period_end</title>
<polygon style="fill:#ce5fee;stroke:black;" points="107,220 5,220 5,238 107,238 107,220"/>
<text text-anchor="middle" style="font-family:Helvetica;font-size:10.00;" x="56" y="232">Extract_period_end</text>
</g>
<g id="edge26" class="edge"><title>Split_to_single_events&#45;&gt;Extract_period_end</title>
<path style="fill:none;stroke:black;" d="M217,202C188,207 152,212 117,217"/>
<polygon style="fill:black;stroke:black;" points="117,220 107,219 116,214 117,220"/>
</g>
<g id="node13" class="node"><title>Extract_From</title>
<polygon style="fill:#ce5fee;stroke:black;" points="403,220 327,220 327,238 403,238 403,220"/>
<text text-anchor="middle" style="font-family:Helvetica;font-size:10.00;" x="365" y="232">Extract_From</text>
</g>
<g id="edge22" class="edge"><title>Split_to_single_events&#45;&gt;Extract_From</title>
<path style="fill:none;stroke:black;" d="M299,203C309,207 321,211 331,215"/>
<polygon style="fill:black;stroke:black;" points="333,212 341,219 330,219 333,212"/>
</g>
<g id="node21" class="node"><title>Extract_period_start</title>
<polygon style="fill:#ce5fee;stroke:black;" points="217,220 111,220 111,238 217,238 217,220"/>
<text text-anchor="middle" style="font-family:Helvetica;font-size:10.00;" x="164" y="232">Extract_period_start</text>
</g>
<g id="edge66" class="edge"><title>Split_to_single_events&#45;&gt;Extract_period_start</title>
<path style="fill:none;stroke:black;" d="M246,203C233,207 218,212 204,216"/>
<polygon style="fill:black;stroke:black;" points="205,219 194,219 203,213 205,219"/>
</g>
<g id="node22" class="node"><title>Extract_event_date</title>
<polygon style="fill:#ce5fee;stroke:black;" points="323,220 221,220 221,238 323,238 323,220"/>
<text text-anchor="middle" style="font-family:Helvetica;font-size:10.00;" x="272" y="232">Extract_event_date</text>
</g>
<g id="edge64" class="edge"><title>Split_to_single_events&#45;&gt;Extract_event_date</title>
<path style="fill:none;stroke:black;" d="M274,203C274,205 274,207 274,209"/>
<polygon style="fill:black;stroke:black;" points="277,209 273,219 271,209 277,209"/>
</g>
<g id="node8" class="node"><title>delist_to</title>
<polygon style="fill:#ce5fee;stroke:black;" points="461,256 407,256 407,274 461,274 461,256"/>
<text text-anchor="middle" style="font-family:Helvetica;font-size:10.00;" x="434" y="268">delist_to</text>
</g>
<g id="edge40" class="edge"><title>delist_to&#45;&gt;MatrixBuilderR</title>
<path style="fill:none;stroke:black;" d="M425,275C414,286 395,306 381,320"/>
<polygon style="fill:black;stroke:black;" points="384,322 374,327 379,317 384,322"/>
</g>
<g id="node9" class="node"><title>Remove_duplicate_strings</title>
<polygon style="fill:#ce5fee;stroke:black;" points="160,292 26,292 26,310 160,310 160,292"/>
<text text-anchor="middle" style="font-family:Helvetica;font-size:10.00;" x="93" y="304">Remove_duplicate_strings</text>
</g>
<g id="edge20" class="edge"><title>Remove_duplicate_strings&#45;&gt;delist_dates</title>
<path style="fill:none;stroke:black;" d="M121,311C134,315 148,320 161,324"/>
<polygon style="fill:black;stroke:black;" points="162,321 171,327 160,327 162,321"/>
</g>
<g id="edge10" class="edge"><title>Extract_To&#45;&gt;delist_to</title>
<path style="fill:none;stroke:black;" d="M438,239C438,241 437,243 437,245"/>
<polygon style="fill:black;stroke:black;" points="440,246 435,255 434,245 440,246"/>
</g>
<g id="node11" class="node"><title>delist_period_end</title>
<polygon style="fill:#ce5fee;stroke:black;" points="119,256 25,256 25,274 119,274 119,256"/>
<text text-anchor="middle" style="font-family:Helvetica;font-size:10.00;" x="72" y="268">delist_period_end</text>
</g>
<g id="edge38" class="edge"><title>delist_period_end&#45;&gt;Calculate_weight</title>
<path style="fill:none;stroke:black;" d="M119,275C119,275 120,275 121,275 145,280 172,285 195,290"/>
<polygon style="fill:black;stroke:black;" points="196,287 205,292 195,293 196,287"/>
</g>
<g id="edge36" class="edge"><title>delist_period_end&#45;&gt;Remove_duplicate_strings</title>
<path style="fill:none;stroke:black;" d="M78,275C79,277 81,280 82,282"/>
<polygon style="fill:black;stroke:black;" points="85,281 87,291 79,284 85,281"/>
</g>
<g id="edge12" class="edge"><title>Extract_period_end&#45;&gt;delist_period_end</title>
<path style="fill:none;stroke:black;" d="M60,239C61,241 62,244 63,246"/>
<polygon style="fill:black;stroke:black;" points="66,245 68,255 60,248 66,245"/>
</g>
<g id="edge8" class="edge"><title>Extract_From&#45;&gt;delist_from</title>
<path style="fill:none;stroke:black;" d="M365,239C365,241 365,243 365,245"/>
<polygon style="fill:black;stroke:black;" points="369,245 365,255 362,245 369,245"/>
</g>
<g id="node14" class="node"><title>split_periods</title>
<polygon style="fill:#ce5fee;stroke:black;" points="317,112 245,112 245,130 317,130 317,112"/>
<text text-anchor="middle" style="font-family:Helvetica;font-size:10.00;" x="281" y="124">split_periods</text>
</g>
<g id="node16" class="node"><title>EventsForProjectsInPeriod</title>
<polygon style="fill:#a3cd5a;stroke:black;" points="348,148 214,148 214,166 348,166 348,148"/>
<text text-anchor="middle" style="font-family:Helvetica;font-size:10.00;" x="281" y="160">EventsForProjectsInPeriod</text>
</g>
<g id="edge50" class="edge"><title>split_periods&#45;&gt;EventsForProjectsInPeriod</title>
<path style="fill:none;stroke:black;" d="M281,131C281,133 281,135 281,137"/>
<polygon style="fill:black;stroke:black;" points="285,137 281,147 278,137 285,137"/>
</g>
<g id="edge14" class="edge"><title>GetPeriods&#45;&gt;split_periods</title>
<path style="fill:none;stroke:black;" d="M281,95C281,97 281,99 281,101"/>
<polygon style="fill:black;stroke:black;" points="285,101 281,111 278,101 285,101"/>
</g>
<g id="edge44" class="edge"><title>EventsForProjectsInPeriod&#45;&gt;Split_to_single_events</title>
<path style="fill:none;stroke:black;" d="M279,167C279,169 279,171 279,173"/>
<polygon style="fill:black;stroke:black;" points="282,174 277,183 276,173 282,174"/>
</g>
<g id="edge16" class="edge"><title>MatrixBuilderR&#45;&gt;Calculate_Centralization</title>
<path style="fill:none;stroke:black;" d="M365,347C365,349 365,351 365,353"/>
<polygon style="fill:black;stroke:black;" points="369,353 365,363 362,353 369,353"/>
</g>
<g id="node18" class="node"><title>MergeProjectNames</title>
<polygon style="fill:#ce5fee;stroke:black;" points="519,76 411,76 411,94 519,94 519,76"/>
<text text-anchor="middle" style="font-family:Helvetica;font-size:10.00;" x="465" y="88">MergeProjectNames</text>
</g>
<g id="edge48" class="edge"><title>MergeProjectNames&#45;&gt;Centralization_Plot</title>
<path style="fill:none;stroke:black;" d="M468,95C472,109 478,135 478,157 478,157 478,157 478,337 479,368 449,386 420,396"/>
<polygon style="fill:black;stroke:black;" points="421,399 410,399 419,393 421,399"/>
</g>
<g id="node19" class="node"><title>delist_period_start</title>
<polygon style="fill:#ce5fee;stroke:black;" points="221,256 123,256 123,274 221,274 221,256"/>
<text text-anchor="middle" style="font-family:Helvetica;font-size:10.00;" x="172" y="268">delist_period_start</text>
</g>
<g id="edge62" class="edge"><title>delist_period_start&#45;&gt;Calculate_weight</title>
<path style="fill:none;stroke:black;" d="M193,275C202,279 212,283 221,287"/>
<polygon style="fill:black;stroke:black;" points="222,284 230,291 219,290 222,284"/>
</g>
<g id="node20" class="node"><title>delist_event_date</title>
<polygon style="fill:#ce5fee;stroke:black;" points="319,256 225,256 225,274 319,274 319,256"/>
<text text-anchor="middle" style="font-family:Helvetica;font-size:10.00;" x="272" y="268">delist_event_date</text>
</g>
<g id="edge60" class="edge"><title>delist_event_date&#45;&gt;Calculate_weight</title>
<path style="fill:none;stroke:black;" d="M266,275C265,277 263,280 262,282"/>
<polygon style="fill:black;stroke:black;" points="265,284 257,291 259,281 265,284"/>
</g>
<g id="edge58" class="edge"><title>Extract_period_start&#45;&gt;delist_period_start</title>
<path style="fill:none;stroke:black;" d="M166,239C166,241 167,243 168,245"/>
<polygon style="fill:black;stroke:black;" points="171,245 170,255 165,246 171,245"/>
</g>
<g id="edge56" class="edge"><title>Extract_event_date&#45;&gt;delist_event_date</title>
<path style="fill:none;stroke:black;" d="M272,239C272,241 272,243 272,245"/>
<polygon style="fill:black;stroke:black;" points="276,245 272,255 269,245 276,245"/>
</g>
<g id="node24" class="node"><title>WORKFLOWINTERNALSOURCECONTROL</title>
<polygon style="fill:#ff3f3f;stroke:black;" points="484,42 477,52 491,52 484,42"/>
</g>
<g id="node25" class="node"><title>WORKFLOWINTERNALSOURCE_Start_Date</title>
<polygon style="fill:skyblue;stroke:black;" points="317,40 253,40 253,58 317,58 317,40"/>
<text text-anchor="middle" style="font-family:Helvetica;font-size:10.00;" x="285" y="52">Start_Date</text>
</g>
<g id="edge28" class="edge"><title>WORKFLOWINTERNALSOURCE_Start_Date&#45;&gt;GetPeriods</title>
<path style="fill:none;stroke:black;" d="M284,59C284,61 284,63 284,65"/>
<polygon style="fill:black;stroke:black;" points="287,66 282,75 281,65 287,66"/>
</g>
<g id="node26" class="node"><title>WORKFLOWINTERNALSOURCE_End_Date</title>
<polygon style="fill:skyblue;stroke:black;" points="249,40 189,40 189,58 249,58 249,40"/>
<text text-anchor="middle" style="font-family:Helvetica;font-size:10.00;" x="219" y="52">End_Date</text>
</g>
<g id="edge4" class="edge"><title>WORKFLOWINTERNALSOURCE_End_Date&#45;&gt;GetPeriods</title>
<path style="fill:none;stroke:black;" d="M236,59C242,62 249,66 255,70"/>
<polygon style="fill:black;stroke:black;" points="257,67 264,75 254,73 257,67"/>
</g>
<g id="node27" class="node"><title>WORKFLOWINTERNALSOURCE_Project_list</title>
<polygon style="fill:skyblue;stroke:black;" points="473,40 407,40 407,58 473,58 473,40"/>
<text text-anchor="middle" style="font-family:Helvetica;font-size:10.00;" x="440" y="52">Project_list</text>
</g>
<g id="edge18" class="edge"><title>WORKFLOWINTERNALSOURCE_Project_list&#45;&gt;EventsForProjectsInPeriod</title>
<path style="fill:none;stroke:black;" d="M426,59C399,77 338,119 304,141"/>
<polygon style="fill:black;stroke:black;" points="305,144 295,147 301,139 305,144"/>
</g>
<g id="edge46" class="edge"><title>WORKFLOWINTERNALSOURCE_Project_list&#45;&gt;MergeProjectNames</title>
<path style="fill:none;stroke:black;" d="M447,59C448,61 450,64 452,67"/>
<polygon style="fill:black;stroke:black;" points="455,65 458,75 449,69 455,65"/>
</g>
<g id="node28" class="node"><title>WORKFLOWINTERNALSOURCE_sliding_window</title>
<polygon style="fill:skyblue;stroke:black;" points="403,40 321,40 321,58 403,58 403,40"/>
<text text-anchor="middle" style="font-family:Helvetica;font-size:10.00;" x="362" y="52">sliding_window</text>
</g>
<g id="edge42" class="edge"><title>WORKFLOWINTERNALSOURCE_sliding_window&#45;&gt;GetPeriods</title>
<path style="fill:none;stroke:black;" d="M340,59C331,63 321,67 311,71"/>
<polygon style="fill:black;stroke:black;" points="313,74 302,75 310,68 313,74"/>
</g>
<g id="node30" class="node"><title>WORKFLOWINTERNALSINKCONTROL</title>
<polygon style="fill:#6acd00;stroke:black;" points="409,471 416,461 402,461 409,471"/>
</g>
</g>
</svg>
