<?xml version="1.0" encoding="UTF-8" standalone="no"?>
<!DOCTYPE svg PUBLIC "-//W3C//DTD SVG 1.0//EN"
 "http://www.w3.org/TR/2001/REC-SVG-20010904/DTD/svg10.dtd">
<!-- Generated by dot version 2.2 (Fri Mar 11 00:51:40 UTC 2005)
     For user: (root) root   Title: scufl_graph    Pages: 1 -->
<svg width="138pt" height="147pt"
 viewBox = "-1 -1 137 146"
 xmlns="http://www.w3.org/2000/svg">
<g id="graph0" class="graph" style="font-family:Times-Roman;font-size:14.00;">
<title>scufl_graph</title>
<g id="graph2" class="cluster"><title>cluster_sinks</title>
<polygon style="fill:none;stroke:black;stroke-dasharray:1,5;" points="27,123 123,123 123,68 27,68 27,123"/>
<text text-anchor="middle" style="font-family:Helvetica;font-size:10.00;" x="75" y="80">Workflow Outputs</text>
</g>
<g id="node1" class="node"><title>FooString</title>
<polygon style="fill:lightsteelblue;stroke:black;" points="65,5 5,5 5,23 65,23 65,5"/>
<text text-anchor="middle" style="font-family:Helvetica;font-size:10.00;" x="35" y="17">FooString</text>
</g>
<g id="node3" class="node"><title>FailingProcessor</title>
<polygon style="fill:#ce5fee;stroke:black;" points="111,41 21,41 21,59 111,59 111,41"/>
<text text-anchor="middle" style="font-family:Helvetica;font-size:10.00;" x="66" y="53">FailingProcessor</text>
</g>
<g id="edge3" class="edge"><title>FooString&#45;&gt;FailingProcessor</title>
<path style="fill:none;stroke:black;" d="M43,24C46,27 48,30 51,33"/>
<polygon style="fill:black;stroke:black;" points="53,30 58,40 48,35 53,30"/>
</g>
<g id="node2" class="node"><title>BarString</title>
<polygon style="fill:lightsteelblue;stroke:black;" points="127,5 69,5 69,23 127,23 127,5"/>
<text text-anchor="middle" style="font-family:Helvetica;font-size:10.00;" x="98" y="17">BarString</text>
</g>
<g id="edge5" class="edge"><title>BarString&#45;&gt;FailingProcessor</title>
<path style="fill:none;stroke:black;" d="M89,24C87,27 84,29 82,32"/>
<polygon style="fill:black;stroke:black;" points="84,35 75,40 79,30 84,35"/>
</g>
<g id="node6" class="node"><title>WORKFLOWINTERNALSINK_out</title>
<polygon style="fill:#bcd2ee;stroke:black;" points="81,96 51,96 51,114 81,114 81,96"/>
<text text-anchor="middle" style="font-family:Helvetica;font-size:10.00;" x="66" y="108">out</text>
</g>
<g id="edge7" class="edge"><title>FailingProcessor&#45;&gt;WORKFLOWINTERNALSINK_out</title>
<path style="fill:none;stroke:black;" d="M66,60C66,67 66,76 66,85"/>
<polygon style="fill:black;stroke:black;" points="70,85 66,95 63,85 70,85"/>
</g>
<g id="node5" class="node"><title>WORKFLOWINTERNALSINKCONTROL</title>
<polygon style="fill:#6acd00;stroke:black;" points="100,112 107,102 93,102 100,112"/>
</g>
</g>
</svg>
