<?xml version="1.0" encoding="UTF-8" standalone="no"?>
<!DOCTYPE svg PUBLIC "-//W3C//DTD SVG 1.0//EN"
 "http://www.w3.org/TR/2001/REC-SVG-20010904/DTD/svg10.dtd">
<!-- Generated by dot version 2.2 (Fri Mar 11 00:51:40 UTC 2005)
     For user: (root) root   Title: scufl_graph    Pages: 1 -->
<svg width="354pt" height="182pt"
 viewBox = "-1 -1 353 181"
 xmlns="http://www.w3.org/2000/svg">
<g id="graph0" class="graph" style="font-family:Times-Roman;font-size:14.00;">
<title>scufl_graph</title>
<g id="graph2" class="cluster"><title>cluster_sources</title>
<polygon style="fill:none;stroke:black;stroke-dasharray:1,5;" points="13,67 339,67 339,12 13,12 13,67"/>
<text text-anchor="middle" style="font-family:Helvetica;font-size:10.00;" x="57" y="24">Workflow Inputs</text>
</g>
<g id="graph3" class="cluster"><title>cluster_sinks</title>
<polygon style="fill:none;stroke:black;stroke-dasharray:1,5;" points="93,158 233,158 233,103 93,103 93,158"/>
<text text-anchor="middle" style="font-family:Helvetica;font-size:10.00;" x="141" y="115">Workflow Outputs</text>
</g>
<g id="node1" class="node"><title>search</title>
<polygon style="fill:#a3cd5a;stroke:black;" points="177,76 131,76 131,94 177,94 177,76"/>
<text text-anchor="middle" style="font-family:Helvetica;font-size:10.00;" x="154" y="88">search</text>
</g>
<g id="node10" class="node"><title>WORKFLOWINTERNALSINK_relevant_documents</title>
<polygon style="fill:#bcd2ee;stroke:black;" points="207,131 101,131 101,149 207,149 207,131"/>
<text text-anchor="middle" style="font-family:Helvetica;font-size:10.00;" x="154" y="143">relevant_documents</text>
</g>
<g id="edge12" class="edge"><title>search&#45;&gt;WORKFLOWINTERNALSINK_relevant_documents</title>
<path style="fill:none;stroke:black;" d="M154,95C154,102 154,111 154,120"/>
<polygon style="fill:black;stroke:black;" points="158,120 154,130 151,120 158,120"/>
</g>
<g id="node3" class="node"><title>WORKFLOWINTERNALSOURCECONTROL</title>
<polygon style="fill:#ff3f3f;stroke:black;" points="324,42 317,52 331,52 324,42"/>
</g>
<g id="node4" class="node"><title>WORKFLOWINTERNALSOURCE_queryString</title>
<polygon style="fill:skyblue;stroke:black;" points="313,40 245,40 245,58 313,58 313,40"/>
<text text-anchor="middle" style="font-family:Helvetica;font-size:10.00;" x="279" y="52">queryString</text>
</g>
<g id="edge8" class="edge"><title>WORKFLOWINTERNALSOURCE_queryString&#45;&gt;search</title>
<path style="fill:none;stroke:black;" d="M263,59C256,62 249,65 243,67 225,74 204,78 187,81"/>
<polygon style="fill:black;stroke:black;" points="187,84 177,82 187,78 187,84"/>
</g>
<g id="node5" class="node"><title>WORKFLOWINTERNALSOURCE_document_index</title>
<polygon style="fill:skyblue;stroke:black;" points="241,40 151,40 151,58 241,58 241,40"/>
<text text-anchor="middle" style="font-family:Helvetica;font-size:10.00;" x="196" y="52">document_index</text>
</g>
<g id="edge4" class="edge"><title>WORKFLOWINTERNALSOURCE_document_index&#45;&gt;search</title>
<path style="fill:none;stroke:black;" d="M185,59C181,62 177,65 173,69"/>
<polygon style="fill:black;stroke:black;" points="175,72 165,75 171,66 175,72"/>
</g>
<g id="node6" class="node"><title>WORKFLOWINTERNALSOURCE_search_field</title>
<polygon style="fill:skyblue;stroke:black;" points="147,40 77,40 77,58 147,58 147,40"/>
<text text-anchor="middle" style="font-family:Helvetica;font-size:10.00;" x="112" y="52">search_field</text>
</g>
<g id="edge10" class="edge"><title>WORKFLOWINTERNALSOURCE_search_field&#45;&gt;search</title>
<path style="fill:none;stroke:black;" d="M123,59C127,62 131,65 135,69"/>
<polygon style="fill:black;stroke:black;" points="137,66 143,75 133,72 137,66"/>
</g>
<g id="node7" class="node"><title>WORKFLOWINTERNALSOURCE_maxHits</title>
<polygon style="fill:skyblue;stroke:black;" points="73,40 21,40 21,58 73,58 73,40"/>
<text text-anchor="middle" style="font-family:Helvetica;font-size:10.00;" x="47" y="52">maxHits</text>
</g>
<g id="edge6" class="edge"><title>WORKFLOWINTERNALSOURCE_maxHits&#45;&gt;search</title>
<path style="fill:none;stroke:black;" d="M59,59C64,62 69,65 75,67 89,73 107,77 121,80"/>
<polygon style="fill:black;stroke:black;" points="122,77 131,82 121,83 122,77"/>
</g>
<g id="node9" class="node"><title>WORKFLOWINTERNALSINKCONTROL</title>
<polygon style="fill:#6acd00;stroke:black;" points="218,147 225,137 211,137 218,147"/>
</g>
</g>
</svg>
