<?xml version="1.0" encoding="UTF-8" standalone="no"?>
<!DOCTYPE svg PUBLIC "-//W3C//DTD SVG 1.0//EN"
 "http://www.w3.org/TR/2001/REC-SVG-20010904/DTD/svg10.dtd">
<!-- Generated by dot version 2.2 (Fri Mar 11 00:51:40 UTC 2005)
     For user: (root) root   Title: scufl_graph    Pages: 1 -->
<svg width="129pt" height="182pt"
 viewBox = "-1 -1 128 181"
 xmlns="http://www.w3.org/2000/svg">
<g id="graph0" class="graph" style="font-family:Times-Roman;font-size:14.00;">
<title>scufl_graph</title>
<g id="graph2" class="cluster"><title>cluster_sources</title>
<polygon style="fill:none;stroke:black;stroke-dasharray:1,5;" points="20,67 109,67 109,12 20,12 20,67"/>
<text text-anchor="middle" style="font-family:Helvetica;font-size:10.00;" x="64" y="24">Workflow Inputs</text>
</g>
<g id="graph3" class="cluster"><title>cluster_sinks</title>
<polygon style="fill:none;stroke:black;stroke-dasharray:1,5;" points="18,158 114,158 114,103 18,103 18,158"/>
<text text-anchor="middle" style="font-family:Helvetica;font-size:10.00;" x="66" y="115">Workflow Outputs</text>
</g>
<g id="node1" class="node"><title>CountListElements</title>
<polygon style="fill:#eec391;stroke:black;" points="105,76 5,76 5,94 105,94 105,76"/>
<text text-anchor="middle" style="font-family:Helvetica;font-size:10.00;" x="55" y="88">CountListElements</text>
</g>
<g id="node7" class="node"><title>WORKFLOWINTERNALSINK_count</title>
<polygon style="fill:#bcd2ee;stroke:black;" points="75,131 35,131 35,149 75,149 75,131"/>
<text text-anchor="middle" style="font-family:Helvetica;font-size:10.00;" x="55" y="143">count</text>
</g>
<g id="edge6" class="edge"><title>CountListElements&#45;&gt;WORKFLOWINTERNALSINK_count</title>
<path style="fill:none;stroke:black;" d="M55,95C55,102 55,111 55,120"/>
<polygon style="fill:black;stroke:black;" points="59,120 55,130 52,120 59,120"/>
</g>
<g id="node3" class="node"><title>WORKFLOWINTERNALSOURCECONTROL</title>
<polygon style="fill:#ff3f3f;stroke:black;" points="92,42 85,52 99,52 92,42"/>
</g>
<g id="node4" class="node"><title>WORKFLOWINTERNALSOURCE_xml_list</title>
<polygon style="fill:skyblue;stroke:black;" points="80,40 30,40 30,58 80,58 80,40"/>
<text text-anchor="middle" style="font-family:Helvetica;font-size:10.00;" x="55" y="52">xml_list</text>
</g>
<g id="edge4" class="edge"><title>WORKFLOWINTERNALSOURCE_xml_list&#45;&gt;CountListElements</title>
<path style="fill:none;stroke:black;" d="M55,59C55,61 55,63 55,65"/>
<polygon style="fill:black;stroke:black;" points="59,65 55,75 52,65 59,65"/>
</g>
<g id="node6" class="node"><title>WORKFLOWINTERNALSINKCONTROL</title>
<polygon style="fill:#6acd00;stroke:black;" points="94,147 101,137 87,137 94,147"/>
</g>
</g>
</svg>
