<?xml version="1.0" encoding="UTF-8" standalone="no"?>
<!DOCTYPE svg PUBLIC "-//W3C//DTD SVG 1.0//EN"
 "http://www.w3.org/TR/2001/REC-SVG-20010904/DTD/svg10.dtd">
<!-- Generated by dot version 2.2 (Fri Mar 11 00:51:40 UTC 2005)
     For user: (root) root   Title: scufl_graph    Pages: 1 -->
<svg width="608pt" height="254pt"
 viewBox = "-1 -1 607 253"
 xmlns="http://www.w3.org/2000/svg">
<g id="graph0" class="graph" style="font-family:Times-Roman;font-size:14.00;">
<title>scufl_graph</title>
<g id="graph2" class="cluster"><title>cluster_sources</title>
<polygon style="fill:none;stroke:black;stroke-dasharray:1,5;" points="334,67 506,67 506,12 334,12 334,67"/>
<text text-anchor="middle" style="font-family:Helvetica;font-size:10.00;" x="378" y="24">Workflow Inputs</text>
</g>
<g id="graph3" class="cluster"><title>cluster_sinks</title>
<polygon style="fill:none;stroke:black;stroke-dasharray:1,5;" points="13,230 593,230 593,175 13,175 13,230"/>
<text text-anchor="middle" style="font-family:Helvetica;font-size:10.00;" x="61" y="187">Workflow Outputs</text>
</g>
<g id="node1" class="node"><title>GeneIlluminator_Disambiguate</title>
<polygon style="fill:#ffb80f;stroke:black;" points="492,112 340,112 340,130 492,130 492,112"/>
<text text-anchor="middle" style="font-family:Helvetica;font-size:10.00;" x="416" y="124">GeneIlluminator_Disambiguate</text>
</g>
<g id="node2" class="node"><title>Parse_Moby_Data_GI_ClusterAssignment</title>
<polygon style="fill:white;stroke:black;" points="295,148 91,148 91,166 295,166 295,148"/>
<text text-anchor="middle" style="font-family:Helvetica;font-size:10.00;" x="193" y="160">Parse_Moby_Data_GI_ClusterAssignment</text>
</g>
<g id="edge12" class="edge"><title>GeneIlluminator_Disambiguate&#45;&gt;Parse_Moby_Data_GI_ClusterAssignment</title>
<path style="fill:none;stroke:black;" d="M357,131C328,135 293,141 262,145"/>
<polygon style="fill:black;stroke:black;" points="262,148 252,147 261,142 262,148"/>
</g>
<g id="node5" class="node"><title>Parse_Moby_Data_GI_Cluster</title>
<polygon style="fill:white;stroke:black;" points="451,148 299,148 299,166 451,166 451,148"/>
<text text-anchor="middle" style="font-family:Helvetica;font-size:10.00;" x="375" y="160">Parse_Moby_Data_GI_Cluster</text>
</g>
<g id="edge6" class="edge"><title>GeneIlluminator_Disambiguate&#45;&gt;Parse_Moby_Data_GI_Cluster</title>
<path style="fill:none;stroke:black;" d="M405,131C401,134 398,137 394,141"/>
<polygon style="fill:black;stroke:black;" points="396,144 386,147 392,138 396,144"/>
</g>
<g id="node12" class="node"><title>WORKFLOWINTERNALSINK_GI_ClusterAssignment</title>
<polygon style="fill:#bcd2ee;stroke:black;" points="495,203 379,203 379,221 495,221 495,203"/>
<text text-anchor="middle" style="font-family:Helvetica;font-size:10.00;" x="437" y="215">GI_ClusterAssignment</text>
</g>
<g id="edge10" class="edge"><title>GeneIlluminator_Disambiguate&#45;&gt;WORKFLOWINTERNALSINK_GI_ClusterAssignment</title>
<path style="fill:none;stroke:black;" d="M436,131C442,135 449,140 453,147 460,162 455,180 448,193"/>
<polygon style="fill:black;stroke:black;" points="451,195 443,202 445,192 451,195"/>
</g>
<g id="node13" class="node"><title>WORKFLOWINTERNALSINK_GI_Clusters</title>
<polygon style="fill:#bcd2ee;stroke:black;" points="567,203 499,203 499,221 567,221 567,203"/>
<text text-anchor="middle" style="font-family:Helvetica;font-size:10.00;" x="533" y="215">GI_Clusters</text>
</g>
<g id="edge8" class="edge"><title>GeneIlluminator_Disambiguate&#45;&gt;WORKFLOWINTERNALSINK_GI_Clusters</title>
<path style="fill:none;stroke:black;" d="M453,131C482,148 506,176 520,194"/>
<polygon style="fill:black;stroke:black;" points="523,192 526,202 517,196 523,192"/>
</g>
<g id="node14" class="node"><title>WORKFLOWINTERNALSINK_ca_gene_symbol_id</title>
<polygon style="fill:#bcd2ee;stroke:black;" points="125,203 21,203 21,221 125,221 125,203"/>
<text text-anchor="middle" style="font-family:Helvetica;font-size:10.00;" x="73" y="215">ca_gene_symbol_id</text>
</g>
<g id="edge20" class="edge"><title>Parse_Moby_Data_GI_ClusterAssignment&#45;&gt;WORKFLOWINTERNALSINK_ca_gene_symbol_id</title>
<path style="fill:none;stroke:black;" d="M151,167C143,169 135,172 127,175 116,181 103,189 93,196"/>
<polygon style="fill:black;stroke:black;" points="95,199 85,202 91,193 95,199"/>
</g>
<g id="node15" class="node"><title>WORKFLOWINTERNALSINK_ca_organism_id</title>
<polygon style="fill:#bcd2ee;stroke:black;" points="375,203 289,203 289,221 375,221 375,203"/>
<text text-anchor="middle" style="font-family:Helvetica;font-size:10.00;" x="332" y="215">ca_organism_id</text>
</g>
<g id="edge24" class="edge"><title>Parse_Moby_Data_GI_ClusterAssignment&#45;&gt;WORKFLOWINTERNALSINK_ca_organism_id</title>
<path style="fill:none;stroke:black;" d="M255,167C269,169 281,172 287,175 297,180 308,188 315,195"/>
<polygon style="fill:black;stroke:black;" points="318,193 323,202 313,198 318,193"/>
</g>
<g id="node16" class="node"><title>WORKFLOWINTERNALSINK_ca_probability</title>
<polygon style="fill:#bcd2ee;stroke:black;" points="285,203 207,203 207,221 285,221 285,203"/>
<text text-anchor="middle" style="font-family:Helvetica;font-size:10.00;" x="246" y="215">ca_probability</text>
</g>
<g id="edge26" class="edge"><title>Parse_Moby_Data_GI_ClusterAssignment&#45;&gt;WORKFLOWINTERNALSINK_ca_probability</title>
<path style="fill:none;stroke:black;" d="M202,167C210,175 221,186 230,195"/>
<polygon style="fill:black;stroke:black;" points="232,192 237,202 227,197 232,192"/>
</g>
<g id="node17" class="node"><title>WORKFLOWINTERNALSINK_ca_cluster_id</title>
<polygon style="fill:#bcd2ee;stroke:black;" points="203,203 129,203 129,221 203,221 203,203"/>
<text text-anchor="middle" style="font-family:Helvetica;font-size:10.00;" x="166" y="215">ca_cluster_id</text>
</g>
<g id="edge22" class="edge"><title>Parse_Moby_Data_GI_ClusterAssignment&#45;&gt;WORKFLOWINTERNALSINK_ca_cluster_id</title>
<path style="fill:none;stroke:black;" d="M188,167C185,174 180,184 176,193"/>
<polygon style="fill:black;stroke:black;" points="179,195 171,202 173,192 179,195"/>
</g>
<g id="node3" class="node"><title>Organism</title>
<polygon style="fill:gold;stroke:black;" points="476,76 416,76 416,94 476,94 476,76"/>
<text text-anchor="middle" style="font-family:Helvetica;font-size:10.00;" x="446" y="88">Organism</text>
</g>
<g id="edge18" class="edge"><title>Organism&#45;&gt;GeneIlluminator_Disambiguate</title>
<path style="fill:none;stroke:black;" d="M438,95C436,98 433,100 431,103"/>
<polygon style="fill:black;stroke:black;" points="433,106 424,111 428,101 433,106"/>
</g>
<g id="node4" class="node"><title>Object</title>
<polygon style="fill:gold;stroke:black;" points="408,76 364,76 364,94 408,94 408,76"/>
<text text-anchor="middle" style="font-family:Helvetica;font-size:10.00;" x="386" y="88">Object</text>
</g>
<g id="edge14" class="edge"><title>Object&#45;&gt;GeneIlluminator_Disambiguate</title>
<path style="fill:none;stroke:black;" d="M394,95C396,98 399,100 401,103"/>
<polygon style="fill:black;stroke:black;" points="404,101 408,111 399,106 404,101"/>
</g>
<g id="node7" class="node"><title>WORKFLOWINTERNALSOURCECONTROL</title>
<polygon style="fill:#ff3f3f;stroke:black;" points="491,42 484,52 498,52 491,42"/>
</g>
<g id="node8" class="node"><title>WORKFLOWINTERNALSOURCE_GeneSymbol</title>
<polygon style="fill:skyblue;stroke:black;" points="416,40 342,40 342,58 416,58 416,40"/>
<text text-anchor="middle" style="font-family:Helvetica;font-size:10.00;" x="379" y="52">GeneSymbol</text>
</g>
<g id="edge4" class="edge"><title>WORKFLOWINTERNALSOURCE_GeneSymbol&#45;&gt;Object</title>
<path style="fill:none;stroke:black;" d="M381,59C381,61 382,63 382,65"/>
<polygon style="fill:black;stroke:black;" points="385,65 384,75 379,66 385,65"/>
</g>
<g id="node9" class="node"><title>WORKFLOWINTERNALSOURCE_Organism</title>
<polygon style="fill:skyblue;stroke:black;" points="480,40 420,40 420,58 480,58 480,40"/>
<text text-anchor="middle" style="font-family:Helvetica;font-size:10.00;" x="450" y="52">Organism</text>
</g>
<g id="edge16" class="edge"><title>WORKFLOWINTERNALSOURCE_Organism&#45;&gt;Organism</title>
<path style="fill:none;stroke:black;" d="M449,59C449,61 449,63 449,65"/>
<polygon style="fill:black;stroke:black;" points="452,66 447,75 446,65 452,66"/>
</g>
<g id="node11" class="node"><title>WORKFLOWINTERNALSINKCONTROL</title>
<polygon style="fill:#6acd00;stroke:black;" points="578,219 585,209 571,209 578,219"/>
</g>
</g>
</svg>
