<?xml version="1.0" encoding="UTF-8" standalone="no"?>
<!DOCTYPE svg PUBLIC "-//W3C//DTD SVG 1.0//EN"
 "http://www.w3.org/TR/2001/REC-SVG-20010904/DTD/svg10.dtd">
<!-- Generated by dot version 2.2 (Fri Mar 11 00:51:40 UTC 2005)
     For user: (root) root   Title: scufl_graph    Pages: 1 -->
<svg width="260pt" height="290pt"
 viewBox = "-1 -1 259 289"
 xmlns="http://www.w3.org/2000/svg">
<g id="graph0" class="graph" style="font-family:Times-Roman;font-size:14.00;">
<title>scufl_graph</title>
<g id="graph2" class="cluster"><title>cluster_sources</title>
<polygon style="fill:none;stroke:black;stroke-dasharray:1,5;" points="59,67 195,67 195,12 59,12 59,67"/>
<text text-anchor="middle" style="font-family:Helvetica;font-size:10.00;" x="103" y="24">Workflow Inputs</text>
</g>
<g id="graph3" class="cluster"><title>cluster_sinks</title>
<polygon style="fill:none;stroke:black;stroke-dasharray:1,5;" points="46,266 156,266 156,211 46,211 46,266"/>
<text text-anchor="middle" style="font-family:Helvetica;font-size:10.00;" x="94" y="223">Workflow Outputs</text>
</g>
<g id="node1" class="node"><title>Split_string_into_list</title>
<polygon style="fill:#ce5fee;stroke:black;" points="198,112 94,112 94,130 198,130 198,112"/>
<text text-anchor="middle" style="font-family:Helvetica;font-size:10.00;" x="146" y="124">Split_string_into_list</text>
</g>
<g id="node2" class="node"><title>Concatenate_two_strings</title>
<polygon style="fill:#ce5fee;stroke:black;" points="253,148 125,148 125,166 253,166 253,148"/>
<text text-anchor="middle" style="font-family:Helvetica;font-size:10.00;" x="189" y="160">Concatenate_two_strings</text>
</g>
<g id="edge18" class="edge"><title>Split_string_into_list&#45;&gt;Concatenate_two_strings</title>
<path style="fill:none;stroke:black;" d="M158,131C162,134 165,137 169,141"/>
<polygon style="fill:black;stroke:black;" points="171,138 177,147 167,144 171,138"/>
</g>
<g id="node6" class="node"><title>searchSimple</title>
<polygon style="fill:#a3cd5a;stroke:black;" points="130,184 54,184 54,202 130,202 130,184"/>
<text text-anchor="middle" style="font-family:Helvetica;font-size:10.00;" x="92" y="196">searchSimple</text>
</g>
<g id="edge4" class="edge"><title>Concatenate_two_strings&#45;&gt;searchSimple</title>
<path style="fill:none;stroke:black;" d="M163,167C152,171 139,175 128,180"/>
<polygon style="fill:black;stroke:black;" points="129,183 118,183 127,177 129,183"/>
</g>
<g id="node3" class="node"><title>Program</title>
<polygon style="fill:lightsteelblue;stroke:black;" points="59,148 5,148 5,166 59,166 59,148"/>
<text text-anchor="middle" style="font-family:Helvetica;font-size:10.00;" x="32" y="160">Program</text>
</g>
<g id="edge8" class="edge"><title>Program&#45;&gt;searchSimple</title>
<path style="fill:none;stroke:black;" d="M48,167C54,170 61,174 67,178"/>
<polygon style="fill:black;stroke:black;" points="69,175 76,183 66,181 69,175"/>
</g>
<g id="node4" class="node"><title>Regex</title>
<polygon style="fill:lightsteelblue;stroke:black;" points="227,76 183,76 183,94 227,94 227,76"/>
<text text-anchor="middle" style="font-family:Helvetica;font-size:10.00;" x="205" y="88">Regex</text>
</g>
<g id="edge14" class="edge"><title>Regex&#45;&gt;Split_string_into_list</title>
<path style="fill:none;stroke:black;" d="M189,95C184,98 177,102 171,106"/>
<polygon style="fill:black;stroke:black;" points="172,109 162,111 169,103 172,109"/>
</g>
<g id="edge12" class="edge"><title>Regex&#45;&gt;Concatenate_two_strings</title>
<path style="fill:none;stroke:black;" d="M205,95C204,104 203,119 200,131 199,133 199,135 198,138"/>
<polygon style="fill:black;stroke:black;" points="201,139 194,147 195,136 201,139"/>
</g>
<g id="node5" class="node"><title>Database</title>
<polygon style="fill:lightsteelblue;stroke:black;" points="121,148 63,148 63,166 121,166 121,148"/>
<text text-anchor="middle" style="font-family:Helvetica;font-size:10.00;" x="92" y="160">Database</text>
</g>
<g id="edge6" class="edge"><title>Database&#45;&gt;searchSimple</title>
<path style="fill:none;stroke:black;" d="M92,167C92,169 92,171 92,173"/>
<polygon style="fill:black;stroke:black;" points="96,173 92,183 89,173 96,173"/>
</g>
<g id="node13" class="node"><title>WORKFLOWINTERNALSINK_Blast_reports</title>
<polygon style="fill:#bcd2ee;stroke:black;" points="130,239 54,239 54,257 130,257 130,239"/>
<text text-anchor="middle" style="font-family:Helvetica;font-size:10.00;" x="92" y="251">Blast_reports</text>
</g>
<g id="edge20" class="edge"><title>searchSimple&#45;&gt;WORKFLOWINTERNALSINK_Blast_reports</title>
<path style="fill:none;stroke:black;" d="M92,203C92,210 92,219 92,228"/>
<polygon style="fill:black;stroke:black;" points="96,228 92,238 89,228 96,228"/>
</g>
<g id="node7" class="node"><title>Remove_first_character</title>
<polygon style="fill:#eec391;stroke:black;" points="179,76 57,76 57,94 179,94 179,76"/>
<text text-anchor="middle" style="font-family:Helvetica;font-size:10.00;" x="118" y="88">Remove_first_character</text>
</g>
<g id="edge16" class="edge"><title>Remove_first_character&#45;&gt;Split_string_into_list</title>
<path style="fill:none;stroke:black;" d="M126,95C128,97 130,100 132,103"/>
<polygon style="fill:black;stroke:black;" points="135,101 139,111 130,106 135,101"/>
</g>
<g id="node9" class="node"><title>WORKFLOWINTERNALSOURCECONTROL</title>
<polygon style="fill:#ff3f3f;stroke:black;" points="180,42 173,52 187,52 180,42"/>
</g>
<g id="node10" class="node"><title>WORKFLOWINTERNALSOURCE_Protein_sequences</title>
<polygon style="fill:skyblue;stroke:black;" points="169,40 67,40 67,58 169,58 169,40"/>
<text text-anchor="middle" style="font-family:Helvetica;font-size:10.00;" x="118" y="52">Protein_sequences</text>
</g>
<g id="edge10" class="edge"><title>WORKFLOWINTERNALSOURCE_Protein_sequences&#45;&gt;Remove_first_character</title>
<path style="fill:none;stroke:black;" d="M118,59C118,61 118,63 118,65"/>
<polygon style="fill:black;stroke:black;" points="122,65 118,75 115,65 122,65"/>
</g>
<g id="node12" class="node"><title>WORKFLOWINTERNALSINKCONTROL</title>
<polygon style="fill:#6acd00;stroke:black;" points="141,255 148,245 134,245 141,255"/>
</g>
</g>
</svg>
