<?xml version="1.0" encoding="UTF-8" standalone="no"?>
<!DOCTYPE svg PUBLIC "-//W3C//DTD SVG 1.0//EN"
 "http://www.w3.org/TR/2001/REC-SVG-20010904/DTD/svg10.dtd">
<!-- Generated by dot version 2.2 (Fri Mar 11 00:51:40 UTC 2005)
     For user: (root) root   Title: scufl_graph    Pages: 1 -->
<svg width="239pt" height="255pt"
 viewBox = "-1 -1 238 254"
 xmlns="http://www.w3.org/2000/svg">
<g id="graph0" class="graph" style="font-family:Times-Roman;font-size:14.00;">
<title>scufl_graph</title>
<g id="graph2" class="cluster"><title>cluster_sinks</title>
<polygon style="fill:none;stroke:black;stroke-dasharray:1,5;" points="122,231 224,231 224,176 122,176 122,231"/>
<text text-anchor="middle" style="font-family:Helvetica;font-size:10.00;" x="170" y="188">Workflow Outputs</text>
</g>
<g id="node1" class="node"><title>comicURLRegex</title>
<polygon style="fill:lightsteelblue;stroke:black;" points="95,77 5,77 5,95 95,95 95,77"/>
<text text-anchor="middle" style="font-family:Helvetica;font-size:10.00;" x="50" y="89">comicURLRegex</text>
</g>
<g id="node5" class="node"><title>findComicURL</title>
<polygon style="fill:#ce5fee;stroke:black;" points="180,113 100,113 100,131 180,131 180,113"/>
<text text-anchor="middle" style="font-family:Helvetica;font-size:10.00;" x="140" y="125">findComicURL</text>
</g>
<g id="edge3" class="edge"><title>comicURLRegex&#45;&gt;findComicURL</title>
<path style="fill:none;stroke:black;" d="M74,96C84,100 96,104 106,108"/>
<polygon style="fill:black;stroke:black;" points="108,105 116,112 105,112 108,105"/>
</g>
<g id="node2" class="node"><title>xkcdURL</title>
<polygon style="fill:lightsteelblue;stroke:black;" points="196,5 138,5 138,23 196,23 196,5"/>
<text text-anchor="middle" style="font-family:Helvetica;font-size:10.00;" x="167" y="17">xkcdURL</text>
</g>
<g id="node4" class="node"><title>getComicStrip</title>
<polygon style="fill:#ce5fee;stroke:black;" points="204,149 124,149 124,167 204,167 204,149"/>
<text text-anchor="middle" style="font-family:Helvetica;font-size:10.00;" x="164" y="161">getComicStrip</text>
</g>
<g id="edge13" class="edge"><title>xkcdURL&#45;&gt;getComicStrip</title>
<path style="fill:none;stroke:black;" d="M171,24C179,44 195,94 182,132 181,135 180,137 179,140"/>
<polygon style="fill:black;stroke:black;" points="182,142 173,148 176,138 182,142"/>
</g>
<g id="node6" class="node"><title>getPage</title>
<polygon style="fill:#ce5fee;stroke:black;" points="174,41 120,41 120,59 174,59 174,41"/>
<text text-anchor="middle" style="font-family:Helvetica;font-size:10.00;" x="147" y="53">getPage</text>
</g>
<g id="edge15" class="edge"><title>xkcdURL&#45;&gt;getPage</title>
<path style="fill:none;stroke:black;" d="M162,24C161,26 159,29 158,31"/>
<polygon style="fill:black;stroke:black;" points="161,33 153,40 155,30 161,33"/>
</g>
<g id="node3" class="node"><title>getImageLinks</title>
<polygon style="fill:#ce5fee;stroke:black;" points="181,77 99,77 99,95 181,95 181,77"/>
<text text-anchor="middle" style="font-family:Helvetica;font-size:10.00;" x="140" y="89">getImageLinks</text>
</g>
<g id="edge9" class="edge"><title>getImageLinks&#45;&gt;findComicURL</title>
<path style="fill:none;stroke:black;" d="M140,96C140,98 140,100 140,102"/>
<polygon style="fill:black;stroke:black;" points="144,102 140,112 137,102 144,102"/>
</g>
<g id="node9" class="node"><title>WORKFLOWINTERNALSINK_todaysXkcd</title>
<polygon style="fill:#bcd2ee;stroke:black;" points="198,204 130,204 130,222 198,222 198,204"/>
<text text-anchor="middle" style="font-family:Helvetica;font-size:10.00;" x="164" y="216">todaysXkcd</text>
</g>
<g id="edge7" class="edge"><title>getComicStrip&#45;&gt;WORKFLOWINTERNALSINK_todaysXkcd</title>
<path style="fill:none;stroke:black;" d="M164,168C164,175 164,184 164,193"/>
<polygon style="fill:black;stroke:black;" points="168,193 164,203 161,193 168,193"/>
</g>
<g id="edge5" class="edge"><title>findComicURL&#45;&gt;getComicStrip</title>
<path style="fill:none;stroke:black;" d="M147,132C148,134 150,137 152,140"/>
<polygon style="fill:black;stroke:black;" points="155,138 158,148 149,142 155,138"/>
</g>
<g id="edge11" class="edge"><title>getPage&#45;&gt;getImageLinks</title>
<path style="fill:none;stroke:black;" d="M145,60C145,62 144,64 144,66"/>
<polygon style="fill:black;stroke:black;" points="147,67 142,76 141,66 147,67"/>
</g>
<g id="node8" class="node"><title>WORKFLOWINTERNALSINKCONTROL</title>
<polygon style="fill:#6acd00;stroke:black;" points="209,220 216,210 202,210 209,220"/>
</g>
</g>
</svg>
