<?xml version="1.0" encoding="UTF-8" standalone="no"?>
<!DOCTYPE svg PUBLIC "-//W3C//DTD SVG 1.0//EN"
 "http://www.w3.org/TR/2001/REC-SVG-20010904/DTD/svg10.dtd">
<!-- Generated by dot version 2.2 (Fri Mar 11 00:51:40 UTC 2005)
     For user: (root) root   Title: scufl_graph    Pages: 1 -->
<svg width="154pt" height="147pt"
 viewBox = "-1 -1 153 146"
 xmlns="http://www.w3.org/2000/svg">
<g id="graph0" class="graph" style="font-family:Times-Roman;font-size:14.00;">
<title>scufl_graph</title>
<g id="graph2" class="cluster"><title>cluster_sinks</title>
<polygon style="fill:none;stroke:black;stroke-dasharray:1,5;" points="35,123 131,123 131,68 35,68 35,123"/>
<text text-anchor="middle" style="font-family:Helvetica;font-size:10.00;" x="83" y="80">Workflow Outputs</text>
</g>
<g id="node1" class="node"><title>getFragmentWithClosure</title>
<polygon style="fill:#a3cd5a;stroke:black;" points="137,41 11,41 11,59 137,59 137,41"/>
<text text-anchor="middle" style="font-family:Helvetica;font-size:10.00;" x="74" y="53">getFragmentWithClosure</text>
</g>
<g id="node7" class="node"><title>WORKFLOWINTERNALSINK_output</title>
<polygon style="fill:#bcd2ee;stroke:black;" points="96,96 52,96 52,114 96,114 96,96"/>
<text text-anchor="middle" style="font-family:Helvetica;font-size:10.00;" x="74" y="108">output</text>
</g>
<g id="edge5" class="edge"><title>getFragmentWithClosure&#45;&gt;WORKFLOWINTERNALSINK_output</title>
<path style="fill:none;stroke:black;" d="M74,60C74,67 74,76 74,85"/>
<polygon style="fill:black;stroke:black;" points="78,85 74,95 71,85 78,85"/>
</g>
<g id="node2" class="node"><title>smiles</title>
<polygon style="fill:lightsteelblue;stroke:black;" points="49,5 5,5 5,23 49,23 49,5"/>
<text text-anchor="middle" style="font-family:Helvetica;font-size:10.00;" x="27" y="17">smiles</text>
</g>
<g id="edge9" class="edge"><title>smiles&#45;&gt;getFragmentWithClosure</title>
<path style="fill:none;stroke:black;" d="M40,24C44,27 49,31 54,34"/>
<polygon style="fill:black;stroke:black;" points="56,31 62,40 52,37 56,31"/>
</g>
<g id="node3" class="node"><title>group</title>
<polygon style="fill:lightsteelblue;stroke:black;" points="95,5 53,5 53,23 95,23 95,5"/>
<text text-anchor="middle" style="font-family:Helvetica;font-size:10.00;" x="74" y="17">group</text>
</g>
<g id="edge7" class="edge"><title>group&#45;&gt;getFragmentWithClosure</title>
<path style="fill:none;stroke:black;" d="M74,24C74,26 74,28 74,30"/>
<polygon style="fill:black;stroke:black;" points="78,30 74,40 71,30 78,30"/>
</g>
<g id="node4" class="node"><title>closure</title>
<polygon style="fill:lightsteelblue;stroke:black;" points="147,5 99,5 99,23 147,23 147,5"/>
<text text-anchor="middle" style="font-family:Helvetica;font-size:10.00;" x="123" y="17">closure</text>
</g>
<g id="edge3" class="edge"><title>closure&#45;&gt;getFragmentWithClosure</title>
<path style="fill:none;stroke:black;" d="M110,24C106,27 100,31 96,34"/>
<polygon style="fill:black;stroke:black;" points="97,37 87,40 93,32 97,37"/>
</g>
<g id="node6" class="node"><title>WORKFLOWINTERNALSINKCONTROL</title>
<polygon style="fill:#6acd00;stroke:black;" points="111,112 118,102 104,102 111,112"/>
</g>
</g>
</svg>
