<?xml version="1.0" encoding="UTF-8" standalone="no"?>
<!DOCTYPE svg PUBLIC "-//W3C//DTD SVG 1.0//EN"
 "http://www.w3.org/TR/2001/REC-SVG-20010904/DTD/svg10.dtd">
<!-- Generated by dot version 2.2 (Fri Mar 11 00:51:40 UTC 2005)
     For user: (root) root   Title: scufl_graph    Pages: 1 -->
<svg width="427pt" height="435pt"
 viewBox = "-1 -1 426 434"
 xmlns="http://www.w3.org/2000/svg">
<g id="graph0" class="graph" style="font-family:Times-Roman;font-size:14.00;">
<title>scufl_graph</title>
<g id="graph2" class="cluster"><title>cluster_checkStatusWorkflowcheckStatusWorkflow</title>
<polygon style="fill:aliceblue;stroke:black;" points="244,411 412,411 412,175 244,175 244,411"/>
<text text-anchor="middle" style="font-family:Helvetica;font-size:10.00;" x="300" y="187">checkStatusWorkflow</text>
</g>
<g id="graph3" class="cluster"><title>cluster_checkStatusWorkflowsources</title>
<polygon style="fill:none;stroke:black;stroke-dasharray:1,5;" points="258,257 347,257 347,202 258,202 258,257"/>
<text text-anchor="middle" style="font-family:Helvetica;font-size:10.00;" x="302" y="214">Workflow Inputs</text>
</g>
<g id="graph4" class="cluster"><title>cluster_checkStatusWorkflowsinks</title>
<polygon style="fill:none;stroke:black;stroke-dasharray:1,5;" points="252,348 348,348 348,293 252,293 252,348"/>
<text text-anchor="middle" style="font-family:Helvetica;font-size:10.00;" x="300" y="305">Workflow Outputs</text>
</g>
<g id="graph5" class="cluster"><title>cluster_sources</title>
<polygon style="fill:none;stroke:black;stroke-dasharray:1,5;" points="75,67 169,67 169,12 75,12 75,67"/>
<text text-anchor="middle" style="font-family:Helvetica;font-size:10.00;" x="119" y="24">Workflow Inputs</text>
</g>
<g id="graph6" class="cluster"><title>cluster_sinks</title>
<polygon style="fill:none;stroke:black;stroke-dasharray:1,5;" points="58,411 236,411 236,356 58,356 58,411"/>
<text text-anchor="middle" style="font-family:Helvetica;font-size:10.00;" x="106" y="368">Workflow Outputs</text>
</g>
<g id="node1" class="node"><title>runInterProScan</title>
<polygon style="fill:#a3cd5a;stroke:black;" points="209,148 121,148 121,166 209,166 209,148"/>
<text text-anchor="middle" style="font-family:Helvetica;font-size:10.00;" x="165" y="160">runInterProScan</text>
</g>
<g id="node6" class="node"><title>poll</title>
<polygon style="fill:#a3cd5a;stroke:black;" points="109,230 77,230 77,248 109,248 109,230"/>
<text text-anchor="middle" style="font-family:Helvetica;font-size:10.00;" x="93" y="242">poll</text>
</g>
<g id="edge25" class="edge"><title>runInterProScan&#45;&gt;poll</title>
<path style="fill:none;stroke:black;" d="M157,167C154,169 152,172 149,175 136,191 120,209 109,222"/>
<polygon style="fill:black;stroke:black;" points="112,224 102,229 107,219 112,224"/>
</g>
<g id="node13" class="node"><title>checkStatusWorkflowWORKFLOWINTERNALSOURCE_job</title>
<polygon style="fill:skyblue;stroke:black;" points="299,230 269,230 269,248 299,248 299,230"/>
<text text-anchor="middle" style="font-family:Helvetica;font-size:10.00;" x="284" y="242">job</text>
</g>
<g id="edge23" class="edge"><title>runInterProScan&#45;&gt;checkStatusWorkflowWORKFLOWINTERNALSOURCE_job</title>
<path style="fill:none;stroke:black;" d="M209,160C233,162 260,167 269,175 281,187 284,205 285,219"/>
<polygon style="fill:black;stroke:black;" points="289,219 285,229 282,219 289,219"/>
</g>
<g id="node26" class="node"><title>WORKFLOWINTERNALSINK_jobid</title>
<polygon style="fill:#bcd2ee;stroke:black;" points="162,384 124,384 124,402 162,402 162,384"/>
<text text-anchor="middle" style="font-family:Helvetica;font-size:10.00;" x="143" y="396">jobid</text>
</g>
<g id="edge33" class="edge"><title>runInterProScan&#45;&gt;WORKFLOWINTERNALSINK_jobid</title>
<path style="fill:none;stroke:black;" d="M164,167C161,202 149,325 145,373"/>
<polygon style="fill:black;stroke:black;" points="148,373 144,383 142,373 148,373"/>
</g>
<g id="node2" class="node"><title>contentXML</title>
<polygon style="fill:#ce5fee;stroke:black;" points="148,112 78,112 78,130 148,130 148,112"/>
<text text-anchor="middle" style="font-family:Helvetica;font-size:10.00;" x="113" y="124">contentXML</text>
</g>
<g id="edge17" class="edge"><title>contentXML&#45;&gt;runInterProScan</title>
<path style="fill:none;stroke:black;" d="M127,131C132,134 137,138 143,142"/>
<polygon style="fill:black;stroke:black;" points="144,139 151,147 141,145 144,139"/>
</g>
<g id="node3" class="node"><title>params</title>
<polygon style="fill:#ce5fee;stroke:black;" points="202,112 152,112 152,130 202,130 202,112"/>
<text text-anchor="middle" style="font-family:Helvetica;font-size:10.00;" x="177" y="124">params</text>
</g>
<g id="edge19" class="edge"><title>params&#45;&gt;runInterProScan</title>
<path style="fill:none;stroke:black;" d="M174,131C173,133 172,135 172,137"/>
<polygon style="fill:black;stroke:black;" points="175,139 168,147 168,136 175,139"/>
</g>
<g id="node4" class="node"><title>Byte___to_String</title>
<polygon style="fill:#ce5fee;stroke:black;" points="139,266 47,266 47,284 139,284 139,266"/>
<text text-anchor="middle" style="font-family:Helvetica;font-size:10.00;" x="93" y="278">Byte___to_String</text>
</g>
<g id="node28" class="node"><title>WORKFLOWINTERNALSINK_txt result</title>
<polygon style="fill:#bcd2ee;stroke:black;" points="120,384 66,384 66,402 120,402 120,384"/>
<text text-anchor="middle" style="font-family:Helvetica;font-size:10.00;" x="93" y="396">txt result</text>
</g>
<g id="edge29" class="edge"><title>Byte___to_String&#45;&gt;WORKFLOWINTERNALSINK_txt result</title>
<path style="fill:none;stroke:black;" d="M93,285C93,304 93,347 93,373"/>
<polygon style="fill:black;stroke:black;" points="97,373 93,383 90,373 97,373"/>
</g>
<g id="node5" class="node"><title>WSArrayofDataXML</title>
<polygon style="fill:#ce5fee;stroke:black;" points="166,76 60,76 60,94 166,94 166,76"/>
<text text-anchor="middle" style="font-family:Helvetica;font-size:10.00;" x="113" y="88">WSArrayofDataXML</text>
</g>
<g id="edge15" class="edge"><title>WSArrayofDataXML&#45;&gt;contentXML</title>
<path style="fill:none;stroke:black;" d="M113,95C113,97 113,99 113,101"/>
<polygon style="fill:black;stroke:black;" points="117,101 113,111 110,101 117,101"/>
</g>
<g id="edge21" class="edge"><title>poll&#45;&gt;Byte___to_String</title>
<path style="fill:none;stroke:black;" d="M93,249C93,251 93,253 93,255"/>
<polygon style="fill:black;stroke:black;" points="97,255 93,265 90,255 97,255"/>
</g>
<g id="node8" class="node"><title>checkStatusWorkflowFail_if_false</title>
<polygon style="fill:#ce5fee;stroke:black;" points="404,384 336,384 336,402 404,402 404,384"/>
<text text-anchor="middle" style="font-family:Helvetica;font-size:10.00;" x="370" y="396">Fail_if_false</text>
</g>
<g id="node9" class="node"><title>checkStatusWorkflowisDone</title>
<polygon style="fill:#eec391;stroke:black;" points="404,321 356,321 356,339 404,339 404,321"/>
<text text-anchor="middle" style="font-family:Helvetica;font-size:10.00;" x="380" y="333">isDone</text>
</g>
<g id="edge9" class="edge"><title>checkStatusWorkflowisDone&#45;&gt;checkStatusWorkflowFail_if_false</title>
<path style="fill:none;stroke:black;" d="M378,340C377,348 375,362 374,373"/>
<polygon style="fill:black;stroke:black;" points="377,374 372,383 371,373 377,374"/>
</g>
<g id="node10" class="node"><title>checkStatusWorkflowcheckStatus</title>
<polygon style="fill:#a3cd5a;stroke:black;" points="322,266 252,266 252,284 322,284 322,266"/>
<text text-anchor="middle" style="font-family:Helvetica;font-size:10.00;" x="287" y="278">checkStatus</text>
</g>
<g id="edge7" class="edge"><title>checkStatusWorkflowcheckStatus&#45;&gt;checkStatusWorkflowisDone</title>
<path style="fill:none;stroke:black;" d="M322,282C331,284 341,288 349,293 356,298 363,305 368,312"/>
<polygon style="fill:black;stroke:black;" points="371,310 374,320 365,314 371,310"/>
</g>
<g id="node16" class="node"><title>checkStatusWorkflowWORKFLOWINTERNALSINK_status</title>
<polygon style="fill:#bcd2ee;stroke:black;" points="306,321 262,321 262,339 306,339 306,321"/>
<text text-anchor="middle" style="font-family:Helvetica;font-size:10.00;" x="284" y="333">status</text>
</g>
<g id="edge11" class="edge"><title>checkStatusWorkflowcheckStatus&#45;&gt;checkStatusWorkflowWORKFLOWINTERNALSINK_status</title>
<path style="fill:none;stroke:black;" d="M286,285C286,292 286,301 285,310"/>
<polygon style="fill:black;stroke:black;" points="289,310 285,320 282,310 289,310"/>
</g>
<g id="node12" class="node"><title>checkStatusWorkflowWORKFLOWINTERNALSOURCECONTROL</title>
<polygon style="fill:#ff3f3f;stroke:black;" points="321,232 314,242 328,242 321,232"/>
</g>
<g id="edge5" class="edge"><title>checkStatusWorkflowWORKFLOWINTERNALSOURCE_job&#45;&gt;checkStatusWorkflowcheckStatus</title>
<path style="fill:none;stroke:black;" d="M285,249C285,251 285,253 285,255"/>
<polygon style="fill:black;stroke:black;" points="288,255 286,265 282,255 288,255"/>
</g>
<g id="node15" class="node"><title>checkStatusWorkflowWORKFLOWINTERNALSINKCONTROL</title>
<polygon style="fill:#6acd00;stroke:black;" points="325,337 332,327 318,327 325,337"/>
</g>
<g id="node27" class="node"><title>WORKFLOWINTERNALSINK_status</title>
<polygon style="fill:#bcd2ee;stroke:black;" points="210,384 166,384 166,402 210,402 210,384"/>
<text text-anchor="middle" style="font-family:Helvetica;font-size:10.00;" x="188" y="396">status</text>
</g>
<g id="edge31" class="edge"><title>checkStatusWorkflowWORKFLOWINTERNALSINK_status&#45;&gt;WORKFLOWINTERNALSINK_status</title>
<path style="fill:none;stroke:black;" d="M275,340C271,343 267,346 262,348 242,358 231,344 212,356 205,361 201,367 197,374"/>
<polygon style="fill:black;stroke:black;" points="200,376 192,383 194,373 200,376"/>
</g>
<g id="node22" class="node"><title>WORKFLOWINTERNALSOURCECONTROL</title>
<polygon style="fill:#ff3f3f;stroke:black;" points="154,42 147,52 161,52 154,42"/>
</g>
<g id="node23" class="node"><title>WORKFLOWINTERNALSOURCE_sequence</title>
<polygon style="fill:skyblue;stroke:black;" points="143,40 83,40 83,58 143,58 143,40"/>
<text text-anchor="middle" style="font-family:Helvetica;font-size:10.00;" x="113" y="52">sequence</text>
</g>
<g id="edge27" class="edge"><title>WORKFLOWINTERNALSOURCE_sequence&#45;&gt;WSArrayofDataXML</title>
<path style="fill:none;stroke:black;" d="M113,59C113,61 113,63 113,65"/>
<polygon style="fill:black;stroke:black;" points="117,65 113,75 110,65 117,65"/>
</g>
<g id="node25" class="node"><title>WORKFLOWINTERNALSINKCONTROL</title>
<polygon style="fill:#6acd00;stroke:black;" points="221,400 228,390 214,390 221,400"/>
</g>
<g id="node39" class="node"><title>checkStatusWorkflow</title>
<polygon style="fill:lightgoldenrodyellow;stroke:black;" points="117,148 5,148 5,166 117,166 117,148"/>
<text text-anchor="middle" style="font-family:Helvetica;font-size:10.00;" x="61" y="160">checkStatusWorkflow</text>
</g>
<g id="edge35" class="edge"><title>checkStatusWorkflow&#45;&gt;poll</title>
<path style="fill:none;stroke:gray;" d="M65,167C70,180 80,205 86,221"/>
<ellipse cx="88" cy="225" rx="4" ry="4" style="fill:none;stroke:gray;"/>
</g>
</g>
</svg>
