<?xml version="1.0" encoding="UTF-8" standalone="no"?>
<!DOCTYPE svg PUBLIC "-//W3C//DTD SVG 1.0//EN"
 "http://www.w3.org/TR/2001/REC-SVG-20010904/DTD/svg10.dtd">
<!-- Generated by dot version 2.2 (Fri Mar 11 00:51:40 UTC 2005)
     For user: (root) root   Title: scufl_graph    Pages: 1 -->
<svg width="268pt" height="218pt"
 viewBox = "-1 -1 267 217"
 xmlns="http://www.w3.org/2000/svg">
<g id="graph0" class="graph" style="font-family:Times-Roman;font-size:14.00;">
<title>scufl_graph</title>
<g id="graph2" class="cluster"><title>cluster_sources</title>
<polygon style="fill:none;stroke:black;stroke-dasharray:1,5;" points="142,67 231,67 231,12 142,12 142,67"/>
<text text-anchor="middle" style="font-family:Helvetica;font-size:10.00;" x="186" y="24">Workflow Inputs</text>
</g>
<g id="graph3" class="cluster"><title>cluster_sinks</title>
<polygon style="fill:none;stroke:black;stroke-dasharray:1,5;" points="49,194 253,194 253,139 49,139 49,194"/>
<text text-anchor="middle" style="font-family:Helvetica;font-size:10.00;" x="97" y="151">Workflow Outputs</text>
</g>
<g id="node1" class="node"><title>Get_Protein_FASTA</title>
<polygon style="fill:#ce5fee;stroke:black;" points="229,76 125,76 125,94 229,94 229,76"/>
<text text-anchor="middle" style="font-family:Helvetica;font-size:10.00;" x="177" y="88">Get_Protein_FASTA</text>
</g>
<g id="node2" class="node"><title>searchSimple</title>
<polygon style="fill:#a3cd5a;stroke:black;" points="132,112 56,112 56,130 132,130 132,112"/>
<text text-anchor="middle" style="font-family:Helvetica;font-size:10.00;" x="94" y="124">searchSimple</text>
</g>
<g id="edge6" class="edge"><title>Get_Protein_FASTA&#45;&gt;searchSimple</title>
<path style="fill:none;stroke:black;" d="M155,95C146,99 135,103 125,107"/>
<polygon style="fill:black;stroke:black;" points="127,110 116,111 124,104 127,110"/>
</g>
<g id="node10" class="node"><title>WORKFLOWINTERNALSINK_protein_sequence</title>
<polygon style="fill:#bcd2ee;stroke:black;" points="227,167 131,167 131,185 227,185 227,167"/>
<text text-anchor="middle" style="font-family:Helvetica;font-size:10.00;" x="179" y="179">protein_sequence</text>
</g>
<g id="edge12" class="edge"><title>Get_Protein_FASTA&#45;&gt;WORKFLOWINTERNALSINK_protein_sequence</title>
<path style="fill:none;stroke:black;" d="M177,95C178,109 178,137 179,156"/>
<polygon style="fill:black;stroke:black;" points="183,156 179,166 176,156 183,156"/>
</g>
<g id="node11" class="node"><title>WORKFLOWINTERNALSINK_blast_report</title>
<polygon style="fill:#bcd2ee;stroke:black;" points="127,167 57,167 57,185 127,185 127,167"/>
<text text-anchor="middle" style="font-family:Helvetica;font-size:10.00;" x="92" y="179">blast_report</text>
</g>
<g id="edge14" class="edge"><title>searchSimple&#45;&gt;WORKFLOWINTERNALSINK_blast_report</title>
<path style="fill:none;stroke:black;" d="M94,131C93,138 93,147 93,156"/>
<polygon style="fill:black;stroke:black;" points="96,156 92,166 90,156 96,156"/>
</g>
<g id="node3" class="node"><title>database</title>
<polygon style="fill:lightsteelblue;stroke:black;" points="63,76 5,76 5,94 63,94 63,76"/>
<text text-anchor="middle" style="font-family:Helvetica;font-size:10.00;" x="34" y="88">database</text>
</g>
<g id="edge8" class="edge"><title>database&#45;&gt;searchSimple</title>
<path style="fill:none;stroke:black;" d="M50,95C56,98 63,102 69,106"/>
<polygon style="fill:black;stroke:black;" points="71,103 78,111 68,109 71,103"/>
</g>
<g id="node4" class="node"><title>program</title>
<polygon style="fill:lightsteelblue;stroke:black;" points="121,76 67,76 67,94 121,94 121,76"/>
<text text-anchor="middle" style="font-family:Helvetica;font-size:10.00;" x="94" y="88">program</text>
</g>
<g id="edge10" class="edge"><title>program&#45;&gt;searchSimple</title>
<path style="fill:none;stroke:black;" d="M94,95C94,97 94,99 94,101"/>
<polygon style="fill:black;stroke:black;" points="98,101 94,111 91,101 98,101"/>
</g>
<g id="node6" class="node"><title>WORKFLOWINTERNALSOURCECONTROL</title>
<polygon style="fill:#ff3f3f;stroke:black;" points="208,42 201,52 215,52 208,42"/>
</g>
<g id="node7" class="node"><title>WORKFLOWINTERNALSOURCE_ID</title>
<polygon style="fill:skyblue;stroke:black;" points="190,40 164,40 164,58 190,58 190,40"/>
<text text-anchor="middle" style="font-family:Helvetica;font-size:10.00;" x="177" y="52">ID</text>
</g>
<g id="edge4" class="edge"><title>WORKFLOWINTERNALSOURCE_ID&#45;&gt;Get_Protein_FASTA</title>
<path style="fill:none;stroke:black;" d="M177,59C177,61 177,63 177,65"/>
<polygon style="fill:black;stroke:black;" points="181,65 177,75 174,65 181,65"/>
</g>
<g id="node9" class="node"><title>WORKFLOWINTERNALSINKCONTROL</title>
<polygon style="fill:#6acd00;stroke:black;" points="238,183 245,173 231,173 238,183"/>
</g>
</g>
</svg>
