<?xml version="1.0" encoding="UTF-8" standalone="no"?>
<!DOCTYPE svg PUBLIC "-//W3C//DTD SVG 1.0//EN"
 "http://www.w3.org/TR/2001/REC-SVG-20010904/DTD/svg10.dtd">
<!-- Generated by dot version 2.2 (Fri Mar 11 00:51:40 UTC 2005)
     For user: (root) root   Title: scufl_graph    Pages: 1 -->
<svg width="186pt" height="551pt"
 viewBox = "-1 -1 185 550"
 xmlns="http://www.w3.org/2000/svg">
<g id="graph0" class="graph" style="font-family:Times-Roman;font-size:14.00;">
<title>scufl_graph</title>
<g id="graph2" class="cluster"><title>cluster_Add_ncbi_to_stringAdd_ncbi_to_string</title>
<polygon style="fill:aliceblue;stroke:black;" points="30,256 154,256 154,75 30,75 30,256"/>
<text text-anchor="middle" style="font-family:Helvetica;font-size:10.00;" x="81" y="87">Add_ncbi_to_string</text>
</g>
<g id="graph3" class="cluster"><title>cluster_Add_ncbi_to_stringsources</title>
<polygon style="fill:none;stroke:black;stroke-dasharray:1,5;" points="42,157 146,157 146,102 42,102 42,157"/>
<text text-anchor="middle" style="font-family:Helvetica;font-size:10.00;" x="86" y="114">Workflow Inputs</text>
</g>
<g id="graph4" class="cluster"><title>cluster_Add_ncbi_to_stringsinks</title>
<polygon style="fill:none;stroke:black;stroke-dasharray:1,5;" points="38,248 146,248 146,193 38,193 38,248"/>
<text text-anchor="middle" style="font-family:Helvetica;font-size:10.00;" x="86" y="205">Workflow Outputs</text>
</g>
<g id="graph5" class="cluster"><title>cluster_sources</title>
<polygon style="fill:none;stroke:black;stroke-dasharray:1,5;" points="50,67 139,67 139,12 50,12 50,67"/>
<text text-anchor="middle" style="font-family:Helvetica;font-size:10.00;" x="94" y="24">Workflow Inputs</text>
</g>
<g id="graph6" class="cluster"><title>cluster_sinks</title>
<polygon style="fill:none;stroke:black;stroke-dasharray:1,5;" points="13,527 171,527 171,472 13,472 13,527"/>
<text text-anchor="middle" style="font-family:Helvetica;font-size:10.00;" x="61" y="484">Workflow Outputs</text>
</g>
<g id="node1" class="node"><title>merge_pathways</title>
<polygon style="fill:#ce5fee;stroke:black;" points="129,409 37,409 37,427 129,427 129,409"/>
<text text-anchor="middle" style="font-family:Helvetica;font-size:10.00;" x="83" y="421">merge_pathways</text>
</g>
<g id="node2" class="node"><title>mergePathways_2</title>
<polygon style="fill:#ce5fee;stroke:black;" points="132,445 34,445 34,463 132,463 132,445"/>
<text text-anchor="middle" style="font-family:Helvetica;font-size:10.00;" x="83" y="457">mergePathways_2</text>
</g>
<g id="edge23" class="edge"><title>merge_pathways&#45;&gt;mergePathways_2</title>
<path style="fill:none;stroke:black;" d="M83,428C83,430 83,432 83,434"/>
<polygon style="fill:black;stroke:black;" points="87,434 83,444 80,434 87,434"/>
</g>
<g id="node22" class="node"><title>WORKFLOWINTERNALSINK_merged_kegg_pathways</title>
<polygon style="fill:#bcd2ee;stroke:black;" points="145,500 21,500 21,518 145,518 145,500"/>
<text text-anchor="middle" style="font-family:Helvetica;font-size:10.00;" x="83" y="512">merged_kegg_pathways</text>
</g>
<g id="edge21" class="edge"><title>mergePathways_2&#45;&gt;WORKFLOWINTERNALSINK_merged_kegg_pathways</title>
<path style="fill:none;stroke:black;" d="M83,464C83,471 83,480 83,489"/>
<polygon style="fill:black;stroke:black;" points="87,489 83,499 80,489 87,489"/>
</g>
<g id="node3" class="node"><title>split_gene_ids</title>
<polygon style="fill:#eec391;stroke:black;" points="123,301 43,301 43,319 123,319 123,301"/>
<text text-anchor="middle" style="font-family:Helvetica;font-size:10.00;" x="83" y="313">split_gene_ids</text>
</g>
<g id="node4" class="node"><title>lister</title>
<polygon style="fill:#a3cd5a;stroke:black;" points="102,337 64,337 64,355 102,355 102,337"/>
<text text-anchor="middle" style="font-family:Helvetica;font-size:10.00;" x="83" y="349">lister</text>
</g>
<g id="edge25" class="edge"><title>split_gene_ids&#45;&gt;lister</title>
<path style="fill:none;stroke:black;" d="M83,320C83,322 83,324 83,326"/>
<polygon style="fill:black;stroke:black;" points="87,326 83,336 80,326 87,326"/>
</g>
<g id="node5" class="node"><title>get_pathways_by_genes</title>
<polygon style="fill:#a3cd5a;stroke:black;" points="146,373 20,373 20,391 146,391 146,373"/>
<text text-anchor="middle" style="font-family:Helvetica;font-size:10.00;" x="83" y="385">get_pathways_by_genes</text>
</g>
<g id="edge19" class="edge"><title>lister&#45;&gt;get_pathways_by_genes</title>
<path style="fill:none;stroke:black;" d="M83,356C83,358 83,360 83,362"/>
<polygon style="fill:black;stroke:black;" points="87,362 83,372 80,362 87,362"/>
</g>
<g id="edge17" class="edge"><title>get_pathways_by_genes&#45;&gt;merge_pathways</title>
<path style="fill:none;stroke:black;" d="M83,392C83,394 83,396 83,398"/>
<polygon style="fill:black;stroke:black;" points="87,398 83,408 80,398 87,398"/>
</g>
<g id="node6" class="node"><title>Kegg_gene_ids_all_species</title>
<polygon style="fill:#a3cd5a;stroke:black;" points="153,265 13,265 13,283 153,283 153,265"/>
<text text-anchor="middle" style="font-family:Helvetica;font-size:10.00;" x="83" y="277">Kegg_gene_ids_all_species</text>
</g>
<g id="edge13" class="edge"><title>Kegg_gene_ids_all_species&#45;&gt;split_gene_ids</title>
<path style="fill:none;stroke:black;" d="M83,284C83,286 83,288 83,290"/>
<polygon style="fill:black;stroke:black;" points="87,290 83,300 80,290 87,290"/>
</g>
<g id="node8" class="node"><title>Add_ncbi_to_stringadd_ncbi_to_string</title>
<polygon style="fill:#eec391;stroke:black;" points="138,166 38,166 38,184 138,184 138,166"/>
<text text-anchor="middle" style="font-family:Helvetica;font-size:10.00;" x="88" y="178">add_ncbi_to_string</text>
</g>
<g id="node14" class="node"><title>Add_ncbi_to_stringWORKFLOWINTERNALSINK_Kegg_strings</title>
<polygon style="fill:#bcd2ee;stroke:black;" points="120,221 46,221 46,239 120,239 120,221"/>
<text text-anchor="middle" style="font-family:Helvetica;font-size:10.00;" x="83" y="233">Kegg_strings</text>
</g>
<g id="edge7" class="edge"><title>Add_ncbi_to_stringadd_ncbi_to_string&#45;&gt;Add_ncbi_to_stringWORKFLOWINTERNALSINK_Kegg_strings</title>
<path style="fill:none;stroke:black;" d="M87,185C86,192 86,202 85,210"/>
<polygon style="fill:black;stroke:black;" points="88,210 84,220 82,210 88,210"/>
</g>
<g id="node10" class="node"><title>Add_ncbi_to_stringWORKFLOWINTERNALSOURCECONTROL</title>
<polygon style="fill:#ff3f3f;stroke:black;" points="131,132 124,142 138,142 131,132"/>
</g>
<g id="node11" class="node"><title>Add_ncbi_to_stringWORKFLOWINTERNALSOURCE_Gi_numbers</title>
<polygon style="fill:skyblue;stroke:black;" points="120,130 50,130 50,148 120,148 120,130"/>
<text text-anchor="middle" style="font-family:Helvetica;font-size:10.00;" x="85" y="142">Gi_numbers</text>
</g>
<g id="edge5" class="edge"><title>Add_ncbi_to_stringWORKFLOWINTERNALSOURCE_Gi_numbers&#45;&gt;Add_ncbi_to_stringadd_ncbi_to_string</title>
<path style="fill:none;stroke:black;" d="M86,149C86,151 86,153 86,155"/>
<polygon style="fill:black;stroke:black;" points="89,155 87,165 83,155 89,155"/>
</g>
<g id="node13" class="node"><title>Add_ncbi_to_stringWORKFLOWINTERNALSINKCONTROL</title>
<polygon style="fill:#6acd00;stroke:black;" points="131,237 138,227 124,227 131,237"/>
</g>
<g id="edge11" class="edge"><title>Add_ncbi_to_stringWORKFLOWINTERNALSINK_Kegg_strings&#45;&gt;Kegg_gene_ids_all_species</title>
<path style="fill:none;stroke:black;" d="M83,240C83,244 83,249 83,254"/>
<polygon style="fill:black;stroke:black;" points="87,254 83,264 80,254 87,254"/>
</g>
<g id="node18" class="node"><title>WORKFLOWINTERNALSOURCECONTROL</title>
<polygon style="fill:#ff3f3f;stroke:black;" points="119,42 112,52 126,52 119,42"/>
</g>
<g id="node19" class="node"><title>WORKFLOWINTERNALSOURCE_gene</title>
<polygon style="fill:skyblue;stroke:black;" points="104,40 66,40 66,58 104,58 104,40"/>
<text text-anchor="middle" style="font-family:Helvetica;font-size:10.00;" x="85" y="52">gene</text>
</g>
<g id="edge15" class="edge"><title>WORKFLOWINTERNALSOURCE_gene&#45;&gt;Add_ncbi_to_stringWORKFLOWINTERNALSOURCE_Gi_numbers</title>
<path style="fill:none;stroke:black;" d="M85,59C85,73 85,100 85,119"/>
<polygon style="fill:black;stroke:black;" points="89,119 85,129 82,119 89,119"/>
</g>
<g id="node21" class="node"><title>WORKFLOWINTERNALSINKCONTROL</title>
<polygon style="fill:#6acd00;stroke:black;" points="156,516 163,506 149,506 156,516"/>
</g>
</g>
</svg>
