<?xml version="1.0" encoding="UTF-8" standalone="no"?>
<!DOCTYPE svg PUBLIC "-//W3C//DTD SVG 1.0//EN"
 "http://www.w3.org/TR/2001/REC-SVG-20010904/DTD/svg10.dtd">
<!-- Generated by dot version 2.2 (Fri Mar 11 00:51:40 UTC 2005)
     For user: (root) root   Title: scufl_graph    Pages: 1 -->
<svg width="350pt" height="219pt"
 viewBox = "-1 -1 349 218"
 xmlns="http://www.w3.org/2000/svg">
<g id="graph0" class="graph" style="font-family:Times-Roman;font-size:14.00;">
<title>scufl_graph</title>
<g id="graph2" class="cluster"><title>cluster_sinks</title>
<polygon style="fill:none;stroke:black;stroke-dasharray:1,5;" points="39,195 135,195 135,140 39,140 39,195"/>
<text text-anchor="middle" style="font-family:Helvetica;font-size:10.00;" x="87" y="152">Workflow Outputs</text>
</g>
<g id="node1" class="node"><title>closure</title>
<polygon style="fill:lightsteelblue;stroke:black;" points="53,77 5,77 5,95 53,95 53,77"/>
<text text-anchor="middle" style="font-family:Helvetica;font-size:10.00;" x="29" y="89">closure</text>
</g>
<g id="node5" class="node"><title>getFragmentWithClosure</title>
<polygon style="fill:#a3cd5a;stroke:black;" points="141,113 15,113 15,131 141,131 141,113"/>
<text text-anchor="middle" style="font-family:Helvetica;font-size:10.00;" x="78" y="125">getFragmentWithClosure</text>
</g>
<g id="edge7" class="edge"><title>closure&#45;&gt;getFragmentWithClosure</title>
<path style="fill:none;stroke:black;" d="M42,96C46,99 52,103 56,106"/>
<polygon style="fill:black;stroke:black;" points="59,104 65,112 55,109 59,104"/>
</g>
<g id="node2" class="node"><title>smilesURL</title>
<polygon style="fill:lightsteelblue;stroke:black;" points="255,5 191,5 191,23 255,23 255,5"/>
<text text-anchor="middle" style="font-family:Helvetica;font-size:10.00;" x="223" y="17">smilesURL</text>
</g>
<g id="node4" class="node"><title>Get_web_page_from_URL</title>
<polygon style="fill:#ce5fee;stroke:black;" points="290,41 156,41 156,59 290,59 290,41"/>
<text text-anchor="middle" style="font-family:Helvetica;font-size:10.00;" x="223" y="53">Get_web_page_from_URL</text>
</g>
<g id="edge13" class="edge"><title>smilesURL&#45;&gt;Get_web_page_from_URL</title>
<path style="fill:none;stroke:black;" d="M223,24C223,26 223,28 223,30"/>
<polygon style="fill:black;stroke:black;" points="227,30 223,40 220,30 227,30"/>
</g>
<g id="node3" class="node"><title>group</title>
<polygon style="fill:lightsteelblue;stroke:black;" points="99,77 57,77 57,95 99,95 99,77"/>
<text text-anchor="middle" style="font-family:Helvetica;font-size:10.00;" x="78" y="89">group</text>
</g>
<g id="edge11" class="edge"><title>group&#45;&gt;getFragmentWithClosure</title>
<path style="fill:none;stroke:black;" d="M78,96C78,98 78,100 78,102"/>
<polygon style="fill:black;stroke:black;" points="82,102 78,112 75,102 82,102"/>
</g>
<g id="node6" class="node"><title>Split_string_into_string_list_by_regular_expression</title>
<polygon style="fill:#ce5fee;stroke:black;" points="343,77 103,77 103,95 343,95 343,77"/>
<text text-anchor="middle" style="font-family:Helvetica;font-size:10.00;" x="223" y="89">Split_string_into_string_list_by_regular_expression</text>
</g>
<g id="edge3" class="edge"><title>Get_web_page_from_URL&#45;&gt;Split_string_into_string_list_by_regular_expression</title>
<path style="fill:none;stroke:black;" d="M223,60C223,62 223,64 223,66"/>
<polygon style="fill:black;stroke:black;" points="227,66 223,76 220,66 227,66"/>
</g>
<g id="node9" class="node"><title>WORKFLOWINTERNALSINK_output</title>
<polygon style="fill:#bcd2ee;stroke:black;" points="100,168 56,168 56,186 100,186 100,168"/>
<text text-anchor="middle" style="font-family:Helvetica;font-size:10.00;" x="78" y="180">output</text>
</g>
<g id="edge9" class="edge"><title>getFragmentWithClosure&#45;&gt;WORKFLOWINTERNALSINK_output</title>
<path style="fill:none;stroke:black;" d="M78,132C78,139 78,148 78,157"/>
<polygon style="fill:black;stroke:black;" points="82,157 78,167 75,157 82,157"/>
</g>
<g id="edge5" class="edge"><title>Split_string_into_string_list_by_regular_expression&#45;&gt;getFragmentWithClosure</title>
<path style="fill:none;stroke:black;" d="M185,96C167,100 146,105 127,110"/>
<polygon style="fill:black;stroke:black;" points="127,113 117,112 126,107 127,113"/>
</g>
<g id="node8" class="node"><title>WORKFLOWINTERNALSINKCONTROL</title>
<polygon style="fill:#6acd00;stroke:black;" points="115,184 122,174 108,174 115,184"/>
</g>
</g>
</svg>
