<?xml version="1.0" encoding="UTF-8" standalone="no"?>
<!DOCTYPE svg PUBLIC "-//W3C//DTD SVG 1.0//EN"
 "http://www.w3.org/TR/2001/REC-SVG-20010904/DTD/svg10.dtd">
<!-- Generated by dot version 2.2 (Fri Mar 11 00:51:40 UTC 2005)
     For user: (root) root   Title: scufl_graph    Pages: 1 -->
<svg width="182pt" height="254pt"
 viewBox = "-1 -1 181 253"
 xmlns="http://www.w3.org/2000/svg">
<g id="graph0" class="graph" style="font-family:Times-Roman;font-size:14.00;">
<title>scufl_graph</title>
<g id="graph2" class="cluster"><title>cluster_sources</title>
<polygon style="fill:none;stroke:black;stroke-dasharray:1,5;" points="13,67 102,67 102,12 13,12 13,67"/>
<text text-anchor="middle" style="font-family:Helvetica"
;font-size:10.00;" x="57" y="24">Workflow Inputs</text>
</g>
<g id="graph3" class="cluster"><title>cluster_sinks</title>
<polygon style="fill:none;stroke:black;stroke-dasharray:1,5;" points="63,230 167,230 167,175 63,175 63,230"/>
<text text-anchor="middle" style="font-family:Helvetica"
;font-size:10.00;" x="111" y="187">Workflow Outputs</text>
</g>
<g id="node1" class="node"><title>Comma</title>
<polygon style="fill:lightsteelblue;stroke:black;" points="162,40 110,40 110,58 162,58 162,40"/>
<text text-anchor="middle" style="font-family:Helvetica;font-size:10.00;" x="136" y="52">Comma</text>
</g>
<g id="node2" class="node"><title>Split_on_commas</title>
<polygon style="fill:#ce5fee;stroke:black;" points="125,76 29,76 29,94 125,94 125,76"/>
<text text-anchor="middle" style="font-family:Helvetica;font-size:10.00;" x="77" y="88">Split_on_commas</text>
</g>
<g id="edge4" class="edge"><title>Comma&#45;&gt;Split_on_commas</title>
<path style="fill:none;stroke:black;" d="M120,59C115,62 108,66 102,70"/>
<polygon style="fill:black;stroke:black;" points="103,73 93,75 100,67 103,73"/>
</g>
<g id="node4" class="node"><title>Merge_with_commas</title>
<polygon style="fill:#ce5fee;stroke:black;" points="162,148 50,148 50,166 162,166 162,148"/>
<text text-anchor="middle" style="font-family:Helvetica;font-size:10.00;" x="106" y="160">Merge_with_commas</text>
</g>
<g id="edge8" class="edge"><title>Comma&#45;&gt;Merge_with_commas</title>
<path style="fill:none;stroke:black;" d="M137,59C139,75 141,107 131,131 130,134 128,137 126,139"/>
<polygon style="fill:black;stroke:black;" points="128,142 119,147 123,137 128,142"/>
</g>
<g id="node3" class="node"><title>Remove_duplicates</title>
<polygon style="fill:#ce5fee;stroke:black;" points="129,112 25,112 25,130 129,130 129,112"/>
<text text-anchor="middle" style="font-family:Helvetica;font-size:10.00;" x="77" y="124">Remove_duplicates</text>
</g>
<g id="edge14" class="edge"><title>Split_on_commas&#45;&gt;Remove_duplicates</title>
<path style="fill:none;stroke:black;" d="M77,95C77,97 77,99 77,101"/>
<polygon style="fill:black;stroke:black;" points="81,101 77,111 74,101 81,101"/>
</g>
<g id="edge12" class="edge"><title>Remove_duplicates&#45;&gt;Merge_with_commas</title>
<path style="fill:none;stroke:black;" d="M85,131C87,133 89,136 91,139"/>
<polygon style="fill:black;stroke:black;" points="94,137 98,147 89,142 94,137"/>
</g>
<g id="node10" class="node"><title>WORKFLOWINTERNALSINK_Unique tags</title>
<polygon style="fill:#bcd2ee;stroke:black;" points="141,203 71,203 71,221 141,221 141,203"/>
<text text-anchor="middle" style="font-family:Helvetica;font-size:10.00;" x="106" y="215">Unique tags</text>
</g>
<g id="edge10" class="edge"><title>Merge_with_commas&#45;&gt;WORKFLOWINTERNALSINK_Unique tags</title>
<path style="fill:none;stroke:black;" d="M106,167C106,174 106,183 106,192"/>
<polygon style="fill:black;stroke:black;" points="110,192 106,202 103,192 110,192"/>
</g>
<g id="node6" class="node"><title>WORKFLOWINTERNALSOURCECONTROL</title>
<polygon style="fill:#ff3f3f;stroke:black;" points="87,42 80,52 94,52 87,42"/>
</g>
<g id="node7" class="node"><title>WORKFLOWINTERNALSOURCE_Tags</title>
<polygon style="fill:skyblue;stroke:black;" points="76,40 38,40 38,58 76,58 76,40"/>
<text text-anchor="middle" style="font-family:Helvetica;font-size:10.00;" x="57" y="52">Tags</text>
</g>
<g id="edge6" class="edge"><title>WORKFLOWINTERNALSOURCE_Tags&#45;&gt;Split_on_commas</title>
<path style="fill:none;stroke:black;" d="M62,59C63,61 65,64 66,66"/>
<polygon style="fill:black;stroke:black;" points="69,65 71,75 63,68 69,65"/>
</g>
<g id="node9" class="node"><title>WORKFLOWINTERNALSINKCONTROL</title>
<polygon style="fill:#6acd00;stroke:black;" points="152,219 159,209 145,209 152,219"/>
</g>
</g>
</svg>
