<?xml version="1.0" encoding="UTF-8" standalone="no"?>
<!DOCTYPE svg PUBLIC "-//W3C//DTD SVG 1.0//EN"
 "http://www.w3.org/TR/2001/REC-SVG-20010904/DTD/svg10.dtd">
<!-- Generated by dot version 2.2 (Fri Mar 11 00:51:40 UTC 2005)
     For user: (root) root   Title: scufl_graph    Pages: 1 -->
<svg width="969pt" height="1047pt"
 viewBox = "-1 -1 968 1046"
 xmlns="http://www.w3.org/2000/svg">
<g id="graph0" class="graph" style="font-family:Times-Roman;font-size:14.00;">
<title>scufl_graph</title>
<g id="graph2" class="cluster"><title>cluster_Get_pathwaysGet_pathways</title>
<polygon style="fill:aliceblue;stroke:black;" points="222,860 518,860 518,463 222,463 222,860"/>
<text text-anchor="middle" style="font-family:Helvetica;font-size:10.00;" x="262" y="475">Get_pathways</text>
</g>
<g id="graph3" class="cluster"><title>cluster_Get_pathwayssources</title>
<polygon style="fill:none;stroke:black;stroke-dasharray:1,5;" points="420,545 510,545 510,490 420,490 420,545"/>
<text text-anchor="middle" style="font-family:Helvetica;font-size:10.00;" x="464" y="502">Workflow Inputs</text>
</g>
<g id="graph4" class="cluster"><title>cluster_Get_pathwayssinks</title>
<polygon style="fill:none;stroke:black;stroke-dasharray:1,5;" points="230,852 510,852 510,797 230,797 230,852"/>
<text text-anchor="middle" style="font-family:Helvetica;font-size:10.00;" x="278" y="809">Workflow Outputs</text>
</g>
<g id="graph5" class="cluster"><title>cluster_sources</title>
<polygon style="fill:none;stroke:black;stroke-dasharray:1,5;" points="619,67 945,67 945,12 619,12 619,67"/>
<text text-anchor="middle" style="font-family:Helvetica;font-size:10.00;" x="663" y="24">Workflow Inputs</text>
</g>
<g id="graph6" class="cluster"><title>cluster_sinks</title>
<polygon style="fill:none;stroke:black;stroke-dasharray:1,5;" points="60,1023 954,1023 954,968 60,968 60,1023"/>
<text text-anchor="middle" style="font-family:Helvetica;font-size:10.00;" x="108" y="980">Workflow Outputs</text>
</g>
<g id="node1" class="node"><title>kegg_pathway_release</title>
<polygon style="fill:lightsteelblue;stroke:black;" points="123,905 5,905 5,923 123,923 123,905"/>
<text text-anchor="middle" style="font-family:Helvetica;font-size:10.00;" x="64" y="917">kegg_pathway_release</text>
</g>
<g id="node32" class="node"><title>binfo</title>
<polygon style="fill:#a3cd5a;stroke:black;" points="115,941 77,941 77,959 115,959 115,941"/>
<text text-anchor="middle" style="font-family:Helvetica;font-size:10.00;" x="96" y="953">binfo</text>
</g>
<g id="edge67" class="edge"><title>kegg_pathway_release&#45;&gt;binfo</title>
<path style="fill:none;stroke:black;" d="M73,924C75,927 78,929 80,932"/>
<polygon style="fill:black;stroke:black;" points="83,930 87,940 78,935 83,930"/>
</g>
<g id="node2" class="node"><title>regex_2</title>
<polygon style="fill:lightsteelblue;stroke:black;" points="573,364 521,364 521,382 573,382 573,364"/>
<text text-anchor="middle" style="font-family:Helvetica;font-size:10.00;" x="547" y="376">regex_2</text>
</g>
<g id="node6" class="node"><title>split_for_duplicates</title>
<polygon style="fill:#ce5fee;stroke:black;" points="614,400 512,400 512,418 614,418 614,400"/>
<text text-anchor="middle" style="font-family:Helvetica;font-size:10.00;" x="563" y="412">split_for_duplicates</text>
</g>
<g id="edge117" class="edge"><title>regex_2&#45;&gt;split_for_duplicates</title>
<path style="fill:none;stroke:black;" d="M551,383C552,385 553,388 554,390"/>
<polygon style="fill:black;stroke:black;" points="557,389 559,399 551,392 557,389"/>
</g>
<g id="node3" class="node"><title>species</title>
<polygon style="fill:lightsteelblue;stroke:black;" points="884,905 834,905 834,923 884,923 884,905"/>
<text text-anchor="middle" style="font-family:Helvetica;font-size:10.00;" x="859" y="917">species</text>
</g>
<g id="node68" class="node"><title>getcurrentdatabase</title>
<polygon style="fill:lightgoldenrodyellow;stroke:black;" points="910,941 808,941 808,959 910,959 910,941"/>
<text text-anchor="middle" style="font-family:Helvetica;font-size:10.00;" x="859" y="953">getcurrentdatabase</text>
</g>
<g id="edge135" class="edge"><title>species&#45;&gt;getcurrentdatabase</title>
<path style="fill:none;stroke:black;" d="M859,924C859,926 859,928 859,930"/>
<polygon style="fill:black;stroke:black;" points="863,930 859,940 856,930 863,930"/>
</g>
<g id="node4" class="node"><title>merge_entrez_genes</title>
<polygon style="fill:#ce5fee;stroke:black;" points="698,184 588,184 588,202 698,202 698,184"/>
<text text-anchor="middle" style="font-family:Helvetica;font-size:10.00;" x="643" y="196">merge_entrez_genes</text>
</g>
<g id="node14" class="node"><title>remove_Nulls</title>
<polygon style="fill:#eec391;stroke:black;" points="674,220 598,220 598,238 674,238 674,220"/>
<text text-anchor="middle" style="font-family:Helvetica;font-size:10.00;" x="636" y="232">remove_Nulls</text>
</g>
<g id="edge69" class="edge"><title>merge_entrez_genes&#45;&gt;remove_Nulls</title>
<path style="fill:none;stroke:black;" d="M641,203C641,205 640,207 640,209"/>
<polygon style="fill:black;stroke:black;" points="643,210 638,219 637,209 643,210"/>
</g>
<g id="node5" class="node"><title>merge_reports</title>
<polygon style="fill:#ce5fee;stroke:black;" points="806,184 724,184 724,202 806,202 806,184"/>
<text text-anchor="middle" style="font-family:Helvetica;font-size:10.00;" x="765" y="196">merge_reports</text>
</g>
<g id="node81" class="node"><title>WORKFLOWINTERNALSINK_report</title>
<polygon style="fill:#bcd2ee;stroke:black;" points="786,996 744,996 744,1014 786,1014 786,996"/>
<text text-anchor="middle" style="font-family:Helvetica;font-size:10.00;" x="765" y="1008">report</text>
</g>
<g id="edge87" class="edge"><title>merge_reports&#45;&gt;WORKFLOWINTERNALSINK_report</title>
<path style="fill:none;stroke:black;" d="M765,203C765,217 765,243 765,265 765,265 765,265 765,914 765,939 765,967 765,985"/>
<polygon style="fill:black;stroke:black;" points="769,985 765,995 762,985 769,985"/>
</g>
<g id="node7" class="node"><title>remove_duplicate_kegg_genes</title>
<polygon style="fill:#ce5fee;stroke:black;" points="640,436 486,436 486,454 640,454 640,436"/>
<text text-anchor="middle" style="font-family:Helvetica;font-size:10.00;" x="563" y="448">remove_duplicate_kegg_genes</text>
</g>
<g id="edge137" class="edge"><title>split_for_duplicates&#45;&gt;remove_duplicate_kegg_genes</title>
<path style="fill:none;stroke:black;" d="M563,419C563,421 563,423 563,425"/>
<polygon style="fill:black;stroke:black;" points="567,425 563,435 560,425 567,425"/>
</g>
<g id="node33" class="node"><title>gene_descriptions</title>
<polygon style="fill:#a3cd5a;stroke:black;" points="629,869 531,869 531,887 629,887 629,869"/>
<text text-anchor="middle" style="font-family:Helvetica;font-size:10.00;" x="580" y="881">gene_descriptions</text>
</g>
<g id="edge123" class="edge"><title>remove_duplicate_kegg_genes&#45;&gt;gene_descriptions</title>
<path style="fill:none;stroke:black;" d="M564,455C567,475 572,523 572,563 572,563 572,563 572,779 572,807 575,838 577,858"/>
<polygon style="fill:black;stroke:black;" points="580,858 579,868 574,859 580,858"/>
</g>
<g id="node48" class="node"><title>Get_pathwaysWORKFLOWINTERNALSOURCE_gene_ids</title>
<polygon style="fill:skyblue;stroke:black;" points="484,518 428,518 428,536 484,536 484,518"/>
<text text-anchor="middle" style="font-family:Helvetica;font-size:10.00;" x="456" y="530">gene_ids</text>
</g>
<g id="edge121" class="edge"><title>remove_duplicate_kegg_genes&#45;&gt;Get_pathwaysWORKFLOWINTERNALSOURCE_gene_ids</title>
<path style="fill:none;stroke:black;" d="M508,455C498,457 490,460 486,463 472,474 465,493 460,507"/>
<polygon style="fill:black;stroke:black;" points="463,508 458,517 457,507 463,508"/>
</g>
<g id="node8" class="node"><title>remove_entrez_duplicates</title>
<polygon style="fill:#ce5fee;stroke:black;" points="723,148 591,148 591,166 723,166 723,148"/>
<text text-anchor="middle" style="font-family:Helvetica;font-size:10.00;" x="657" y="160">remove_entrez_duplicates</text>
</g>
<g id="edge125" class="edge"><title>remove_entrez_duplicates&#45;&gt;merge_entrez_genes</title>
<path style="fill:none;stroke:black;" d="M653,167C652,169 651,171 651,173"/>
<polygon style="fill:black;stroke:black;" points="654,175 647,183 647,172 654,175"/>
</g>
<g id="node9" class="node"><title>merge_genes_and_pathways</title>
<polygon style="fill:#ce5fee;stroke:black;" points="283,869 137,869 137,887 283,887 283,869"/>
<text text-anchor="middle" style="font-family:Helvetica;font-size:10.00;" x="210" y="881">merge_genes_and_pathways</text>
</g>
<g id="node10" class="node"><title>merge_genes_and_pathways_2</title>
<polygon style="fill:#ce5fee;stroke:black;" points="285,905 127,905 127,923 285,923 285,905"/>
<text text-anchor="middle" style="font-family:Helvetica;font-size:10.00;" x="206" y="917">merge_genes_and_pathways_2</text>
</g>
<g id="edge73" class="edge"><title>merge_genes_and_pathways&#45;&gt;merge_genes_and_pathways_2</title>
<path style="fill:none;stroke:black;" d="M209,888C209,890 209,892 209,894"/>
<polygon style="fill:black;stroke:black;" points="212,895 207,904 206,894 212,895"/>
</g>
<g id="node22" class="node"><title>merge_genes_and_pathways_3</title>
<polygon style="fill:#ce5fee;stroke:black;" points="302,941 144,941 144,959 302,959 302,941"/>
<text text-anchor="middle" style="font-family:Helvetica;font-size:10.00;" x="223" y="953">merge_genes_and_pathways_3</text>
</g>
<g id="edge75" class="edge"><title>merge_genes_and_pathways_2&#45;&gt;merge_genes_and_pathways_3</title>
<path style="fill:none;stroke:black;" d="M211,924C212,926 213,929 214,931"/>
<polygon style="fill:black;stroke:black;" points="217,930 219,940 211,933 217,930"/>
</g>
<g id="node11" class="node"><title>merge_pathway_list_1</title>
<polygon style="fill:#ce5fee;stroke:black;" points="526,869 410,869 410,887 526,887 526,869"/>
<text text-anchor="middle" style="font-family:Helvetica;font-size:10.00;" x="468" y="881">merge_pathway_list_1</text>
</g>
<g id="node17" class="node"><title>merge_pathway_list_2</title>
<polygon style="fill:#ce5fee;stroke:black;" points="527,905 411,905 411,923 527,923 527,905"/>
<text text-anchor="middle" style="font-family:Helvetica;font-size:10.00;" x="469" y="917">merge_pathway_list_2</text>
</g>
<g id="edge83" class="edge"><title>merge_pathway_list_1&#45;&gt;merge_pathway_list_2</title>
<path style="fill:none;stroke:black;" d="M468,888C468,890 468,892 468,894"/>
<polygon style="fill:black;stroke:black;" points="471,894 469,904 465,894 471,894"/>
</g>
<g id="node12" class="node"><title>merge_kegg_references</title>
<polygon style="fill:#ce5fee;stroke:black;" points="726,941 602,941 602,959 726,959 726,941"/>
<text text-anchor="middle" style="font-family:Helvetica;font-size:10.00;" x="664" y="953">merge_kegg_references</text>
</g>
<g id="node82" class="node"><title>WORKFLOWINTERNALSINK_kegg_external_gene_reference</title>
<polygon style="fill:#bcd2ee;stroke:black;" points="740,996 586,996 586,1014 740,1014 740,996"/>
<text text-anchor="middle" style="font-family:Helvetica;font-size:10.00;" x="663" y="1008">kegg_external_gene_reference</text>
</g>
<g id="edge79" class="edge"><title>merge_kegg_references&#45;&gt;WORKFLOWINTERNALSINK_kegg_external_gene_reference</title>
<path style="fill:none;stroke:black;" d="M664,960C664,967 664,976 664,985"/>
<polygon style="fill:black;stroke:black;" points="667,985 663,995 661,985 667,985"/>
</g>
<g id="node13" class="node"><title>concat_kegg_genes</title>
<polygon style="fill:#ce5fee;stroke:black;" points="675,328 569,328 569,346 675,346 675,328"/>
<text text-anchor="middle" style="font-family:Helvetica;font-size:10.00;" x="622" y="340">concat_kegg_genes</text>
</g>
<g id="edge55" class="edge"><title>concat_kegg_genes&#45;&gt;merge_kegg_references</title>
<path style="fill:none;stroke:black;" d="M642,347C648,351 655,356 659,363 670,381 664,389 664,409 664,409 664,409 664,878 664,895 664,915 664,930"/>
<polygon style="fill:black;stroke:black;" points="668,930 664,940 661,930 668,930"/>
</g>
<g id="node28" class="node"><title>split_gene_ids</title>
<polygon style="fill:#eec391;stroke:black;" points="657,364 577,364 577,382 657,382 657,364"/>
<text text-anchor="middle" style="font-family:Helvetica;font-size:10.00;" x="617" y="376">split_gene_ids</text>
</g>
<g id="edge57" class="edge"><title>concat_kegg_genes&#45;&gt;split_gene_ids</title>
<path style="fill:none;stroke:black;" d="M621,347C621,349 620,351 620,353"/>
<polygon style="fill:black;stroke:black;" points="623,354 618,363 617,353 623,354"/>
</g>
<g id="node16" class="node"><title>add_ncbi_to_string</title>
<polygon style="fill:#eec391;stroke:black;" points="684,256 584,256 584,274 684,274 684,256"/>
<text text-anchor="middle" style="font-family:Helvetica;font-size:10.00;" x="634" y="268">add_ncbi_to_string</text>
</g>
<g id="edge119" class="edge"><title>remove_Nulls&#45;&gt;add_ncbi_to_string</title>
<path style="fill:none;stroke:black;" d="M635,239C635,241 635,243 635,245"/>
<polygon style="fill:black;stroke:black;" points="639,245 635,255 632,245 639,245"/>
</g>
<g id="node15" class="node"><title>merge_gene_desc</title>
<polygon style="fill:#ce5fee;stroke:black;" points="629,905 531,905 531,923 629,923 629,905"/>
<text text-anchor="middle" style="font-family:Helvetica;font-size:10.00;" x="580" y="917">merge_gene_desc</text>
</g>
<g id="node23" class="node"><title>remove_nulls_3</title>
<polygon style="fill:#eec391;stroke:black;" points="598,941 512,941 512,959 598,959 598,941"/>
<text text-anchor="middle" style="font-family:Helvetica;font-size:10.00;" x="555" y="953">remove_nulls_3</text>
</g>
<g id="edge71" class="edge"><title>merge_gene_desc&#45;&gt;remove_nulls_3</title>
<path style="fill:none;stroke:black;" d="M573,924C572,926 570,929 568,932"/>
<polygon style="fill:black;stroke:black;" points="571,934 562,940 565,930 571,934"/>
</g>
<g id="node30" class="node"><title>Kegg_gene_ids_2</title>
<polygon style="fill:#a3cd5a;stroke:black;" points="675,292 579,292 579,310 675,310 675,292"/>
<text text-anchor="middle" style="font-family:Helvetica;font-size:10.00;" x="627" y="304">Kegg_gene_ids_2</text>
</g>
<g id="edge47" class="edge"><title>add_ncbi_to_string&#45;&gt;Kegg_gene_ids_2</title>
<path style="fill:none;stroke:black;" d="M632,275C632,277 631,279 631,281"/>
<polygon style="fill:black;stroke:black;" points="634,282 629,291 628,281 634,282"/>
</g>
<g id="node27" class="node"><title>remove_pathway_nulls_2</title>
<polygon style="fill:#eec391;stroke:black;" points="508,941 380,941 380,959 508,959 508,941"/>
<text text-anchor="middle" style="font-family:Helvetica;font-size:10.00;" x="444" y="953">remove_pathway_nulls_2</text>
</g>
<g id="edge85" class="edge"><title>merge_pathway_list_2&#45;&gt;remove_pathway_nulls_2</title>
<path style="fill:none;stroke:black;" d="M462,924C461,926 459,929 457,932"/>
<polygon style="fill:black;stroke:black;" points="460,934 451,940 454,930 460,934"/>
</g>
<g id="node18" class="node"><title>remove_uniprot_duplicates</title>
<polygon style="fill:#ce5fee;stroke:black;" points="587,148 451,148 451,166 587,166 587,148"/>
<text text-anchor="middle" style="font-family:Helvetica;font-size:10.00;" x="519" y="160">remove_uniprot_duplicates</text>
</g>
<g id="node20" class="node"><title>merge_uniprot_ids</title>
<polygon style="fill:#ce5fee;stroke:black;" points="569,184 471,184 471,202 569,202 569,184"/>
<text text-anchor="middle" style="font-family:Helvetica;font-size:10.00;" x="520" y="196">merge_uniprot_ids</text>
</g>
<g id="edge133" class="edge"><title>remove_uniprot_duplicates&#45;&gt;merge_uniprot_ids</title>
<path style="fill:none;stroke:black;" d="M519,167C519,169 519,171 519,173"/>
<polygon style="fill:black;stroke:black;" points="522,173 520,183 516,173 522,173"/>
</g>
<g id="node19" class="node"><title>merge_pathway_desc</title>
<polygon style="fill:#ce5fee;stroke:black;" points="405,869 291,869 291,887 405,887 405,869"/>
<text text-anchor="middle" style="font-family:Helvetica;font-size:10.00;" x="348" y="881">merge_pathway_desc</text>
</g>
<g id="node26" class="node"><title>remove_pathway_nulls</title>
<polygon style="fill:#eec391;stroke:black;" points="407,905 289,905 289,923 407,923 407,905"/>
<text text-anchor="middle" style="font-family:Helvetica;font-size:10.00;" x="348" y="917">remove_pathway_nulls</text>
</g>
<g id="edge81" class="edge"><title>merge_pathway_desc&#45;&gt;remove_pathway_nulls</title>
<path style="fill:none;stroke:black;" d="M348,888C348,890 348,892 348,894"/>
<polygon style="fill:black;stroke:black;" points="352,894 348,904 345,894 352,894"/>
</g>
<g id="node21" class="node"><title>REMOVE_NULLS_2</title>
<polygon style="fill:#eec391;stroke:black;" points="577,220 469,220 469,238 577,238 577,220"/>
<text text-anchor="middle" style="font-family:Helvetica;font-size:10.00;" x="523" y="232">REMOVE_NULLS_2</text>
</g>
<g id="edge89" class="edge"><title>merge_uniprot_ids&#45;&gt;REMOVE_NULLS_2</title>
<path style="fill:none;stroke:black;" d="M521,203C521,205 521,207 521,209"/>
<polygon style="fill:black;stroke:black;" points="524,209 522,219 518,209 524,209"/>
</g>
<g id="node24" class="node"><title>add_uniprot_to_string</title>
<polygon style="fill:#eec391;stroke:black;" points="580,256 468,256 468,274 580,274 580,256"/>
<text text-anchor="middle" style="font-family:Helvetica;font-size:10.00;" x="524" y="268">add_uniprot_to_string</text>
</g>
<g id="edge45" class="edge"><title>REMOVE_NULLS_2&#45;&gt;add_uniprot_to_string</title>
<path style="fill:none;stroke:black;" d="M523,239C523,241 523,243 523,245"/>
<polygon style="fill:black;stroke:black;" points="526,245 524,255 520,245 526,245"/>
</g>
<g id="node76" class="node"><title>WORKFLOWINTERNALSINK_merged_pathways</title>
<polygon style="fill:#bcd2ee;stroke:black;" points="288,996 190,996 190,1014 288,1014 288,996"/>
<text text-anchor="middle" style="font-family:Helvetica;font-size:10.00;" x="239" y="1008">merged_pathways</text>
</g>
<g id="edge77" class="edge"><title>merge_genes_and_pathways_3&#45;&gt;WORKFLOWINTERNALSINK_merged_pathways</title>
<path style="fill:none;stroke:black;" d="M226,960C228,967 231,977 233,985"/>
<polygon style="fill:black;stroke:black;" points="236,984 236,995 230,986 236,984"/>
</g>
<g id="node77" class="node"><title>WORKFLOWINTERNALSINK_gene_descriptions</title>
<polygon style="fill:#bcd2ee;stroke:black;" points="582,996 484,996 484,1014 582,1014 582,996"/>
<text text-anchor="middle" style="font-family:Helvetica;font-size:10.00;" x="533" y="1008">gene_descriptions</text>
</g>
<g id="edge127" class="edge"><title>remove_nulls_3&#45;&gt;WORKFLOWINTERNALSINK_gene_descriptions</title>
<path style="fill:none;stroke:black;" d="M551,960C548,967 544,977 541,986"/>
<polygon style="fill:black;stroke:black;" points="544,987 537,995 538,984 544,987"/>
</g>
<g id="node31" class="node"><title>Kegg_gene_ids</title>
<polygon style="fill:#a3cd5a;stroke:black;" points="571,292 485,292 485,310 571,310 571,292"/>
<text text-anchor="middle" style="font-family:Helvetica;font-size:10.00;" x="528" y="304">Kegg_gene_ids</text>
</g>
<g id="edge49" class="edge"><title>add_uniprot_to_string&#45;&gt;Kegg_gene_ids</title>
<path style="fill:none;stroke:black;" d="M525,275C525,277 525,279 525,281"/>
<polygon style="fill:black;stroke:black;" points="528,281 527,291 522,282 528,281"/>
</g>
<g id="node25" class="node"><title>create_report</title>
<polygon style="fill:#eec391;stroke:black;" points="803,148 727,148 727,166 803,166 803,148"/>
<text text-anchor="middle" style="font-family:Helvetica;font-size:10.00;" x="765" y="160">create_report</text>
</g>
<g id="edge59" class="edge"><title>create_report&#45;&gt;merge_reports</title>
<path style="fill:none;stroke:black;" d="M765,167C765,169 765,171 765,173"/>
<polygon style="fill:black;stroke:black;" points="769,173 765,183 762,173 769,173"/>
</g>
<g id="node78" class="node"><title>WORKFLOWINTERNALSINK_pathway_descriptions</title>
<polygon style="fill:#bcd2ee;stroke:black;" points="404,996 292,996 292,1014 404,1014 404,996"/>
<text text-anchor="middle" style="font-family:Helvetica;font-size:10.00;" x="348" y="1008">pathway_descriptions</text>
</g>
<g id="edge129" class="edge"><title>remove_pathway_nulls&#45;&gt;WORKFLOWINTERNALSINK_pathway_descriptions</title>
<path style="fill:none;stroke:black;" d="M348,924C348,938 348,966 348,985"/>
<polygon style="fill:black;stroke:black;" points="352,985 348,995 345,985 352,985"/>
</g>
<g id="node83" class="node"><title>WORKFLOWINTERNALSINK_pathway_ids</title>
<polygon style="fill:#bcd2ee;stroke:black;" points="480,996 408,996 408,1014 480,1014 480,996"/>
<text text-anchor="middle" style="font-family:Helvetica;font-size:10.00;" x="444" y="1008">pathway_ids</text>
</g>
<g id="edge131" class="edge"><title>remove_pathway_nulls_2&#45;&gt;WORKFLOWINTERNALSINK_pathway_ids</title>
<path style="fill:none;stroke:black;" d="M444,960C444,967 444,976 444,985"/>
<polygon style="fill:black;stroke:black;" points="448,985 444,995 441,985 448,985"/>
</g>
<g id="edge139" class="edge"><title>split_gene_ids&#45;&gt;split_for_duplicates</title>
<path style="fill:none;stroke:black;" d="M603,383C598,386 592,390 587,394"/>
<polygon style="fill:black;stroke:black;" points="588,397 578,399 585,391 588,397"/>
</g>
<g id="node29" class="node"><title>mmusculus_gene_ensembl</title>
<polygon style="fill:#d1eeed;stroke:black;" points="834,112 696,112 696,130 834,130 834,112"/>
<text text-anchor="middle" style="font-family:Helvetica;font-size:10.00;" x="765" y="124">mmusculus_gene_ensembl</text>
</g>
<g id="edge103" class="edge"><title>mmusculus_gene_ensembl&#45;&gt;remove_entrez_duplicates</title>
<path style="fill:none;stroke:black;" d="M736,131C723,135 709,140 696,144"/>
<polygon style="fill:black;stroke:black;" points="697,147 686,147 695,141 697,147"/>
</g>
<g id="edge115" class="edge"><title>mmusculus_gene_ensembl&#45;&gt;remove_uniprot_duplicates</title>
<path style="fill:none;stroke:black;" d="M700,131C667,136 628,141 594,146"/>
<polygon style="fill:black;stroke:black;" points="594,149 584,147 594,143 594,149"/>
</g>
<g id="edge91" class="edge"><title>mmusculus_gene_ensembl&#45;&gt;create_report</title>
<path style="fill:none;stroke:black;" d="M754,131C754,133 753,135 753,137"/>
<polygon style="fill:black;stroke:black;" points="756,137 754,147 750,137 756,137"/>
</g>
<g id="edge93" class="edge"><title>mmusculus_gene_ensembl&#45;&gt;create_report</title>
<path style="fill:none;stroke:black;" d="M757,131C757,133 756,135 756,137"/>
<polygon style="fill:black;stroke:black;" points="759,137 757,147 753,137 759,137"/>
</g>
<g id="edge95" class="edge"><title>mmusculus_gene_ensembl&#45;&gt;create_report</title>
<path style="fill:none;stroke:black;" d="M760,131C760,133 759,135 759,137"/>
<polygon style="fill:black;stroke:black;" points="762,137 760,147 756,137 762,137"/>
</g>
<g id="edge97" class="edge"><title>mmusculus_gene_ensembl&#45;&gt;create_report</title>
<path style="fill:none;stroke:black;" d="M762,131C762,133 762,135 762,137"/>
<polygon style="fill:black;stroke:black;" points="766,137 762,147 759,137 766,137"/>
</g>
<g id="edge99" class="edge"><title>mmusculus_gene_ensembl&#45;&gt;create_report</title>
<path style="fill:none;stroke:black;" d="M765,131C765,133 765,135 765,137"/>
<polygon style="fill:black;stroke:black;" points="769,137 765,147 762,137 769,137"/>
</g>
<g id="edge101" class="edge"><title>mmusculus_gene_ensembl&#45;&gt;create_report</title>
<path style="fill:none;stroke:black;" d="M768,131C768,133 768,135 768,137"/>
<polygon style="fill:black;stroke:black;" points="772,137 768,147 765,137 772,137"/>
</g>
<g id="edge109" class="edge"><title>mmusculus_gene_ensembl&#45;&gt;create_report</title>
<path style="fill:none;stroke:black;" d="M770,131C770,133 771,135 771,137"/>
<polygon style="fill:black;stroke:black;" points="774,137 770,147 768,137 774,137"/>
</g>
<g id="edge111" class="edge"><title>mmusculus_gene_ensembl&#45;&gt;create_report</title>
<path style="fill:none;stroke:black;" d="M773,131C773,133 774,135 774,137"/>
<polygon style="fill:black;stroke:black;" points="777,137 773,147 771,137 777,137"/>
</g>
<g id="edge113" class="edge"><title>mmusculus_gene_ensembl&#45;&gt;create_report</title>
<path style="fill:none;stroke:black;" d="M776,131C776,133 777,135 777,137"/>
<polygon style="fill:black;stroke:black;" points="780,137 776,147 774,137 780,137"/>
</g>
<g id="edge43" class="edge"><title>Kegg_gene_ids_2&#45;&gt;concat_kegg_genes</title>
<path style="fill:none;stroke:black;" d="M626,311C626,313 625,315 625,317"/>
<polygon style="fill:black;stroke:black;" points="628,318 623,327 622,317 628,318"/>
</g>
<g id="edge41" class="edge"><title>Kegg_gene_ids&#45;&gt;concat_kegg_genes</title>
<path style="fill:none;stroke:black;" d="M553,311C564,315 576,319 588,324"/>
<polygon style="fill:black;stroke:black;" points="589,321 597,327 586,327 589,321"/>
</g>
<g id="node80" class="node"><title>WORKFLOWINTERNALSINK_kegg_pathway_release</title>
<polygon style="fill:#bcd2ee;stroke:black;" points="186,996 68,996 68,1014 186,1014 186,996"/>
<text text-anchor="middle" style="font-family:Helvetica;font-size:10.00;" x="127" y="1008">kegg_pathway_release</text>
</g>
<g id="edge53" class="edge"><title>binfo&#45;&gt;WORKFLOWINTERNALSINK_kegg_pathway_release</title>
<path style="fill:none;stroke:black;" d="M101,960C105,967 111,977 117,986"/>
<polygon style="fill:black;stroke:black;" points="120,985 122,995 114,988 120,985"/>
</g>
<g id="edge61" class="edge"><title>gene_descriptions&#45;&gt;merge_gene_desc</title>
<path style="fill:none;stroke:black;" d="M580,888C580,890 580,892 580,894"/>
<polygon style="fill:black;stroke:black;" points="584,894 580,904 577,894 584,894"/>
</g>
<g id="node34" class="node"><title>genes_in_qtl</title>
<polygon style="fill:#d1eeed;stroke:black;" points="801,76 729,76 729,94 801,94 801,76"/>
<text text-anchor="middle" style="font-family:Helvetica;font-size:10.00;" x="765" y="88">genes_in_qtl</text>
</g>
<g id="edge63" class="edge"><title>genes_in_qtl&#45;&gt;mmusculus_gene_ensembl</title>
<path style="fill:none;stroke:black;" d="M765,95C765,97 765,99 765,101"/>
<polygon style="fill:black;stroke:black;" points="769,101 765,111 762,101 769,101"/>
</g>
<g id="node36" class="node"><title>Get_pathwaysregex</title>
<polygon style="fill:lightsteelblue;stroke:black;" points="412,518 372,518 372,536 412,536 412,518"/>
<text text-anchor="middle" style="font-family:Helvetica;font-size:10.00;" x="392" y="530">regex</text>
</g>
<g id="node41" class="node"><title>Get_pathwayssplit_by_regex</title>
<polygon style="fill:#ce5fee;stroke:black;" points="440,554 360,554 360,572 440,572 440,554"/>
<text text-anchor="middle" style="font-family:Helvetica;font-size:10.00;" x="400" y="566">split_by_regex</text>
</g>
<g id="edge23" class="edge"><title>Get_pathwaysregex&#45;&gt;Get_pathwayssplit_by_regex</title>
<path style="fill:none;stroke:black;" d="M394,537C394,539 395,541 396,543"/>
<polygon style="fill:black;stroke:black;" points="399,543 398,553 393,544 399,543"/>
</g>
<g id="node37" class="node"><title>Get_pathwaysconcat_gene_pathway_ids</title>
<polygon style="fill:#eec391;stroke:black;" points="367,734 233,734 233,752 367,752 367,734"/>
<text text-anchor="middle" style="font-family:Helvetica;font-size:10.00;" x="300" y="746">concat_gene_pathway_ids</text>
</g>
<g id="node40" class="node"><title>Get_pathwaysMerge_gene_pathways</title>
<polygon style="fill:#ce5fee;stroke:black;" points="350,770 230,770 230,788 350,788 350,770"/>
<text text-anchor="middle" style="font-family:Helvetica;font-size:10.00;" x="290" y="782">Merge_gene_pathways</text>
</g>
<g id="edge11" class="edge"><title>Get_pathwaysconcat_gene_pathway_ids&#45;&gt;Get_pathwaysMerge_gene_pathways</title>
<path style="fill:none;stroke:black;" d="M297,753C297,755 296,757 295,759"/>
<polygon style="fill:black;stroke:black;" points="298,760 293,769 292,759 298,760"/>
</g>
<g id="node38" class="node"><title>Get_pathwaysMerge_pathway_desc</title>
<polygon style="fill:#ce5fee;stroke:black;" points="468,770 354,770 354,788 468,788 468,770"/>
<text text-anchor="middle" style="font-family:Helvetica;font-size:10.00;" x="411" y="782">Merge_pathway_desc</text>
</g>
<g id="node52" class="node"><title>Get_pathwaysWORKFLOWINTERNALSINK_pathway_desc</title>
<polygon style="fill:#bcd2ee;stroke:black;" points="408,825 328,825 328,843 408,843 408,825"/>
<text text-anchor="middle" style="font-family:Helvetica;font-size:10.00;" x="368" y="837">pathway_desc</text>
</g>
<g id="edge29" class="edge"><title>Get_pathwaysMerge_pathway_desc&#45;&gt;Get_pathwaysWORKFLOWINTERNALSINK_pathway_desc</title>
<path style="fill:none;stroke:black;" d="M404,789C398,797 389,807 382,816"/>
<polygon style="fill:black;stroke:black;" points="384,819 375,824 379,814 384,819"/>
</g>
<g id="node39" class="node"><title>Get_pathwayspathway_desc</title>
<polygon style="fill:#a3cd5a;stroke:black;" points="451,734 371,734 371,752 451,752 451,734"/>
<text text-anchor="middle" style="font-family:Helvetica;font-size:10.00;" x="411" y="746">pathway_desc</text>
</g>
<g id="edge21" class="edge"><title>Get_pathwayspathway_desc&#45;&gt;Get_pathwaysMerge_pathway_desc</title>
<path style="fill:none;stroke:black;" d="M411,753C411,755 411,757 411,759"/>
<polygon style="fill:black;stroke:black;" points="415,759 411,769 408,759 415,759"/>
</g>
<g id="node51" class="node"><title>Get_pathwaysWORKFLOWINTERNALSINK_pathway_genes</title>
<polygon style="fill:#bcd2ee;stroke:black;" points="324,825 238,825 238,843 324,843 324,825"/>
<text text-anchor="middle" style="font-family:Helvetica;font-size:10.00;" x="281" y="837">pathway_genes</text>
</g>
<g id="edge27" class="edge"><title>Get_pathwaysMerge_gene_pathways&#45;&gt;Get_pathwaysWORKFLOWINTERNALSINK_pathway_genes</title>
<path style="fill:none;stroke:black;" d="M288,789C287,796 286,806 284,814"/>
<polygon style="fill:black;stroke:black;" points="287,814 283,824 281,814 287,814"/>
</g>
<g id="node45" class="node"><title>Get_pathwayslister</title>
<polygon style="fill:#a3cd5a;stroke:black;" points="419,590 381,590 381,608 419,608 419,590"/>
<text text-anchor="middle" style="font-family:Helvetica;font-size:10.00;" x="400" y="602">lister</text>
</g>
<g id="edge25" class="edge"><title>Get_pathwayssplit_by_regex&#45;&gt;Get_pathwayslister</title>
<path style="fill:none;stroke:black;" d="M400,573C400,575 400,577 400,579"/>
<polygon style="fill:black;stroke:black;" points="404,579 400,589 397,579 404,579"/>
</g>
<g id="node42" class="node"><title>Get_pathwaysconcat_ids</title>
<polygon style="fill:#eec391;stroke:black;" points="403,698 339,698 339,716 403,716 403,698"/>
<text text-anchor="middle" style="font-family:Helvetica;font-size:10.00;" x="371" y="710">concat_ids</text>
</g>
<g id="edge13" class="edge"><title>Get_pathwaysconcat_ids&#45;&gt;Get_pathwaysconcat_gene_pathway_ids</title>
<path style="fill:none;stroke:black;" d="M352,717C345,721 336,725 328,729"/>
<polygon style="fill:black;stroke:black;" points="330,732 319,733 327,726 330,732"/>
</g>
<g id="node43" class="node"><title>Get_pathwaysMerge_pathways</title>
<polygon style="fill:#ce5fee;stroke:black;" points="449,662 357,662 357,680 449,680 449,662"/>
<text text-anchor="middle" style="font-family:Helvetica;font-size:10.00;" x="403" y="674">Merge_pathways</text>
</g>
<g id="edge9" class="edge"><title>Get_pathwaysMerge_pathways&#45;&gt;Get_pathwayspathway_desc</title>
<path style="fill:none;stroke:black;" d="M404,681C405,691 407,709 409,723"/>
<polygon style="fill:black;stroke:black;" points="412,723 410,733 406,723 412,723"/>
</g>
<g id="edge7" class="edge"><title>Get_pathwaysMerge_pathways&#45;&gt;Get_pathwaysconcat_ids</title>
<path style="fill:none;stroke:black;" d="M394,681C392,684 389,686 387,689"/>
<polygon style="fill:black;stroke:black;" points="389,692 380,697 384,687 389,692"/>
</g>
<g id="node53" class="node"><title>Get_pathwaysWORKFLOWINTERNALSINK_pathway_ids</title>
<polygon style="fill:#bcd2ee;stroke:black;" points="484,825 412,825 412,843 484,843 484,825"/>
<text text-anchor="middle" style="font-family:Helvetica;font-size:10.00;" x="448" y="837">pathway_ids</text>
</g>
<g id="edge31" class="edge"><title>Get_pathwaysMerge_pathways&#45;&gt;Get_pathwaysWORKFLOWINTERNALSINK_pathway_ids</title>
<path style="fill:none;stroke:black;" d="M413,681C430,697 462,732 470,769 472,778 473,781 470,789 468,798 464,807 459,815"/>
<polygon style="fill:black;stroke:black;" points="462,817 454,824 456,814 462,817"/>
</g>
<g id="node44" class="node"><title>Get_pathwaysget_pathways_by_genes1</title>
<polygon style="fill:#a3cd5a;stroke:black;" points="468,626 336,626 336,644 468,644 468,626"/>
<text text-anchor="middle" style="font-family:Helvetica;font-size:10.00;" x="402" y="638">get_pathways_by_genes1</text>
</g>
<g id="edge15" class="edge"><title>Get_pathwaysget_pathways_by_genes1&#45;&gt;Get_pathwaysMerge_pathways</title>
<path style="fill:none;stroke:black;" d="M402,645C402,647 402,649 402,651"/>
<polygon style="fill:black;stroke:black;" points="405,651 403,661 399,651 405,651"/>
</g>
<g id="edge17" class="edge"><title>Get_pathwayslister&#45;&gt;Get_pathwaysconcat_gene_pathway_ids</title>
<path style="fill:none;stroke:black;" d="M381,602C366,605 347,612 334,625 310,653 303,698 301,723"/>
<polygon style="fill:black;stroke:black;" points="304,723 300,733 298,723 304,723"/>
</g>
<g id="edge19" class="edge"><title>Get_pathwayslister&#45;&gt;Get_pathwaysget_pathways_by_genes1</title>
<path style="fill:none;stroke:black;" d="M401,609C401,611 401,613 401,615"/>
<polygon style="fill:black;stroke:black;" points="405,615 401,625 398,615 405,615"/>
</g>
<g id="node47" class="node"><title>Get_pathwaysWORKFLOWINTERNALSOURCECONTROL</title>
<polygon style="fill:#ff3f3f;stroke:black;" points="495,520 488,530 502,530 495,520"/>
</g>
<g id="edge5" class="edge"><title>Get_pathwaysWORKFLOWINTERNALSOURCE_gene_ids&#45;&gt;Get_pathwayssplit_by_regex</title>
<path style="fill:none;stroke:black;" d="M442,537C438,539 433,542 428,545 424,547 422,548 419,549"/>
<polygon style="fill:black;stroke:black;" points="421,552 410,553 418,546 421,552"/>
</g>
<g id="node50" class="node"><title>Get_pathwaysWORKFLOWINTERNALSINKCONTROL</title>
<polygon style="fill:#6acd00;stroke:black;" points="495,841 502,831 488,831 495,841"/>
</g>
<g id="edge37" class="edge"><title>Get_pathwaysWORKFLOWINTERNALSINK_pathway_genes&#45;&gt;merge_genes_and_pathways</title>
<path style="fill:none;stroke:black;" d="M266,844C257,849 244,857 234,863"/>
<polygon style="fill:black;stroke:black;" points="235,866 225,868 232,860 235,866"/>
</g>
<g id="edge35" class="edge"><title>Get_pathwaysWORKFLOWINTERNALSINK_pathway_desc&#45;&gt;merge_pathway_desc</title>
<path style="fill:none;stroke:black;" d="M364,844C362,848 360,854 357,859"/>
<polygon style="fill:black;stroke:black;" points="360,860 353,868 354,857 360,860"/>
</g>
<g id="edge39" class="edge"><title>Get_pathwaysWORKFLOWINTERNALSINK_pathway_ids&#45;&gt;merge_pathway_list_1</title>
<path style="fill:none;stroke:black;" d="M452,844C454,848 456,854 459,859"/>
<polygon style="fill:black;stroke:black;" points="462,857 463,868 456,860 462,857"/>
</g>
<g id="node79" class="node"><title>WORKFLOWINTERNALSINK_ensembl_database_release</title>
<polygon style="fill:#bcd2ee;stroke:black;" points="928,996 790,996 790,1014 928,1014 928,996"/>
<text text-anchor="middle" style="font-family:Helvetica;font-size:10.00;" x="859" y="1008">ensembl_database_release</text>
</g>
<g id="edge65" class="edge"><title>getcurrentdatabase&#45;&gt;WORKFLOWINTERNALSINK_ensembl_database_release</title>
<path style="fill:none;stroke:black;" d="M859,960C859,967 859,976 859,985"/>
<polygon style="fill:black;stroke:black;" points="863,985 859,995 856,985 863,985"/>
</g>
<g id="node70" class="node"><title>WORKFLOWINTERNALSOURCECONTROL</title>
<polygon style="fill:#ff3f3f;stroke:black;" points="930,42 923,52 937,52 930,42"/>
</g>
<g id="node71" class="node"><title>WORKFLOWINTERNALSOURCE_chromosome_name</title>
<polygon style="fill:skyblue;stroke:black;" points="919,40 815,40 815,58 919,58 919,40"/>
<text text-anchor="middle" style="font-family:Helvetica;font-size:10.00;" x="867" y="52">chromosome_name</text>
</g>
<g id="edge51" class="edge"><title>WORKFLOWINTERNALSOURCE_chromosome_name&#45;&gt;genes_in_qtl</title>
<path style="fill:none;stroke:black;" d="M840,59C828,63 814,68 802,72"/>
<polygon style="fill:black;stroke:black;" points="803,75 792,75 801,69 803,75"/>
</g>
<g id="node72" class="node"><title>WORKFLOWINTERNALSOURCE_qtl_start_position</title>
<polygon style="fill:skyblue;stroke:black;" points="811,40 719,40 719,58 811,58 811,40"/>
<text text-anchor="middle" style="font-family:Helvetica;font-size:10.00;" x="765" y="52">qtl_start_position</text>
</g>
<g id="edge107" class="edge"><title>WORKFLOWINTERNALSOURCE_qtl_start_position&#45;&gt;genes_in_qtl</title>
<path style="fill:none;stroke:black;" d="M765,59C765,61 765,63 765,65"/>
<polygon style="fill:black;stroke:black;" points="769,65 765,75 762,65 769,65"/>
</g>
<g id="node73" class="node"><title>WORKFLOWINTERNALSOURCE_qtl_end_position</title>
<polygon style="fill:skyblue;stroke:black;" points="715,40 627,40 627,58 715,58 715,40"/>
<text text-anchor="middle" style="font-family:Helvetica;font-size:10.00;" x="671" y="52">qtl_end_position</text>
</g>
<g id="edge105" class="edge"><title>WORKFLOWINTERNALSOURCE_qtl_end_position&#45;&gt;genes_in_qtl</title>
<path style="fill:none;stroke:black;" d="M695,59C702,61 710,64 717,67 721,69 725,70 728,72"/>
<polygon style="fill:black;stroke:black;" points="729,69 738,75 727,75 729,69"/>
</g>
<g id="node75" class="node"><title>WORKFLOWINTERNALSINKCONTROL</title>
<polygon style="fill:#6acd00;stroke:black;" points="939,1012 946,1002 932,1002 939,1012"/>
</g>
</g>
</svg>
