<?xml version="1.0" encoding="UTF-8" standalone="no"?>
<!DOCTYPE svg PUBLIC "-//W3C//DTD SVG 1.0//EN"
 "http://www.w3.org/TR/2001/REC-SVG-20010904/DTD/svg10.dtd">
<!-- Generated by dot version 2.2 (Fri Mar 11 00:51:40 UTC 2005)
     For user: (root) root   Title: scufl_graph    Pages: 1 -->
<svg width="458pt" height="553pt"
 viewBox = "-1 -1 457 552"
 xmlns="http://www.w3.org/2000/svg">
<g id="graph0" class="graph" style="font-family:Times-Roman;font-size:14.00;">
<title>scufl_graph</title>
<g id="graph2" class="cluster"><title>cluster_ConcatenateConcatenate</title>
<polygon style="fill:aliceblue;stroke:black;" points="161,438 367,438 367,32 161,32 161,438"/>
<text text-anchor="middle" style="font-family:Helvetica;font-size:10.00;" x="197" y="44">Concatenate</text>
</g>
<g id="graph3" class="cluster"><title>cluster_ConcatenateNestedProcessorNestedProcessor</title>
<polygon style="fill:antiquewhite;stroke:black;" points="169,367 359,367 359,150 169,150 169,367"/>
<text text-anchor="middle" style="font-family:Helvetica;font-size:10.00;" x="215" y="162">NestedProcessor</text>
</g>
<g id="graph4" class="cluster"><title>cluster_ConcatenateNestedProcessorsources</title>
<polygon style="fill:none;stroke:black;stroke-dasharray:1,5;" points="177,232 351,232 351,177 177,177 177,232"/>
<text text-anchor="middle" style="font-family:Helvetica;font-size:10.00;" x="221" y="189">Workflow Inputs</text>
</g>
<g id="graph5" class="cluster"><title>cluster_ConcatenateNestedProcessorsinks</title>
<polygon style="fill:none;stroke:black;stroke-dasharray:1,5;" points="200,359 340,359 340,304 200,304 200,359"/>
<text text-anchor="middle" style="font-family:Helvetica;font-size:10.00;" x="248" y="316">Workflow Outputs</text>
</g>
<g id="graph6" class="cluster"><title>cluster_Concatenatesources</title>
<polygon style="fill:none;stroke:black;stroke-dasharray:1,5;" points="177,114 351,114 351,59 177,59 177,114"/>
<text text-anchor="middle" style="font-family:Helvetica;font-size:10.00;" x="221" y="71">Workflow Inputs</text>
</g>
<g id="graph7" class="cluster"><title>cluster_Concatenatesinks</title>
<polygon style="fill:none;stroke:black;stroke-dasharray:1,5;" points="200,430 340,430 340,375 200,375 200,430"/>
<text text-anchor="middle" style="font-family:Helvetica;font-size:10.00;" x="248" y="387">Workflow Outputs</text>
</g>
<g id="graph8" class="cluster"><title>cluster_sinks</title>
<polygon style="fill:none;stroke:black;stroke-dasharray:1,5;" points="13,529 443,529 443,474 13,474 13,529"/>
<text text-anchor="middle" style="font-family:Helvetica;font-size:10.00;" x="61" y="486">Workflow Outputs</text>
</g>
<g id="node1" class="node"><title>String_Constant</title>
<polygon style="fill:lightsteelblue;stroke:black;" points="299,5 211,5 211,23 299,23 299,5"/>
<text text-anchor="middle" style="font-family:Helvetica;font-size:10.00;" x="255" y="17">String_Constant</text>
</g>
<g id="node26" class="node"><title>ConcatenateWORKFLOWINTERNALSOURCE_input1</title>
<polygon style="fill:skyblue;stroke:black;" points="277,87 233,87 233,105 277,105 277,87"/>
<text text-anchor="middle" style="font-family:Helvetica;font-size:10.00;" x="255" y="99">input1</text>
</g>
<g id="edge31" class="edge"><title>String_Constant&#45;&gt;ConcatenateWORKFLOWINTERNALSOURCE_input1</title>
<path style="fill:none;stroke:black;" d="M255,24C255,36 255,60 255,76"/>
<polygon style="fill:black;stroke:black;" points="259,76 255,86 252,76 259,76"/>
</g>
<g id="node2" class="node"><title>create_letterListOfLists</title>
<polygon style="fill:#eec391;stroke:black;" points="180,5 62,5 62,23 180,23 180,5"/>
<text text-anchor="middle" style="font-family:Helvetica;font-size:10.00;" x="121" y="17">create_letterListOfLists</text>
</g>
<g id="node4" class="node"><title>Count1</title>
<polygon style="fill:crimson;stroke:black;" points="145,87 97,87 97,105 145,105 145,87"/>
<text text-anchor="middle" style="font-family:Helvetica;font-size:10.00;" x="121" y="99">Count1</text>
</g>
<g id="edge43" class="edge"><title>create_letterListOfLists&#45;&gt;Count1</title>
<path style="fill:none;stroke:black;" d="M121,24C121,36 121,60 121,76"/>
<polygon style="fill:black;stroke:black;" points="125,76 121,86 118,76 125,76"/>
</g>
<g id="node28" class="node"><title>ConcatenateWORKFLOWINTERNALSOURCE_input3</title>
<polygon style="fill:skyblue;stroke:black;" points="229,87 185,87 185,105 229,105 229,87"/>
<text text-anchor="middle" style="font-family:Helvetica;font-size:10.00;" x="207" y="99">input3</text>
</g>
<g id="edge41" class="edge"><title>create_letterListOfLists&#45;&gt;ConcatenateWORKFLOWINTERNALSOURCE_input3</title>
<path style="fill:none;stroke:black;" d="M166,24C175,26 182,29 185,32 197,44 202,62 205,76"/>
<polygon style="fill:black;stroke:black;" points="208,76 206,86 202,76 208,76"/>
</g>
<g id="node39" class="node"><title>WORKFLOWINTERNALSINK_letter_list</title>
<polygon style="fill:#bcd2ee;stroke:black;" points="77,502 21,502 21,520 77,520 77,502"/>
<text text-anchor="middle" style="font-family:Helvetica;font-size:10.00;" x="49" y="514">letter_list</text>
</g>
<g id="edge47" class="edge"><title>create_letterListOfLists&#45;&gt;WORKFLOWINTERNALSINK_letter_list</title>
<path style="fill:none;stroke:black;" d="M104,24C100,26 97,29 95,32 69,70 70,87 70,132 70,132 70,132 70,412 70,440 62,472 55,491"/>
<polygon style="fill:black;stroke:black;" points="58,492 52,501 52,490 58,492"/>
</g>
<g id="node3" class="node"><title>create_capitalList</title>
<polygon style="fill:#eec391;stroke:black;" points="413,5 319,5 319,23 413,23 413,5"/>
<text text-anchor="middle" style="font-family:Helvetica;font-size:10.00;" x="366" y="17">create_capitalList</text>
</g>
<g id="node27" class="node"><title>ConcatenateWORKFLOWINTERNALSOURCE_input2</title>
<polygon style="fill:skyblue;stroke:black;" points="325,87 281,87 281,105 325,105 325,87"/>
<text text-anchor="middle" style="font-family:Helvetica;font-size:10.00;" x="303" y="99">input2</text>
</g>
<g id="edge33" class="edge"><title>create_capitalList&#45;&gt;ConcatenateWORKFLOWINTERNALSOURCE_input2</title>
<path style="fill:none;stroke:black;" d="M338,24C334,26 330,29 327,32 316,44 310,62 306,76"/>
<polygon style="fill:black;stroke:black;" points="309,77 304,86 303,76 309,77"/>
</g>
<g id="node41" class="node"><title>WORKFLOWINTERNALSINK_capital_list</title>
<polygon style="fill:#bcd2ee;stroke:black;" points="417,502 355,502 355,520 417,520 417,502"/>
<text text-anchor="middle" style="font-family:Helvetica;font-size:10.00;" x="386" y="514">capital_list</text>
</g>
<g id="edge39" class="edge"><title>create_capitalList&#45;&gt;WORKFLOWINTERNALSINK_capital_list</title>
<path style="fill:none;stroke:black;" d="M368,24C373,44 382,92 382,132 382,132 382,132 382,412 382,440 383,471 384,491"/>
<polygon style="fill:black;stroke:black;" points="387,491 385,501 381,491 387,491"/>
</g>
<g id="node43" class="node"><title>WORKFLOWINTERNALSINK_count_letterlist</title>
<polygon style="fill:#bcd2ee;stroke:black;" points="161,502 81,502 81,520 161,520 161,502"/>
<text text-anchor="middle" style="font-family:Helvetica;font-size:10.00;" x="121" y="514">count_letterlist</text>
</g>
<g id="edge45" class="edge"><title>Count1&#45;&gt;WORKFLOWINTERNALSINK_count_letterlist</title>
<path style="fill:none;stroke:black;" d="M121,106C121,126 121,174 121,214 121,214 121,214 121,412 121,440 121,471 121,491"/>
<polygon style="fill:black;stroke:black;" points="125,491 121,501 118,491 125,491"/>
</g>
<g id="node5" class="node"><title>Count2</title>
<polygon style="fill:crimson;stroke:black;" points="262,447 214,447 214,465 262,465 262,447"/>
<text text-anchor="middle" style="font-family:Helvetica;font-size:10.00;" x="238" y="459">Count2</text>
</g>
<g id="node42" class="node"><title>WORKFLOWINTERNALSINK_count_concatenated</title>
<polygon style="fill:#bcd2ee;stroke:black;" points="271,502 165,502 165,520 271,520 271,502"/>
<text text-anchor="middle" style="font-family:Helvetica;font-size:10.00;" x="218" y="514">count_concatenated</text>
</g>
<g id="edge37" class="edge"><title>Count2&#45;&gt;WORKFLOWINTERNALSINK_count_concatenated</title>
<path style="fill:none;stroke:black;" d="M235,466C232,473 228,483 225,491"/>
<polygon style="fill:black;stroke:black;" points="228,492 222,501 222,490 228,492"/>
</g>
<g id="node7" class="node"><title>ConcatenateEcho_list3</title>
<polygon style="fill:#ce5fee;stroke:black;" points="238,123 176,123 176,141 238,141 238,123"/>
<text text-anchor="middle" style="font-family:Helvetica;font-size:10.00;" x="207" y="135">Echo_list3</text>
</g>
<g id="node15" class="node"><title>ConcatenateNestedProcessorWORKFLOWINTERNALSOURCE_input3</title>
<polygon style="fill:skyblue;stroke:black;" points="229,205 185,205 185,223 229,223 229,205"/>
<text text-anchor="middle" style="font-family:Helvetica;font-size:10.00;" x="207" y="217">input3</text>
</g>
<g id="edge24" class="edge"><title>ConcatenateEcho_list3&#45;&gt;ConcatenateNestedProcessorWORKFLOWINTERNALSOURCE_input3</title>
<path style="fill:none;stroke:black;" d="M207,142C207,154 207,178 207,194"/>
<polygon style="fill:black;stroke:black;" points="211,194 207,204 204,194 211,194"/>
</g>
<g id="node9" class="node"><title>ConcatenateNestedProcessorConcatenate_two_strings2</title>
<polygon style="fill:#ce5fee;stroke:black;" points="328,277 194,277 194,295 328,295 328,277"/>
<text text-anchor="middle" style="font-family:Helvetica;font-size:10.00;" x="261" y="289">Concatenate_two_strings2</text>
</g>
<g id="node18" class="node"><title>ConcatenateNestedProcessorWORKFLOWINTERNALSINK_concatenated_string</title>
<polygon style="fill:#bcd2ee;stroke:black;" points="314,332 208,332 208,350 314,350 314,332"/>
<text text-anchor="middle" style="font-family:Helvetica;font-size:10.00;" x="261" y="344">concatenated_string</text>
</g>
<g id="edge14" class="edge"><title>ConcatenateNestedProcessorConcatenate_two_strings2&#45;&gt;ConcatenateNestedProcessorWORKFLOWINTERNALSINK_concatenated_string</title>
<path style="fill:none;stroke:black;" d="M261,296C261,303 261,312 261,321"/>
<polygon style="fill:black;stroke:black;" points="265,321 261,331 258,321 265,321"/>
</g>
<g id="node10" class="node"><title>ConcatenateNestedProcessorConcatenate_two_strings1</title>
<polygon style="fill:#ce5fee;stroke:black;" points="346,241 212,241 212,259 346,259 346,241"/>
<text text-anchor="middle" style="font-family:Helvetica;font-size:10.00;" x="279" y="253">Concatenate_two_strings1</text>
</g>
<g id="edge10" class="edge"><title>ConcatenateNestedProcessorConcatenate_two_strings1&#45;&gt;ConcatenateNestedProcessorConcatenate_two_strings2</title>
<path style="fill:none;stroke:black;" d="M274,260C273,262 272,265 271,267"/>
<polygon style="fill:black;stroke:black;" points="274,269 266,276 268,266 274,269"/>
</g>
<g id="node12" class="node"><title>ConcatenateNestedProcessorWORKFLOWINTERNALSOURCECONTROL</title>
<polygon style="fill:#ff3f3f;stroke:black;" points="336,207 329,217 343,217 336,207"/>
</g>
<g id="node13" class="node"><title>ConcatenateNestedProcessorWORKFLOWINTERNALSOURCE_input1</title>
<polygon style="fill:skyblue;stroke:black;" points="277,205 233,205 233,223 277,223 277,205"/>
<text text-anchor="middle" style="font-family:Helvetica;font-size:10.00;" x="255" y="217">input1</text>
</g>
<g id="edge6" class="edge"><title>ConcatenateNestedProcessorWORKFLOWINTERNALSOURCE_input1&#45;&gt;ConcatenateNestedProcessorConcatenate_two_strings1</title>
<path style="fill:none;stroke:black;" d="M262,224C263,226 265,229 267,232"/>
<polygon style="fill:black;stroke:black;" points="270,230 273,240 264,234 270,230"/>
</g>
<g id="node14" class="node"><title>ConcatenateNestedProcessorWORKFLOWINTERNALSOURCE_input2</title>
<polygon style="fill:skyblue;stroke:black;" points="325,205 281,205 281,223 325,223 325,205"/>
<text text-anchor="middle" style="font-family:Helvetica;font-size:10.00;" x="303" y="217">input2</text>
</g>
<g id="edge8" class="edge"><title>ConcatenateNestedProcessorWORKFLOWINTERNALSOURCE_input2&#45;&gt;ConcatenateNestedProcessorConcatenate_two_strings1</title>
<path style="fill:none;stroke:black;" d="M296,224C295,226 293,229 291,232"/>
<polygon style="fill:black;stroke:black;" points="294,234 285,240 288,230 294,234"/>
</g>
<g id="edge12" class="edge"><title>ConcatenateNestedProcessorWORKFLOWINTERNALSOURCE_input3&#45;&gt;ConcatenateNestedProcessorConcatenate_two_strings2</title>
<path style="fill:none;stroke:black;" d="M207,224C206,236 207,255 210,260 213,264 216,268 220,271"/>
<polygon style="fill:black;stroke:black;" points="222,268 229,276 219,274 222,268"/>
</g>
<g id="node17" class="node"><title>ConcatenateNestedProcessorWORKFLOWINTERNALSINKCONTROL</title>
<polygon style="fill:#6acd00;stroke:black;" points="325,348 332,338 318,338 325,348"/>
</g>
<g id="node31" class="node"><title>ConcatenateWORKFLOWINTERNALSINK_concatenated_string</title>
<polygon style="fill:#bcd2ee;stroke:black;" points="314,403 208,403 208,421 314,421 314,403"/>
<text text-anchor="middle" style="font-family:Helvetica;font-size:10.00;" x="261" y="415">concatenated_string</text>
</g>
<g id="edge26" class="edge"><title>ConcatenateNestedProcessorWORKFLOWINTERNALSINK_concatenated_string&#45;&gt;ConcatenateWORKFLOWINTERNALSINK_concatenated_string</title>
<path style="fill:none;stroke:black;" d="M261,351C261,361 261,379 261,392"/>
<polygon style="fill:black;stroke:black;" points="265,392 261,402 258,392 265,392"/>
</g>
<g id="node25" class="node"><title>ConcatenateWORKFLOWINTERNALSOURCECONTROL</title>
<polygon style="fill:#ff3f3f;stroke:black;" points="336,89 329,99 343,99 336,89"/>
</g>
<g id="edge18" class="edge"><title>ConcatenateWORKFLOWINTERNALSOURCE_input1&#45;&gt;ConcatenateNestedProcessorWORKFLOWINTERNALSOURCE_input1</title>
<path style="fill:none;stroke:black;" d="M255,106C255,125 255,168 255,194"/>
<polygon style="fill:black;stroke:black;" points="259,194 255,204 252,194 259,194"/>
</g>
<g id="edge20" class="edge"><title>ConcatenateWORKFLOWINTERNALSOURCE_input2&#45;&gt;ConcatenateNestedProcessorWORKFLOWINTERNALSOURCE_input2</title>
<path style="fill:none;stroke:black;" d="M303,106C303,125 303,168 303,194"/>
<polygon style="fill:black;stroke:black;" points="307,194 303,204 300,194 307,194"/>
</g>
<g id="edge22" class="edge"><title>ConcatenateWORKFLOWINTERNALSOURCE_input3&#45;&gt;ConcatenateEcho_list3</title>
<path style="fill:none;stroke:black;" d="M207,106C207,108 207,110 207,112"/>
<polygon style="fill:black;stroke:black;" points="211,112 207,122 204,112 211,112"/>
</g>
<g id="node30" class="node"><title>ConcatenateWORKFLOWINTERNALSINKCONTROL</title>
<polygon style="fill:#6acd00;stroke:black;" points="325,419 332,409 318,409 325,419"/>
</g>
<g id="edge29" class="edge"><title>ConcatenateWORKFLOWINTERNALSINK_concatenated_string&#45;&gt;Count2</title>
<path style="fill:none;stroke:black;" d="M256,422C253,426 251,432 248,437"/>
<polygon style="fill:black;stroke:black;" points="251,439 243,446 245,436 251,439"/>
</g>
<g id="node40" class="node"><title>WORKFLOWINTERNALSINK_concatenated</title>
<polygon style="fill:#bcd2ee;stroke:black;" points="351,502 275,502 275,520 351,520 351,502"/>
<text text-anchor="middle" style="font-family:Helvetica;font-size:10.00;" x="313" y="514">concatenated</text>
</g>
<g id="edge35" class="edge"><title>ConcatenateWORKFLOWINTERNALSINK_concatenated_string&#45;&gt;WORKFLOWINTERNALSINK_concatenated</title>
<path style="fill:none;stroke:black;" d="M277,421C285,427 295,436 301,446 306,453 309,475 311,491"/>
<polygon style="fill:black;stroke:black;" points="314,491 312,501 308,491 314,491"/>
</g>
<g id="node38" class="node"><title>WORKFLOWINTERNALSINKCONTROL</title>
<polygon style="fill:#6acd00;stroke:black;" points="428,518 435,508 421,508 428,518"/>
</g>
</g>
</svg>
