<?xml version="1.0" encoding="UTF-8" standalone="no"?>
<!DOCTYPE svg PUBLIC "-//W3C//DTD SVG 1.0//EN"
 "http://www.w3.org/TR/2001/REC-SVG-20010904/DTD/svg10.dtd">
<!-- Generated by dot version 2.2 (Fri Mar 11 00:51:40 UTC 2005)
     For user: (root) root   Title: scufl_graph    Pages: 1 -->
<svg width="960pt" height="291pt"
 viewBox = "-1 -1 959 290"
 xmlns="http://www.w3.org/2000/svg">
<g id="graph0" class="graph" style="font-family:Times-Roman;font-size:14.00;">
<title>scufl_graph</title>
<g id="graph2" class="cluster"><title>cluster_sinks</title>
<polygon style="fill:none;stroke:black;stroke-dasharray:1,5;" points="13,267 847,267 847,212 13,212 13,267"/>
<text text-anchor="middle" style="font-family:Helvetica;font-size:10.00;" x="61" y="224">Workflow Outputs</text>
</g>
<g id="node1" class="node"><title>ProbeSetId</title>
<polygon style="fill:lightsteelblue;stroke:black;" points="592,5 526,5 526,23 592,23 592,5"/>
<text text-anchor="middle" style="font-family:Helvetica;font-size:10.00;" x="559" y="17">ProbeSetId</text>
</g>
<g id="node8" class="node"><title>getInterProIds</title>
<polygon style="fill:#a3cd5a;stroke:black;" points="757,149 677,149 677,167 757,167 757,149"/>
<text text-anchor="middle" style="font-family:Helvetica;font-size:10.00;" x="717" y="161">getInterProIds</text>
</g>
<g id="edge7" class="edge"><title>ProbeSetId&#45;&gt;getInterProIds</title>
<path style="fill:none;stroke:black;" d="M576,24C613,50 672,111 701,141"/>
<polygon style="fill:black;stroke:black;" points="703,138 708,148 698,143 703,138"/>
</g>
<g id="node9" class="node"><title>getEmblId</title>
<polygon style="fill:#a3cd5a;stroke:black;" points="392,77 330,77 330,95 392,95 392,77"/>
<text text-anchor="middle" style="font-family:Helvetica;font-size:10.00;" x="361" y="89">getEmblId</text>
</g>
<g id="edge5" class="edge"><title>ProbeSetId&#45;&gt;getEmblId</title>
<path style="fill:none;stroke:black;" d="M526,20C475,34 422,57 390,72"/>
<polygon style="fill:black;stroke:black;" points="392,75 381,76 389,69 392,75"/>
</g>
<g id="node10" class="node"><title>getSwissProtId</title>
<polygon style="fill:#a3cd5a;stroke:black;" points="213,113 129,113 129,131 213,131 213,113"/>
<text text-anchor="middle" style="font-family:Helvetica;font-size:10.00;" x="171" y="125">getSwissProtId</text>
</g>
<g id="edge11" class="edge"><title>ProbeSetId&#45;&gt;getSwissProtId</title>
<path style="fill:none;stroke:black;" d="M526,15C479,22 467,27 420,40 343,61 256,92 208,109"/>
<polygon style="fill:black;stroke:black;" points="209,112 198,112 207,106 209,112"/>
</g>
<g id="node11" class="node"><title>getMolFuncGoIds</title>
<polygon style="fill:#a3cd5a;stroke:black;" points="753,77 659,77 659,95 753,95 753,77"/>
<text text-anchor="middle" style="font-family:Helvetica;font-size:10.00;" x="706" y="89">getMolFuncGoIds</text>
</g>
<g id="edge9" class="edge"><title>ProbeSetId&#45;&gt;getMolFuncGoIds</title>
<path style="fill:none;stroke:black;" d="M589,24C603,28 618,34 632,40 650,49 669,61 684,71"/>
<polygon style="fill:black;stroke:black;" points="686,68 693,76 683,74 686,68"/>
</g>
<g id="node14" class="node"><title>getEC</title>
<polygon style="fill:#a3cd5a;stroke:black;" points="535,41 491,41 491,59 535,59 535,41"/>
<text text-anchor="middle" style="font-family:Helvetica;font-size:10.00;" x="513" y="53">getEC</text>
</g>
<g id="edge3" class="edge"><title>ProbeSetId&#45;&gt;getEC</title>
<path style="fill:none;stroke:black;" d="M546,24C542,27 538,31 533,34"/>
<polygon style="fill:black;stroke:black;" points="535,37 525,40 531,31 535,37"/>
</g>
<g id="node21" class="node"><title>getTargetSequence</title>
<polygon style="fill:#a3cd5a;stroke:black;" points="670,149 568,149 568,167 670,167 670,149"/>
<text text-anchor="middle" style="font-family:Helvetica;font-size:10.00;" x="619" y="161">getTargetSequence</text>
</g>
<g id="edge13" class="edge"><title>ProbeSetId&#45;&gt;getTargetSequence</title>
<path style="fill:none;stroke:black;" d="M563,24C573,47 598,108 611,139"/>
<polygon style="fill:black;stroke:black;" points="614,137 615,148 608,140 614,137"/>
</g>
<g id="node2" class="node"><title>removePrefix</title>
<polygon style="fill:#eec391;stroke:black;" points="360,149 286,149 286,167 360,167 360,149"/>
<text text-anchor="middle" style="font-family:Helvetica;font-size:10.00;" x="323" y="161">removePrefix</text>
</g>
<g id="node23" class="node"><title>ebi_medline2007</title>
<polygon style="fill:lightgoldenrodyellow;stroke:black;" points="365,185 273,185 273,203 365,203 365,185"/>
<text text-anchor="middle" style="font-family:Helvetica;font-size:10.00;" x="319" y="197">ebi_medline2007</text>
</g>
<g id="edge47" class="edge"><title>removePrefix&#45;&gt;ebi_medline2007</title>
<path style="fill:none;stroke:black;" d="M322,168C322,170 322,172 322,174"/>
<polygon style="fill:black;stroke:black;" points="325,175 320,184 319,174 325,175"/>
</g>
<g id="node3" class="node"><title>cleanGoIds</title>
<polygon style="fill:#eec391;stroke:black;" points="786,113 720,113 720,131 786,131 786,113"/>
<text text-anchor="middle" style="font-family:Helvetica;font-size:10.00;" x="753" y="125">cleanGoIds</text>
</g>
<g id="node13" class="node"><title>addTermToViz</title>
<polygon style="fill:#a3cd5a;stroke:black;" points="842,149 762,149 762,167 842,167 842,149"/>
<text text-anchor="middle" style="font-family:Helvetica;font-size:10.00;" x="802" y="161">addTermToViz</text>
</g>
<g id="edge19" class="edge"><title>cleanGoIds&#45;&gt;addTermToViz</title>
<path style="fill:none;stroke:black;" d="M766,132C770,135 776,139 780,142"/>
<polygon style="fill:black;stroke:black;" points="783,140 789,148 779,145 783,140"/>
</g>
<g id="node4" class="node"><title>cleanInterproIds</title>
<polygon style="fill:#eec391;stroke:black;" points="764,185 676,185 676,203 764,203 764,185"/>
<text text-anchor="middle" style="font-family:Helvetica;font-size:10.00;" x="720" y="197">cleanInterproIds</text>
</g>
<g id="node33" class="node"><title>WORKFLOWINTERNALSINK_interproIds</title>
<polygon style="fill:#bcd2ee;stroke:black;" points="753,240 689,240 689,258 753,258 753,240"/>
<text text-anchor="middle" style="font-family:Helvetica;font-size:10.00;" x="721" y="252">interproIds</text>
</g>
<g id="edge57" class="edge"><title>cleanInterproIds&#45;&gt;WORKFLOWINTERNALSINK_interproIds</title>
<path style="fill:none;stroke:black;" d="M720,204C720,211 720,220 720,229"/>
<polygon style="fill:black;stroke:black;" points="723,229 721,239 717,229 723,229"/>
</g>
<g id="node5" class="node"><title>splitString</title>
<polygon style="fill:#ce5fee;stroke:black;" points="169,149 109,149 109,167 169,167 169,149"/>
<text text-anchor="middle" style="font-family:Helvetica;font-size:10.00;" x="139" y="161">splitString</text>
</g>
<g id="node22" class="node"><title>ebi_uniprot</title>
<polygon style="fill:lightgoldenrodyellow;stroke:black;" points="172,185 106,185 106,203 172,203 172,185"/>
<text text-anchor="middle" style="font-family:Helvetica;font-size:10.00;" x="139" y="197">ebi_uniprot</text>
</g>
<g id="edge51" class="edge"><title>splitString&#45;&gt;ebi_uniprot</title>
<path style="fill:none;stroke:black;" d="M139,168C139,170 139,172 139,174"/>
<polygon style="fill:black;stroke:black;" points="143,174 139,184 136,174 143,174"/>
</g>
<g id="node26" class="node"><title>UniprotAndPdb</title>
<polygon style="fill:crimson;stroke:black;" points="102,185 18,185 18,203 102,203 102,185"/>
<text text-anchor="middle" style="font-family:Helvetica;font-size:10.00;" x="60" y="197">UniprotAndPdb</text>
</g>
<g id="edge49" class="edge"><title>splitString&#45;&gt;UniprotAndPdb</title>
<path style="fill:none;stroke:black;" d="M118,168C109,172 99,176 90,180"/>
<polygon style="fill:black;stroke:black;" points="92,183 81,184 89,177 92,183"/>
</g>
<g id="node6" class="node"><title>createVizSession</title>
<polygon style="fill:#a3cd5a;stroke:black;" points="896,113 802,113 802,131 896,131 896,113"/>
<text text-anchor="middle" style="font-family:Helvetica;font-size:10.00;" x="849" y="125">createVizSession</text>
</g>
<g id="node7" class="node"><title>destroyVizSession</title>
<polygon style="fill:#a3cd5a;stroke:black;" points="953,240 855,240 855,258 953,258 953,240"/>
<text text-anchor="middle" style="font-family:Helvetica;font-size:10.00;" x="904" y="252">destroyVizSession</text>
</g>
<g id="edge23" class="edge"><title>createVizSession&#45;&gt;destroyVizSession</title>
<path style="fill:none;stroke:black;" d="M855,132C876,165 890,206 898,229"/>
<polygon style="fill:black;stroke:black;" points="901,228 901,239 895,230 901,228"/>
</g>
<g id="node12" class="node"><title>getDotFromViz</title>
<polygon style="fill:#a3cd5a;stroke:black;" points="852,185 770,185 770,203 852,203 852,185"/>
<text text-anchor="middle" style="font-family:Helvetica;font-size:10.00;" x="811" y="197">getDotFromViz</text>
</g>
<g id="edge25" class="edge"><title>createVizSession&#45;&gt;getDotFromViz</title>
<path style="fill:none;stroke:black;" d="M850,132C850,142 850,157 844,168 842,172 839,175 836,178"/>
<polygon style="fill:black;stroke:black;" points="838,181 828,184 834,175 838,181"/>
</g>
<g id="edge21" class="edge"><title>createVizSession&#45;&gt;addTermToViz</title>
<path style="fill:none;stroke:black;" d="M836,132C832,135 827,139 822,142"/>
<polygon style="fill:black;stroke:black;" points="824,145 814,148 820,139 824,145"/>
</g>
<g id="edge35" class="edge"><title>getInterProIds&#45;&gt;cleanInterproIds</title>
<path style="fill:none;stroke:black;" d="M718,168C718,170 718,172 718,174"/>
<polygon style="fill:black;stroke:black;" points="721,174 719,184 715,174 721,174"/>
</g>
<g id="node17" class="node"><title>getMedlineIds</title>
<polygon style="fill:lightgoldenrodyellow;stroke:black;" points="400,113 322,113 322,131 400,131 400,113"/>
<text text-anchor="middle" style="font-family:Helvetica;font-size:10.00;" x="361" y="125">getMedlineIds</text>
</g>
<g id="edge33" class="edge"><title>getEmblId&#45;&gt;getMedlineIds</title>
<path style="fill:none;stroke:black;" d="M361,96C361,98 361,100 361,102"/>
<polygon style="fill:black;stroke:black;" points="365,102 361,112 358,102 365,102"/>
</g>
<g id="node24" class="node"><title>ebi_embl</title>
<polygon style="fill:lightgoldenrodyellow;stroke:black;" points="258,149 202,149 202,167 258,167 258,149"/>
<text text-anchor="middle" style="font-family:Helvetica;font-size:10.00;" x="230" y="161">ebi_embl</text>
</g>
<g id="edge31" class="edge"><title>getEmblId&#45;&gt;ebi_embl</title>
<path style="fill:none;stroke:black;" d="M344,96C322,108 283,129 256,143"/>
<polygon style="fill:black;stroke:black;" points="257,146 247,148 254,140 257,146"/>
</g>
<g id="edge73" class="edge"><title>getSwissProtId&#45;&gt;splitString</title>
<path style="fill:none;stroke:black;" d="M162,132C160,135 157,137 155,140"/>
<polygon style="fill:black;stroke:black;" points="157,143 148,148 152,138 157,143"/>
</g>
<g id="edge43" class="edge"><title>getMolFuncGoIds&#45;&gt;cleanGoIds</title>
<path style="fill:none;stroke:black;" d="M719,96C723,99 728,103 733,106"/>
<polygon style="fill:black;stroke:black;" points="735,103 741,112 731,109 735,103"/>
</g>
<g id="edge81" class="edge"><title>getDotFromViz&#45;&gt;destroyVizSession</title>
<path style="fill:none;stroke:gray;" d="M832,204C837,206 843,209 848,212 859,219 873,228 883,235"/>
<ellipse cx="887" cy="237" rx="4" ry="4" style="fill:none;stroke:gray;"/>
</g>
<g id="node34" class="node"><title>WORKFLOWINTERNALSINK_goDiagram</title>
<polygon style="fill:#bcd2ee;stroke:black;" points="821,240 757,240 757,258 821,258 821,240"/>
<text text-anchor="middle" style="font-family:Helvetica;font-size:10.00;" x="789" y="252">goDiagram</text>
</g>
<g id="edge65" class="edge"><title>getDotFromViz&#45;&gt;WORKFLOWINTERNALSINK_goDiagram</title>
<path style="fill:none;stroke:black;" d="M807,204C804,211 800,221 797,230"/>
<polygon style="fill:black;stroke:black;" points="800,231 793,239 794,228 800,231"/>
</g>
<g id="edge79" class="edge"><title>addTermToViz&#45;&gt;getDotFromViz</title>
<path style="fill:none;stroke:gray;" d="M804,168C805,170 805,173 806,176"/>
<ellipse cx="807" cy="180" rx="4" ry="4" style="fill:none;stroke:gray;"/>
</g>
<g id="node15" class="node"><title>cleanEcNumbers</title>
<polygon style="fill:#eec391;stroke:black;" points="495,77 403,77 403,95 495,95 495,77"/>
<text text-anchor="middle" style="font-family:Helvetica;font-size:10.00;" x="449" y="89">cleanEcNumbers</text>
</g>
<g id="edge29" class="edge"><title>getEC&#45;&gt;cleanEcNumbers</title>
<path style="fill:none;stroke:black;" d="M496,60C490,63 482,67 475,71"/>
<polygon style="fill:black;stroke:black;" points="476,74 466,76 473,68 476,74"/>
</g>
<g id="node16" class="node"><title>getPathwaysByECNumbers</title>
<polygon style="fill:#a3cd5a;stroke:black;" points="592,113 452,113 452,131 592,131 592,113"/>
<text text-anchor="middle" style="font-family:Helvetica;font-size:10.00;" x="522" y="125">getPathwaysByECNumbers</text>
</g>
<g id="edge15" class="edge"><title>cleanEcNumbers&#45;&gt;getPathwaysByECNumbers</title>
<path style="fill:none;stroke:black;" d="M469,96C476,100 485,104 494,108"/>
<polygon style="fill:black;stroke:black;" points="495,105 503,112 492,111 495,105"/>
</g>
<g id="node19" class="node"><title>mark_pathway_by_objects</title>
<polygon style="fill:#a3cd5a;stroke:black;" points="564,149 430,149 430,167 564,167 564,149"/>
<text text-anchor="middle" style="font-family:Helvetica;font-size:10.00;" x="497" y="161">mark_pathway_by_objects</text>
</g>
<g id="edge17" class="edge"><title>cleanEcNumbers&#45;&gt;mark_pathway_by_objects</title>
<path style="fill:none;stroke:black;" d="M447,96C445,106 444,121 450,132 452,136 456,140 460,143"/>
<polygon style="fill:black;stroke:black;" points="462,140 469,148 459,146 462,140"/>
</g>
<g id="node35" class="node"><title>WORKFLOWINTERNALSINK_ecNumbers</title>
<polygon style="fill:#bcd2ee;stroke:black;" points="461,240 393,240 393,258 461,258 461,240"/>
<text text-anchor="middle" style="font-family:Helvetica;font-size:10.00;" x="427" y="252">ecNumbers</text>
</g>
<g id="edge55" class="edge"><title>cleanEcNumbers&#45;&gt;WORKFLOWINTERNALSINK_ecNumbers</title>
<path style="fill:none;stroke:black;" d="M441,96C430,112 432,124 428,148 425,177 425,209 426,229"/>
<polygon style="fill:black;stroke:black;" points="430,229 426,239 423,229 430,229"/>
</g>
<g id="edge71" class="edge"><title>getPathwaysByECNumbers&#45;&gt;mark_pathway_by_objects</title>
<path style="fill:none;stroke:black;" d="M515,132C514,134 512,137 510,140"/>
<polygon style="fill:black;stroke:black;" points="513,142 504,148 507,138 513,142"/>
</g>
<g id="edge37" class="edge"><title>getMedlineIds&#45;&gt;removePrefix</title>
<path style="fill:none;stroke:black;" d="M351,132C348,135 344,138 340,141"/>
<polygon style="fill:black;stroke:black;" points="343,143 333,148 338,138 343,143"/>
</g>
<g id="node31" class="node"><title>WORKFLOWINTERNALSINK_medlineIds</title>
<polygon style="fill:#bcd2ee;stroke:black;" points="389,240 325,240 325,258 389,258 389,240"/>
<text text-anchor="middle" style="font-family:Helvetica;font-size:10.00;" x="357" y="252">medlineIds</text>
</g>
<g id="edge67" class="edge"><title>getMedlineIds&#45;&gt;WORKFLOWINTERNALSINK_medlineIds</title>
<path style="fill:none;stroke:black;" d="M363,132C366,147 370,178 367,204 366,213 364,222 362,229"/>
<polygon style="fill:black;stroke:black;" points="365,230 360,239 359,229 365,230"/>
</g>
<g id="node18" class="node"><title>getPathwayDiagrams</title>
<polygon style="fill:#ce5fee;stroke:black;" points="552,185 442,185 442,203 552,203 552,185"/>
<text text-anchor="middle" style="font-family:Helvetica;font-size:10.00;" x="497" y="197">getPathwayDiagrams</text>
</g>
<g id="node36" class="node"><title>WORKFLOWINTERNALSINK_pathways</title>
<polygon style="fill:#bcd2ee;stroke:black;" points="523,240 465,240 465,258 523,258 523,240"/>
<text text-anchor="middle" style="font-family:Helvetica;font-size:10.00;" x="494" y="252">pathways</text>
</g>
<g id="edge69" class="edge"><title>getPathwayDiagrams&#45;&gt;WORKFLOWINTERNALSINK_pathways</title>
<path style="fill:none;stroke:black;" d="M496,204C496,211 496,220 495,229"/>
<polygon style="fill:black;stroke:black;" points="499,229 495,239 492,229 499,229"/>
</g>
<g id="edge45" class="edge"><title>mark_pathway_by_objects&#45;&gt;getPathwayDiagrams</title>
<path style="fill:none;stroke:black;" d="M497,168C497,170 497,172 497,174"/>
<polygon style="fill:black;stroke:black;" points="501,174 497,184 494,174 501,174"/>
</g>
<g id="node20" class="node"><title>DDBJ_Blastn</title>
<polygon style="fill:#a3cd5a;stroke:black;" points="666,185 590,185 590,203 666,203 666,185"/>
<text text-anchor="middle" style="font-family:Helvetica;font-size:10.00;" x="628" y="197">DDBJ_Blastn</text>
</g>
<g id="node39" class="node"><title>WORKFLOWINTERNALSINK_blastReport</title>
<polygon style="fill:#bcd2ee;stroke:black;" points="685,240 617,240 617,258 685,258 685,240"/>
<text text-anchor="middle" style="font-family:Helvetica;font-size:10.00;" x="651" y="252">blastReport</text>
</g>
<g id="edge39" class="edge"><title>DDBJ_Blastn&#45;&gt;WORKFLOWINTERNALSINK_blastReport</title>
<path style="fill:none;stroke:black;" d="M632,204C635,211 639,221 643,230"/>
<polygon style="fill:black;stroke:black;" points="646,228 647,239 640,231 646,228"/>
</g>
<g id="edge75" class="edge"><title>getTargetSequence&#45;&gt;DDBJ_Blastn</title>
<path style="fill:none;stroke:black;" d="M621,168C621,170 622,172 623,174"/>
<polygon style="fill:black;stroke:black;" points="626,174 625,184 620,175 626,174"/>
</g>
<g id="node38" class="node"><title>WORKFLOWINTERNALSINK_targetSequence</title>
<polygon style="fill:#bcd2ee;stroke:black;" points="613,240 527,240 527,258 613,258 613,240"/>
<text text-anchor="middle" style="font-family:Helvetica;font-size:10.00;" x="570" y="252">targetSequence</text>
</g>
<g id="edge77" class="edge"><title>getTargetSequence&#45;&gt;WORKFLOWINTERNALSINK_targetSequence</title>
<path style="fill:none;stroke:black;" d="M604,168C598,172 592,178 588,184 579,198 575,216 573,229"/>
<polygon style="fill:black;stroke:black;" points="576,230 571,239 570,229 576,230"/>
</g>
<g id="node29" class="node"><title>WORKFLOWINTERNALSINK_swissprot</title>
<polygon style="fill:#bcd2ee;stroke:black;" points="161,240 103,240 103,258 161,258 161,240"/>
<text text-anchor="middle" style="font-family:Helvetica;font-size:10.00;" x="132" y="252">swissprot</text>
</g>
<g id="edge63" class="edge"><title>ebi_uniprot&#45;&gt;WORKFLOWINTERNALSINK_swissprot</title>
<path style="fill:none;stroke:black;" d="M138,204C137,211 136,221 135,229"/>
<polygon style="fill:black;stroke:black;" points="138,230 133,239 132,229 138,230"/>
</g>
<g id="node32" class="node"><title>WORKFLOWINTERNALSINK_medline</title>
<polygon style="fill:#bcd2ee;stroke:black;" points="321,240 271,240 271,258 321,258 321,240"/>
<text text-anchor="middle" style="font-family:Helvetica;font-size:10.00;" x="296" y="252">medline</text>
</g>
<g id="edge61" class="edge"><title>ebi_medline2007&#45;&gt;WORKFLOWINTERNALSINK_medline</title>
<path style="fill:none;stroke:black;" d="M315,204C312,211 308,221 304,230"/>
<polygon style="fill:black;stroke:black;" points="307,231 300,239 301,228 307,231"/>
</g>
<g id="node25" class="node"><title>calcMeltTemp</title>
<polygon style="fill:lightgoldenrodyellow;stroke:black;" points="269,185 191,185 191,203 269,203 269,185"/>
<text text-anchor="middle" style="font-family:Helvetica;font-size:10.00;" x="230" y="197">calcMeltTemp</text>
</g>
<g id="edge27" class="edge"><title>ebi_embl&#45;&gt;calcMeltTemp</title>
<path style="fill:none;stroke:black;" d="M230,168C230,170 230,172 230,174"/>
<polygon style="fill:black;stroke:black;" points="234,174 230,184 227,174 234,174"/>
</g>
<g id="node30" class="node"><title>WORKFLOWINTERNALSINK_embl</title>
<polygon style="fill:#bcd2ee;stroke:black;" points="203,240 165,240 165,258 203,258 203,240"/>
<text text-anchor="middle" style="font-family:Helvetica;font-size:10.00;" x="184" y="252">embl</text>
</g>
<g id="edge59" class="edge"><title>ebi_embl&#45;&gt;WORKFLOWINTERNALSINK_embl</title>
<path style="fill:none;stroke:black;" d="M208,168C201,172 194,177 189,184 181,197 181,215 181,229"/>
<polygon style="fill:black;stroke:black;" points="184,229 182,239 178,229 184,229"/>
</g>
<g id="node37" class="node"><title>WORKFLOWINTERNALSINK_meltTemp</title>
<polygon style="fill:#bcd2ee;stroke:black;" points="267,240 207,240 207,258 267,258 267,240"/>
<text text-anchor="middle" style="font-family:Helvetica;font-size:10.00;" x="237" y="252">meltTemp</text>
</g>
<g id="edge53" class="edge"><title>calcMeltTemp&#45;&gt;WORKFLOWINTERNALSINK_meltTemp</title>
<path style="fill:none;stroke:black;" d="M231,204C232,211 233,221 234,229"/>
<polygon style="fill:black;stroke:black;" points="237,229 236,239 231,230 237,229"/>
</g>
<g id="node40" class="node"><title>WORKFLOWINTERNALSINK_PDBStructure</title>
<polygon style="fill:#bcd2ee;stroke:black;" points="99,240 21,240 21,258 99,258 99,240"/>
<text text-anchor="middle" style="font-family:Helvetica;font-size:10.00;" x="60" y="252">PDBStructure</text>
</g>
<g id="edge41" class="edge"><title>UniprotAndPdb&#45;&gt;WORKFLOWINTERNALSINK_PDBStructure</title>
<path style="fill:none;stroke:black;" d="M60,204C60,211 60,220 60,229"/>
<polygon style="fill:black;stroke:black;" points="64,229 60,239 57,229 64,229"/>
</g>
<g id="node28" class="node"><title>WORKFLOWINTERNALSINKCONTROL</title>
<polygon style="fill:#6acd00;stroke:black;" points="832,256 839,246 825,246 832,256"/>
</g>
</g>
</svg>
