<?xml version="1.0" encoding="UTF-8" standalone="no"?>
<!DOCTYPE svg PUBLIC "-//W3C//DTD SVG 1.0//EN"
 "http://www.w3.org/TR/2001/REC-SVG-20010904/DTD/svg10.dtd">
<!-- Generated by dot version 2.2 (Fri Mar 11 00:51:40 UTC 2005)
     For user: (root) root   Title: scufl_graph    Pages: 1 -->
<svg width="479pt" height="740pt"
 viewBox = "-1 -1 478 739"
 xmlns="http://www.w3.org/2000/svg">
<g id="graph0" class="graph" style="font-family:Times-Roman;font-size:14.00;">
<title>scufl_graph</title>
<g id="graph2" class="cluster"><title>cluster_Extract_proteinsExtract_proteins</title>
<polygon style="fill:aliceblue;stroke:black;" points="91,517 393,517 393,264 91,264 91,517"/>
<text text-anchor="middle" style="font-family:Helvetica;font-size:10.00;" x="135" y="276">Extract_proteins</text>
</g>
<g id="graph3" class="cluster"><title>cluster_Extract_proteinssources</title>
<polygon style="fill:none;stroke:black;stroke-dasharray:1,5;" points="271,346 373,346 373,291 271,291 271,346"/>
<text text-anchor="middle" style="font-family:Helvetica;font-size:10.00;" x="315" y="303">Workflow Inputs</text>
</g>
<g id="graph4" class="cluster"><title>cluster_Extract_proteinssinks</title>
<polygon style="fill:none;stroke:black;stroke-dasharray:1,5;" points="108,509 252,509 252,454 108,454 108,509"/>
<text text-anchor="middle" style="font-family:Helvetica;font-size:10.00;" x="156" y="466">Workflow Outputs</text>
</g>
<g id="graph5" class="cluster"><title>cluster_Discover_entitiesDiscover_entities</title>
<polygon style="fill:aliceblue;stroke:black;" points="42,256 428,256 428,75 42,75 42,256"/>
<text text-anchor="middle" style="font-family:Helvetica;font-size:10.00;" x="88" y="87">Discover_entities</text>
</g>
<g id="graph6" class="cluster"><title>cluster_Discover_entitiessources</title>
<polygon style="fill:none;stroke:black;stroke-dasharray:1,5;" points="268,157 420,157 420,102 268,102 268,157"/>
<text text-anchor="middle" style="font-family:Helvetica;font-size:10.00;" x="312" y="114">Workflow Inputs</text>
</g>
<g id="graph7" class="cluster"><title>cluster_Discover_entitiessinks</title>
<polygon style="fill:none;stroke:black;stroke-dasharray:1,5;" points="254,248 390,248 390,193 254,193 254,248"/>
<text text-anchor="middle" style="font-family:Helvetica;font-size:10.00;" x="302" y="205">Workflow Outputs</text>
</g>
<g id="graph8" class="cluster"><title>cluster_sources</title>
<polygon style="fill:none;stroke:black;stroke-dasharray:1,5;" points="375,67 464,67 464,12 375,12 375,67"/>
<text text-anchor="middle" style="font-family:Helvetica;font-size:10.00;" x="419" y="24">Workflow Inputs</text>
</g>
<g id="graph9" class="cluster"><title>cluster_sinks</title>
<polygon style="fill:none;stroke:black;stroke-dasharray:1,5;" points="13,716 333,716 333,661 13,661 13,716"/>
<text text-anchor="middle" style="font-family:Helvetica;font-size:10.00;" x="61" y="673">Workflow Outputs</text>
</g>
<g id="node1" class="node"><title>prelearned_genomics_model</title>
<polygon style="fill:lightsteelblue;stroke:black;" points="367,40 223,40 223,58 367,58 367,40"/>
<text text-anchor="middle" style="font-family:Helvetica;font-size:10.00;" x="295" y="52">prelearned_genomics_model</text>
</g>
<g id="node26" class="node"><title>Discover_entitiesWORKFLOWINTERNALSOURCE_learned_model</title>
<polygon style="fill:skyblue;stroke:black;" points="358,130 276,130 276,148 358,148 358,130"/>
<text text-anchor="middle" style="font-family:Helvetica;font-size:10.00;" x="317" y="142">learned_model</text>
</g>
<g id="edge40" class="edge"><title>prelearned_genomics_model&#45;&gt;Discover_entitiesWORKFLOWINTERNALSOURCE_learned_model</title>
<path style="fill:none;stroke:black;" d="M297,59C300,73 307,101 312,119"/>
<polygon style="fill:black;stroke:black;" points="315,118 315,129 309,120 315,118"/>
</g>
<g id="node3" class="node"><title>Extract_proteinsfilter_protein_molecule_regexp</title>
<polygon style="fill:lightsteelblue;stroke:black;" points="385,355 233,355 233,373 385,373 385,355"/>
<text text-anchor="middle" style="font-family:Helvetica;font-size:10.00;" x="309" y="367">filter_protein_molecule_regexp</text>
</g>
<g id="node5" class="node"><title>Extract_proteinsFilter_protein_molecules</title>
<polygon style="fill:#ce5fee;stroke:black;" points="233,391 109,391 109,409 233,409 233,391"/>
<text text-anchor="middle" style="font-family:Helvetica;font-size:10.00;" x="171" y="403">Filter_protein_molecules</text>
</g>
<g id="edge13" class="edge"><title>Extract_proteinsfilter_protein_molecule_regexp&#45;&gt;Extract_proteinsFilter_protein_molecules</title>
<path style="fill:none;stroke:black;" d="M272,374C255,378 235,383 218,387"/>
<polygon style="fill:black;stroke:black;" points="219,390 208,390 217,384 219,390"/>
</g>
<g id="node4" class="node"><title>Extract_proteinsSplitOn_protein_molecule</title>
<polygon style="fill:#ce5fee;stroke:black;" points="229,355 99,355 99,373 229,373 229,355"/>
<text text-anchor="middle" style="font-family:Helvetica;font-size:10.00;" x="164" y="367">SplitOn_protein_molecule</text>
</g>
<g id="edge11" class="edge"><title>Extract_proteinsSplitOn_protein_molecule&#45;&gt;Extract_proteinsFilter_protein_molecules</title>
<path style="fill:none;stroke:black;" d="M166,374C166,376 167,378 167,380"/>
<polygon style="fill:black;stroke:black;" points="170,380 169,390 164,381 170,380"/>
</g>
<g id="node6" class="node"><title>Extract_proteinsRemove_duplicate_strings</title>
<polygon style="fill:#ce5fee;stroke:black;" points="238,427 104,427 104,445 238,445 238,427"/>
<text text-anchor="middle" style="font-family:Helvetica;font-size:10.00;" x="171" y="439">Remove_duplicate_strings</text>
</g>
<g id="edge7" class="edge"><title>Extract_proteinsFilter_protein_molecules&#45;&gt;Extract_proteinsRemove_duplicate_strings</title>
<path style="fill:none;stroke:black;" d="M171,410C171,412 171,414 171,416"/>
<polygon style="fill:black;stroke:black;" points="175,416 171,426 168,416 175,416"/>
</g>
<g id="node13" class="node"><title>Extract_proteinsWORKFLOWINTERNALSINK_protein_molecule_list</title>
<polygon style="fill:#bcd2ee;stroke:black;" points="226,482 116,482 116,500 226,500 226,482"/>
<text text-anchor="middle" style="font-family:Helvetica;font-size:10.00;" x="171" y="494">protein_molecule_list</text>
</g>
<g id="edge9" class="edge"><title>Extract_proteinsRemove_duplicate_strings&#45;&gt;Extract_proteinsWORKFLOWINTERNALSINK_protein_molecule_list</title>
<path style="fill:none;stroke:black;" d="M171,446C171,453 171,462 171,471"/>
<polygon style="fill:black;stroke:black;" points="175,471 171,481 168,471 175,471"/>
</g>
<g id="node7" class="node"><title>Extract_proteinssplitOn_protein_molecule_regexp</title>
<polygon style="fill:lightsteelblue;stroke:black;" points="263,319 99,319 99,337 263,337 263,319"/>
<text text-anchor="middle" style="font-family:Helvetica;font-size:10.00;" x="181" y="331">splitOn_protein_molecule_regexp</text>
</g>
<g id="edge15" class="edge"><title>Extract_proteinssplitOn_protein_molecule_regexp&#45;&gt;Extract_proteinsSplitOn_protein_molecule</title>
<path style="fill:none;stroke:black;" d="M176,338C175,340 174,343 173,345"/>
<polygon style="fill:black;stroke:black;" points="176,347 168,354 170,344 176,347"/>
</g>
<g id="node9" class="node"><title>Extract_proteinsWORKFLOWINTERNALSOURCECONTROL</title>
<polygon style="fill:#ff3f3f;stroke:black;" points="358,321 351,331 365,331 358,321"/>
</g>
<g id="node10" class="node"><title>Extract_proteinsWORKFLOWINTERNALSOURCE_input_string</title>
<polygon style="fill:skyblue;stroke:black;" points="347,319 279,319 279,337 347,337 347,319"/>
<text text-anchor="middle" style="font-family:Helvetica;font-size:10.00;" x="313" y="331">input_string</text>
</g>
<g id="edge5" class="edge"><title>Extract_proteinsWORKFLOWINTERNALSOURCE_input_string&#45;&gt;Extract_proteinsSplitOn_protein_molecule</title>
<path style="fill:none;stroke:black;" d="M298,338C293,341 286,344 279,346 276,347 260,350 239,353"/>
<polygon style="fill:black;stroke:black;" points="239,356 229,355 238,350 239,356"/>
</g>
<g id="node12" class="node"><title>Extract_proteinsWORKFLOWINTERNALSINKCONTROL</title>
<polygon style="fill:#6acd00;stroke:black;" points="237,498 244,488 230,488 237,498"/>
</g>
<g id="node39" class="node"><title>remove_xml</title>
<polygon style="fill:#eec391;stroke:black;" points="169,526 99,526 99,544 169,544 169,526"/>
<text text-anchor="middle" style="font-family:Helvetica;font-size:10.00;" x="134" y="538">remove_xml</text>
</g>
<g id="edge36" class="edge"><title>Extract_proteinsWORKFLOWINTERNALSINK_protein_molecule_list&#45;&gt;remove_xml</title>
<path style="fill:none;stroke:black;" d="M163,501C159,506 154,512 149,517"/>
<polygon style="fill:black;stroke:black;" points="151,520 142,525 146,515 151,520"/>
</g>
<g id="node46" class="node"><title>WORKFLOWINTERNALSINK_discovered_proteins_xml</title>
<polygon style="fill:#bcd2ee;stroke:black;" points="307,689 181,689 181,707 307,707 307,689"/>
<text text-anchor="middle" style="font-family:Helvetica;font-size:10.00;" x="244" y="701">discovered_proteins_xml</text>
</g>
<g id="edge34" class="edge"><title>Extract_proteinsWORKFLOWINTERNALSINK_protein_molecule_list&#45;&gt;WORKFLOWINTERNALSINK_discovered_proteins_xml</title>
<path style="fill:none;stroke:black;" d="M189,501C197,507 207,515 212,525 222,544 215,551 215,571 215,571 215,571 215,607 215,633 226,661 234,679"/>
<polygon style="fill:black;stroke:black;" points="237,678 239,688 231,681 237,678"/>
</g>
<g id="node21" class="node"><title>Discover_entitiesDefault_input_type</title>
<polygon style="fill:lightsteelblue;stroke:black;" points="260,130 160,130 160,148 260,148 260,130"/>
<text text-anchor="middle" style="font-family:Helvetica;font-size:10.00;" x="210" y="142">Default_input_type</text>
</g>
<g id="node23" class="node"><title>Discover_entitiesNErecognize</title>
<polygon style="fill:#a3cd5a;stroke:black;" points="350,166 276,166 276,184 350,184 350,166"/>
<text text-anchor="middle" style="font-family:Helvetica;font-size:10.00;" x="313" y="178">NErecognize</text>
</g>
<g id="edge22" class="edge"><title>Discover_entitiesDefault_input_type&#45;&gt;Discover_entitiesNErecognize</title>
<path style="fill:none;stroke:black;" d="M237,149C249,153 263,158 276,162"/>
<polygon style="fill:black;stroke:black;" points="277,159 286,165 275,165 277,159"/>
</g>
<g id="node22" class="node"><title>Discover_entitiesDefault_output_type</title>
<polygon style="fill:lightsteelblue;stroke:black;" points="156,130 50,130 50,148 156,148 156,130"/>
<text text-anchor="middle" style="font-family:Helvetica;font-size:10.00;" x="103" y="142">Default_output_type</text>
</g>
<g id="edge24" class="edge"><title>Discover_entitiesDefault_output_type&#45;&gt;Discover_entitiesNErecognize</title>
<path style="fill:none;stroke:black;" d="M128,149C137,152 148,155 158,157 194,165 235,169 266,172"/>
<polygon style="fill:black;stroke:black;" points="266,169 276,173 266,175 266,169"/>
</g>
<g id="node30" class="node"><title>Discover_entitiesWORKFLOWINTERNALSINK_discovered_entities</title>
<polygon style="fill:#bcd2ee;stroke:black;" points="364,221 262,221 262,239 364,239 364,221"/>
<text text-anchor="middle" style="font-family:Helvetica;font-size:10.00;" x="313" y="233">discovered_entities</text>
</g>
<g id="edge28" class="edge"><title>Discover_entitiesNErecognize&#45;&gt;Discover_entitiesWORKFLOWINTERNALSINK_discovered_entities</title>
<path style="fill:none;stroke:black;" d="M313,185C313,192 313,201 313,210"/>
<polygon style="fill:black;stroke:black;" points="317,210 313,220 310,210 317,210"/>
</g>
<g id="node25" class="node"><title>Discover_entitiesWORKFLOWINTERNALSOURCECONTROL</title>
<polygon style="fill:#ff3f3f;stroke:black;" points="405,132 398,142 412,142 405,132"/>
</g>
<g id="edge20" class="edge"><title>Discover_entitiesWORKFLOWINTERNALSOURCE_learned_model&#45;&gt;Discover_entitiesNErecognize</title>
<path style="fill:none;stroke:black;" d="M316,149C316,151 316,153 316,155"/>
<polygon style="fill:black;stroke:black;" points="319,156 314,165 313,155 319,156"/>
</g>
<g id="node27" class="node"><title>Discover_entitiesWORKFLOWINTERNALSOURCE_text</title>
<polygon style="fill:skyblue;stroke:black;" points="394,130 362,130 362,148 394,148 394,130"/>
<text text-anchor="middle" style="font-family:Helvetica;font-size:10.00;" x="378" y="142">text</text>
</g>
<g id="edge26" class="edge"><title>Discover_entitiesWORKFLOWINTERNALSOURCE_text&#45;&gt;Discover_entitiesNErecognize</title>
<path style="fill:none;stroke:black;" d="M370,149C367,152 364,155 360,157 358,158 356,159 354,160"/>
<polygon style="fill:black;stroke:black;" points="355,163 345,165 352,157 355,163"/>
</g>
<g id="node29" class="node"><title>Discover_entitiesWORKFLOWINTERNALSINKCONTROL</title>
<polygon style="fill:#6acd00;stroke:black;" points="375,237 382,227 368,227 375,237"/>
</g>
<g id="edge32" class="edge"><title>Discover_entitiesWORKFLOWINTERNALSINK_discovered_entities&#45;&gt;Extract_proteinsWORKFLOWINTERNALSOURCE_input_string</title>
<path style="fill:none;stroke:black;" d="M313,240C313,256 313,287 313,308"/>
<polygon style="fill:black;stroke:black;" points="317,308 313,318 310,308 317,308"/>
</g>
<g id="node36" class="node"><title>Remove_duplicate_strings</title>
<polygon style="fill:#ce5fee;stroke:black;" points="173,634 39,634 39,652 173,652 173,634"/>
<text text-anchor="middle" style="font-family:Helvetica;font-size:10.00;" x="106" y="646">Remove_duplicate_strings</text>
</g>
<g id="node45" class="node"><title>WORKFLOWINTERNALSINK_discovered_proteins_synonyms</title>
<polygon style="fill:#bcd2ee;stroke:black;" points="177,689 21,689 21,707 177,707 177,689"/>
<text text-anchor="middle" style="font-family:Helvetica;font-size:10.00;" x="99" y="701">discovered_proteins_synonyms</text>
</g>
<g id="edge48" class="edge"><title>Remove_duplicate_strings&#45;&gt;WORKFLOWINTERNALSINK_discovered_proteins_synonyms</title>
<path style="fill:none;stroke:black;" d="M105,653C104,660 103,670 102,678"/>
<polygon style="fill:black;stroke:black;" points="105,679 100,688 99,678 105,679"/>
</g>
<g id="node37" class="node"><title>getSynsets</title>
<polygon style="fill:#a3cd5a;stroke:black;" points="151,562 85,562 85,580 151,580 151,562"/>
<text text-anchor="middle" style="font-family:Helvetica;font-size:10.00;" x="118" y="574">getSynsets</text>
</g>
<g id="node38" class="node"><title>Flatten_list</title>
<polygon style="fill:#ce5fee;stroke:black;" points="142,598 78,598 78,616 142,616 142,598"/>
<text text-anchor="middle" style="font-family:Helvetica;font-size:10.00;" x="110" y="610">Flatten_list</text>
</g>
<g id="edge44" class="edge"><title>getSynsets&#45;&gt;Flatten_list</title>
<path style="fill:none;stroke:black;" d="M116,581C116,583 115,585 114,587"/>
<polygon style="fill:black;stroke:black;" points="117,588 112,597 111,587 117,588"/>
</g>
<g id="edge38" class="edge"><title>Flatten_list&#45;&gt;Remove_duplicate_strings</title>
<path style="fill:none;stroke:black;" d="M109,617C109,619 109,621 109,623"/>
<polygon style="fill:black;stroke:black;" points="112,624 107,633 106,623 112,624"/>
</g>
<g id="edge46" class="edge"><title>remove_xml&#45;&gt;getSynsets</title>
<path style="fill:none;stroke:black;" d="M130,545C129,547 128,550 127,552"/>
<polygon style="fill:black;stroke:black;" points="130,554 122,561 124,551 130,554"/>
</g>
<g id="node41" class="node"><title>WORKFLOWINTERNALSOURCECONTROL</title>
<polygon style="fill:#ff3f3f;stroke:black;" points="437,42 430,52 444,52 437,42"/>
</g>
<g id="node42" class="node"><title>WORKFLOWINTERNALSOURCE_text</title>
<polygon style="fill:skyblue;stroke:black;" points="415,40 383,40 383,58 415,58 415,40"/>
<text text-anchor="middle" style="font-family:Helvetica;font-size:10.00;" x="399" y="52">text</text>
</g>
<g id="edge42" class="edge"><title>WORKFLOWINTERNALSOURCE_text&#45;&gt;Discover_entitiesWORKFLOWINTERNALSOURCE_text</title>
<path style="fill:none;stroke:black;" d="M397,59C394,73 387,101 382,119"/>
<polygon style="fill:black;stroke:black;" points="385,120 380,129 379,119 385,120"/>
</g>
<g id="node44" class="node"><title>WORKFLOWINTERNALSINKCONTROL</title>
<polygon style="fill:#6acd00;stroke:black;" points="318,705 325,695 311,695 318,705"/>
</g>
</g>
</svg>
