<?xml version="1.0" encoding="UTF-8" standalone="no"?>
<!DOCTYPE svg PUBLIC "-//W3C//DTD SVG 1.0//EN"
 "http://www.w3.org/TR/2001/REC-SVG-20010904/DTD/svg10.dtd">
<!-- Generated by dot version 2.2 (Fri Mar 11 00:51:40 UTC 2005)
     For user: (root) root   Title: scufl_graph    Pages: 1 -->
<svg width="156pt" height="218pt"
 viewBox = "-1 -1 155 217"
 xmlns="http://www.w3.org/2000/svg">
<g id="graph0" class="graph" style="font-family:Times-Roman;font-size:14.00;">
<title>scufl_graph</title>
<g id="graph2" class="cluster"><title>cluster_sources</title>
<polygon style="fill:none;stroke:black;stroke-dasharray:1,5;" points="32,67 140,67 140,12 32,12 32,67"/>
<text text-anchor="middle" style="font-family:Helvetica;font-size:10.00;" x="76" y="24">Workflow Inputs</text>
</g>
<g id="graph3" class="cluster"><title>cluster_sinks</title>
<polygon style="fill:none;stroke:black;stroke-dasharray:1,5;" points="38,194 134,194 134,139 38,139 38,194"/>
<text text-anchor="middle" style="font-family:Helvetica;font-size:10.00;" x="86" y="151">Workflow Outputs</text>
</g>
<g id="node1" class="node"><title>GeneIlluminator_GetClusters</title>
<polygon style="fill:#ffb80f;stroke:black;" points="149,112 5,112 5,130 149,130 149,112"/>
<text text-anchor="middle" style="font-family:Helvetica;font-size:10.00;" x="77" y="124">GeneIlluminator_GetClusters</text>
</g>
<g id="node8" class="node"><title>WORKFLOWINTERNALSINK_Clusters</title>
<polygon style="fill:#bcd2ee;stroke:black;" points="103,167 51,167 51,185 103,185 103,167"/>
<text text-anchor="middle" style="font-family:Helvetica;font-size:10.00;" x="77" y="179">Clusters</text>
</g>
<g id="edge6" class="edge"><title>GeneIlluminator_GetClusters&#45;&gt;WORKFLOWINTERNALSINK_Clusters</title>
<path style="fill:none;stroke:black;" d="M77,131C77,138 77,147 77,156"/>
<polygon style="fill:black;stroke:black;" points="81,156 77,166 74,156 81,156"/>
</g>
<g id="node2" class="node"><title>Object</title>
<polygon style="fill:gold;stroke:black;" points="99,76 55,76 55,94 99,94 99,76"/>
<text text-anchor="middle" style="font-family:Helvetica;font-size:10.00;" x="77" y="88">Object</text>
</g>
<g id="edge8" class="edge"><title>Object&#45;&gt;GeneIlluminator_GetClusters</title>
<path style="fill:none;stroke:black;" d="M77,95C77,97 77,99 77,101"/>
<polygon style="fill:black;stroke:black;" points="81,101 77,111 74,101 81,101"/>
</g>
<g id="node4" class="node"><title>WORKFLOWINTERNALSOURCECONTROL</title>
<polygon style="fill:#ff3f3f;stroke:black;" points="125,42 118,52 132,52 125,42"/>
</g>
<g id="node5" class="node"><title>WORKFLOWINTERNALSOURCE_GeneSymbol</title>
<polygon style="fill:skyblue;stroke:black;" points="114,40 40,40 40,58 114,58 114,40"/>
<text text-anchor="middle" style="font-family:Helvetica;font-size:10.00;" x="77" y="52">GeneSymbol</text>
</g>
<g id="edge4" class="edge"><title>WORKFLOWINTERNALSOURCE_GeneSymbol&#45;&gt;Object</title>
<path style="fill:none;stroke:black;" d="M77,59C77,61 77,63 77,65"/>
<polygon style="fill:black;stroke:black;" points="81,65 77,75 74,65 81,65"/>
</g>
<g id="node7" class="node"><title>WORKFLOWINTERNALSINKCONTROL</title>
<polygon style="fill:#6acd00;stroke:black;" points="116,183 123,173 109,173 116,183"/>
</g>
</g>
</svg>
