<?xml version="1.0" encoding="UTF-8" standalone="no"?>
<!DOCTYPE svg PUBLIC "-//W3C//DTD SVG 1.0//EN"
 "http://www.w3.org/TR/2001/REC-SVG-20010904/DTD/svg10.dtd">
<!-- Generated by dot version 2.2 (Fri Mar 11 00:51:40 UTC 2005)
     For user: (root) root   Title: scufl_graph    Pages: 1 -->
<svg width="150pt" height="254pt"
 viewBox = "-1 -1 149 253"
 xmlns="http://www.w3.org/2000/svg">
<g id="graph0" class="graph" style="font-family:Times-Roman;font-size:14.00;">
<title>scufl_graph</title>
<g id="graph2" class="cluster"><title>cluster_sources</title>
<polygon style="fill:none;stroke:black;stroke-dasharray:1,5;" points="28,67 118,67 118,12 28,12 28,67"/>
<text text-anchor="middle" style="font-family:Helvetica;font-size:10.00;" x="72" y="24">Workflow Inputs</text>
</g>
<g id="graph3" class="cluster"><title>cluster_sinks</title>
<polygon style="fill:none;stroke:black;stroke-dasharray:1,5;" points="33,230 129,230 129,175 33,175 33,230"/>
<text text-anchor="middle" style="font-family:Helvetica;font-size:10.00;" x="81" y="187">Workflow Outputs</text>
</g>
<g id="node1" class="node"><title>Fail_if_false</title>
<polygon style="fill:#ce5fee;stroke:black;" points="73,76 5,76 5,94 73,94 73,76"/>
<text text-anchor="middle" style="font-family:Helvetica;font-size:10.00;" x="39" y="88">Fail_if_false</text>
</g>
<g id="node3" class="node"><title>foo</title>
<polygon style="fill:lightsteelblue;stroke:black;" points="63,112 33,112 33,130 63,130 63,112"/>
<text text-anchor="middle" style="font-family:Helvetica;font-size:10.00;" x="48" y="124">foo</text>
</g>
<g id="edge16" class="edge"><title>Fail_if_false&#45;&gt;foo</title>
<path style="fill:none;stroke:gray;" d="M41,95C41,97 42,100 43,103"/>
<ellipse cx="44" cy="107" rx="4" ry="4" style="fill:none;stroke:gray;"/>
</g>
<g id="node2" class="node"><title>Fail_if_true</title>
<polygon style="fill:#ce5fee;stroke:black;" points="143,76 77,76 77,94 143,94 143,76"/>
<text text-anchor="middle" style="font-family:Helvetica;font-size:10.00;" x="110" y="88">Fail_if_true</text>
</g>
<g id="node4" class="node"><title>bar</title>
<polygon style="fill:lightsteelblue;stroke:black;" points="115,112 85,112 85,130 115,130 115,112"/>
<text text-anchor="middle" style="font-family:Helvetica;font-size:10.00;" x="100" y="124">bar</text>
</g>
<g id="edge14" class="edge"><title>Fail_if_true&#45;&gt;bar</title>
<path style="fill:none;stroke:gray;" d="M107,95C107,97 106,100 105,103"/>
<ellipse cx="104" cy="107" rx="4" ry="4" style="fill:none;stroke:gray;"/>
</g>
<g id="node5" class="node"><title>Echo_list</title>
<polygon style="fill:#ce5fee;stroke:black;" points="93,148 37,148 37,166 93,166 93,148"/>
<text text-anchor="middle" style="font-family:Helvetica;font-size:10.00;" x="65" y="160">Echo_list</text>
</g>
<g id="edge8" class="edge"><title>foo&#45;&gt;Echo_list</title>
<path style="fill:none;stroke:black;" d="M53,131C54,133 55,136 56,138"/>
<polygon style="fill:black;stroke:black;" points="59,137 61,147 53,140 59,137"/>
</g>
<g id="edge10" class="edge"><title>bar&#45;&gt;Echo_list</title>
<path style="fill:none;stroke:black;" d="M90,131C87,134 84,137 81,140"/>
<polygon style="fill:black;stroke:black;" points="84,142 74,147 79,137 84,142"/>
</g>
<g id="node11" class="node"><title>WORKFLOWINTERNALSINK_result</title>
<polygon style="fill:#bcd2ee;stroke:black;" points="85,203 45,203 45,221 85,221 85,203"/>
<text text-anchor="middle" style="font-family:Helvetica;font-size:10.00;" x="65" y="215">result</text>
</g>
<g id="edge12" class="edge"><title>Echo_list&#45;&gt;WORKFLOWINTERNALSINK_result</title>
<path style="fill:none;stroke:black;" d="M65,167C65,174 65,183 65,192"/>
<polygon style="fill:black;stroke:black;" points="69,192 65,202 62,192 69,192"/>
</g>
<g id="node7" class="node"><title>WORKFLOWINTERNALSOURCECONTROL</title>
<polygon style="fill:#ff3f3f;stroke:black;" points="103,42 96,52 110,52 103,42"/>
</g>
<g id="node8" class="node"><title>WORKFLOWINTERNALSOURCE_condition</title>
<polygon style="fill:skyblue;stroke:black;" points="92,40 36,40 36,58 92,58 92,40"/>
<text text-anchor="middle" style="font-family:Helvetica;font-size:10.00;" x="64" y="52">condition</text>
</g>
<g id="edge6" class="edge"><title>WORKFLOWINTERNALSOURCE_condition&#45;&gt;Fail_if_false</title>
<path style="fill:none;stroke:black;" d="M57,59C56,61 54,64 52,67"/>
<polygon style="fill:black;stroke:black;" points="55,69 46,75 49,65 55,69"/>
</g>
<g id="edge4" class="edge"><title>WORKFLOWINTERNALSOURCE_condition&#45;&gt;Fail_if_true</title>
<path style="fill:none;stroke:black;" d="M77,59C81,62 85,66 90,69"/>
<polygon style="fill:black;stroke:black;" points="92,66 98,75 88,72 92,66"/>
</g>
<g id="node10" class="node"><title>WORKFLOWINTERNALSINKCONTROL</title>
<polygon style="fill:#6acd00;stroke:black;" points="105,219 112,209 98,209 105,219"/>
</g>
</g>
</svg>
