<?xml version="1.0" encoding="UTF-8" standalone="no"?>
<!DOCTYPE svg PUBLIC "-//W3C//DTD SVG 1.0//EN"
 "http://www.w3.org/TR/2001/REC-SVG-20010904/DTD/svg10.dtd">
<!-- Generated by dot version 2.2 (Fri Mar 11 00:51:40 UTC 2005)
     For user: (root) root   Title: scufl_graph    Pages: 1 -->
<svg width="244pt" height="183pt"
 viewBox = "-1 -1 243 182"
 xmlns="http://www.w3.org/2000/svg">
<g id="graph0" class="graph" style="font-family:Times-Roman;font-size:14.00;">
<title>scufl_graph</title>
<g id="graph2" class="cluster"><title>cluster_sinks</title>
<polygon style="fill:none;stroke:black;stroke-dasharray:1,5;" points="36,159 132,159 132,104 36,104 36,159"/>
<text text-anchor="middle" style="font-family:Helvetica;font-size:10.00;" x="84" y="116">Workflow Outputs</text>
</g>
<g id="node1" class="node"><title>group</title>
<polygon style="fill:lightsteelblue;stroke:black;" points="47,41 5,41 5,59 47,59 47,41"/>
<text text-anchor="middle" style="font-family:Helvetica;font-size:10.00;" x="26" y="53">group</text>
</g>
<g id="node4" class="node"><title>getFragmentWithClosure</title>
<polygon style="fill:#a3cd5a;stroke:black;" points="138,77 12,77 12,95 138,95 138,77"/>
<text text-anchor="middle" style="font-family:Helvetica;font-size:10.00;" x="75" y="89">getFragmentWithClosure</text>
</g>
<g id="edge7" class="edge"><title>group&#45;&gt;getFragmentWithClosure</title>
<path style="fill:none;stroke:black;" d="M39,60C43,63 49,67 53,70"/>
<polygon style="fill:black;stroke:black;" points="56,68 62,76 52,73 56,68"/>
</g>
<g id="node2" class="node"><title>smilesURL</title>
<polygon style="fill:lightsteelblue;stroke:black;" points="202,5 138,5 138,23 202,23 202,5"/>
<text text-anchor="middle" style="font-family:Helvetica;font-size:10.00;" x="170" y="17">smilesURL</text>
</g>
<g id="node5" class="node"><title>Get_web_page_from_URL</title>
<polygon style="fill:#ce5fee;stroke:black;" points="237,41 103,41 103,59 237,59 237,41"/>
<text text-anchor="middle" style="font-family:Helvetica;font-size:10.00;" x="170" y="53">Get_web_page_from_URL</text>
</g>
<g id="edge9" class="edge"><title>smilesURL&#45;&gt;Get_web_page_from_URL</title>
<path style="fill:none;stroke:black;" d="M170,24C170,26 170,28 170,30"/>
<polygon style="fill:black;stroke:black;" points="174,30 170,40 167,30 174,30"/>
</g>
<g id="node3" class="node"><title>closure</title>
<polygon style="fill:lightsteelblue;stroke:black;" points="99,41 51,41 51,59 99,59 99,41"/>
<text text-anchor="middle" style="font-family:Helvetica;font-size:10.00;" x="75" y="53">closure</text>
</g>
<g id="edge5" class="edge"><title>closure&#45;&gt;getFragmentWithClosure</title>
<path style="fill:none;stroke:black;" d="M75,60C75,62 75,64 75,66"/>
<polygon style="fill:black;stroke:black;" points="79,66 75,76 72,66 79,66"/>
</g>
<g id="node8" class="node"><title>WORKFLOWINTERNALSINK_output</title>
<polygon style="fill:#bcd2ee;stroke:black;" points="97,132 53,132 53,150 97,150 97,132"/>
<text text-anchor="middle" style="font-family:Helvetica;font-size:10.00;" x="75" y="144">output</text>
</g>
<g id="edge11" class="edge"><title>getFragmentWithClosure&#45;&gt;WORKFLOWINTERNALSINK_output</title>
<path style="fill:none;stroke:black;" d="M75,96C75,103 75,112 75,121"/>
<polygon style="fill:black;stroke:black;" points="79,121 75,131 72,121 79,121"/>
</g>
<g id="edge3" class="edge"><title>Get_web_page_from_URL&#45;&gt;getFragmentWithClosure</title>
<path style="fill:none;stroke:black;" d="M145,60C134,64 121,68 110,73"/>
<polygon style="fill:black;stroke:black;" points="111,76 100,76 109,70 111,76"/>
</g>
<g id="node7" class="node"><title>WORKFLOWINTERNALSINKCONTROL</title>
<polygon style="fill:#6acd00;stroke:black;" points="112,148 119,138 105,138 112,148"/>
</g>
</g>
</svg>
