<?xml version="1.0" encoding="UTF-8" standalone="no"?>
<!DOCTYPE svg PUBLIC "-//W3C//DTD SVG 1.0//EN"
 "http://www.w3.org/TR/2001/REC-SVG-20010904/DTD/svg10.dtd">
<!-- Generated by dot version 2.2 (Fri Mar 11 00:51:40 UTC 2005)
     For user: (root) root   Title: scufl_graph    Pages: 1 -->
<svg width="528pt" height="399pt"
 viewBox = "-1 -1 527 398"
 xmlns="http://www.w3.org/2000/svg">
<g id="graph0" class="graph" style="font-family:Times-Roman;font-size:14.00;">
<title>scufl_graph</title>
<g id="graph2" class="cluster"><title>cluster_sinks</title>
<polygon style="fill:none;stroke:black;stroke-dasharray:1,5;" points="13,375 513,375 513,320 13,320 13,375"/>
<text text-anchor="middle" style="font-family:Helvetica;font-size:10.00;" x="61" y="332">Workflow Outputs</text>
</g>
<g id="node1" class="node"><title>query</title>
<polygon style="fill:lightsteelblue;stroke:black;" points="380,5 338,5 338,23 380,23 380,5"/>
<text text-anchor="middle" style="font-family:Helvetica;font-size:10.00;" x="359" y="17">query</text>
</g>
<g id="node9" class="node"><title>fetchData</title>
<polygon style="fill:#a3cd5a;stroke:black;" points="431,41 373,41 373,59 431,59 431,41"/>
<text text-anchor="middle" style="font-family:Helvetica;font-size:10.00;" x="402" y="53">fetchData</text>
</g>
<g id="edge15" class="edge"><title>query&#45;&gt;fetchData</title>
<path style="fill:none;stroke:black;" d="M371,24C375,27 378,30 382,34"/>
<polygon style="fill:black;stroke:black;" points="384,31 390,40 380,37 384,31"/>
</g>
<g id="node2" class="node"><title>style</title>
<polygon style="fill:lightsteelblue;stroke:black;" points="420,5 384,5 384,23 420,23 420,5"/>
<text text-anchor="middle" style="font-family:Helvetica;font-size:10.00;" x="402" y="17">style</text>
</g>
<g id="edge23" class="edge"><title>style&#45;&gt;fetchData</title>
<path style="fill:none;stroke:black;" d="M402,24C402,26 402,28 402,30"/>
<polygon style="fill:black;stroke:black;" points="406,30 402,40 399,30 406,30"/>
</g>
<g id="node3" class="node"><title>format</title>
<polygon style="fill:lightsteelblue;stroke:black;" points="468,5 424,5 424,23 468,23 468,5"/>
<text text-anchor="middle" style="font-family:Helvetica;font-size:10.00;" x="446" y="17">format</text>
</g>
<g id="edge11" class="edge"><title>format&#45;&gt;fetchData</title>
<path style="fill:none;stroke:black;" d="M434,24C430,27 426,30 422,34"/>
<polygon style="fill:black;stroke:black;" points="424,37 414,40 420,31 424,37"/>
</g>
<g id="node4" class="node"><title>parametersXML</title>
<polygon style="fill:#ce5fee;stroke:black;" points="236,257 148,257 148,275 236,275 236,257"/>
<text text-anchor="middle" style="font-family:Helvetica;font-size:10.00;" x="192" y="269">parametersXML</text>
</g>
<g id="node8" class="node"><title>transeqResultXML</title>
<polygon style="fill:#ce5fee;stroke:black;" points="233,293 135,293 135,311 233,311 233,293"/>
<text text-anchor="middle" style="font-family:Helvetica;font-size:10.00;" x="184" y="305">transeqResultXML</text>
</g>
<g id="edge13" class="edge"><title>parametersXML&#45;&gt;transeqResultXML</title>
<path style="fill:none;stroke:black;" d="M190,276C190,278 189,280 188,282"/>
<polygon style="fill:black;stroke:black;" points="191,283 186,292 185,282 191,283"/>
</g>
<g id="node5" class="node"><title>transeqXML</title>
<polygon style="fill:#ce5fee;stroke:black;" points="328,149 258,149 258,167 328,167 328,149"/>
<text text-anchor="middle" style="font-family:Helvetica;font-size:10.00;" x="293" y="161">transeqXML</text>
</g>
<g id="node6" class="node"><title>runAndWaitFor_param</title>
<polygon style="fill:#ce5fee;stroke:black;" points="342,185 226,185 226,203 342,203 342,185"/>
<text text-anchor="middle" style="font-family:Helvetica;font-size:10.00;" x="284" y="197">runAndWaitFor_param</text>
</g>
<g id="edge25" class="edge"><title>transeqXML&#45;&gt;runAndWaitFor_param</title>
<path style="fill:none;stroke:black;" d="M291,168C291,170 290,172 289,174"/>
<polygon style="fill:black;stroke:black;" points="292,175 287,184 286,174 292,175"/>
</g>
<g id="node10" class="node"><title>runAndWaitFor</title>
<polygon style="fill:#a3cd5a;stroke:black;" points="294,221 212,221 212,239 294,239 294,221"/>
<text text-anchor="middle" style="font-family:Helvetica;font-size:10.00;" x="253" y="233">runAndWaitFor</text>
</g>
<g id="edge19" class="edge"><title>runAndWaitFor_param&#45;&gt;runAndWaitFor</title>
<path style="fill:none;stroke:black;" d="M276,204C273,207 271,210 268,213"/>
<polygon style="fill:black;stroke:black;" points="271,215 261,220 266,210 271,215"/>
</g>
<g id="node7" class="node"><title>sequenceXML</title>
<polygon style="fill:#ce5fee;stroke:black;" points="341,113 261,113 261,131 341,131 341,113"/>
<text text-anchor="middle" style="font-family:Helvetica;font-size:10.00;" x="301" y="125">sequenceXML</text>
</g>
<g id="edge21" class="edge"><title>sequenceXML&#45;&gt;transeqXML</title>
<path style="fill:none;stroke:black;" d="M299,132C299,134 298,136 297,138"/>
<polygon style="fill:black;stroke:black;" points="300,139 295,148 294,138 300,139"/>
</g>
<g id="node14" class="node"><title>WORKFLOWINTERNALSINK_result_sequence</title>
<polygon style="fill:#bcd2ee;stroke:black;" points="221,348 131,348 131,366 221,366 221,348"/>
<text text-anchor="middle" style="font-family:Helvetica;font-size:10.00;" x="176" y="360">result_sequence</text>
</g>
<g id="edge29" class="edge"><title>transeqResultXML&#45;&gt;WORKFLOWINTERNALSINK_result_sequence</title>
<path style="fill:none;stroke:black;" d="M183,312C182,319 180,329 179,337"/>
<polygon style="fill:black;stroke:black;" points="182,338 177,347 176,337 182,338"/>
</g>
<g id="node16" class="node"><title>WORKFLOWINTERNALSINK_debug_trans_report</title>
<polygon style="fill:#bcd2ee;stroke:black;" points="329,348 225,348 225,366 329,366 329,348"/>
<text text-anchor="middle" style="font-family:Helvetica;font-size:10.00;" x="277" y="360">debug_trans_report</text>
</g>
<g id="edge31" class="edge"><title>transeqResultXML&#45;&gt;WORKFLOWINTERNALSINK_debug_trans_report</title>
<path style="fill:none;stroke:black;" d="M206,312C212,314 218,317 223,320 234,327 246,335 256,341"/>
<polygon style="fill:black;stroke:black;" points="258,338 264,347 254,344 258,338"/>
</g>
<g id="node17" class="node"><title>WORKFLOWINTERNALSINK_debug_detail_status</title>
<polygon style="fill:#bcd2ee;stroke:black;" points="127,348 21,348 21,366 127,366 127,348"/>
<text text-anchor="middle" style="font-family:Helvetica;font-size:10.00;" x="74" y="360">debug_detail_status</text>
</g>
<g id="edge27" class="edge"><title>transeqResultXML&#45;&gt;WORKFLOWINTERNALSINK_debug_detail_status</title>
<path style="fill:none;stroke:black;" d="M150,312C143,314 136,317 129,320 117,326 105,334 94,341"/>
<polygon style="fill:black;stroke:black;" points="96,344 86,347 92,338 96,344"/>
</g>
<g id="node11" class="node"><title>Merge_string_list_to_string</title>
<polygon style="fill:#ce5fee;stroke:black;" points="432,77 296,77 296,95 432,95 432,77"/>
<text text-anchor="middle" style="font-family:Helvetica;font-size:10.00;" x="364" y="89">Merge_string_list_to_string</text>
</g>
<g id="edge7" class="edge"><title>fetchData&#45;&gt;Merge_string_list_to_string</title>
<path style="fill:none;stroke:black;" d="M392,60C389,63 385,66 381,69"/>
<polygon style="fill:black;stroke:black;" points="384,71 374,76 379,66 384,71"/>
</g>
<g id="node15" class="node"><title>WORKFLOWINTERNALSINK_nucle_sequence</title>
<polygon style="fill:#bcd2ee;stroke:black;" points="487,348 399,348 399,366 487,366 487,348"/>
<text text-anchor="middle" style="font-family:Helvetica;font-size:10.00;" x="443" y="360">nucle_sequence</text>
</g>
<g id="edge9" class="edge"><title>fetchData&#45;&gt;WORKFLOWINTERNALSINK_nucle_sequence</title>
<path style="fill:none;stroke:black;" d="M417,60C423,64 430,70 434,76 444,94 441,102 441,122 441,122 441,122 441,266 441,291 442,319 442,337"/>
<polygon style="fill:black;stroke:black;" points="445,337 443,347 439,337 445,337"/>
</g>
<g id="edge17" class="edge"><title>runAndWaitFor&#45;&gt;parametersXML</title>
<path style="fill:none;stroke:black;" d="M237,240C231,243 224,247 218,251"/>
<polygon style="fill:black;stroke:black;" points="219,254 209,256 216,248 219,254"/>
</g>
<g id="edge3" class="edge"><title>Merge_string_list_to_string&#45;&gt;sequenceXML</title>
<path style="fill:none;stroke:black;" d="M347,96C341,99 334,103 327,107"/>
<polygon style="fill:black;stroke:black;" points="328,110 318,112 325,104 328,110"/>
</g>
<g id="node18" class="node"><title>WORKFLOWINTERNALSINK_debug_file</title>
<polygon style="fill:#bcd2ee;stroke:black;" points="395,348 333,348 333,366 395,366 395,348"/>
<text text-anchor="middle" style="font-family:Helvetica;font-size:10.00;" x="364" y="360">debug_file</text>
</g>
<g id="edge5" class="edge"><title>Merge_string_list_to_string&#45;&gt;WORKFLOWINTERNALSINK_debug_file</title>
<path style="fill:none;stroke:black;" d="M364,96C364,110 364,136 364,158 364,158 364,158 364,266 364,291 364,319 364,337"/>
<polygon style="fill:black;stroke:black;" points="368,337 364,347 361,337 368,337"/>
</g>
<g id="node13" class="node"><title>WORKFLOWINTERNALSINKCONTROL</title>
<polygon style="fill:#6acd00;stroke:black;" points="498,364 505,354 491,354 498,364"/>
</g>
</g>
</svg>
