<?xml version="1.0" encoding="UTF-8" standalone="no"?>
<!DOCTYPE svg PUBLIC "-//W3C//DTD SVG 1.0//EN"
 "http://www.w3.org/TR/2001/REC-SVG-20010904/DTD/svg10.dtd">
<!-- Generated by dot version 2.2 (Fri Mar 11 00:51:40 UTC 2005)
     For user: (root) root   Title: scufl_graph    Pages: 1 -->
<svg width="246pt" height="218pt"
 viewBox = "-1 -1 245 217"
 xmlns="http://www.w3.org/2000/svg">
<g id="graph0" class="graph" style="font-family:Times-Roman;font-size:14.00;">
<title>scufl_graph</title>
<g id="graph2" class="cluster"><title>cluster_sources</title>
<polygon style="fill:none;stroke:black;stroke-dasharray:1,5;" points="34,67 132,67 132,12 34,12 34,67"/>
<text text-anchor="middle" style="font-family:Helvetica;font-size:10.00;" x="78" y="24">Workflow Inputs</text>
</g>
<g id="graph3" class="cluster"><title>cluster_sinks</title>
<polygon style="fill:none;stroke:black;stroke-dasharray:1,5;" points="26,194 224,194 224,139 26,139 26,194"/>
<text text-anchor="middle" style="font-family:Helvetica;font-size:10.00;" x="74" y="151">Workflow Outputs</text>
</g>
<g id="node1" class="node"><title>makeBookmark</title>
<polygon style="fill:#a3cd5a;stroke:black;" points="108,76 22,76 22,94 108,94 108,76"/>
<text text-anchor="middle" style="font-family:Helvetica;font-size:10.00;" x="65" y="88">makeBookmark</text>
</g>
<g id="node2" class="node"><title>Byte___to_String</title>
<polygon style="fill:#ce5fee;stroke:black;" points="97,112 5,112 5,130 97,130 97,112"/>
<text text-anchor="middle" style="font-family:Helvetica;font-size:10.00;" x="51" y="124">Byte___to_String</text>
</g>
<g id="edge12" class="edge"><title>makeBookmark&#45;&gt;Byte___to_String</title>
<path style="fill:none;stroke:black;" d="M61,95C60,97 59,99 59,101"/>
<polygon style="fill:black;stroke:black;" points="62,103 55,111 55,100 62,103"/>
</g>
<g id="node3" class="node"><title>Encode_byte___to_base64</title>
<polygon style="fill:#ce5fee;stroke:black;" points="239,112 101,112 101,130 239,130 239,112"/>
<text text-anchor="middle" style="font-family:Helvetica;font-size:10.00;" x="170" y="124">Encode_byte___to_base64</text>
</g>
<g id="edge14" class="edge"><title>makeBookmark&#45;&gt;Encode_byte___to_base64</title>
<path style="fill:none;stroke:black;" d="M93,95C105,99 119,104 132,108"/>
<polygon style="fill:black;stroke:black;" points="133,105 142,111 131,111 133,105"/>
</g>
<g id="node10" class="node"><title>WORKFLOWINTERNALSINK_qrcode_string</title>
<polygon style="fill:#bcd2ee;stroke:black;" points="110,167 34,167 34,185 110,185 110,167"/>
<text text-anchor="middle" style="font-family:Helvetica;font-size:10.00;" x="72" y="179">qrcode_string</text>
</g>
<g id="edge8" class="edge"><title>Byte___to_String&#45;&gt;WORKFLOWINTERNALSINK_qrcode_string</title>
<path style="fill:none;stroke:black;" d="M55,131C58,138 62,148 65,156"/>
<polygon style="fill:black;stroke:black;" points="68,155 68,166 62,157 68,155"/>
</g>
<g id="node11" class="node"><title>WORKFLOWINTERNALSINK_qrcode_base64</title>
<polygon style="fill:#bcd2ee;stroke:black;" points="198,167 114,167 114,185 198,185 198,167"/>
<text text-anchor="middle" style="font-family:Helvetica;font-size:10.00;" x="156" y="179">qrcode_base64</text>
</g>
<g id="edge10" class="edge"><title>Encode_byte___to_base64&#45;&gt;WORKFLOWINTERNALSINK_qrcode_base64</title>
<path style="fill:none;stroke:black;" d="M168,131C166,138 163,148 161,156"/>
<polygon style="fill:black;stroke:black;" points="164,157 159,166 158,156 164,157"/>
</g>
<g id="node5" class="node"><title>WORKFLOWINTERNALSOURCECONTROL</title>
<polygon style="fill:#ff3f3f;stroke:black;" points="117,42 110,52 124,52 117,42"/>
</g>
<g id="node6" class="node"><title>WORKFLOWINTERNALSOURCE_url</title>
<polygon style="fill:skyblue;stroke:black;" points="106,40 78,40 78,58 106,58 106,40"/>
<text text-anchor="middle" style="font-family:Helvetica;font-size:10.00;" x="92" y="52">url</text>
</g>
<g id="edge6" class="edge"><title>WORKFLOWINTERNALSOURCE_url&#45;&gt;makeBookmark</title>
<path style="fill:none;stroke:black;" d="M85,59C83,61 81,64 78,67"/>
<polygon style="fill:black;stroke:black;" points="81,69 72,75 75,65 81,69"/>
</g>
<g id="node7" class="node"><title>WORKFLOWINTERNALSOURCE_title</title>
<polygon style="fill:skyblue;stroke:black;" points="74,40 42,40 42,58 74,58 74,40"/>
<text text-anchor="middle" style="font-family:Helvetica;font-size:10.00;" x="58" y="52">title</text>
</g>
<g id="edge4" class="edge"><title>WORKFLOWINTERNALSOURCE_title&#45;&gt;makeBookmark</title>
<path style="fill:none;stroke:black;" d="M60,59C60,61 61,63 61,65"/>
<polygon style="fill:black;stroke:black;" points="64,65 63,75 58,66 64,65"/>
</g>
<g id="node9" class="node"><title>WORKFLOWINTERNALSINKCONTROL</title>
<polygon style="fill:#6acd00;stroke:black;" points="209,183 216,173 202,173 209,183"/>
</g>
</g>
</svg>
