<?xml version="1.0" encoding="UTF-8" standalone="no"?>
<!DOCTYPE svg PUBLIC "-//W3C//DTD SVG 1.0//EN"
 "http://www.w3.org/TR/2001/REC-SVG-20010904/DTD/svg10.dtd">
<!-- Generated by dot version 2.2 (Fri Mar 11 00:51:40 UTC 2005)
     For user: (root) root   Title: scufl_graph    Pages: 1 -->
<svg width="260pt" height="290pt"
 viewBox = "-1 -1 259 289"
 xmlns="http://www.w3.org/2000/svg">
<g id="graph0" class="graph" style="font-family:Times-Roman;font-size:14.00;">
<title>scufl_graph</title>
<g id="graph2" class="cluster"><title>cluster_sources</title>
<polygon style="fill:none;stroke:black;stroke-dasharray:1,5;" points="77,67 213,67 213,12 77,12 77,67"/>
<text text-anchor="middle" style="font-family:Helvetica;font-size:10.00;" x="121" y="24">Workflow Inputs</text>
</g>
<g id="graph3" class="cluster"><title>cluster_sinks</title>
<polygon style="fill:none;stroke:black;stroke-dasharray:1,5;" points="48,266 158,266 158,211 48,211 48,266"/>
<text text-anchor="middle" style="font-family:Helvetica;font-size:10.00;" x="96" y="223">Workflow Outputs</text>
</g>
<g id="node1" class="node"><title>Database</title>
<polygon style="fill:lightsteelblue;stroke:black;" points="63,148 5,148 5,166 63,166 63,148"/>
<text text-anchor="middle" style="font-family:Helvetica;font-size:10.00;" x="34" y="160">Database</text>
</g>
<g id="node2" class="node"><title>searchSimple</title>
<polygon style="fill:#a3cd5a;stroke:black;" points="132,184 56,184 56,202 132,202 132,184"/>
<text text-anchor="middle" style="font-family:Helvetica;font-size:10.00;" x="94" y="196">searchSimple</text>
</g>
<g id="edge4" class="edge"><title>Database&#45;&gt;searchSimple</title>
<path style="fill:none;stroke:black;" d="M50,167C56,170 63,174 69,178"/>
<polygon style="fill:black;stroke:black;" points="71,175 78,183 68,181 71,175"/>
</g>
<g id="node13" class="node"><title>WORKFLOWINTERNALSINK_Blast_reports</title>
<polygon style="fill:#bcd2ee;stroke:black;" points="132,239 56,239 56,257 132,257 132,239"/>
<text text-anchor="middle" style="font-family:Helvetica;font-size:10.00;" x="94" y="251">Blast_reports</text>
</g>
<g id="edge20" class="edge"><title>searchSimple&#45;&gt;WORKFLOWINTERNALSINK_Blast_reports</title>
<path style="fill:none;stroke:black;" d="M94,203C94,210 94,219 94,228"/>
<polygon style="fill:black;stroke:black;" points="98,228 94,238 91,228 98,228"/>
</g>
<g id="node3" class="node"><title>Program</title>
<polygon style="fill:lightsteelblue;stroke:black;" points="121,148 67,148 67,166 121,166 121,148"/>
<text text-anchor="middle" style="font-family:Helvetica;font-size:10.00;" x="94" y="160">Program</text>
</g>
<g id="edge6" class="edge"><title>Program&#45;&gt;searchSimple</title>
<path style="fill:none;stroke:black;" d="M94,167C94,169 94,171 94,173"/>
<polygon style="fill:black;stroke:black;" points="98,173 94,183 91,173 98,173"/>
</g>
<g id="node4" class="node"><title>Split_string_into_list</title>
<polygon style="fill:#ce5fee;stroke:black;" points="211,112 107,112 107,130 211,130 211,112"/>
<text text-anchor="middle" style="font-family:Helvetica;font-size:10.00;" x="159" y="124">Split_string_into_list</text>
</g>
<g id="node5" class="node"><title>Concatenate_two_strings</title>
<polygon style="fill:#ce5fee;stroke:black;" points="253,148 125,148 125,166 253,166 253,148"/>
<text text-anchor="middle" style="font-family:Helvetica;font-size:10.00;" x="189" y="160">Concatenate_two_strings</text>
</g>
<g id="edge16" class="edge"><title>Split_string_into_list&#45;&gt;Concatenate_two_strings</title>
<path style="fill:none;stroke:black;" d="M167,131C169,134 172,136 174,139"/>
<polygon style="fill:black;stroke:black;" points="177,137 181,147 172,142 177,137"/>
</g>
<g id="edge10" class="edge"><title>Concatenate_two_strings&#45;&gt;searchSimple</title>
<path style="fill:none;stroke:black;" d="M164,167C153,171 140,175 129,180"/>
<polygon style="fill:black;stroke:black;" points="130,183 119,183 128,177 130,183"/>
</g>
<g id="node6" class="node"><title>Regex</title>
<polygon style="fill:lightsteelblue;stroke:black;" points="240,76 196,76 196,94 240,94 240,76"/>
<text text-anchor="middle" style="font-family:Helvetica;font-size:10.00;" x="218" y="88">Regex</text>
</g>
<g id="edge14" class="edge"><title>Regex&#45;&gt;Split_string_into_list</title>
<path style="fill:none;stroke:black;" d="M202,95C197,98 190,102 184,106"/>
<polygon style="fill:black;stroke:black;" points="185,109 175,111 182,103 185,109"/>
</g>
<g id="edge12" class="edge"><title>Regex&#45;&gt;Concatenate_two_strings</title>
<path style="fill:none;stroke:black;" d="M219,95C219,105 218,120 213,131 212,134 210,137 208,139"/>
<polygon style="fill:black;stroke:black;" points="210,142 201,147 205,137 210,142"/>
</g>
<g id="node7" class="node"><title>removeFirstCharacter</title>
<polygon style="fill:#a3cd5a;stroke:black;" points="192,76 80,76 80,94 192,94 192,76"/>
<text text-anchor="middle" style="font-family:Helvetica;font-size:10.00;" x="136" y="88">removeFirstCharacter</text>
</g>
<g id="edge18" class="edge"><title>removeFirstCharacter&#45;&gt;Split_string_into_list</title>
<path style="fill:none;stroke:black;" d="M142,95C143,97 145,100 147,103"/>
<polygon style="fill:black;stroke:black;" points="150,101 153,111 144,105 150,101"/>
</g>
<g id="node9" class="node"><title>WORKFLOWINTERNALSOURCECONTROL</title>
<polygon style="fill:#ff3f3f;stroke:black;" points="198,42 191,52 205,52 198,42"/>
</g>
<g id="node10" class="node"><title>WORKFLOWINTERNALSOURCE_Protein_sequences</title>
<polygon style="fill:skyblue;stroke:black;" points="187,40 85,40 85,58 187,58 187,40"/>
<text text-anchor="middle" style="font-family:Helvetica;font-size:10.00;" x="136" y="52">Protein_sequences</text>
</g>
<g id="edge8" class="edge"><title>WORKFLOWINTERNALSOURCE_Protein_sequences&#45;&gt;removeFirstCharacter</title>
<path style="fill:none;stroke:black;" d="M136,59C136,61 136,63 136,65"/>
<polygon style="fill:black;stroke:black;" points="140,65 136,75 133,65 140,65"/>
</g>
<g id="node12" class="node"><title>WORKFLOWINTERNALSINKCONTROL</title>
<polygon style="fill:#6acd00;stroke:black;" points="143,255 150,245 136,245 143,255"/>
</g>
</g>
</svg>
