<?xml version="1.0" encoding="UTF-8" standalone="no"?>
<!DOCTYPE svg PUBLIC "-//W3C//DTD SVG 1.0//EN"
 "http://www.w3.org/TR/2001/REC-SVG-20010904/DTD/svg10.dtd">
<!-- Generated by dot version 2.2 (Fri Mar 11 00:51:40 UTC 2005)
     For user: (root) root   Title: scufl_graph    Pages: 1 -->
<svg width="333pt" height="291pt"
 viewBox = "-1 -1 332 290"
 xmlns="http://www.w3.org/2000/svg">
<g id="graph0" class="graph" style="font-family:Times-Roman;font-size:14.00;">
<title>scufl_graph</title>
<g id="graph2" class="cluster"><title>cluster_sinks</title>
<polygon style="fill:none;stroke:black;stroke-dasharray:1,5;" points="90,267 318,267 318,212 90,212 90,267"/>
<text text-anchor="middle" style="font-family:Helvetica;font-size:10.00;" x="138" y="224">Workflow Outputs</text>
</g>
<g id="node1" class="node"><title>getKeggPathwaysByKeggID</title>
<polygon style="fill:#ffb80f;stroke:black;" points="247,77 107,77 107,95 247,95 247,77"/>
<text text-anchor="middle" style="font-family:Helvetica;font-size:10.00;" x="177" y="89">getKeggPathwaysByKeggID</text>
</g>
<g id="node3" class="node"><title>Parse_Moby_Data_Object</title>
<polygon style="fill:white;stroke:black;" points="137,185 5,185 5,203 137,203 137,185"/>
<text text-anchor="middle" style="font-family:Helvetica;font-size:10.00;" x="71" y="197">Parse_Moby_Data_Object</text>
</g>
<g id="edge17" class="edge"><title>getKeggPathwaysByKeggID&#45;&gt;Parse_Moby_Data_Object</title>
<path style="fill:none;stroke:black;" d="M148,96C138,100 127,105 117,112 100,125 96,130 85,148 81,156 78,166 75,174"/>
<polygon style="fill:black;stroke:black;" points="78,175 73,184 72,174 78,175"/>
</g>
<g id="node4" class="node"><title>getKeggPathwayAsGif</title>
<polygon style="fill:#ffb80f;stroke:black;" points="235,113 119,113 119,131 235,131 235,113"/>
<text text-anchor="middle" style="font-family:Helvetica;font-size:10.00;" x="177" y="125">getKeggPathwayAsGif</text>
</g>
<g id="edge13" class="edge"><title>getKeggPathwaysByKeggID&#45;&gt;getKeggPathwayAsGif</title>
<path style="fill:none;stroke:black;" d="M177,96C177,98 177,100 177,102"/>
<polygon style="fill:black;stroke:black;" points="181,102 177,112 174,102 181,102"/>
</g>
<g id="node10" class="node"><title>WORKFLOWINTERNALSINK_output</title>
<polygon style="fill:#bcd2ee;stroke:black;" points="292,240 248,240 248,258 292,258 292,240"/>
<text text-anchor="middle" style="font-family:Helvetica;font-size:10.00;" x="270" y="252">output</text>
</g>
<g id="edge19" class="edge"><title>getKeggPathwaysByKeggID&#45;&gt;WORKFLOWINTERNALSINK_output</title>
<path style="fill:none;stroke:black;" d="M207,96C230,105 259,121 269,148 280,175 277,208 274,229"/>
<polygon style="fill:black;stroke:black;" points="277,230 272,239 271,229 277,230"/>
</g>
<g id="node2" class="node"><title>Object</title>
<polygon style="fill:gold;stroke:black;" points="199,41 155,41 155,59 199,59 199,41"/>
<text text-anchor="middle" style="font-family:Helvetica;font-size:10.00;" x="177" y="53">Object</text>
</g>
<g id="edge5" class="edge"><title>Object&#45;&gt;getKeggPathwaysByKeggID</title>
<path style="fill:none;stroke:black;" d="M177,60C177,62 177,64 177,66"/>
<polygon style="fill:black;stroke:black;" points="181,66 177,76 174,66 181,66"/>
</g>
<g id="node11" class="node"><title>WORKFLOWINTERNALSINK_pathwayId</title>
<polygon style="fill:#bcd2ee;stroke:black;" points="160,240 98,240 98,258 160,258 160,240"/>
<text text-anchor="middle" style="font-family:Helvetica;font-size:10.00;" x="129" y="252">pathwayId</text>
</g>
<g id="edge15" class="edge"><title>Parse_Moby_Data_Object&#45;&gt;WORKFLOWINTERNALSINK_pathwayId</title>
<path style="fill:none;stroke:black;" d="M81,204C90,212 102,223 112,232"/>
<polygon style="fill:black;stroke:black;" points="114,229 119,239 109,234 114,229"/>
</g>
<g id="node5" class="node"><title>Parse_Moby_Data_b64_encoded_gif</title>
<polygon style="fill:white;stroke:black;" points="267,149 87,149 87,167 267,167 267,149"/>
<text text-anchor="middle" style="font-family:Helvetica;font-size:10.00;" x="177" y="161">Parse_Moby_Data_b64_encoded_gif</text>
</g>
<g id="edge11" class="edge"><title>getKeggPathwayAsGif&#45;&gt;Parse_Moby_Data_b64_encoded_gif</title>
<path style="fill:none;stroke:black;" d="M177,132C177,134 177,136 177,138"/>
<polygon style="fill:black;stroke:black;" points="181,138 177,148 174,138 181,138"/>
</g>
<g id="node6" class="node"><title>Decode_base64_to_byte</title>
<polygon style="fill:#ce5fee;stroke:black;" points="267,185 141,185 141,203 267,203 267,185"/>
<text text-anchor="middle" style="font-family:Helvetica;font-size:10.00;" x="204" y="197">Decode_base64_to_byte</text>
</g>
<g id="edge7" class="edge"><title>Parse_Moby_Data_b64_encoded_gif&#45;&gt;Decode_base64_to_byte</title>
<path style="fill:none;stroke:black;" d="M184,168C186,170 188,173 190,176"/>
<polygon style="fill:black;stroke:black;" points="193,174 197,184 188,179 193,174"/>
</g>
<g id="node12" class="node"><title>WORKFLOWINTERNALSINK_pathwayImage</title>
<polygon style="fill:#bcd2ee;stroke:black;" points="244,240 164,240 164,258 244,258 244,240"/>
<text text-anchor="middle" style="font-family:Helvetica;font-size:10.00;" x="204" y="252">pathwayImage</text>
</g>
<g id="edge3" class="edge"><title>Decode_base64_to_byte&#45;&gt;WORKFLOWINTERNALSINK_pathwayImage</title>
<path style="fill:none;stroke:black;" d="M204,204C204,211 204,220 204,229"/>
<polygon style="fill:black;stroke:black;" points="208,229 204,239 201,229 208,229"/>
</g>
<g id="node7" class="node"><title>String_Constant</title>
<polygon style="fill:lightsteelblue;stroke:black;" points="221,5 133,5 133,23 221,23 221,5"/>
<text text-anchor="middle" style="font-family:Helvetica;font-size:10.00;" x="177" y="17">String_Constant</text>
</g>
<g id="edge9" class="edge"><title>String_Constant&#45;&gt;Object</title>
<path style="fill:none;stroke:black;" d="M177,24C177,26 177,28 177,30"/>
<polygon style="fill:black;stroke:black;" points="181,30 177,40 174,30 181,30"/>
</g>
<g id="node9" class="node"><title>WORKFLOWINTERNALSINKCONTROL</title>
<polygon style="fill:#6acd00;stroke:black;" points="303,256 310,246 296,246 303,256"/>
</g>
</g>
</svg>
