<?xml version="1.0" encoding="UTF-8" standalone="no"?>
<!DOCTYPE svg PUBLIC "-//W3C//DTD SVG 1.0//EN"
 "http://www.w3.org/TR/2001/REC-SVG-20010904/DTD/svg10.dtd">
<!-- Generated by dot version 2.2 (Fri Mar 11 00:51:40 UTC 2005)
     For user: (root) root   Title: scufl_graph    Pages: 1 -->
<svg width="296pt" height="147pt"
 viewBox = "-1 -1 295 146"
 xmlns="http://www.w3.org/2000/svg">
<g id="graph0" class="graph" style="font-family:Times-Roman;font-size:14.00;">
<title>scufl_graph</title>
<g id="graph2" class="cluster"><title>cluster_sinks</title>
<polygon style="fill:none;stroke:black;stroke-dasharray:1,5;" points="105,123 201,123 201,68 105,68 105,123"/>
<text text-anchor="middle" style="font-family:Helvetica;font-size:10.00;" x="153" y="80">Workflow Outputs</text>
</g>
<g id="node1" class="node"><title>String_Constant</title>
<polygon style="fill:lightsteelblue;stroke:black;" points="93,5 5,5 5,23 93,23 93,5"/>
<text text-anchor="middle" style="font-family:Helvetica;font-size:10.00;" x="49" y="17">String_Constant</text>
</g>
<g id="node4" class="node"><title>seqret</title>
<polygon style="fill:lightgoldenrodyellow;stroke:black;" points="166,41 122,41 122,59 166,59 166,41"/>
<text text-anchor="middle" style="font-family:Helvetica;font-size:10.00;" x="144" y="53">seqret</text>
</g>
<g id="edge3" class="edge"><title>String_Constant&#45;&gt;seqret</title>
<path style="fill:none;stroke:black;" d="M74,24C86,28 100,33 113,38"/>
<polygon style="fill:black;stroke:black;" points="114,35 122,41 111,41 114,35"/>
</g>
<g id="node2" class="node"><title>String_Constant1</title>
<polygon style="fill:lightsteelblue;stroke:black;" points="191,5 97,5 97,23 191,23 191,5"/>
<text text-anchor="middle" style="font-family:Helvetica;font-size:10.00;" x="144" y="17">String_Constant1</text>
</g>
<g id="edge7" class="edge"><title>String_Constant1&#45;&gt;seqret</title>
<path style="fill:none;stroke:black;" d="M144,24C144,26 144,28 144,30"/>
<polygon style="fill:black;stroke:black;" points="148,30 144,40 141,30 148,30"/>
</g>
<g id="node3" class="node"><title>String_Constant2</title>
<polygon style="fill:lightsteelblue;stroke:black;" points="289,5 195,5 195,23 289,23 289,5"/>
<text text-anchor="middle" style="font-family:Helvetica;font-size:10.00;" x="242" y="17">String_Constant2</text>
</g>
<g id="edge9" class="edge"><title>String_Constant2&#45;&gt;seqret</title>
<path style="fill:none;stroke:black;" d="M216,24C203,28 189,33 176,38"/>
<polygon style="fill:black;stroke:black;" points="177,42 166,42 174,35 177,42"/>
</g>
<g id="node7" class="node"><title>WORKFLOWINTERNALSINK_seq</title>
<polygon style="fill:#bcd2ee;stroke:black;" points="160,96 128,96 128,114 160,114 160,96"/>
<text text-anchor="middle" style="font-family:Helvetica;font-size:10.00;" x="144" y="108">seq</text>
</g>
<g id="edge5" class="edge"><title>seqret&#45;&gt;WORKFLOWINTERNALSINK_seq</title>
<path style="fill:none;stroke:black;" d="M144,60C144,67 144,76 144,85"/>
<polygon style="fill:black;stroke:black;" points="148,85 144,95 141,85 148,85"/>
</g>
<g id="node6" class="node"><title>WORKFLOWINTERNALSINKCONTROL</title>
<polygon style="fill:#6acd00;stroke:black;" points="178,112 185,102 171,102 178,112"/>
</g>
</g>
</svg>
