<?xml version="1.0" encoding="UTF-8" standalone="no"?>
<!DOCTYPE svg PUBLIC "-//W3C//DTD SVG 1.0//EN"
 "http://www.w3.org/TR/2001/REC-SVG-20010904/DTD/svg10.dtd">
<!-- Generated by dot version 2.2 (Fri Mar 11 00:51:40 UTC 2005)
     For user: (root) root   Title: scufl_graph    Pages: 1 -->
<svg width="2743pt" height="542pt"
 viewBox = "-1 -1 2742 541"
 xmlns="http://www.w3.org/2000/svg">
<g id="graph0" class="graph" style="font-family:Times-Roman;font-size:14.00;">
<title>scufl_graph</title>
<g id="graph2" class="cluster"><title>cluster_sources</title>
<polygon style="fill:none;stroke:black;stroke-dasharray:1,5;" points="1905,67 2035,67 2035,12 1905,12 1905,67"/>
<text text-anchor="middle" style="font-family:Helvetica;font-size:10.00;" x="1949" y="24">Workflow Inputs</text>
</g>
<g id="graph3" class="cluster"><title>cluster_sinks</title>
<polygon style="fill:none;stroke:black;stroke-dasharray:1,5;" points="116,518 2728,518 2728,463 116,463 116,518"/>
<text text-anchor="middle" style="font-family:Helvetica;font-size:10.00;" x="164" y="475">Workflow Outputs</text>
</g>
<g id="node1" class="node"><title>Entrez_NS</title>
<polygon style="fill:lightsteelblue;stroke:black;" points="1213,328 1149,328 1149,346 1213,346 1213,328"/>
<text text-anchor="middle" style="font-family:Helvetica;font-size:10.00;" x="1181" y="340">Entrez_NS</text>
</g>
<g id="node28" class="node"><title>CreateEntrezGeneDataType</title>
<polygon style="fill:gold;stroke:black;" points="1252,364 1110,364 1110,382 1252,382 1252,364"/>
<text text-anchor="middle" style="font-family:Helvetica;font-size:10.00;" x="1181" y="376">CreateEntrezGeneDataType</text>
</g>
<g id="edge10" class="edge"><title>Entrez_NS&#45;&gt;CreateEntrezGeneDataType</title>
<path style="fill:none;stroke:black;" d="M1181,347C1181,349 1181,351 1181,353"/>
<polygon style="fill:black;stroke:black;" points="1185,353 1181,363 1178,353 1185,353"/>
</g>
<g id="node2" class="node"><title>Remove_duplicate_strings</title>
<polygon style="fill:#ce5fee;stroke:black;" points="1424,328 1290,328 1290,346 1424,346 1424,328"/>
<text text-anchor="middle" style="font-family:Helvetica;font-size:10.00;" x="1357" y="340">Remove_duplicate_strings</text>
</g>
<g id="edge24" class="edge"><title>Remove_duplicate_strings&#45;&gt;CreateEntrezGeneDataType</title>
<path style="fill:none;stroke:black;" d="M1310,347C1288,351 1261,356 1238,361"/>
<polygon style="fill:black;stroke:black;" points="1238,364 1228,363 1237,358 1238,364"/>
</g>
<g id="node3" class="node"><title>Remove_duplicate_strings2</title>
<polygon style="fill:#ce5fee;stroke:black;" points="1717,436 1579,436 1579,454 1717,454 1717,436"/>
<text text-anchor="middle" style="font-family:Helvetica;font-size:10.00;" x="1648" y="448">Remove_duplicate_strings2</text>
</g>
<g id="node55" class="node"><title>WORKFLOWINTERNALSINK_entrez_gene_id</title>
<polygon style="fill:#bcd2ee;stroke:black;" points="1690,491 1606,491 1606,509 1690,509 1690,491"/>
<text text-anchor="middle" style="font-family:Helvetica;font-size:10.00;" x="1648" y="503">entrez_gene_id</text>
</g>
<g id="edge110" class="edge"><title>Remove_duplicate_strings2&#45;&gt;WORKFLOWINTERNALSINK_entrez_gene_id</title>
<path style="fill:none;stroke:black;" d="M1648,455C1648,462 1648,471 1648,480"/>
<polygon style="fill:black;stroke:black;" points="1652,480 1648,490 1645,480 1652,480"/>
</g>
<g id="node4" class="node"><title>entrez_gene_id_list_flatter</title>
<polygon style="fill:#ce5fee;stroke:black;" points="1715,400 1581,400 1581,418 1715,418 1715,400"/>
<text text-anchor="middle" style="font-family:Helvetica;font-size:10.00;" x="1648" y="412">entrez_gene_id_list_flatter</text>
</g>
<g id="edge50" class="edge"><title>entrez_gene_id_list_flatter&#45;&gt;Remove_duplicate_strings2</title>
<path style="fill:none;stroke:black;" d="M1648,419C1648,421 1648,423 1648,425"/>
<polygon style="fill:black;stroke:black;" points="1652,425 1648,435 1645,425 1652,425"/>
</g>
<g id="node5" class="node"><title>entrez_gene_list_flatter2</title>
<polygon style="fill:#ce5fee;stroke:black;" points="1567,292 1441,292 1441,310 1567,310 1567,292"/>
<text text-anchor="middle" style="font-family:Helvetica;font-size:10.00;" x="1504" y="304">entrez_gene_list_flatter2</text>
</g>
<g id="edge52" class="edge"><title>entrez_gene_list_flatter2&#45;&gt;Remove_duplicate_strings</title>
<path style="fill:none;stroke:black;" d="M1465,311C1446,315 1425,320 1406,325"/>
<polygon style="fill:black;stroke:black;" points="1406,328 1396,327 1405,322 1406,328"/>
</g>
<g id="node6" class="node"><title>Parse_Moby_Data_Swiss_Prot</title>
<polygon style="fill:white;stroke:black;" points="2669,436 2515,436 2515,454 2669,454 2669,436"/>
<text text-anchor="middle" style="font-family:Helvetica;font-size:10.00;" x="2592" y="448">Parse_Moby_Data_Swiss_Prot</text>
</g>
<g id="node44" class="node"><title>WORKFLOWINTERNALSINK_swiss_prot_id</title>
<polygon style="fill:#bcd2ee;stroke:black;" points="2636,491 2560,491 2560,509 2636,509 2636,491"/>
<text text-anchor="middle" style="font-family:Helvetica;font-size:10.00;" x="2598" y="503">swiss_prot_id</text>
</g>
<g id="edge80" class="edge"><title>Parse_Moby_Data_Swiss_Prot&#45;&gt;WORKFLOWINTERNALSINK_swiss_prot_id</title>
<path style="fill:none;stroke:black;" d="M2593,455C2594,462 2595,472 2596,480"/>
<polygon style="fill:black;stroke:black;" points="2599,480 2597,490 2593,480 2599,480"/>
</g>
<g id="node7" class="node"><title>Parse_Moby_Data_Frequencies</title>
<polygon style="fill:white;stroke:black;" points="2315,436 2157,436 2157,454 2315,454 2315,436"/>
<text text-anchor="middle" style="font-family:Helvetica;font-size:10.00;" x="2236" y="448">Parse_Moby_Data_Frequencies</text>
</g>
<g id="node48" class="node"><title>WORKFLOWINTERNALSINK_frequency</title>
<polygon style="fill:#bcd2ee;stroke:black;" points="2476,491 2416,491 2416,509 2476,509 2476,491"/>
<text text-anchor="middle" style="font-family:Helvetica;font-size:10.00;" x="2446" y="503">frequency</text>
</g>
<g id="edge58" class="edge"><title>Parse_Moby_Data_Frequencies&#45;&gt;WORKFLOWINTERNALSINK_frequency</title>
<path style="fill:none;stroke:black;" d="M2311,455C2313,455 2315,455 2317,455 2338,458 2394,454 2414,463 2422,467 2429,475 2434,481"/>
<polygon style="fill:black;stroke:black;" points="2437,480 2440,490 2432,484 2437,480"/>
</g>
<g id="node49" class="node"><title>WORKFLOWINTERNALSINK_frequency_id</title>
<polygon style="fill:#bcd2ee;stroke:black;" points="2412,491 2338,491 2338,509 2412,509 2412,491"/>
<text text-anchor="middle" style="font-family:Helvetica;font-size:10.00;" x="2375" y="503">frequency_id</text>
</g>
<g id="edge60" class="edge"><title>Parse_Moby_Data_Frequencies&#45;&gt;WORKFLOWINTERNALSINK_frequency_id</title>
<path style="fill:none;stroke:black;" d="M2304,455C2318,457 2330,460 2336,463 2345,468 2354,476 2360,483"/>
<polygon style="fill:black;stroke:black;" points="2362,480 2367,490 2357,485 2362,480"/>
</g>
<g id="node8" class="node"><title>Parse_Moby_Data_nsSNP</title>
<polygon style="fill:white;stroke:black;" points="2079,436 1943,436 1943,454 2079,454 2079,436"/>
<text text-anchor="middle" style="font-family:Helvetica;font-size:10.00;" x="2011" y="448">Parse_Moby_Data_nsSNP</text>
</g>
<g id="node38" class="node"><title>WORKFLOWINTERNALSINK_nsSNP_id</title>
<polygon style="fill:#bcd2ee;stroke:black;" points="2186,491 2126,491 2126,509 2186,509 2186,491"/>
<text text-anchor="middle" style="font-family:Helvetica;font-size:10.00;" x="2156" y="503">nsSNP_id</text>
</g>
<g id="edge94" class="edge"><title>Parse_Moby_Data_nsSNP&#45;&gt;WORKFLOWINTERNALSINK_nsSNP_id</title>
<path style="fill:none;stroke:black;" d="M2079,452C2098,455 2116,459 2124,463 2132,468 2138,475 2144,482"/>
<polygon style="fill:black;stroke:black;" points="2147,480 2150,490 2141,484 2147,480"/>
</g>
<g id="node39" class="node"><title>WORKFLOWINTERNALSINK_nsSNP_codon_position</title>
<polygon style="fill:#bcd2ee;stroke:black;" points="2122,491 2002,491 2002,509 2122,509 2122,491"/>
<text text-anchor="middle" style="font-family:Helvetica;font-size:10.00;" x="2062" y="503">nsSNP_codon_position</text>
</g>
<g id="edge102" class="edge"><title>Parse_Moby_Data_nsSNP&#45;&gt;WORKFLOWINTERNALSINK_nsSNP_codon_position</title>
<path style="fill:none;stroke:black;" d="M2020,455C2027,463 2038,473 2046,483"/>
<polygon style="fill:black;stroke:black;" points="2048,480 2053,490 2043,485 2048,480"/>
</g>
<g id="node40" class="node"><title>WORKFLOWINTERNALSINK_nsSNP_allele</title>
<polygon style="fill:#bcd2ee;stroke:black;" points="1998,491 1922,491 1922,509 1998,509 1998,491"/>
<text text-anchor="middle" style="font-family:Helvetica;font-size:10.00;" x="1960" y="503">nsSNP_allele</text>
</g>
<g id="edge100" class="edge"><title>Parse_Moby_Data_nsSNP&#45;&gt;WORKFLOWINTERNALSINK_nsSNP_allele</title>
<path style="fill:none;stroke:black;" d="M2002,455C1995,463 1984,473 1976,483"/>
<polygon style="fill:black;stroke:black;" points="1979,485 1969,490 1974,480 1979,485"/>
</g>
<g id="node41" class="node"><title>WORKFLOWINTERNALSINK_nsSNP_strand</title>
<polygon style="fill:#bcd2ee;stroke:black;" points="1918,491 1838,491 1838,509 1918,509 1918,491"/>
<text text-anchor="middle" style="font-family:Helvetica;font-size:10.00;" x="1878" y="503">nsSNP_strand</text>
</g>
<g id="edge104" class="edge"><title>Parse_Moby_Data_nsSNP&#45;&gt;WORKFLOWINTERNALSINK_nsSNP_strand</title>
<path style="fill:none;stroke:black;" d="M1950,455C1937,457 1926,460 1920,463 1910,468 1901,476 1893,483"/>
<polygon style="fill:black;stroke:black;" points="1896,485 1886,490 1891,480 1896,485"/>
</g>
<g id="node42" class="node"><title>WORKFLOWINTERNALSINK_nsSNP_amino_acid_variant</title>
<polygon style="fill:#bcd2ee;stroke:black;" points="1834,491 1694,491 1694,509 1834,509 1834,491"/>
<text text-anchor="middle" style="font-family:Helvetica;font-size:10.00;" x="1764" y="503">nsSNP_amino_acid_variant</text>
</g>
<g id="edge98" class="edge"><title>Parse_Moby_Data_nsSNP&#45;&gt;WORKFLOWINTERNALSINK_nsSNP_amino_acid_variant</title>
<path style="fill:none;stroke:black;" d="M1943,449C1903,453 1856,457 1836,463 1819,469 1802,478 1788,485"/>
<polygon style="fill:black;stroke:black;" points="1789,488 1779,490 1786,482 1789,488"/>
</g>
<g id="node43" class="node"><title>WORKFLOWINTERNALSINK_nsSNP_amino_acid_position</title>
<polygon style="fill:#bcd2ee;stroke:black;" points="2334,491 2190,491 2190,509 2334,509 2334,491"/>
<text text-anchor="middle" style="font-family:Helvetica;font-size:10.00;" x="2262" y="503">nsSNP_amino_acid_position</text>
</g>
<g id="edge96" class="edge"><title>Parse_Moby_Data_nsSNP&#45;&gt;WORKFLOWINTERNALSINK_nsSNP_amino_acid_position</title>
<path style="fill:none;stroke:black;" d="M2079,449C2120,453 2168,457 2188,463 2205,469 2223,478 2237,485"/>
<polygon style="fill:black;stroke:black;" points="2239,482 2246,490 2236,488 2239,482"/>
</g>
<g id="node9" class="node"><title>Parse_Moby_Data_GO_Term</title>
<polygon style="fill:white;stroke:black;" points="1057,436 909,436 909,454 1057,454 1057,436"/>
<text text-anchor="middle" style="font-family:Helvetica;font-size:10.00;" x="983" y="448">Parse_Moby_Data_GO_Term</text>
</g>
<g id="node45" class="node"><title>WORKFLOWINTERNALSINK_go_term_accession</title>
<polygon style="fill:#bcd2ee;stroke:black;" points="890,491 788,491 788,509 890,509 890,491"/>
<text text-anchor="middle" style="font-family:Helvetica;font-size:10.00;" x="839" y="503">go_term_accession</text>
</g>
<g id="edge62" class="edge"><title>Parse_Moby_Data_GO_Term&#45;&gt;WORKFLOWINTERNALSINK_go_term_accession</title>
<path style="fill:none;stroke:black;" d="M918,455C909,457 900,460 892,463 880,468 867,477 858,484"/>
<polygon style="fill:black;stroke:black;" points="860,487 850,490 856,481 860,487"/>
</g>
<g id="node46" class="node"><title>WORKFLOWINTERNALSINK_go_term</title>
<polygon style="fill:#bcd2ee;stroke:black;" points="1048,491 996,491 996,509 1048,509 1048,491"/>
<text text-anchor="middle" style="font-family:Helvetica;font-size:10.00;" x="1022" y="503">go_term</text>
</g>
<g id="edge66" class="edge"><title>Parse_Moby_Data_GO_Term&#45;&gt;WORKFLOWINTERNALSINK_go_term</title>
<path style="fill:none;stroke:black;" d="M990,455C995,462 1003,473 1009,482"/>
<polygon style="fill:black;stroke:black;" points="1012,480 1015,490 1006,484 1012,480"/>
</g>
<g id="node47" class="node"><title>WORKFLOWINTERNALSINK_go_term_definition</title>
<polygon style="fill:#bcd2ee;stroke:black;" points="992,491 894,491 894,509 992,509 992,491"/>
<text text-anchor="middle" style="font-family:Helvetica;font-size:10.00;" x="943" y="503">go_term_definition</text>
</g>
<g id="edge64" class="edge"><title>Parse_Moby_Data_GO_Term&#45;&gt;WORKFLOWINTERNALSINK_go_term_definition</title>
<path style="fill:none;stroke:black;" d="M976,455C971,462 963,473 956,482"/>
<polygon style="fill:black;stroke:black;" points="959,484 950,490 953,480 959,484"/>
</g>
<g id="node10" class="node"><title>convertSnp2EntrezGeneID</title>
<polygon style="fill:#ffb80f;stroke:black;" points="1860,220 1724,220 1724,238 1860,238 1860,220"/>
<text text-anchor="middle" style="font-family:Helvetica;font-size:10.00;" x="1792" y="232">convertSnp2EntrezGeneID</text>
</g>
<g id="node31" class="node"><title>Parse_Moby_Data_entrez_gene</title>
<polygon style="fill:white;stroke:black;" points="1728,256 1568,256 1568,274 1728,274 1728,256"/>
<text text-anchor="middle" style="font-family:Helvetica;font-size:10.00;" x="1648" y="268">Parse_Moby_Data_entrez_gene</text>
</g>
<g id="edge34" class="edge"><title>convertSnp2EntrezGeneID&#45;&gt;Parse_Moby_Data_entrez_gene</title>
<path style="fill:none;stroke:black;" d="M1754,239C1736,243 1715,248 1696,253"/>
<polygon style="fill:black;stroke:black;" points="1696,256 1686,255 1695,250 1696,256"/>
</g>
<g id="node11" class="node"><title>Parse_Moby_Data_pdb_id</title>
<polygon style="fill:white;stroke:black;" points="139,436 5,436 5,454 139,454 139,436"/>
<text text-anchor="middle" style="font-family:Helvetica;font-size:10.00;" x="72" y="448">Parse_Moby_Data_pdb_id</text>
</g>
<g id="node62" class="node"><title>WORKFLOWINTERNALSINK_pdb_id</title>
<polygon style="fill:#bcd2ee;stroke:black;" points="170,491 124,491 124,509 170,509 170,491"/>
<text text-anchor="middle" style="font-family:Helvetica;font-size:10.00;" x="147" y="503">pdb_id</text>
</g>
<g id="edge106" class="edge"><title>Parse_Moby_Data_pdb_id&#45;&gt;WORKFLOWINTERNALSINK_pdb_id</title>
<path style="fill:none;stroke:black;" d="M85,455C96,463 113,475 126,484"/>
<polygon style="fill:black;stroke:black;" points="128,481 134,490 124,487 128,481"/>
</g>
<g id="node12" class="node"><title>convertKeggGeneId2ProtId</title>
<polygon style="fill:#ffb80f;stroke:black;" points="2079,148 1943,148 1943,166 2079,166 2079,148"/>
<text text-anchor="middle" style="font-family:Helvetica;font-size:10.00;" x="2011" y="160">convertKeggGeneId2ProtId</text>
</g>
<g id="edge30" class="edge"><title>convertKeggGeneId2ProtId&#45;&gt;Parse_Moby_Data_Swiss_Prot</title>
<path style="fill:none;stroke:black;" d="M2079,160C2219,166 2523,185 2523,229 2523,229 2523,229 2523,373 2523,398 2545,418 2563,430"/>
<polygon style="fill:black;stroke:black;" points="2565,427 2572,435 2562,433 2565,427"/>
</g>
<g id="node17" class="node"><title>getSnpsBySwissProtId</title>
<polygon style="fill:#ffb80f;stroke:black;" points="2070,184 1952,184 1952,202 2070,202 2070,184"/>
<text text-anchor="middle" style="font-family:Helvetica;font-size:10.00;" x="2011" y="196">getSnpsBySwissProtId</text>
</g>
<g id="edge32" class="edge"><title>convertKeggGeneId2ProtId&#45;&gt;getSnpsBySwissProtId</title>
<path style="fill:none;stroke:black;" d="M2011,167C2011,169 2011,171 2011,173"/>
<polygon style="fill:black;stroke:black;" points="2015,173 2011,183 2008,173 2015,173"/>
</g>
<g id="node13" class="node"><title>Gene2PubMed</title>
<polygon style="fill:#ffb80f;stroke:black;" points="1296,400 1212,400 1212,418 1296,418 1296,400"/>
<text text-anchor="middle" style="font-family:Helvetica;font-size:10.00;" x="1254" y="412">Gene2PubMed</text>
</g>
<g id="node23" class="node"><title>Parse_Moby_Data_Publication</title>
<polygon style="fill:white;stroke:black;" points="1358,436 1206,436 1206,454 1358,454 1358,436"/>
<text text-anchor="middle" style="font-family:Helvetica;font-size:10.00;" x="1282" y="448">Parse_Moby_Data_Publication</text>
</g>
<g id="edge14" class="edge"><title>Gene2PubMed&#45;&gt;Parse_Moby_Data_Publication</title>
<path style="fill:none;stroke:black;" d="M1262,419C1264,421 1266,424 1268,427"/>
<polygon style="fill:black;stroke:black;" points="1271,425 1275,435 1266,430 1271,425"/>
</g>
<g id="node14" class="node"><title>convertKeggGeneId2PDBId</title>
<polygon style="fill:#ffb80f;stroke:black;" points="353,328 213,328 213,346 353,346 353,328"/>
<text text-anchor="middle" style="font-family:Helvetica;font-size:10.00;" x="283" y="340">convertKeggGeneId2PDBId</text>
</g>
<g id="edge28" class="edge"><title>convertKeggGeneId2PDBId&#45;&gt;Parse_Moby_Data_pdb_id</title>
<path style="fill:none;stroke:black;" d="M261,347C250,351 236,357 224,363 180,386 128,413 98,430"/>
<polygon style="fill:black;stroke:black;" points="99,433 89,435 96,427 99,433"/>
</g>
<g id="node18" class="node"><title>PDB_id2RasMolScript</title>
<polygon style="fill:#ffb80f;stroke:black;" points="340,364 226,364 226,382 340,382 340,364"/>
<text text-anchor="middle" style="font-family:Helvetica;font-size:10.00;" x="283" y="376">PDB_id2RasMolScript</text>
</g>
<g id="edge26" class="edge"><title>convertKeggGeneId2PDBId&#45;&gt;PDB_id2RasMolScript</title>
<path style="fill:none;stroke:black;" d="M283,347C283,349 283,351 283,353"/>
<polygon style="fill:black;stroke:black;" points="287,353 283,363 280,353 287,353"/>
</g>
<g id="node15" class="node"><title>getGeneInformationByEntrezGeneID</title>
<polygon style="fill:#ffb80f;stroke:black;" points="948,400 768,400 768,418 948,418 948,400"/>
<text text-anchor="middle" style="font-family:Helvetica;font-size:10.00;" x="858" y="412">getGeneInformationByEntrezGeneID</text>
</g>
<g id="node27" class="node"><title>Parse_Moby_Data_gene_ref</title>
<polygon style="fill:white;stroke:black;" points="720,436 576,436 576,454 720,454 720,436"/>
<text text-anchor="middle" style="font-family:Helvetica;font-size:10.00;" x="648" y="448">Parse_Moby_Data_gene_ref</text>
</g>
<g id="edge40" class="edge"><title>getGeneInformationByEntrezGeneID&#45;&gt;Parse_Moby_Data_gene_ref</title>
<path style="fill:none;stroke:black;" d="M803,419C775,423 742,429 714,433"/>
<polygon style="fill:black;stroke:black;" points="714,436 704,435 713,430 714,436"/>
</g>
<g id="node16" class="node"><title>Gene2Ontology</title>
<polygon style="fill:#ffb80f;stroke:black;" points="1151,400 1065,400 1065,418 1151,418 1151,400"/>
<text text-anchor="middle" style="font-family:Helvetica;font-size:10.00;" x="1108" y="412">Gene2Ontology</text>
</g>
<g id="edge12" class="edge"><title>Gene2Ontology&#45;&gt;Parse_Moby_Data_GO_Term</title>
<path style="fill:none;stroke:black;" d="M1075,419C1060,423 1042,428 1026,432"/>
<polygon style="fill:black;stroke:black;" points="1027,435 1016,435 1025,429 1027,435"/>
</g>
<g id="edge42" class="edge"><title>getSnpsBySwissProtId&#45;&gt;Parse_Moby_Data_nsSNP</title>
<path style="fill:none;stroke:black;" d="M2011,203C2011,217 2011,243 2011,265 2011,265 2011,265 2011,373 2011,390 2011,410 2011,425"/>
<polygon style="fill:black;stroke:black;" points="2015,425 2011,435 2008,425 2015,425"/>
</g>
<g id="edge44" class="edge"><title>getSnpsBySwissProtId&#45;&gt;convertSnp2EntrezGeneID</title>
<path style="fill:none;stroke:black;" d="M1953,203C1924,207 1890,213 1860,217"/>
<polygon style="fill:black;stroke:black;" points="1860,220 1850,219 1859,214 1860,220"/>
</g>
<g id="node20" class="node"><title>snp2Frequencies</title>
<polygon style="fill:#ffb80f;stroke:black;" points="2282,364 2190,364 2190,382 2282,382 2282,364"/>
<text text-anchor="middle" style="font-family:Helvetica;font-size:10.00;" x="2236" y="376">snp2Frequencies</text>
</g>
<g id="edge46" class="edge"><title>getSnpsBySwissProtId&#45;&gt;snp2Frequencies</title>
<path style="fill:none;stroke:black;" d="M2059,203C2092,212 2129,231 2129,265 2129,265 2129,265 2129,301 2129,332 2158,350 2186,360"/>
<polygon style="fill:black;stroke:black;" points="2187,357 2196,363 2185,363 2187,357"/>
</g>
<g id="node22" class="node"><title>getEntryFromPDB</title>
<polygon style="fill:#ffb80f;stroke:black;" points="382,400 284,400 284,418 382,418 382,400"/>
<text text-anchor="middle" style="font-family:Helvetica;font-size:10.00;" x="333" y="412">getEntryFromPDB</text>
</g>
<g id="edge18" class="edge"><title>PDB_id2RasMolScript&#45;&gt;getEntryFromPDB</title>
<path style="fill:none;stroke:black;" d="M296,383C300,386 306,390 310,393"/>
<polygon style="fill:black;stroke:black;" points="313,391 319,399 309,396 313,391"/>
</g>
<g id="node25" class="node"><title>Parse_Moby_Data_rasmol</title>
<polygon style="fill:white;stroke:black;" points="277,436 143,436 143,454 277,454 277,436"/>
<text text-anchor="middle" style="font-family:Helvetica;font-size:10.00;" x="210" y="448">Parse_Moby_Data_rasmol</text>
</g>
<g id="edge16" class="edge"><title>PDB_id2RasMolScript&#45;&gt;Parse_Moby_Data_rasmol</title>
<path style="fill:none;stroke:black;" d="M273,383C261,394 242,414 227,428"/>
<polygon style="fill:black;stroke:black;" points="230,430 220,435 225,425 230,430"/>
</g>
<g id="node19" class="node"><title>Parse_Moby_Data_Kegg</title>
<polygon style="fill:white;stroke:black;" points="568,436 440,436 440,454 568,454 568,436"/>
<text text-anchor="middle" style="font-family:Helvetica;font-size:10.00;" x="504" y="448">Parse_Moby_Data_Kegg</text>
</g>
<g id="node61" class="node"><title>WORKFLOWINTERNALSINK_kegg_gene_id</title>
<polygon style="fill:#bcd2ee;stroke:black;" points="378,491 300,491 300,509 378,509 378,491"/>
<text text-anchor="middle" style="font-family:Helvetica;font-size:10.00;" x="339" y="503">kegg_gene_id</text>
</g>
<g id="edge120" class="edge"><title>Parse_Moby_Data_Kegg&#45;&gt;WORKFLOWINTERNALSINK_kegg_gene_id</title>
<path style="fill:none;stroke:black;" d="M440,454C411,458 382,463 380,463 370,468 361,476 354,483"/>
<polygon style="fill:black;stroke:black;" points="357,485 347,490 352,480 357,485"/>
</g>
<g id="edge122" class="edge"><title>snp2Frequencies&#45;&gt;Parse_Moby_Data_Frequencies</title>
<path style="fill:none;stroke:black;" d="M2236,383C2236,393 2236,411 2236,425"/>
<polygon style="fill:black;stroke:black;" points="2240,425 2236,435 2233,425 2240,425"/>
</g>
<g id="node24" class="node"><title>getBase64SnpFrequencyImage</title>
<polygon style="fill:#ffb80f;stroke:black;" points="2446,400 2290,400 2290,418 2446,418 2446,400"/>
<text text-anchor="middle" style="font-family:Helvetica;font-size:10.00;" x="2368" y="412">getBase64SnpFrequencyImage</text>
</g>
<g id="edge124" class="edge"><title>snp2Frequencies&#45;&gt;getBase64SnpFrequencyImage</title>
<path style="fill:none;stroke:black;" d="M2271,383C2287,387 2306,392 2323,396"/>
<polygon style="fill:black;stroke:black;" points="2324,393 2333,399 2322,399 2324,393"/>
</g>
<g id="node21" class="node"><title>convertIdentifier2KeggID</title>
<polygon style="fill:#ffb80f;stroke:black;" points="1336,112 1210,112 1210,130 1336,130 1336,112"/>
<text text-anchor="middle" style="font-family:Helvetica;font-size:10.00;" x="1273" y="124">convertIdentifier2KeggID</text>
</g>
<g id="edge112" class="edge"><title>convertIdentifier2KeggID&#45;&gt;convertKeggGeneId2ProtId</title>
<path style="fill:none;stroke:black;" d="M1336,124C1471,131 1786,146 1933,153"/>
<polygon style="fill:black;stroke:black;" points="1933,150 1943,154 1933,156 1933,150"/>
</g>
<g id="edge56" class="edge"><title>convertIdentifier2KeggID&#45;&gt;convertKeggGeneId2PDBId</title>
<path style="fill:none;stroke:black;" d="M1210,122C1043,125 597,135 531,147 473,159 405,134 405,193 405,193 405,193 405,265 405,297 375,314 345,324"/>
<polygon style="fill:black;stroke:black;" points="346,327 335,327 344,321 346,327"/>
</g>
<g id="edge118" class="edge"><title>convertIdentifier2KeggID&#45;&gt;Parse_Moby_Data_Kegg</title>
<path style="fill:none;stroke:black;" d="M1210,124C1031,132 535,159 535,193 535,193 535,193 535,373 535,392 525,413 517,427"/>
<polygon style="fill:black;stroke:black;" points="520,429 511,435 514,425 520,429"/>
</g>
<g id="node30" class="node"><title>Parse_Moby_Data_PDB_Text</title>
<polygon style="fill:white;stroke:black;" points="429,436 281,436 281,454 429,454 429,436"/>
<text text-anchor="middle" style="font-family:Helvetica;font-size:10.00;" x="355" y="448">Parse_Moby_Data_PDB_Text</text>
</g>
<g id="edge38" class="edge"><title>getEntryFromPDB&#45;&gt;Parse_Moby_Data_PDB_Text</title>
<path style="fill:none;stroke:black;" d="M339,419C340,421 342,424 344,426"/>
<polygon style="fill:black;stroke:black;" points="347,425 349,435 341,428 347,425"/>
</g>
<g id="node56" class="node"><title>WORKFLOWINTERNALSINK_publication_author</title>
<polygon style="fill:#bcd2ee;stroke:black;" points="1272,491 1174,491 1174,509 1272,509 1272,491"/>
<text text-anchor="middle" style="font-family:Helvetica;font-size:10.00;" x="1223" y="503">publication_author</text>
</g>
<g id="edge74" class="edge"><title>Parse_Moby_Data_Publication&#45;&gt;WORKFLOWINTERNALSINK_publication_author</title>
<path style="fill:none;stroke:black;" d="M1272,455C1263,463 1251,474 1241,483"/>
<polygon style="fill:black;stroke:black;" points="1243,486 1233,490 1238,481 1243,486"/>
</g>
<g id="node57" class="node"><title>WORKFLOWINTERNALSINK_publication_pubmed_id</title>
<polygon style="fill:#bcd2ee;stroke:black;" points="1170,491 1052,491 1052,509 1170,509 1170,491"/>
<text text-anchor="middle" style="font-family:Helvetica;font-size:10.00;" x="1111" y="503">publication_pubmed_id</text>
</g>
<g id="edge70" class="edge"><title>Parse_Moby_Data_Publication&#45;&gt;WORKFLOWINTERNALSINK_publication_pubmed_id</title>
<path style="fill:none;stroke:black;" d="M1206,454C1194,456 1183,459 1172,463 1159,469 1144,477 1132,484"/>
<polygon style="fill:black;stroke:black;" points="1134,487 1124,490 1130,481 1134,487"/>
</g>
<g id="node58" class="node"><title>WORKFLOWINTERNALSINK_publication_abstract</title>
<polygon style="fill:#bcd2ee;stroke:black;" points="1602,491 1498,491 1498,509 1602,509 1602,491"/>
<text text-anchor="middle" style="font-family:Helvetica;font-size:10.00;" x="1550" y="503">publication_abstract</text>
</g>
<g id="edge72" class="edge"><title>Parse_Moby_Data_Publication&#45;&gt;WORKFLOWINTERNALSINK_publication_abstract</title>
<path style="fill:none;stroke:black;" d="M1358,447C1409,450 1472,454 1496,463 1509,468 1522,476 1532,484"/>
<polygon style="fill:black;stroke:black;" points="1534,481 1540,490 1530,487 1534,481"/>
</g>
<g id="node59" class="node"><title>WORKFLOWINTERNALSINK_publication_title</title>
<polygon style="fill:#bcd2ee;stroke:black;" points="1494,491 1410,491 1410,509 1494,509 1494,491"/>
<text text-anchor="middle" style="font-family:Helvetica;font-size:10.00;" x="1452" y="503">publication_title</text>
</g>
<g id="edge78" class="edge"><title>Parse_Moby_Data_Publication&#45;&gt;WORKFLOWINTERNALSINK_publication_title</title>
<path style="fill:none;stroke:black;" d="M1358,453C1379,455 1399,459 1408,463 1418,468 1428,476 1436,483"/>
<polygon style="fill:black;stroke:black;" points="1438,480 1443,490 1433,485 1438,480"/>
</g>
<g id="node60" class="node"><title>WORKFLOWINTERNALSINK_publication_journal_name</title>
<polygon style="fill:#bcd2ee;stroke:black;" points="1406,491 1276,491 1276,509 1406,509 1406,491"/>
<text text-anchor="middle" style="font-family:Helvetica;font-size:10.00;" x="1341" y="503">publication_journal_name</text>
</g>
<g id="edge76" class="edge"><title>Parse_Moby_Data_Publication&#45;&gt;WORKFLOWINTERNALSINK_publication_journal_name</title>
<path style="fill:none;stroke:black;" d="M1292,455C1301,463 1313,474 1323,483"/>
<polygon style="fill:black;stroke:black;" points="1326,481 1331,490 1321,486 1326,481"/>
</g>
<g id="node29" class="node"><title>Parse_Moby_Data_b64_Encoded_PNG</title>
<polygon style="fill:white;stroke:black;" points="2511,436 2319,436 2319,454 2511,454 2511,436"/>
<text text-anchor="middle" style="font-family:Helvetica;font-size:10.00;" x="2415" y="448">Parse_Moby_Data_b64_Encoded_PNG</text>
</g>
<g id="edge36" class="edge"><title>getBase64SnpFrequencyImage&#45;&gt;Parse_Moby_Data_b64_Encoded_PNG</title>
<path style="fill:none;stroke:black;" d="M2381,419C2385,422 2390,426 2395,429"/>
<polygon style="fill:black;stroke:black;" points="2397,426 2403,435 2393,432 2397,426"/>
</g>
<g id="node63" class="node"><title>WORKFLOWINTERNALSINK_pdb_rasmol</title>
<polygon style="fill:#bcd2ee;stroke:black;" points="242,491 174,491 174,509 242,509 242,491"/>
<text text-anchor="middle" style="font-family:Helvetica;font-size:10.00;" x="208" y="503">pdb_rasmol</text>
</g>
<g id="edge108" class="edge"><title>Parse_Moby_Data_rasmol&#45;&gt;WORKFLOWINTERNALSINK_pdb_rasmol</title>
<path style="fill:none;stroke:black;" d="M210,455C209,462 209,471 209,480"/>
<polygon style="fill:black;stroke:black;" points="212,480 208,490 206,480 212,480"/>
</g>
<g id="node26" class="node"><title>CreateMobyObject</title>
<polygon style="fill:gold;stroke:black;" points="1996,76 1898,76 1898,94 1996,94 1996,76"/>
<text text-anchor="middle" style="font-family:Helvetica;font-size:10.00;" x="1947" y="88">CreateMobyObject</text>
</g>
<g id="edge116" class="edge"><title>CreateMobyObject&#45;&gt;convertIdentifier2KeggID</title>
<path style="fill:none;stroke:black;" d="M1898,88C1781,94 1485,110 1346,117"/>
<polygon style="fill:black;stroke:black;" points="1346,120 1336,118 1346,114 1346,120"/>
</g>
<g id="node50" class="node"><title>WORKFLOWINTERNALSINK_gene_id</title>
<polygon style="fill:#bcd2ee;stroke:black;" points="602,491 550,491 550,509 602,509 602,491"/>
<text text-anchor="middle" style="font-family:Helvetica;font-size:10.00;" x="576" y="503">gene_id</text>
</g>
<g id="edge92" class="edge"><title>Parse_Moby_Data_gene_ref&#45;&gt;WORKFLOWINTERNALSINK_gene_id</title>
<path style="fill:none;stroke:black;" d="M619,455C614,457 609,460 604,463 597,468 591,475 587,481"/>
<polygon style="fill:black;stroke:black;" points="589,484 581,490 584,480 589,484"/>
</g>
<g id="node51" class="node"><title>WORKFLOWINTERNALSINK_gene_description</title>
<polygon style="fill:#bcd2ee;stroke:black;" points="546,491 454,491 454,509 546,509 546,491"/>
<text text-anchor="middle" style="font-family:Helvetica;font-size:10.00;" x="500" y="503">gene_description</text>
</g>
<g id="edge84" class="edge"><title>Parse_Moby_Data_gene_ref&#45;&gt;WORKFLOWINTERNALSINK_gene_description</title>
<path style="fill:none;stroke:black;" d="M582,455C568,457 555,460 548,463 537,468 526,476 518,483"/>
<polygon style="fill:black;stroke:black;" points="520,486 510,490 515,481 520,486"/>
</g>
<g id="node52" class="node"><title>WORKFLOWINTERNALSINK_gene_name</title>
<polygon style="fill:#bcd2ee;stroke:black;" points="450,491 382,491 382,509 450,509 450,491"/>
<text text-anchor="middle" style="font-family:Helvetica;font-size:10.00;" x="416" y="503">gene_name</text>
</g>
<g id="edge86" class="edge"><title>Parse_Moby_Data_gene_ref&#45;&gt;WORKFLOWINTERNALSINK_gene_name</title>
<path style="fill:none;stroke:black;" d="M576,454C574,455 572,455 570,455 544,458 476,452 452,463 444,467 436,475 430,482"/>
<polygon style="fill:black;stroke:black;" points="432,485 423,490 427,480 432,485"/>
</g>
<g id="node53" class="node"><title>WORKFLOWINTERNALSINK_gene_summary</title>
<polygon style="fill:#bcd2ee;stroke:black;" points="784,491 698,491 698,509 784,509 784,491"/>
<text text-anchor="middle" style="font-family:Helvetica;font-size:10.00;" x="741" y="503">gene_summary</text>
</g>
<g id="edge88" class="edge"><title>Parse_Moby_Data_gene_ref&#45;&gt;WORKFLOWINTERNALSINK_gene_summary</title>
<path style="fill:none;stroke:black;" d="M678,455C684,457 691,460 696,463 706,469 716,477 724,483"/>
<polygon style="fill:black;stroke:black;" points="727,481 732,490 722,486 727,481"/>
</g>
<g id="node54" class="node"><title>WORKFLOWINTERNALSINK_gene_synonyms</title>
<polygon style="fill:#bcd2ee;stroke:black;" points="694,491 606,491 606,509 694,509 694,491"/>
<text text-anchor="middle" style="font-family:Helvetica;font-size:10.00;" x="650" y="503">gene_synonyms</text>
</g>
<g id="edge90" class="edge"><title>Parse_Moby_Data_gene_ref&#45;&gt;WORKFLOWINTERNALSINK_gene_synonyms</title>
<path style="fill:none;stroke:black;" d="M648,455C649,462 649,471 649,480"/>
<polygon style="fill:black;stroke:black;" points="652,480 650,490 646,480 652,480"/>
</g>
<g id="edge6" class="edge"><title>CreateEntrezGeneDataType&#45;&gt;Gene2PubMed</title>
<path style="fill:none;stroke:black;" d="M1201,383C1208,387 1217,391 1226,395"/>
<polygon style="fill:black;stroke:black;" points="1227,392 1235,399 1224,398 1227,392"/>
</g>
<g id="edge8" class="edge"><title>CreateEntrezGeneDataType&#45;&gt;getGeneInformationByEntrezGeneID</title>
<path style="fill:none;stroke:black;" d="M1110,381C1064,387 1005,393 955,398"/>
<polygon style="fill:black;stroke:black;" points="955,401 945,399 955,395 955,401"/>
</g>
<g id="edge4" class="edge"><title>CreateEntrezGeneDataType&#45;&gt;Gene2Ontology</title>
<path style="fill:none;stroke:black;" d="M1161,383C1154,387 1145,391 1136,395"/>
<polygon style="fill:black;stroke:black;" points="1138,398 1127,399 1135,392 1138,398"/>
</g>
<g id="node64" class="node"><title>WORKFLOWINTERNALSINK_base64_PNG</title>
<polygon style="fill:#bcd2ee;stroke:black;" points="2556,491 2480,491 2480,509 2556,509 2556,491"/>
<text text-anchor="middle" style="font-family:Helvetica;font-size:10.00;" x="2518" y="503">base64_PNG</text>
</g>
<g id="edge82" class="edge"><title>Parse_Moby_Data_b64_Encoded_PNG&#45;&gt;WORKFLOWINTERNALSINK_base64_PNG</title>
<path style="fill:none;stroke:black;" d="M2458,455C2465,457 2472,460 2478,463 2487,468 2496,476 2503,483"/>
<polygon style="fill:black;stroke:black;" points="2505,480 2510,490 2500,485 2505,480"/>
</g>
<g id="node65" class="node"><title>WORKFLOWINTERNALSINK_pdb_file</title>
<polygon style="fill:#bcd2ee;stroke:black;" points="296,491 246,491 246,509 296,509 296,491"/>
<text text-anchor="middle" style="font-family:Helvetica;font-size:10.00;" x="271" y="503">pdb_file</text>
</g>
<g id="edge68" class="edge"><title>Parse_Moby_Data_PDB_Text&#45;&gt;WORKFLOWINTERNALSINK_pdb_file</title>
<path style="fill:none;stroke:black;" d="M314,455C309,457 303,460 298,463 291,468 286,475 282,481"/>
<polygon style="fill:black;stroke:black;" points="284,484 276,490 279,480 284,484"/>
</g>
<g id="edge20" class="edge"><title>Parse_Moby_Data_entrez_gene&#45;&gt;entrez_gene_id_list_flatter</title>
<path style="fill:none;stroke:black;" d="M1648,275C1648,298 1648,358 1648,389"/>
<polygon style="fill:black;stroke:black;" points="1652,389 1648,399 1645,389 1652,389"/>
</g>
<g id="edge22" class="edge"><title>Parse_Moby_Data_entrez_gene&#45;&gt;entrez_gene_list_flatter2</title>
<path style="fill:none;stroke:black;" d="M1610,275C1592,279 1571,284 1552,289"/>
<polygon style="fill:black;stroke:black;" points="1552,292 1542,291 1551,286 1552,292"/>
</g>
<g id="node33" class="node"><title>WORKFLOWINTERNALSOURCECONTROL</title>
<polygon style="fill:#ff3f3f;stroke:black;" points="2020,42 2013,52 2027,52 2020,42"/>
</g>
<g id="node34" class="node"><title>WORKFLOWINTERNALSOURCE_id</title>
<polygon style="fill:skyblue;stroke:black;" points="2009,40 1985,40 1985,58 2009,58 2009,40"/>
<text text-anchor="middle" style="font-family:Helvetica;font-size:10.00;" x="1997" y="52">id</text>
</g>
<g id="edge48" class="edge"><title>WORKFLOWINTERNALSOURCE_id&#45;&gt;CreateMobyObject</title>
<path style="fill:none;stroke:black;" d="M1991,59C1988,62 1986,65 1983,67 1982,68 1980,69 1979,70"/>
<polygon style="fill:black;stroke:black;" points="1980,73 1970,75 1977,67 1980,73"/>
</g>
<g id="node66" class="node"><title>WORKFLOWINTERNALSINK_original_id</title>
<polygon style="fill:#bcd2ee;stroke:black;" points="2702,491 2640,491 2640,509 2702,509 2702,491"/>
<text text-anchor="middle" style="font-family:Helvetica;font-size:10.00;" x="2671" y="503">original_id</text>
</g>
<g id="edge114" class="edge"><title>WORKFLOWINTERNALSOURCE_id&#45;&gt;WORKFLOWINTERNALSINK_original_id</title>
<path style="fill:none;stroke:black;" d="M2002,59C2004,62 2007,65 2011,67 2027,76 2659,63 2673,75 2687,90 2676,101 2676,121 2676,121 2676,121 2676,409 2676,434 2674,462 2673,480"/>
<polygon style="fill:black;stroke:black;" points="2676,480 2672,490 2670,480 2676,480"/>
</g>
<g id="node35" class="node"><title>WORKFLOWINTERNALSOURCE_namespace</title>
<polygon style="fill:skyblue;stroke:black;" points="1981,40 1913,40 1913,58 1981,58 1981,40"/>
<text text-anchor="middle" style="font-family:Helvetica;font-size:10.00;" x="1947" y="52">namespace</text>
</g>
<g id="edge54" class="edge"><title>WORKFLOWINTERNALSOURCE_namespace&#45;&gt;CreateMobyObject</title>
<path style="fill:none;stroke:black;" d="M1947,59C1947,61 1947,63 1947,65"/>
<polygon style="fill:black;stroke:black;" points="1951,65 1947,75 1944,65 1951,65"/>
</g>
<g id="node37" class="node"><title>WORKFLOWINTERNALSINKCONTROL</title>
<polygon style="fill:#6acd00;stroke:black;" points="2713,507 2720,497 2706,497 2713,507"/>
</g>
</g>
</svg>
