<?xml version="1.0" encoding="UTF-8" standalone="no"?>
<!DOCTYPE svg PUBLIC "-//W3C//DTD SVG 1.0//EN"
 "http://www.w3.org/TR/2001/REC-SVG-20010904/DTD/svg10.dtd">
<!-- Generated by dot version 2.2 (Fri Mar 11 00:51:40 UTC 2005)
     For user: (root) root   Title: scufl_graph    Pages: 1 -->
<svg width="357pt" height="218pt"
 viewBox = "-1 -1 356 217"
 xmlns="http://www.w3.org/2000/svg">
<g id="graph0" class="graph" style="font-family:Times-Roman;font-size:14.00;">
<title>scufl_graph</title>
<g id="graph2" class="cluster"><title>cluster_sources</title>
<polygon style="fill:none;stroke:black;stroke-dasharray:1,5;" points="60,67 342,67 342,12 60,12 60,67"/>
<text text-anchor="middle" style="font-family:Helvetica;font-size:10.00;" x="104" y="24">Workflow Inputs</text>
</g>
<g id="graph3" class="cluster"><title>cluster_sinks</title>
<polygon style="fill:none;stroke:black;stroke-dasharray:1,5;" points="86,194 288,194 288,139 86,139 86,194"/>
<text text-anchor="middle" style="font-family:Helvetica;font-size:10.00;" x="134" y="151">Workflow Outputs</text>
</g>
<g id="node1" class="node"><title>chromosome_filter</title>
<polygon style="fill:lightsteelblue;stroke:black;" points="103,76 5,76 5,94 103,94 103,76"/>
<text text-anchor="middle" style="font-family:Helvetica;font-size:10.00;" x="54" y="88">chromosome_filter</text>
</g>
<g id="node4" class="node"><title>blastfilecomparer</title>
<polygon style="fill:lightgoldenrodyellow;stroke:black;" points="187,112 95,112 95,130 187,130 187,112"/>
<text text-anchor="middle" style="font-family:Helvetica;font-size:10.00;" x="141" y="124">blastfilecomparer</text>
</g>
<g id="edge14" class="edge"><title>chromosome_filter&#45;&gt;blastfilecomparer</title>
<path style="fill:none;stroke:black;" d="M77,95C87,99 98,103 109,107"/>
<polygon style="fill:black;stroke:black;" points="110,104 118,111 107,110 110,104"/>
</g>
<g id="node2" class="node"><title>species_filter</title>
<polygon style="fill:lightsteelblue;stroke:black;" points="191,76 117,76 117,94 191,94 191,76"/>
<text text-anchor="middle" style="font-family:Helvetica;font-size:10.00;" x="154" y="88">species_filter</text>
</g>
<g id="edge16" class="edge"><title>species_filter&#45;&gt;blastfilecomparer</title>
<path style="fill:none;stroke:black;" d="M150,95C150,97 149,99 148,101"/>
<polygon style="fill:black;stroke:black;" points="151,102 145,111 145,100 151,102"/>
</g>
<g id="node3" class="node"><title>blast_ddbj</title>
<polygon style="fill:#a3cd5a;stroke:black;" points="258,76 196,76 196,94 258,94 258,76"/>
<text text-anchor="middle" style="font-family:Helvetica;font-size:10.00;" x="227" y="88">blast_ddbj</text>
</g>
<g id="edge6" class="edge"><title>blast_ddbj&#45;&gt;blastfilecomparer</title>
<path style="fill:none;stroke:black;" d="M204,95C194,99 183,103 173,107"/>
<polygon style="fill:black;stroke:black;" points="175,110 164,111 172,104 175,110"/>
</g>
<g id="node13" class="node"><title>WORKFLOWINTERNALSINK_blast_output</title>
<polygon style="fill:#bcd2ee;stroke:black;" points="262,167 192,167 192,185 262,185 262,167"/>
<text text-anchor="middle" style="font-family:Helvetica;font-size:10.00;" x="227" y="179">blast_output</text>
</g>
<g id="edge18" class="edge"><title>blast_ddbj&#45;&gt;WORKFLOWINTERNALSINK_blast_output</title>
<path style="fill:none;stroke:black;" d="M227,95C227,109 227,137 227,156"/>
<polygon style="fill:black;stroke:black;" points="231,156 227,166 224,156 231,156"/>
</g>
<g id="node14" class="node"><title>WORKFLOWINTERNALSINK_compared_output</title>
<polygon style="fill:#bcd2ee;stroke:black;" points="188,167 94,167 94,185 188,185 188,167"/>
<text text-anchor="middle" style="font-family:Helvetica;font-size:10.00;" x="141" y="179">compared_output</text>
</g>
<g id="edge20" class="edge"><title>blastfilecomparer&#45;&gt;WORKFLOWINTERNALSINK_compared_output</title>
<path style="fill:none;stroke:black;" d="M141,131C141,138 141,147 141,156"/>
<polygon style="fill:black;stroke:black;" points="145,156 141,166 138,156 145,156"/>
</g>
<g id="node6" class="node"><title>WORKFLOWINTERNALSOURCECONTROL</title>
<polygon style="fill:#ff3f3f;stroke:black;" points="327,42 320,52 334,52 327,42"/>
</g>
<g id="node7" class="node"><title>WORKFLOWINTERNALSOURCE_database</title>
<polygon style="fill:skyblue;stroke:black;" points="316,40 258,40 258,58 316,58 316,40"/>
<text text-anchor="middle" style="font-family:Helvetica;font-size:10.00;" x="287" y="52">database</text>
</g>
<g id="edge8" class="edge"><title>WORKFLOWINTERNALSOURCE_database&#45;&gt;blast_ddbj</title>
<path style="fill:none;stroke:black;" d="M271,59C265,62 258,66 252,70"/>
<polygon style="fill:black;stroke:black;" points="253,73 243,75 250,67 253,73"/>
</g>
<g id="node8" class="node"><title>WORKFLOWINTERNALSOURCE_program</title>
<polygon style="fill:skyblue;stroke:black;" points="254,40 200,40 200,58 254,58 254,40"/>
<text text-anchor="middle" style="font-family:Helvetica;font-size:10.00;" x="227" y="52">program</text>
</g>
<g id="edge10" class="edge"><title>WORKFLOWINTERNALSOURCE_program&#45;&gt;blast_ddbj</title>
<path style="fill:none;stroke:black;" d="M227,59C227,61 227,63 227,65"/>
<polygon style="fill:black;stroke:black;" points="231,65 227,75 224,65 231,65"/>
</g>
<g id="node9" class="node"><title>WORKFLOWINTERNALSOURCE_query</title>
<polygon style="fill:skyblue;stroke:black;" points="196,40 154,40 154,58 196,58 196,40"/>
<text text-anchor="middle" style="font-family:Helvetica;font-size:10.00;" x="175" y="52">query</text>
</g>
<g id="edge12" class="edge"><title>WORKFLOWINTERNALSOURCE_query&#45;&gt;blast_ddbj</title>
<path style="fill:none;stroke:black;" d="M187,59C190,61 194,64 198,67 199,68 201,69 202,70"/>
<polygon style="fill:black;stroke:black;" points="204,67 211,75 201,73 204,67"/>
</g>
<g id="node10" class="node"><title>WORKFLOWINTERNALSOURCE_OldBlastResult</title>
<polygon style="fill:skyblue;stroke:black;" points="150,40 68,40 68,58 150,58 150,40"/>
<text text-anchor="middle" style="font-family:Helvetica;font-size:10.00;" x="109" y="52">OldBlastResult</text>
</g>
<g id="edge4" class="edge"><title>WORKFLOWINTERNALSOURCE_OldBlastResult&#45;&gt;blastfilecomparer</title>
<path style="fill:none;stroke:black;" d="M109,59C108,69 109,84 115,95 116,98 119,101 121,103"/>
<polygon style="fill:black;stroke:black;" points="124,101 128,111 119,106 124,101"/>
</g>
<g id="node12" class="node"><title>WORKFLOWINTERNALSINKCONTROL</title>
<polygon style="fill:#6acd00;stroke:black;" points="273,183 280,173 266,173 273,183"/>
</g>
</g>
</svg>
