<?xml version="1.0" encoding="UTF-8" standalone="no"?>
<!DOCTYPE svg PUBLIC "-//W3C//DTD SVG 1.0//EN"
 "http://www.w3.org/TR/2001/REC-SVG-20010904/DTD/svg10.dtd">
<!-- Generated by dot version 2.2 (Fri Mar 11 00:51:40 UTC 2005)
     For user: (root) root   Title: scufl_graph    Pages: 1 -->
<svg width="131pt" height="254pt"
 viewBox = "-1 -1 130 253"
 xmlns="http://www.w3.org/2000/svg">
<g id="graph0" class="graph" style="font-family:Times-Roman;font-size:14.00;">
<title>scufl_graph</title>
<g id="graph2" class="cluster"><title>cluster_sources</title>
<polygon style="fill:none;stroke:black;stroke-dasharray:1,5;" points="22,67 111,67 111,12 22,12 22,67"/>
<text text-anchor="middle" style="font-family:Helvetica;font-size:10.00;" x="66" y="24">Workflow Inputs</text>
</g>
<g id="graph3" class="cluster"><title>cluster_sinks</title>
<polygon style="fill:none;stroke:black;stroke-dasharray:1,5;" points="20,230 116,230 116,175 20,175 20,230"/>
<text text-anchor="middle" style="font-family:Helvetica;font-size:10.00;" x="68" y="187">Workflow Outputs</text>
</g>
<g id="node1" class="node"><title>GetCitiesByCountry</title>
<polygon style="fill:#a3cd5a;stroke:black;" points="109,112 5,112 5,130 109,130 109,112"/>
<text text-anchor="middle" style="font-family:Helvetica;font-size:10.00;" x="57" y="124">GetCitiesByCountry</text>
</g>
<g id="node2" class="node"><title>GetCitiesResult</title>
<polygon style="fill:#ce5fee;stroke:black;" points="100,148 14,148 14,166 100,166 100,148"/>
<text text-anchor="middle" style="font-family:Helvetica;font-size:10.00;" x="57" y="160">GetCitiesResult</text>
</g>
<g id="edge8" class="edge"><title>GetCitiesByCountry&#45;&gt;GetCitiesResult</title>
<path style="fill:none;stroke:black;" d="M57,131C57,133 57,135 57,137"/>
<polygon style="fill:black;stroke:black;" points="61,137 57,147 54,137 61,137"/>
</g>
<g id="node9" class="node"><title>WORKFLOWINTERNALSINK_Cities</title>
<polygon style="fill:#bcd2ee;stroke:black;" points="78,203 36,203 36,221 78,221 78,203"/>
<text text-anchor="middle" style="font-family:Helvetica;font-size:10.00;" x="57" y="215">Cities</text>
</g>
<g id="edge10" class="edge"><title>GetCitiesResult&#45;&gt;WORKFLOWINTERNALSINK_Cities</title>
<path style="fill:none;stroke:black;" d="M57,167C57,174 57,183 57,192"/>
<polygon style="fill:black;stroke:black;" points="61,192 57,202 54,192 61,192"/>
</g>
<g id="node3" class="node"><title>CountryName</title>
<polygon style="fill:#ce5fee;stroke:black;" points="96,76 18,76 18,94 96,94 96,76"/>
<text text-anchor="middle" style="font-family:Helvetica;font-size:10.00;" x="57" y="88">CountryName</text>
</g>
<g id="edge6" class="edge"><title>CountryName&#45;&gt;GetCitiesByCountry</title>
<path style="fill:none;stroke:black;" d="M57,95C57,97 57,99 57,101"/>
<polygon style="fill:black;stroke:black;" points="61,101 57,111 54,101 61,101"/>
</g>
<g id="node5" class="node"><title>WORKFLOWINTERNALSOURCECONTROL</title>
<polygon style="fill:#ff3f3f;stroke:black;" points="95,42 88,52 102,52 95,42"/>
</g>
<g id="node6" class="node"><title>WORKFLOWINTERNALSOURCE_Country</title>
<polygon style="fill:skyblue;stroke:black;" points="83,40 31,40 31,58 83,58 83,40"/>
<text text-anchor="middle" style="font-family:Helvetica;font-size:10.00;" x="57" y="52">Country</text>
</g>
<g id="edge4" class="edge"><title>WORKFLOWINTERNALSOURCE_Country&#45;&gt;CountryName</title>
<path style="fill:none;stroke:black;" d="M57,59C57,61 57,63 57,65"/>
<polygon style="fill:black;stroke:black;" points="61,65 57,75 54,65 61,65"/>
</g>
<g id="node8" class="node"><title>WORKFLOWINTERNALSINKCONTROL</title>
<polygon style="fill:#6acd00;stroke:black;" points="96,219 103,209 89,209 96,219"/>
</g>
</g>
</svg>
