<?xml version="1.0" encoding="UTF-8" standalone="no"?>
<!DOCTYPE svg PUBLIC "-//W3C//DTD SVG 1.0//EN"
 "http://www.w3.org/TR/2001/REC-SVG-20010904/DTD/svg10.dtd">
<!-- Generated by dot version 2.2 (Fri Mar 11 00:51:40 UTC 2005)
     For user: (root) root   Title: scufl_graph    Pages: 1 -->
<svg width="467pt" height="589pt"
 viewBox = "-1 -1 466 588"
 xmlns="http://www.w3.org/2000/svg">
<g id="graph0" class="graph" style="font-family:Times-Roman;font-size:14.00;">
<title>scufl_graph</title>
<g id="graph2" class="cluster"><title>cluster_ConcatenateConcatenate</title>
<polygon style="fill:aliceblue;stroke:black;" points="85,474 275,474 275,257 85,257 85,474"/>
<text text-anchor="middle" style="font-family:Helvetica;font-size:10.00;" x="121" y="269">Concatenate</text>
</g>
<g id="graph3" class="cluster"><title>cluster_Concatenatesources</title>
<polygon style="fill:none;stroke:black;stroke-dasharray:1,5;" points="93,339 267,339 267,284 93,284 93,339"/>
<text text-anchor="middle" style="font-family:Helvetica;font-size:10.00;" x="137" y="296">Workflow Inputs</text>
</g>
<g id="graph4" class="cluster"><title>cluster_Concatenatesinks</title>
<polygon style="fill:none;stroke:black;stroke-dasharray:1,5;" points="105,466 245,466 245,411 105,411 105,466"/>
<text text-anchor="middle" style="font-family:Helvetica;font-size:10.00;" x="153" y="423">Workflow Outputs</text>
</g>
<g id="graph5" class="cluster"><title>cluster_CloneClone</title>
<polygon style="fill:aliceblue;stroke:black;" points="117,249 285,249 285,68 117,68 117,249"/>
<text text-anchor="middle" style="font-family:Helvetica;font-size:10.00;" x="138" y="80">Clone</text>
</g>
<g id="graph6" class="cluster"><title>cluster_Clonesources</title>
<polygon style="fill:none;stroke:black;stroke-dasharray:1,5;" points="125,150 277,150 277,95 125,95 125,150"/>
<text text-anchor="middle" style="font-family:Helvetica;font-size:10.00;" x="169" y="107">Workflow Inputs</text>
</g>
<g id="graph7" class="cluster"><title>cluster_Clonesinks</title>
<polygon style="fill:none;stroke:black;stroke-dasharray:1,5;" points="136,241 232,241 232,186 136,186 136,241"/>
<text text-anchor="middle" style="font-family:Helvetica;font-size:10.00;" x="184" y="198">Workflow Outputs</text>
</g>
<g id="graph8" class="cluster"><title>cluster_sinks</title>
<polygon style="fill:none;stroke:black;stroke-dasharray:1,5;" points="22,565 452,565 452,510 22,510 22,565"/>
<text text-anchor="middle" style="font-family:Helvetica;font-size:10.00;" x="70" y="522">Workflow Outputs</text>
</g>
<g id="node1" class="node"><title>create_capitalList</title>
<polygon style="fill:#eec391;stroke:black;" points="99,41 5,41 5,59 99,59 99,41"/>
<text text-anchor="middle" style="font-family:Helvetica;font-size:10.00;" x="52" y="53">create_capitalList</text>
</g>
<g id="node27" class="node"><title>CloneWORKFLOWINTERNALSOURCE_input</title>
<polygon style="fill:skyblue;stroke:black;" points="171,123 133,123 133,141 171,141 171,123"/>
<text text-anchor="middle" style="font-family:Helvetica;font-size:10.00;" x="152" y="135">input</text>
</g>
<g id="edge37" class="edge"><title>create_capitalList&#45;&gt;CloneWORKFLOWINTERNALSOURCE_input</title>
<path style="fill:none;stroke:black;" d="M99,57C114,59 128,63 133,68 145,80 150,98 151,112"/>
<polygon style="fill:black;stroke:black;" points="154,112 152,122 148,112 154,112"/>
</g>
<g id="node38" class="node"><title>WORKFLOWINTERNALSINK_capital_list</title>
<polygon style="fill:#bcd2ee;stroke:black;" points="92,538 30,538 30,556 92,556 92,538"/>
<text text-anchor="middle" style="font-family:Helvetica;font-size:10.00;" x="61" y="550">capital_list</text>
</g>
<g id="edge47" class="edge"><title>create_capitalList&#45;&gt;WORKFLOWINTERNALSINK_capital_list</title>
<path style="fill:none;stroke:black;" d="M53,60C54,80 56,128 56,168 56,168 56,168 56,448 56,476 58,507 59,527"/>
<polygon style="fill:black;stroke:black;" points="62,527 60,537 56,527 62,527"/>
</g>
<g id="node2" class="node"><title>String_Constant</title>
<polygon style="fill:lightsteelblue;stroke:black;" points="381,214 293,214 293,232 381,232 381,214"/>
<text text-anchor="middle" style="font-family:Helvetica;font-size:10.00;" x="337" y="226">String_Constant</text>
</g>
<g id="node11" class="node"><title>ConcatenateWORKFLOWINTERNALSOURCE_input1</title>
<polygon style="fill:skyblue;stroke:black;" points="241,312 197,312 197,330 241,330 241,312"/>
<text text-anchor="middle" style="font-family:Helvetica;font-size:10.00;" x="219" y="324">input1</text>
</g>
<g id="edge33" class="edge"><title>String_Constant&#45;&gt;ConcatenateWORKFLOWINTERNALSOURCE_input1</title>
<path style="fill:none;stroke:black;" d="M293,231C275,236 256,244 243,257 231,269 225,287 222,301"/>
<polygon style="fill:black;stroke:black;" points="225,302 220,311 219,301 225,302"/>
</g>
<g id="node3" class="node"><title>create_ListOfLists</title>
<polygon style="fill:#eec391;stroke:black;" points="338,5 242,5 242,23 338,23 338,5"/>
<text text-anchor="middle" style="font-family:Helvetica;font-size:10.00;" x="290" y="17">create_ListOfLists</text>
</g>
<g id="node5" class="node"><title>Count1</title>
<polygon style="fill:crimson;stroke:black;" points="314,41 266,41 266,59 314,59 314,41"/>
<text text-anchor="middle" style="font-family:Helvetica;font-size:10.00;" x="290" y="53">Count1</text>
</g>
<g id="edge43" class="edge"><title>create_ListOfLists&#45;&gt;Count1</title>
<path style="fill:none;stroke:black;" d="M290,24C290,26 290,28 290,30"/>
<polygon style="fill:black;stroke:black;" points="294,30 290,40 287,30 294,30"/>
</g>
<g id="node13" class="node"><title>ConcatenateWORKFLOWINTERNALSOURCE_input3</title>
<polygon style="fill:skyblue;stroke:black;" points="145,312 101,312 101,330 145,330 145,312"/>
<text text-anchor="middle" style="font-family:Helvetica;font-size:10.00;" x="123" y="324">input3</text>
</g>
<g id="edge35" class="edge"><title>create_ListOfLists&#45;&gt;ConcatenateWORKFLOWINTERNALSOURCE_input3</title>
<path style="fill:none;stroke:black;" d="M246,24C203,34 141,51 124,68 104,90 106,103 106,132 106,132 106,132 106,168 106,217 115,272 119,301"/>
<polygon style="fill:black;stroke:black;" points="122,301 121,311 116,302 122,301"/>
</g>
<g id="node36" class="node"><title>WORKFLOWINTERNALSINK_letter_list</title>
<polygon style="fill:#bcd2ee;stroke:black;" points="426,538 370,538 370,556 426,556 426,538"/>
<text text-anchor="middle" style="font-family:Helvetica;font-size:10.00;" x="398" y="550">letter_list</text>
</g>
<g id="edge45" class="edge"><title>create_ListOfLists&#45;&gt;WORKFLOWINTERNALSINK_letter_list</title>
<path style="fill:none;stroke:black;" d="M309,24C340,41 398,80 398,132 398,132 398,132 398,448 398,476 398,507 398,527"/>
<polygon style="fill:black;stroke:black;" points="402,527 398,537 395,527 402,527"/>
</g>
<g id="node4" class="node"><title>Count2</title>
<polygon style="fill:crimson;stroke:black;" points="179,483 131,483 131,501 179,501 179,483"/>
<text text-anchor="middle" style="font-family:Helvetica;font-size:10.00;" x="155" y="495">Count2</text>
</g>
<g id="node39" class="node"><title>WORKFLOWINTERNALSINK_count_concatenated</title>
<polygon style="fill:#bcd2ee;stroke:black;" points="202,538 96,538 96,556 202,556 202,538"/>
<text text-anchor="middle" style="font-family:Helvetica;font-size:10.00;" x="149" y="550">count_concatenated</text>
</g>
<g id="edge41" class="edge"><title>Count2&#45;&gt;WORKFLOWINTERNALSINK_count_concatenated</title>
<path style="fill:none;stroke:black;" d="M154,502C153,509 152,519 151,527"/>
<polygon style="fill:black;stroke:black;" points="154,527 150,537 148,527 154,527"/>
</g>
<g id="node26" class="node"><title>CloneWORKFLOWINTERNALSOURCE_copy_number</title>
<polygon style="fill:skyblue;stroke:black;" points="251,123 175,123 175,141 251,141 251,123"/>
<text text-anchor="middle" style="font-family:Helvetica;font-size:10.00;" x="213" y="135">copy_number</text>
</g>
<g id="edge31" class="edge"><title>Count1&#45;&gt;CloneWORKFLOWINTERNALSOURCE_copy_number</title>
<path style="fill:none;stroke:black;" d="M266,59C261,62 257,65 253,68 239,81 228,99 221,113"/>
<polygon style="fill:black;stroke:black;" points="224,114 217,122 218,111 224,114"/>
</g>
<g id="node40" class="node"><title>WORKFLOWINTERNALSINK_count_letterlist</title>
<polygon style="fill:#bcd2ee;stroke:black;" points="366,538 286,538 286,556 366,556 366,538"/>
<text text-anchor="middle" style="font-family:Helvetica;font-size:10.00;" x="326" y="550">count_letterlist</text>
</g>
<g id="edge39" class="edge"><title>Count1&#45;&gt;WORKFLOWINTERNALSINK_count_letterlist</title>
<path style="fill:none;stroke:black;" d="M307,60C335,77 388,118 388,168 388,168 388,168 388,448 388,481 363,512 344,530"/>
<polygon style="fill:black;stroke:black;" points="347,532 337,537 342,527 347,532"/>
</g>
<g id="node7" class="node"><title>ConcatenateConcatenate_two_strings1</title>
<polygon style="fill:#ce5fee;stroke:black;" points="262,348 128,348 128,366 262,366 262,348"/>
<text text-anchor="middle" style="font-family:Helvetica;font-size:10.00;" x="195" y="360">Concatenate_two_strings1</text>
</g>
<g id="node8" class="node"><title>ConcatenateConcatenate_two_strings2</title>
<polygon style="fill:#ce5fee;stroke:black;" points="233,384 99,384 99,402 233,402 233,384"/>
<text text-anchor="middle" style="font-family:Helvetica;font-size:10.00;" x="166" y="396">Concatenate_two_strings2</text>
</g>
<g id="edge9" class="edge"><title>ConcatenateConcatenate_two_strings1&#45;&gt;ConcatenateConcatenate_two_strings2</title>
<path style="fill:none;stroke:black;" d="M187,367C185,369 183,372 180,375"/>
<polygon style="fill:black;stroke:black;" points="183,377 174,383 177,373 183,377"/>
</g>
<g id="node16" class="node"><title>ConcatenateWORKFLOWINTERNALSINK_concatenated_string</title>
<polygon style="fill:#bcd2ee;stroke:black;" points="219,439 113,439 113,457 219,457 219,439"/>
<text text-anchor="middle" style="font-family:Helvetica;font-size:10.00;" x="166" y="451">concatenated_string</text>
</g>
<g id="edge13" class="edge"><title>ConcatenateConcatenate_two_strings2&#45;&gt;ConcatenateWORKFLOWINTERNALSINK_concatenated_string</title>
<path style="fill:none;stroke:black;" d="M166,403C166,410 166,419 166,428"/>
<polygon style="fill:black;stroke:black;" points="170,428 166,438 163,428 170,428"/>
</g>
<g id="node10" class="node"><title>ConcatenateWORKFLOWINTERNALSOURCECONTROL</title>
<polygon style="fill:#ff3f3f;stroke:black;" points="252,314 245,324 259,324 252,314"/>
</g>
<g id="edge5" class="edge"><title>ConcatenateWORKFLOWINTERNALSOURCE_input1&#45;&gt;ConcatenateConcatenate_two_strings1</title>
<path style="fill:none;stroke:black;" d="M212,331C211,333 209,336 207,339"/>
<polygon style="fill:black;stroke:black;" points="210,341 201,347 204,337 210,341"/>
</g>
<g id="node12" class="node"><title>ConcatenateWORKFLOWINTERNALSOURCE_input2</title>
<polygon style="fill:skyblue;stroke:black;" points="193,312 149,312 149,330 193,330 193,312"/>
<text text-anchor="middle" style="font-family:Helvetica;font-size:10.00;" x="171" y="324">input2</text>
</g>
<g id="edge7" class="edge"><title>ConcatenateWORKFLOWINTERNALSOURCE_input2&#45;&gt;ConcatenateConcatenate_two_strings1</title>
<path style="fill:none;stroke:black;" d="M178,331C179,333 181,336 183,339"/>
<polygon style="fill:black;stroke:black;" points="186,337 189,347 180,341 186,337"/>
</g>
<g id="edge11" class="edge"><title>ConcatenateWORKFLOWINTERNALSOURCE_input3&#45;&gt;ConcatenateConcatenate_two_strings2</title>
<path style="fill:none;stroke:black;" d="M123,331C122,343 123,362 126,367 128,371 131,374 135,377"/>
<polygon style="fill:black;stroke:black;" points="137,374 143,383 133,380 137,374"/>
</g>
<g id="node15" class="node"><title>ConcatenateWORKFLOWINTERNALSINKCONTROL</title>
<polygon style="fill:#6acd00;stroke:black;" points="230,455 237,445 223,445 230,455"/>
</g>
<g id="edge27" class="edge"><title>ConcatenateWORKFLOWINTERNALSINK_concatenated_string&#45;&gt;Count2</title>
<path style="fill:none;stroke:black;" d="M164,458C163,462 161,467 160,472"/>
<polygon style="fill:black;stroke:black;" points="163,473 157,482 157,471 163,473"/>
</g>
<g id="node37" class="node"><title>WORKFLOWINTERNALSINK_concatenated</title>
<polygon style="fill:#bcd2ee;stroke:black;" points="282,538 206,538 206,556 282,556 282,538"/>
<text text-anchor="middle" style="font-family:Helvetica;font-size:10.00;" x="244" y="550">concatenated</text>
</g>
<g id="edge29" class="edge"><title>ConcatenateWORKFLOWINTERNALSINK_concatenated_string&#45;&gt;WORKFLOWINTERNALSINK_concatenated</title>
<path style="fill:none;stroke:black;" d="M183,457C192,463 202,472 209,482 215,490 212,494 215,502 219,511 225,521 230,529"/>
<polygon style="fill:black;stroke:black;" points="233,527 236,537 227,531 233,527"/>
</g>
<g id="node23" class="node"><title>CloneClone</title>
<polygon style="fill:#eec391;stroke:black;" points="192,159 150,159 150,177 192,177 192,159"/>
<text text-anchor="middle" style="font-family:Helvetica;font-size:10.00;" x="171" y="171">Clone</text>
</g>
<g id="node30" class="node"><title>CloneWORKFLOWINTERNALSINK_clones</title>
<polygon style="fill:#bcd2ee;stroke:black;" points="193,214 149,214 149,232 193,232 193,214"/>
<text text-anchor="middle" style="font-family:Helvetica;font-size:10.00;" x="171" y="226">clones</text>
</g>
<g id="edge22" class="edge"><title>CloneClone&#45;&gt;CloneWORKFLOWINTERNALSINK_clones</title>
<path style="fill:none;stroke:black;" d="M171,178C171,185 171,194 171,203"/>
<polygon style="fill:black;stroke:black;" points="175,203 171,213 168,203 175,203"/>
</g>
<g id="node25" class="node"><title>CloneWORKFLOWINTERNALSOURCECONTROL</title>
<polygon style="fill:#ff3f3f;stroke:black;" points="262,125 255,135 269,135 262,125"/>
</g>
<g id="edge18" class="edge"><title>CloneWORKFLOWINTERNALSOURCE_copy_number&#45;&gt;CloneClone</title>
<path style="fill:none;stroke:black;" d="M201,142C197,145 193,148 189,151"/>
<polygon style="fill:black;stroke:black;" points="191,154 181,158 186,149 191,154"/>
</g>
<g id="edge20" class="edge"><title>CloneWORKFLOWINTERNALSOURCE_input&#45;&gt;CloneClone</title>
<path style="fill:none;stroke:black;" d="M157,142C158,144 160,147 161,149"/>
<polygon style="fill:black;stroke:black;" points="164,148 166,158 158,151 164,148"/>
</g>
<g id="node29" class="node"><title>CloneWORKFLOWINTERNALSINKCONTROL</title>
<polygon style="fill:#6acd00;stroke:black;" points="210,230 217,220 203,220 210,230"/>
</g>
<g id="edge25" class="edge"><title>CloneWORKFLOWINTERNALSINK_clones&#45;&gt;ConcatenateWORKFLOWINTERNALSOURCE_input2</title>
<path style="fill:none;stroke:black;" d="M171,233C171,249 171,280 171,301"/>
<polygon style="fill:black;stroke:black;" points="175,301 171,311 168,301 175,301"/>
</g>
<g id="node35" class="node"><title>WORKFLOWINTERNALSINKCONTROL</title>
<polygon style="fill:#6acd00;stroke:black;" points="437,554 444,544 430,544 437,554"/>
</g>
</g>
</svg>
