<?xml version="1.0" encoding="UTF-8" standalone="no"?>
<!DOCTYPE svg PUBLIC "-//W3C//DTD SVG 1.0//EN"
 "http://www.w3.org/TR/2001/REC-SVG-20010904/DTD/svg10.dtd">
<!-- Generated by dot version 2.2 (Fri Mar 11 00:51:40 UTC 2005)
     For user: (root) root   Title: scufl_graph    Pages: 1 -->
<svg width="459pt" height="435pt"
 viewBox = "-1 -1 458 434"
 xmlns="http://www.w3.org/2000/svg">
<g id="graph0" class="graph" style="font-family:Times-Roman;font-size:14.00;">
<title>scufl_graph</title>
<g id="graph2" class="cluster"><title>cluster_checkStatusWorkflowcheckStatusWorkflow</title>
<polygon style="fill:aliceblue;stroke:black;" points="13,411 181,411 181,175 13,175 13,411"/>
<text text-anchor="middle" style="font-family:Helvetica;font-size:10.00;" x="69" y="187">checkStatusWorkflow</text>
</g>
<g id="graph3" class="cluster"><title>cluster_checkStatusWorkflowsources</title>
<polygon style="fill:none;stroke:black;stroke-dasharray:1,5;" points="81,257 170,257 170,202 81,202 81,257"/>
<text text-anchor="middle" style="font-family:Helvetica;font-size:10.00;" x="125" y="214">Workflow Inputs</text>
</g>
<g id="graph4" class="cluster"><title>cluster_checkStatusWorkflowsinks</title>
<polygon style="fill:none;stroke:black;stroke-dasharray:1,5;" points="77,348 173,348 173,293 77,293 77,348"/>
<text text-anchor="middle" style="font-family:Helvetica;font-size:10.00;" x="125" y="305">Workflow Outputs</text>
</g>
<g id="graph5" class="cluster"><title>cluster_sources</title>
<polygon style="fill:none;stroke:black;stroke-dasharray:1,5;" points="181,67 275,67 275,12 181,12 181,67"/>
<text text-anchor="middle" style="font-family:Helvetica;font-size:10.00;" x="225" y="24">Workflow Inputs</text>
</g>
<g id="graph6" class="cluster"><title>cluster_sinks</title>
<polygon style="fill:none;stroke:black;stroke-dasharray:1,5;" points="189,411 431,411 431,356 189,356 189,411"/>
<text text-anchor="middle" style="font-family:Helvetica;font-size:10.00;" x="237" y="368">Workflow Outputs</text>
</g>
<g id="node1" class="node"><title>WSArrayofDataXML</title>
<polygon style="fill:#ce5fee;stroke:black;" points="272,76 166,76 166,94 272,94 272,76"/>
<text text-anchor="middle" style="font-family:Helvetica;font-size:10.00;" x="219" y="88">WSArrayofDataXML</text>
</g>
<g id="node2" class="node"><title>contentXML</title>
<polygon style="fill:#ce5fee;stroke:black;" points="254,112 184,112 184,130 254,130 254,112"/>
<text text-anchor="middle" style="font-family:Helvetica;font-size:10.00;" x="219" y="124">contentXML</text>
</g>
<g id="edge15" class="edge"><title>WSArrayofDataXML&#45;&gt;contentXML</title>
<path style="fill:none;stroke:black;" d="M219,95C219,97 219,99 219,101"/>
<polygon style="fill:black;stroke:black;" points="223,101 219,111 216,101 223,101"/>
</g>
<g id="node6" class="node"><title>runWUBlast</title>
<polygon style="fill:#a3cd5a;stroke:black;" points="286,148 216,148 216,166 286,166 286,148"/>
<text text-anchor="middle" style="font-family:Helvetica;font-size:10.00;" x="251" y="160">runWUBlast</text>
</g>
<g id="edge17" class="edge"><title>contentXML&#45;&gt;runWUBlast</title>
<path style="fill:none;stroke:black;" d="M228,131C230,134 233,136 235,139"/>
<polygon style="fill:black;stroke:black;" points="238,137 242,147 233,142 238,137"/>
</g>
<g id="node3" class="node"><title>poll</title>
<polygon style="fill:#a3cd5a;stroke:black;" points="318,230 286,230 286,248 318,248 318,230"/>
<text text-anchor="middle" style="font-family:Helvetica;font-size:10.00;" x="302" y="242">poll</text>
</g>
<g id="node7" class="node"><title>Byte___to_String</title>
<polygon style="fill:#ce5fee;stroke:black;" points="350,266 258,266 258,284 350,284 350,266"/>
<text text-anchor="middle" style="font-family:Helvetica;font-size:10.00;" x="304" y="278">Byte___to_String</text>
</g>
<g id="edge21" class="edge"><title>poll&#45;&gt;Byte___to_String</title>
<path style="fill:none;stroke:black;" d="M303,249C303,251 303,253 303,255"/>
<polygon style="fill:black;stroke:black;" points="307,255 303,265 300,255 307,255"/>
</g>
<g id="node4" class="node"><title>pollXML</title>
<polygon style="fill:#a3cd5a;stroke:black;" points="374,230 322,230 322,248 374,248 374,230"/>
<text text-anchor="middle" style="font-family:Helvetica;font-size:10.00;" x="348" y="242">pollXML</text>
</g>
<g id="node8" class="node"><title>Byte___to_String1</title>
<polygon style="fill:#ce5fee;stroke:black;" points="452,266 354,266 354,284 452,284 452,266"/>
<text text-anchor="middle" style="font-family:Helvetica;font-size:10.00;" x="403" y="278">Byte___to_String1</text>
</g>
<g id="edge29" class="edge"><title>pollXML&#45;&gt;Byte___to_String1</title>
<path style="fill:none;stroke:black;" d="M363,249C368,252 374,256 379,260"/>
<polygon style="fill:black;stroke:black;" points="381,257 388,265 378,263 381,257"/>
</g>
<g id="node5" class="node"><title>params</title>
<polygon style="fill:#ce5fee;stroke:black;" points="308,112 258,112 258,130 308,130 308,112"/>
<text text-anchor="middle" style="font-family:Helvetica;font-size:10.00;" x="283" y="124">params</text>
</g>
<g id="edge19" class="edge"><title>params&#45;&gt;runWUBlast</title>
<path style="fill:none;stroke:black;" d="M274,131C272,134 269,136 267,139"/>
<polygon style="fill:black;stroke:black;" points="269,142 260,147 264,137 269,142"/>
</g>
<g id="edge25" class="edge"><title>runWUBlast&#45;&gt;poll</title>
<path style="fill:none;stroke:black;" d="M257,167C265,180 281,204 291,220"/>
<polygon style="fill:black;stroke:black;" points="294,219 296,229 288,222 294,219"/>
</g>
<g id="edge39" class="edge"><title>runWUBlast&#45;&gt;pollXML</title>
<path style="fill:none;stroke:black;" d="M286,166C287,167 288,167 289,167 302,171 309,166 320,175 333,187 340,205 344,219"/>
<polygon style="fill:black;stroke:black;" points="347,219 346,229 341,220 347,219"/>
</g>
<g id="node15" class="node"><title>checkStatusWorkflowWORKFLOWINTERNALSOURCE_job</title>
<polygon style="fill:skyblue;stroke:black;" points="141,230 111,230 111,248 141,248 141,230"/>
<text text-anchor="middle" style="font-family:Helvetica;font-size:10.00;" x="126" y="242">job</text>
</g>
<g id="edge23" class="edge"><title>runWUBlast&#45;&gt;checkStatusWorkflowWORKFLOWINTERNALSOURCE_job</title>
<path style="fill:none;stroke:black;" d="M216,159C189,162 155,166 145,175 133,186 128,205 127,219"/>
<polygon style="fill:black;stroke:black;" points="130,219 126,229 124,219 130,219"/>
</g>
<g id="node28" class="node"><title>WORKFLOWINTERNALSINK_jobid</title>
<polygon style="fill:#bcd2ee;stroke:black;" points="283,384 245,384 245,402 283,402 283,384"/>
<text text-anchor="middle" style="font-family:Helvetica;font-size:10.00;" x="264" y="396">jobid</text>
</g>
<g id="edge37" class="edge"><title>runWUBlast&#45;&gt;WORKFLOWINTERNALSINK_jobid</title>
<path style="fill:none;stroke:black;" d="M251,167C252,188 254,241 256,285 258,316 261,352 262,373"/>
<polygon style="fill:black;stroke:black;" points="265,373 263,383 259,373 265,373"/>
</g>
<g id="node30" class="node"><title>WORKFLOWINTERNALSINK_txt result</title>
<polygon style="fill:#bcd2ee;stroke:black;" points="341,384 287,384 287,402 341,402 341,384"/>
<text text-anchor="middle" style="font-family:Helvetica;font-size:10.00;" x="314" y="396">txt result</text>
</g>
<g id="edge33" class="edge"><title>Byte___to_String&#45;&gt;WORKFLOWINTERNALSINK_txt result</title>
<path style="fill:none;stroke:black;" d="M305,285C307,304 310,348 312,373"/>
<polygon style="fill:black;stroke:black;" points="315,373 313,383 309,373 315,373"/>
</g>
<g id="node31" class="node"><title>WORKFLOWINTERNALSINK_xml result</title>
<polygon style="fill:#bcd2ee;stroke:black;" points="405,384 345,384 345,402 405,402 405,384"/>
<text text-anchor="middle" style="font-family:Helvetica;font-size:10.00;" x="375" y="396">xml result</text>
</g>
<g id="edge31" class="edge"><title>Byte___to_String1&#45;&gt;WORKFLOWINTERNALSINK_xml result</title>
<path style="fill:none;stroke:black;" d="M401,285C397,304 386,348 380,373"/>
<polygon style="fill:black;stroke:black;" points="383,374 377,383 377,372 383,374"/>
</g>
<g id="node10" class="node"><title>checkStatusWorkflowcheckStatus</title>
<polygon style="fill:#a3cd5a;stroke:black;" points="160,266 90,266 90,284 160,284 160,266"/>
<text text-anchor="middle" style="font-family:Helvetica;font-size:10.00;" x="125" y="278">checkStatus</text>
</g>
<g id="node12" class="node"><title>checkStatusWorkflowisDone</title>
<polygon style="fill:#eec391;stroke:black;" points="69,321 21,321 21,339 69,339 69,321"/>
<text text-anchor="middle" style="font-family:Helvetica;font-size:10.00;" x="45" y="333">isDone</text>
</g>
<g id="edge7" class="edge"><title>checkStatusWorkflowcheckStatus&#45;&gt;checkStatusWorkflowisDone</title>
<path style="fill:none;stroke:black;" d="M92,285C86,287 81,290 76,293 69,298 63,305 57,312"/>
<polygon style="fill:black;stroke:black;" points="60,314 51,320 54,310 60,314"/>
</g>
<g id="node18" class="node"><title>checkStatusWorkflowWORKFLOWINTERNALSINK_status</title>
<polygon style="fill:#bcd2ee;stroke:black;" points="147,321 103,321 103,339 147,339 147,321"/>
<text text-anchor="middle" style="font-family:Helvetica;font-size:10.00;" x="125" y="333">status</text>
</g>
<g id="edge11" class="edge"><title>checkStatusWorkflowcheckStatus&#45;&gt;checkStatusWorkflowWORKFLOWINTERNALSINK_status</title>
<path style="fill:none;stroke:black;" d="M125,285C125,292 125,301 125,310"/>
<polygon style="fill:black;stroke:black;" points="129,310 125,320 122,310 129,310"/>
</g>
<g id="node11" class="node"><title>checkStatusWorkflowFail_if_false</title>
<polygon style="fill:#ce5fee;stroke:black;" points="89,384 21,384 21,402 89,402 89,384"/>
<text text-anchor="middle" style="font-family:Helvetica;font-size:10.00;" x="55" y="396">Fail_if_false</text>
</g>
<g id="edge9" class="edge"><title>checkStatusWorkflowisDone&#45;&gt;checkStatusWorkflowFail_if_false</title>
<path style="fill:none;stroke:black;" d="M47,340C48,348 50,362 51,373"/>
<polygon style="fill:black;stroke:black;" points="54,373 53,383 48,374 54,373"/>
</g>
<g id="node14" class="node"><title>checkStatusWorkflowWORKFLOWINTERNALSOURCECONTROL</title>
<polygon style="fill:#ff3f3f;stroke:black;" points="154,232 147,242 161,242 154,232"/>
</g>
<g id="edge5" class="edge"><title>checkStatusWorkflowWORKFLOWINTERNALSOURCE_job&#45;&gt;checkStatusWorkflowcheckStatus</title>
<path style="fill:none;stroke:black;" d="M126,249C126,251 126,253 126,255"/>
<polygon style="fill:black;stroke:black;" points="129,255 125,265 123,255 129,255"/>
</g>
<g id="node17" class="node"><title>checkStatusWorkflowWORKFLOWINTERNALSINKCONTROL</title>
<polygon style="fill:#6acd00;stroke:black;" points="158,337 165,327 151,327 158,337"/>
</g>
<g id="node29" class="node"><title>WORKFLOWINTERNALSINK_status</title>
<polygon style="fill:#bcd2ee;stroke:black;" points="241,384 197,384 197,402 241,402 241,384"/>
<text text-anchor="middle" style="font-family:Helvetica;font-size:10.00;" x="219" y="396">status</text>
</g>
<g id="edge35" class="edge"><title>checkStatusWorkflowWORKFLOWINTERNALSINK_status&#45;&gt;WORKFLOWINTERNALSINK_status</title>
<path style="fill:none;stroke:black;" d="M136,340C140,343 144,346 149,348 163,355 169,349 182,356 191,361 199,369 205,376"/>
<polygon style="fill:black;stroke:black;" points="207,373 212,383 202,378 207,373"/>
</g>
<g id="node24" class="node"><title>WORKFLOWINTERNALSOURCECONTROL</title>
<polygon style="fill:#ff3f3f;stroke:black;" points="260,42 253,52 267,52 260,42"/>
</g>
<g id="node25" class="node"><title>WORKFLOWINTERNALSOURCE_sequence</title>
<polygon style="fill:skyblue;stroke:black;" points="249,40 189,40 189,58 249,58 249,40"/>
<text text-anchor="middle" style="font-family:Helvetica;font-size:10.00;" x="219" y="52">sequence</text>
</g>
<g id="edge27" class="edge"><title>WORKFLOWINTERNALSOURCE_sequence&#45;&gt;WSArrayofDataXML</title>
<path style="fill:none;stroke:black;" d="M219,59C219,61 219,63 219,65"/>
<polygon style="fill:black;stroke:black;" points="223,65 219,75 216,65 223,65"/>
</g>
<g id="node27" class="node"><title>WORKFLOWINTERNALSINKCONTROL</title>
<polygon style="fill:#6acd00;stroke:black;" points="416,400 423,390 409,390 416,400"/>
</g>
<g id="node45" class="node"><title>checkStatusWorkflow</title>
<polygon style="fill:lightgoldenrodyellow;stroke:black;" points="403,148 291,148 291,166 403,166 403,148"/>
<text text-anchor="middle" style="font-family:Helvetica;font-size:10.00;" x="347" y="160">checkStatusWorkflow</text>
</g>
<g id="edge41" class="edge"><title>checkStatusWorkflow&#45;&gt;poll</title>
<path style="fill:none;stroke:gray;" d="M329,167C326,169 322,172 320,175 309,189 305,208 304,221"/>
<ellipse cx="303" cy="225" rx="4" ry="4" style="fill:none;stroke:gray;"/>
</g>
<g id="edge43" class="edge"><title>checkStatusWorkflow&#45;&gt;pollXML</title>
<path style="fill:none;stroke:gray;" d="M347,167C347,180 348,204 348,221"/>
<ellipse cx="348" cy="225" rx="4" ry="4" style="fill:none;stroke:gray;"/>
</g>
</g>
</svg>
