<?xml version="1.0" encoding="UTF-8" standalone="no"?>
<!DOCTYPE svg PUBLIC "-//W3C//DTD SVG 1.0//EN"
 "http://www.w3.org/TR/2001/REC-SVG-20010904/DTD/svg10.dtd">
<!-- Generated by dot version 2.2 (Fri Mar 11 00:51:40 UTC 2005)
     For user: (root) root   Title: scufl_graph    Pages: 1 -->
<svg width="518pt" height="255pt"
 viewBox = "-1 -1 517 254"
 xmlns="http://www.w3.org/2000/svg">
<g id="graph0" class="graph" style="font-family:Times-Roman;font-size:14.00;">
<title>scufl_graph</title>
<g id="graph2" class="cluster"><title>cluster_sinks</title>
<polygon style="fill:none;stroke:black;stroke-dasharray:1,5;" points="17,231 257,231 257,176 17,176 17,231"/>
<text text-anchor="middle" style="font-family:Helvetica;font-size:10.00;" x="65" y="188">Workflow Outputs</text>
</g>
<g id="node1" class="node"><title>sequenceid</title>
<polygon style="fill:lightsteelblue;stroke:black;" points="104,5 36,5 36,23 104,23 104,5"/>
<text text-anchor="middle" style="font-family:Helvetica;font-size:10.00;" x="70" y="17">sequenceid</text>
</g>
<g id="node11" class="node"><title>seqret1</title>
<polygon style="fill:lightgoldenrodyellow;stroke:black;" points="95,41 45,41 45,59 95,59 95,41"/>
<text text-anchor="middle" style="font-family:Helvetica;font-size:10.00;" x="70" y="53">seqret1</text>
</g>
<g id="edge3" class="edge"><title>sequenceid&#45;&gt;seqret1</title>
<path style="fill:none;stroke:black;" d="M70,24C70,26 70,28 70,30"/>
<polygon style="fill:black;stroke:black;" points="74,30 70,40 67,30 74,30"/>
</g>
<g id="node2" class="node"><title>prophecyType</title>
<polygon style="fill:lightsteelblue;stroke:black;" points="223,77 145,77 145,95 223,95 223,77"/>
<text text-anchor="middle" style="font-family:Helvetica;font-size:10.00;" x="184" y="89">prophecyType</text>
</g>
<g id="node9" class="node"><title>prophecy</title>
<polygon style="fill:lightgoldenrodyellow;stroke:black;" points="216,113 158,113 158,131 216,131 216,113"/>
<text text-anchor="middle" style="font-family:Helvetica;font-size:10.00;" x="187" y="125">prophecy</text>
</g>
<g id="edge13" class="edge"><title>prophecyType&#45;&gt;prophecy</title>
<path style="fill:none;stroke:black;" d="M185,96C185,98 185,100 185,102"/>
<polygon style="fill:black;stroke:black;" points="188,102 186,112 182,102 188,102"/>
</g>
<g id="node3" class="node"><title>prophecyName</title>
<polygon style="fill:lightsteelblue;stroke:black;" points="311,77 227,77 227,95 311,95 311,77"/>
<text text-anchor="middle" style="font-family:Helvetica;font-size:10.00;" x="269" y="89">prophecyName</text>
</g>
<g id="edge15" class="edge"><title>prophecyName&#45;&gt;prophecy</title>
<path style="fill:none;stroke:black;" d="M247,96C238,100 228,104 218,108"/>
<polygon style="fill:black;stroke:black;" points="220,111 209,112 217,105 220,111"/>
</g>
<g id="node4" class="node"><title>send</title>
<polygon style="fill:lightsteelblue;stroke:black;" points="461,77 423,77 423,95 461,95 461,77"/>
<text text-anchor="middle" style="font-family:Helvetica;font-size:10.00;" x="442" y="89">send</text>
</g>
<g id="node12" class="node"><title>transeq</title>
<polygon style="fill:lightgoldenrodyellow;stroke:black;" points="429,113 379,113 379,131 429,131 429,113"/>
<text text-anchor="middle" style="font-family:Helvetica;font-size:10.00;" x="404" y="125">transeq</text>
</g>
<g id="edge25" class="edge"><title>send&#45;&gt;transeq</title>
<path style="fill:none;stroke:black;" d="M432,96C429,99 425,102 421,105"/>
<polygon style="fill:black;stroke:black;" points="424,107 414,112 419,102 424,107"/>
</g>
<g id="node5" class="node"><title>sbegin</title>
<polygon style="fill:lightsteelblue;stroke:black;" points="511,77 465,77 465,95 511,95 511,77"/>
<text text-anchor="middle" style="font-family:Helvetica;font-size:10.00;" x="488" y="89">sbegin</text>
</g>
<g id="edge23" class="edge"><title>sbegin&#45;&gt;transeq</title>
<path style="fill:none;stroke:black;" d="M465,96C456,100 445,104 435,108"/>
<polygon style="fill:black;stroke:black;" points="437,111 426,112 434,105 437,111"/>
</g>
<g id="node6" class="node"><title>msfFormat</title>
<polygon style="fill:lightsteelblue;stroke:black;" points="93,77 29,77 29,95 93,95 93,77"/>
<text text-anchor="middle" style="font-family:Helvetica;font-size:10.00;" x="61" y="89">msfFormat</text>
</g>
<g id="node13" class="node"><title>formatSequences</title>
<polygon style="fill:lightgoldenrodyellow;stroke:black;" points="99,113 5,113 5,131 99,131 99,113"/>
<text text-anchor="middle" style="font-family:Helvetica;font-size:10.00;" x="52" y="125">formatSequences</text>
</g>
<g id="edge35" class="edge"><title>msfFormat&#45;&gt;formatSequences</title>
<path style="fill:none;stroke:black;" d="M59,96C59,98 58,100 57,102"/>
<polygon style="fill:black;stroke:black;" points="60,103 55,112 54,102 60,103"/>
</g>
<g id="node7" class="node"><title>transeqSequenceID</title>
<polygon style="fill:lightsteelblue;stroke:black;" points="419,77 315,77 315,95 419,95 419,77"/>
<text text-anchor="middle" style="font-family:Helvetica;font-size:10.00;" x="367" y="89">transeqSequenceID</text>
</g>
<g id="edge21" class="edge"><title>transeqSequenceID&#45;&gt;transeq</title>
<path style="fill:none;stroke:black;" d="M377,96C380,99 383,102 387,105"/>
<polygon style="fill:black;stroke:black;" points="389,102 394,112 384,107 389,102"/>
</g>
<g id="node8" class="node"><title>prophet</title>
<polygon style="fill:lightgoldenrodyellow;stroke:black;" points="216,149 166,149 166,167 216,167 216,149"/>
<text text-anchor="middle" style="font-family:Helvetica;font-size:10.00;" x="191" y="161">prophet</text>
</g>
<g id="node19" class="node"><title>WORKFLOWINTERNALSINK_prophetOutput</title>
<polygon style="fill:#bcd2ee;stroke:black;" points="231,204 151,204 151,222 231,222 231,204"/>
<text text-anchor="middle" style="font-family:Helvetica;font-size:10.00;" x="191" y="216">prophetOutput</text>
</g>
<g id="edge27" class="edge"><title>prophet&#45;&gt;WORKFLOWINTERNALSINK_prophetOutput</title>
<path style="fill:none;stroke:black;" d="M191,168C191,175 191,184 191,193"/>
<polygon style="fill:black;stroke:black;" points="195,193 191,203 188,193 195,193"/>
</g>
<g id="edge17" class="edge"><title>prophecy&#45;&gt;prophet</title>
<path style="fill:none;stroke:black;" d="M188,132C188,134 188,136 188,138"/>
<polygon style="fill:black;stroke:black;" points="191,138 190,148 185,139 191,138"/>
</g>
<g id="node10" class="node"><title>tmap</title>
<polygon style="fill:lightgoldenrodyellow;stroke:black;" points="71,149 33,149 33,167 71,167 71,149"/>
<text text-anchor="middle" style="font-family:Helvetica;font-size:10.00;" x="52" y="161">tmap</text>
</g>
<g id="node20" class="node"><title>WORKFLOWINTERNALSINK_tmapPlot</title>
<polygon style="fill:#bcd2ee;stroke:black;" points="81,204 25,204 25,222 81,222 81,204"/>
<text text-anchor="middle" style="font-family:Helvetica;font-size:10.00;" x="53" y="216">tmapPlot</text>
</g>
<g id="edge29" class="edge"><title>tmap&#45;&gt;WORKFLOWINTERNALSINK_tmapPlot</title>
<path style="fill:none;stroke:black;" d="M52,168C52,175 52,184 52,193"/>
<polygon style="fill:black;stroke:black;" points="55,193 53,203 49,193 55,193"/>
</g>
<g id="edge31" class="edge"><title>seqret1&#45;&gt;formatSequences</title>
<path style="fill:none;stroke:black;" d="M45,60C38,64 31,69 27,76 23,84 24,88 27,96 28,99 30,102 32,104"/>
<polygon style="fill:black;stroke:black;" points="35,102 39,112 30,107 35,102"/>
</g>
<g id="node14" class="node"><title>emma</title>
<polygon style="fill:lightgoldenrodyellow;stroke:black;" points="141,77 97,77 97,95 141,95 141,77"/>
<text text-anchor="middle" style="font-family:Helvetica;font-size:10.00;" x="119" y="89">emma</text>
</g>
<g id="edge5" class="edge"><title>seqret1&#45;&gt;emma</title>
<path style="fill:none;stroke:black;" d="M83,60C87,63 93,67 97,70"/>
<polygon style="fill:black;stroke:black;" points="100,68 106,76 96,73 100,68"/>
</g>
<g id="edge19" class="edge"><title>transeq&#45;&gt;prophet</title>
<path style="fill:none;stroke:black;" d="M379,126C341,132 269,145 226,152"/>
<polygon style="fill:black;stroke:black;" points="226,155 216,154 225,149 226,155"/>
</g>
<g id="edge33" class="edge"><title>formatSequences&#45;&gt;tmap</title>
<path style="fill:none;stroke:black;" d="M52,132C52,134 52,136 52,138"/>
<polygon style="fill:black;stroke:black;" points="56,138 52,148 49,138 56,138"/>
</g>
<g id="edge11" class="edge"><title>emma&#45;&gt;prophecy</title>
<path style="fill:none;stroke:black;" d="M137,96C144,100 152,104 160,107"/>
<polygon style="fill:black;stroke:black;" points="162,104 169,112 159,110 162,104"/>
</g>
<g id="node15" class="node"><title>plot</title>
<polygon style="fill:lightgoldenrodyellow;stroke:black;" points="135,113 103,113 103,131 135,131 135,113"/>
<text text-anchor="middle" style="font-family:Helvetica;font-size:10.00;" x="119" y="125">plot</text>
</g>
<g id="edge7" class="edge"><title>emma&#45;&gt;plot</title>
<path style="fill:none;stroke:black;" d="M119,96C119,98 119,100 119,102"/>
<polygon style="fill:black;stroke:black;" points="123,102 119,112 116,102 123,102"/>
</g>
<g id="node18" class="node"><title>WORKFLOWINTERNALSINK_outputPlot</title>
<polygon style="fill:#bcd2ee;stroke:black;" points="147,204 85,204 85,222 147,222 147,204"/>
<text text-anchor="middle" style="font-family:Helvetica;font-size:10.00;" x="116" y="216">outputPlot</text>
</g>
<g id="edge9" class="edge"><title>plot&#45;&gt;WORKFLOWINTERNALSINK_outputPlot</title>
<path style="fill:none;stroke:black;" d="M119,132C118,146 117,174 117,193"/>
<polygon style="fill:black;stroke:black;" points="120,193 116,203 114,193 120,193"/>
</g>
<g id="node17" class="node"><title>WORKFLOWINTERNALSINKCONTROL</title>
<polygon style="fill:#6acd00;stroke:black;" points="242,220 249,210 235,210 242,220"/>
</g>
</g>
</svg>
