<?xml version="1.0" encoding="UTF-8" standalone="no"?>
<!DOCTYPE svg PUBLIC "-//W3C//DTD SVG 1.0//EN"
 "http://www.w3.org/TR/2001/REC-SVG-20010904/DTD/svg10.dtd">
<!-- Generated by dot version 2.2 (Fri Mar 11 00:51:40 UTC 2005)
     For user: (root) root   Title: scufl_graph    Pages: 1 -->
<svg width="135pt" height="147pt"
 viewBox = "-1 -1 134 146"
 xmlns="http://www.w3.org/2000/svg">
<g id="graph0" class="graph" style="font-family:Times-Roman;font-size:14.00;">
<title>scufl_graph</title>
<g id="graph2" class="cluster"><title>cluster_sinks</title>
<polygon style="fill:none;stroke:black;stroke-dasharray:1,5;" points="24,123 120,123 120,68 24,68 24,123"/>
<text text-anchor="middle" style="font-family:Helvetica;font-size:10.00;" x="72" y="80">Workflow Outputs</text>
</g>
<g id="node1" class="node"><title>String_Constant</title>
<polygon style="fill:lightsteelblue;stroke:black;" points="107,5 19,5 19,23 107,23 107,5"/>
<text text-anchor="middle" style="font-family:Helvetica;font-size:10.00;" x="63" y="17">String_Constant</text>
</g>
<g id="node2" class="node"><title>Get_image_from_URL</title>
<polygon style="fill:#ce5fee;stroke:black;" points="121,41 5,41 5,59 121,59 121,41"/>
<text text-anchor="middle" style="font-family:Helvetica;font-size:10.00;" x="63" y="53">Get_image_from_URL</text>
</g>
<g id="edge3" class="edge"><title>String_Constant&#45;&gt;Get_image_from_URL</title>
<path style="fill:none;stroke:black;" d="M63,24C63,26 63,28 63,30"/>
<polygon style="fill:black;stroke:black;" points="67,30 63,40 60,30 67,30"/>
</g>
<g id="node5" class="node"><title>WORKFLOWINTERNALSINK_viz</title>
<polygon style="fill:#bcd2ee;stroke:black;" points="78,96 48,96 48,114 78,114 78,96"/>
<text text-anchor="middle" style="font-family:Helvetica;font-size:10.00;" x="63" y="108">viz</text>
</g>
<g id="edge5" class="edge"><title>Get_image_from_URL&#45;&gt;WORKFLOWINTERNALSINK_viz</title>
<path style="fill:none;stroke:black;" d="M63,60C63,67 63,76 63,85"/>
<polygon style="fill:black;stroke:black;" points="67,85 63,95 60,85 67,85"/>
</g>
<g id="node4" class="node"><title>WORKFLOWINTERNALSINKCONTROL</title>
<polygon style="fill:#6acd00;stroke:black;" points="97,112 104,102 90,102 97,112"/>
</g>
</g>
</svg>
