<?xml version="1.0" encoding="UTF-8" standalone="no"?>
<!DOCTYPE svg PUBLIC "-//W3C//DTD SVG 1.0//EN"
 "http://www.w3.org/TR/2001/REC-SVG-20010904/DTD/svg10.dtd">
<!-- Generated by dot version 2.2 (Fri Mar 11 00:51:40 UTC 2005)
     For user: (root) root   Title: scufl_graph    Pages: 1 -->
<svg width="1266pt" height="254pt"
 viewBox = "-1 -1 1265 253"
 xmlns="http://www.w3.org/2000/svg">
<g id="graph0" class="graph" style="font-family:Times-Roman;font-size:14.00;">
<title>scufl_graph</title>
<g id="graph2" class="cluster"><title>cluster_sources</title>
<polygon style="fill:none;stroke:black;stroke-dasharray:1,5;" points="101,67 761,67 761,12 101,12 101,67"/>
<text text-anchor="middle" style="font-family:Helvetica;font-size:10.00;" x="145" y="24">Workflow Inputs</text>
</g>
<g id="graph3" class="cluster"><title>cluster_sinks</title>
<polygon style="fill:none;stroke:black;stroke-dasharray:1,5;" points="291,230 1251,230 1251,175 291,175 291,230"/>
<text text-anchor="middle" style="font-family:Helvetica;font-size:10.00;" x="339" y="187">Workflow Outputs</text>
</g>
<g id="node1" class="node"><title>Split_sample1</title>
<polygon style="fill:#ce5fee;stroke:black;" points="249,76 171,76 171,94 249,94 249,76"/>
<text text-anchor="middle" style="font-family:Helvetica;font-size:10.00;" x="210" y="88">Split_sample1</text>
</g>
<g id="node3" class="node"><title>AffyDataAnalysis</title>
<polygon style="fill:lightgoldenrodyellow;stroke:black;" points="458,112 364,112 364,130 458,130 458,112"/>
<text text-anchor="middle" style="font-family:Helvetica;font-size:10.00;" x="411" y="124">AffyDataAnalysis</text>
</g>
<g id="edge20" class="edge"><title>Split_sample1&#45;&gt;AffyDataAnalysis</title>
<path style="fill:none;stroke:black;" d="M249,92C279,97 320,105 354,111"/>
<polygon style="fill:black;stroke:black;" points="355,108 364,113 354,114 355,108"/>
</g>
<g id="node2" class="node"><title>Split_sample2</title>
<polygon style="fill:#ce5fee;stroke:black;" points="167,76 89,76 89,94 167,94 167,76"/>
<text text-anchor="middle" style="font-family:Helvetica;font-size:10.00;" x="128" y="88">Split_sample2</text>
</g>
<g id="edge22" class="edge"><title>Split_sample2&#45;&gt;AffyDataAnalysis</title>
<path style="fill:none;stroke:black;" d="M166,95C167,95 168,95 169,95 232,106 305,113 354,117"/>
<polygon style="fill:black;stroke:black;" points="354,114 364,118 354,120 354,114"/>
</g>
<g id="node5" class="node"><title>Nested_Workflow</title>
<polygon style="fill:crimson;stroke:black;" points="808,148 714,148 714,166 808,166 808,148"/>
<text text-anchor="middle" style="font-family:Helvetica;font-size:10.00;" x="761" y="160">Nested_Workflow</text>
</g>
<g id="edge30" class="edge"><title>AffyDataAnalysis&#45;&gt;Nested_Workflow</title>
<path style="fill:none;stroke:black;" d="M458,126C522,133 635,144 704,151"/>
<polygon style="fill:black;stroke:black;" points="704,148 714,152 704,154 704,148"/>
</g>
<g id="node19" class="node"><title>WORKFLOWINTERNALSINK_hist</title>
<polygon style="fill:#bcd2ee;stroke:black;" points="331,203 299,203 299,221 331,221 331,203"/>
<text text-anchor="middle" style="font-family:Helvetica;font-size:10.00;" x="315" y="215">hist</text>
</g>
<g id="edge36" class="edge"><title>AffyDataAnalysis&#45;&gt;WORKFLOWINTERNALSINK_hist</title>
<path style="fill:none;stroke:black;" d="M388,131C365,142 354,151 333,175 329,181 326,187 323,193"/>
<polygon style="fill:black;stroke:black;" points="326,194 319,202 320,191 326,194"/>
</g>
<g id="node20" class="node"><title>WORKFLOWINTERNALSINK_boxNorm</title>
<polygon style="fill:#bcd2ee;stroke:black;" points="391,203 335,203 335,221 391,221 391,203"/>
<text text-anchor="middle" style="font-family:Helvetica;font-size:10.00;" x="363" y="215">boxNorm</text>
</g>
<g id="edge34" class="edge"><title>AffyDataAnalysis&#45;&gt;WORKFLOWINTERNALSINK_boxNorm</title>
<path style="fill:none;stroke:black;" d="M406,131C398,145 383,174 373,193"/>
<polygon style="fill:black;stroke:black;" points="376,195 368,202 370,192 376,195"/>
</g>
<g id="node21" class="node"><title>WORKFLOWINTERNALSINK_pca</title>
<polygon style="fill:#bcd2ee;stroke:black;" points="427,203 395,203 395,221 427,221 427,203"/>
<text text-anchor="middle" style="font-family:Helvetica;font-size:10.00;" x="411" y="215">pca</text>
</g>
<g id="edge38" class="edge"><title>AffyDataAnalysis&#45;&gt;WORKFLOWINTERNALSINK_pca</title>
<path style="fill:none;stroke:black;" d="M411,131C411,145 411,173 411,192"/>
<polygon style="fill:black;stroke:black;" points="415,192 411,202 408,192 415,192"/>
</g>
<g id="node22" class="node"><title>WORKFLOWINTERNALSINK_geneID</title>
<polygon style="fill:#bcd2ee;stroke:black;" points="479,203 431,203 431,221 479,221 479,203"/>
<text text-anchor="middle" style="font-family:Helvetica;font-size:10.00;" x="455" y="215">geneID</text>
</g>
<g id="edge32" class="edge"><title>AffyDataAnalysis&#45;&gt;WORKFLOWINTERNALSINK_geneID</title>
<path style="fill:none;stroke:black;" d="M416,131C423,145 437,174 446,193"/>
<polygon style="fill:black;stroke:black;" points="449,191 450,202 443,194 449,191"/>
</g>
<g id="node4" class="node"><title>String_Constant</title>
<polygon style="fill:lightsteelblue;stroke:black;" points="93,40 5,40 5,58 93,58 93,40"/>
<text text-anchor="middle" style="font-family:Helvetica;font-size:10.00;" x="49" y="52">String_Constant</text>
</g>
<g id="edge24" class="edge"><title>String_Constant&#45;&gt;Split_sample1</title>
<path style="fill:none;stroke:black;" d="M72,59C81,62 91,65 100,67 127,73 137,71 161,74"/>
<polygon style="fill:black;stroke:black;" points="161,71 171,75 161,77 161,71"/>
</g>
<g id="edge26" class="edge"><title>String_Constant&#45;&gt;Split_sample2</title>
<path style="fill:none;stroke:black;" d="M70,59C79,63 89,67 98,71"/>
<polygon style="fill:black;stroke:black;" points="99,68 107,75 96,74 99,68"/>
</g>
<g id="node23" class="node"><title>WORKFLOWINTERNALSINK_pathway_description</title>
<polygon style="fill:#bcd2ee;stroke:black;" points="765,203 659,203 659,221 765,221 765,203"/>
<text text-anchor="middle" style="font-family:Helvetica;font-size:10.00;" x="712" y="215">pathway_description</text>
</g>
<g id="edge48" class="edge"><title>Nested_Workflow&#45;&gt;WORKFLOWINTERNALSINK_pathway_description</title>
<path style="fill:none;stroke:black;" d="M752,167C745,175 735,185 727,195"/>
<polygon style="fill:black;stroke:black;" points="730,197 720,202 725,192 730,197"/>
</g>
<g id="node24" class="node"><title>WORKFLOWINTERNALSINK_merged_pathways</title>
<polygon style="fill:#bcd2ee;stroke:black;" points="655,203 557,203 557,221 655,221 655,203"/>
<text text-anchor="middle" style="font-family:Helvetica;font-size:10.00;" x="606" y="215">merged_pathways</text>
</g>
<g id="edge46" class="edge"><title>Nested_Workflow&#45;&gt;WORKFLOWINTERNALSINK_merged_pathways</title>
<path style="fill:none;stroke:black;" d="M714,163C691,166 667,171 657,175 645,180 633,188 624,196"/>
<polygon style="fill:black;stroke:black;" points="626,199 616,202 622,193 626,199"/>
</g>
<g id="node25" class="node"><title>WORKFLOWINTERNALSINK_pathway_list</title>
<polygon style="fill:#bcd2ee;stroke:black;" points="553,203 483,203 483,221 553,221 553,203"/>
<text text-anchor="middle" style="font-family:Helvetica;font-size:10.00;" x="518" y="215">pathway_list</text>
</g>
<g id="edge50" class="edge"><title>Nested_Workflow&#45;&gt;WORKFLOWINTERNALSINK_pathway_list</title>
<path style="fill:none;stroke:black;" d="M714,160C657,163 568,169 555,175 546,179 537,187 531,194"/>
<polygon style="fill:black;stroke:black;" points="533,197 524,202 528,192 533,197"/>
</g>
<g id="node26" class="node"><title>WORKFLOWINTERNALSINK_gene_descriptions</title>
<polygon style="fill:#bcd2ee;stroke:black;" points="1225,203 1127,203 1127,221 1225,221 1225,203"/>
<text text-anchor="middle" style="font-family:Helvetica;font-size:10.00;" x="1176" y="215">gene_descriptions</text>
</g>
<g id="edge42" class="edge"><title>Nested_Workflow&#45;&gt;WORKFLOWINTERNALSINK_gene_descriptions</title>
<path style="fill:none;stroke:black;" d="M808,158C900,160 1095,165 1125,175 1137,180 1149,188 1158,196"/>
<polygon style="fill:black;stroke:black;" points="1160,193 1166,202 1156,199 1160,193"/>
</g>
<g id="node27" class="node"><title>WORKFLOWINTERNALSINK_ensembl_database_release</title>
<polygon style="fill:#bcd2ee;stroke:black;" points="1123,203 985,203 985,221 1123,221 1123,203"/>
<text text-anchor="middle" style="font-family:Helvetica;font-size:10.00;" x="1054" y="215">ensembl_database_release</text>
</g>
<g id="edge40" class="edge"><title>Nested_Workflow&#45;&gt;WORKFLOWINTERNALSINK_ensembl_database_release</title>
<path style="fill:none;stroke:black;" d="M808,159C863,161 951,166 983,175 1000,180 1017,189 1031,197"/>
<polygon style="fill:black;stroke:black;" points="1033,194 1040,202 1030,200 1033,194"/>
</g>
<g id="node28" class="node"><title>WORKFLOWINTERNALSINK_KEGG_pathway_release</title>
<polygon style="fill:#bcd2ee;stroke:black;" points="981,203 855,203 855,221 981,221 981,203"/>
<text text-anchor="middle" style="font-family:Helvetica;font-size:10.00;" x="918" y="215">KEGG_pathway_release</text>
</g>
<g id="edge44" class="edge"><title>Nested_Workflow&#45;&gt;WORKFLOWINTERNALSINK_KEGG_pathway_release</title>
<path style="fill:none;stroke:black;" d="M808,164C823,166 839,170 853,175 868,181 883,189 895,197"/>
<polygon style="fill:black;stroke:black;" points="897,194 904,202 894,200 897,194"/>
</g>
<g id="node29" class="node"><title>WORKFLOWINTERNALSINK_BioMart_report</title>
<polygon style="fill:#bcd2ee;stroke:black;" points="851,203 769,203 769,221 851,221 851,203"/>
<text text-anchor="middle" style="font-family:Helvetica;font-size:10.00;" x="810" y="215">BioMart_report</text>
</g>
<g id="edge52" class="edge"><title>Nested_Workflow&#45;&gt;WORKFLOWINTERNALSINK_BioMart_report</title>
<path style="fill:none;stroke:black;" d="M770,167C777,175 787,185 795,195"/>
<polygon style="fill:black;stroke:black;" points="797,192 802,202 792,197 797,192"/>
</g>
<g id="node7" class="node"><title>WORKFLOWINTERNALSOURCECONTROL</title>
<polygon style="fill:#ff3f3f;stroke:black;" points="746,42 739,52 753,52 746,42"/>
</g>
<g id="node8" class="node"><title>WORKFLOWINTERNALSOURCE_arrayTypeAffy</title>
<polygon style="fill:skyblue;stroke:black;" points="389,40 311,40 311,58 389,58 389,40"/>
<text text-anchor="middle" style="font-family:Helvetica;font-size:10.00;" x="350" y="52">arrayTypeAffy</text>
</g>
<g id="edge6" class="edge"><title>WORKFLOWINTERNALSOURCE_arrayTypeAffy&#45;&gt;AffyDataAnalysis</title>
<path style="fill:none;stroke:black;" d="M358,59C368,70 384,89 396,103"/>
<polygon style="fill:black;stroke:black;" points="399,101 403,111 394,106 399,101"/>
</g>
<g id="node9" class="node"><title>WORKFLOWINTERNALSOURCE_path</title>
<polygon style="fill:skyblue;stroke:black;" points="429,40 393,40 393,58 429,58 429,40"/>
<text text-anchor="middle" style="font-family:Helvetica;font-size:10.00;" x="411" y="52">path</text>
</g>
<g id="edge14" class="edge"><title>WORKFLOWINTERNALSOURCE_path&#45;&gt;AffyDataAnalysis</title>
<path style="fill:none;stroke:black;" d="M411,59C411,69 411,87 411,101"/>
<polygon style="fill:black;stroke:black;" points="415,101 411,111 408,101 415,101"/>
</g>
<g id="node10" class="node"><title>WORKFLOWINTERNALSOURCE_NormalizationMethod</title>
<polygon style="fill:skyblue;stroke:black;" points="543,40 433,40 433,58 543,58 543,40"/>
<text text-anchor="middle" style="font-family:Helvetica;font-size:10.00;" x="488" y="52">NormalizationMethod</text>
</g>
<g id="edge4" class="edge"><title>WORKFLOWINTERNALSOURCE_NormalizationMethod&#45;&gt;AffyDataAnalysis</title>
<path style="fill:none;stroke:black;" d="M478,59C465,70 444,90 429,104"/>
<polygon style="fill:black;stroke:black;" points="431,107 421,111 426,102 431,107"/>
</g>
<g id="node11" class="node"><title>WORKFLOWINTERNALSOURCE_testMethod</title>
<polygon style="fill:skyblue;stroke:black;" points="613,40 547,40 547,58 613,58 613,40"/>
<text text-anchor="middle" style="font-family:Helvetica;font-size:10.00;" x="580" y="52">testMethod</text>
</g>
<g id="edge18" class="edge"><title>WORKFLOWINTERNALSOURCE_testMethod&#45;&gt;AffyDataAnalysis</title>
<path style="fill:none;stroke:black;" d="M562,59C556,61 550,64 545,67 508,86 492,98 464,108"/>
<polygon style="fill:black;stroke:black;" points="466,111 455,111 463,105 466,111"/>
</g>
<g id="node12" class="node"><title>WORKFLOWINTERNALSOURCE_pValue</title>
<polygon style="fill:skyblue;stroke:black;" points="663,40 617,40 617,58 663,58 663,40"/>
<text text-anchor="middle" style="font-family:Helvetica;font-size:10.00;" x="640" y="52">pValue</text>
</g>
<g id="edge12" class="edge"><title>WORKFLOWINTERNALSOURCE_pValue&#45;&gt;AffyDataAnalysis</title>
<path style="fill:none;stroke:black;" d="M628,59C624,62 620,65 615,67 554,98 535,105 468,118"/>
<polygon style="fill:black;stroke:black;" points="468,121 458,120 467,115 468,121"/>
</g>
<g id="node13" class="node"><title>WORKFLOWINTERNALSOURCE_foldChange</title>
<polygon style="fill:skyblue;stroke:black;" points="735,40 667,40 667,58 735,58 735,40"/>
<text text-anchor="middle" style="font-family:Helvetica;font-size:10.00;" x="701" y="52">foldChange</text>
</g>
<g id="edge8" class="edge"><title>WORKFLOWINTERNALSOURCE_foldChange&#45;&gt;AffyDataAnalysis</title>
<path style="fill:none;stroke:black;" d="M683,59C678,62 671,65 665,67 583,102 560,109 472,119 471,119 470,119 468,119"/>
<polygon style="fill:black;stroke:black;" points="468,122 458,120 468,116 468,122"/>
</g>
<g id="node14" class="node"><title>WORKFLOWINTERNALSOURCE_geneNumber</title>
<polygon style="fill:skyblue;stroke:black;" points="307,40 233,40 233,58 307,58 307,40"/>
<text text-anchor="middle" style="font-family:Helvetica;font-size:10.00;" x="270" y="52">geneNumber</text>
</g>
<g id="edge10" class="edge"><title>WORKFLOWINTERNALSOURCE_geneNumber&#45;&gt;AffyDataAnalysis</title>
<path style="fill:none;stroke:black;" d="M283,59C301,71 333,91 366,107"/>
<polygon style="fill:black;stroke:black;" points="368,104 376,111 365,111 368,104"/>
</g>
<g id="node15" class="node"><title>WORKFLOWINTERNALSOURCE_samples1</title>
<polygon style="fill:skyblue;stroke:black;" points="229,40 171,40 171,58 229,58 229,40"/>
<text text-anchor="middle" style="font-family:Helvetica;font-size:10.00;" x="200" y="52">samples1</text>
</g>
<g id="edge16" class="edge"><title>WORKFLOWINTERNALSOURCE_samples1&#45;&gt;Split_sample1</title>
<path style="fill:none;stroke:black;" d="M203,59C203,61 204,63 205,65"/>
<polygon style="fill:black;stroke:black;" points="208,65 207,75 202,66 208,65"/>
</g>
<g id="node16" class="node"><title>WORKFLOWINTERNALSOURCE_samples2</title>
<polygon style="fill:skyblue;stroke:black;" points="167,40 109,40 109,58 167,58 167,40"/>
<text text-anchor="middle" style="font-family:Helvetica;font-size:10.00;" x="138" y="52">samples2</text>
</g>
<g id="edge28" class="edge"><title>WORKFLOWINTERNALSOURCE_samples2&#45;&gt;Split_sample2</title>
<path style="fill:none;stroke:black;" d="M135,59C135,61 134,63 133,65"/>
<polygon style="fill:black;stroke:black;" points="136,66 131,75 130,65 136,66"/>
</g>
<g id="node18" class="node"><title>WORKFLOWINTERNALSINKCONTROL</title>
<polygon style="fill:#6acd00;stroke:black;" points="1236,219 1243,209 1229,209 1236,219"/>
</g>
</g>
</svg>
