<?xml version="1.0" encoding="UTF-8" standalone="no"?>
<!DOCTYPE svg PUBLIC "-//W3C//DTD SVG 1.0//EN"
 "http://www.w3.org/TR/2001/REC-SVG-20010904/DTD/svg10.dtd">
<!-- Generated by dot version 2.2 (Fri Mar 11 00:51:40 UTC 2005)
     For user: (root) root   Title: scufl_graph    Pages: 1 -->
<svg width="180pt" height="182pt"
 viewBox = "-1 -1 179 181"
 xmlns="http://www.w3.org/2000/svg">
<g id="graph0" class="graph" style="font-family:Times-Roman;font-size:14.00;">
<title>scufl_graph</title>
<g id="graph2" class="cluster"><title>cluster_sources</title>
<polygon style="fill:none;stroke:black;stroke-dasharray:1,5;" points="13,67 165,67 165,12 13,12 13,67"/>
<text text-anchor="middle" style="font-family:Helvetica;font-size:10.00;" x="57" y="24">Workflow Inputs</text>
</g>
<g id="graph3" class="cluster"><title>cluster_sinks</title>
<polygon style="fill:none;stroke:black;stroke-dasharray:1,5;" points="40,158 136,158 136,103 40,103 40,158"/>
<text text-anchor="middle" style="font-family:Helvetica;font-size:10.00;" x="88" y="115">Workflow Outputs</text>
</g>
<g id="node1" class="node"><title>Clone</title>
<polygon style="fill:#eec391;stroke:black;" points="100,76 58,76 58,94 100,94 100,76"/>
<text text-anchor="middle" style="font-family:Helvetica;font-size:10.00;" x="79" y="88">Clone</text>
</g>
<g id="node8" class="node"><title>WORKFLOWINTERNALSINK_clones</title>
<polygon style="fill:#bcd2ee;stroke:black;" points="101,131 57,131 57,149 101,149 101,131"/>
<text text-anchor="middle" style="font-family:Helvetica;font-size:10.00;" x="79" y="143">clones</text>
</g>
<g id="edge8" class="edge"><title>Clone&#45;&gt;WORKFLOWINTERNALSINK_clones</title>
<path style="fill:none;stroke:black;" d="M79,95C79,102 79,111 79,120"/>
<polygon style="fill:black;stroke:black;" points="83,120 79,130 76,120 83,120"/>
</g>
<g id="node3" class="node"><title>WORKFLOWINTERNALSOURCECONTROL</title>
<polygon style="fill:#ff3f3f;stroke:black;" points="150,42 143,52 157,52 150,42"/>
</g>
<g id="node4" class="node"><title>WORKFLOWINTERNALSOURCE_copy_number</title>
<polygon style="fill:skyblue;stroke:black;" points="139,40 63,40 63,58 139,58 139,40"/>
<text text-anchor="middle" style="font-family:Helvetica;font-size:10.00;" x="101" y="52">copy_number</text>
</g>
<g id="edge4" class="edge"><title>WORKFLOWINTERNALSOURCE_copy_number&#45;&gt;Clone</title>
<path style="fill:none;stroke:black;" d="M95,59C94,61 92,64 90,66"/>
<polygon style="fill:black;stroke:black;" points="93,68 85,75 87,65 93,68"/>
</g>
<g id="node5" class="node"><title>WORKFLOWINTERNALSOURCE_input</title>
<polygon style="fill:skyblue;stroke:black;" points="59,40 21,40 21,58 59,58 59,40"/>
<text text-anchor="middle" style="font-family:Helvetica;font-size:10.00;" x="40" y="52">input</text>
</g>
<g id="edge6" class="edge"><title>WORKFLOWINTERNALSOURCE_input&#45;&gt;Clone</title>
<path style="fill:none;stroke:black;" d="M51,59C54,62 57,65 61,68"/>
<polygon style="fill:black;stroke:black;" points="64,66 69,75 59,71 64,66"/>
</g>
<g id="node7" class="node"><title>WORKFLOWINTERNALSINKCONTROL</title>
<polygon style="fill:#6acd00;stroke:black;" points="116,147 123,137 109,137 116,147"/>
</g>
</g>
</svg>
