<?xml version="1.0" encoding="UTF-8" standalone="no"?>
<!DOCTYPE svg PUBLIC "-//W3C//DTD SVG 1.0//EN"
 "http://www.w3.org/TR/2001/REC-SVG-20010904/DTD/svg10.dtd">
<!-- Generated by dot version 2.2 (Fri Mar 11 00:51:40 UTC 2005)
     For user: (root) root   Title: scufl_graph    Pages: 1 -->
<svg width="184pt" height="218pt"
 viewBox = "-1 -1 183 217"
 xmlns="http://www.w3.org/2000/svg">
<g id="graph0" class="graph" style="font-family:Times-Roman;font-size:14.00;">
<title>scufl_graph</title>
<g id="graph2" class="cluster"><title>cluster_sources</title>
<polygon style="fill:none;stroke:black;stroke-dasharray:1,5;" points="47,67 136,67 136,12 47,12 47,67"/>
<text text-anchor="middle" style="font-family:Helvetica;font-size:10.00;" x="91" y="24">Workflow Inputs</text>
</g>
<g id="graph3" class="cluster"><title>cluster_sinks</title>
<polygon style="fill:none;stroke:black;stroke-dasharray:1,5;" points="13,194 169,194 169,139 13,139 13,194"/>
<text text-anchor="middle" style="font-family:Helvetica;font-size:10.00;" x="61" y="151">Workflow Outputs</text>
</g>
<g id="node1" class="node"><title>Remove_duplicate_strings</title>
<polygon style="fill:#ce5fee;stroke:black;" points="149,112 15,112 15,130 149,130 149,112"/>
<text text-anchor="middle" style="font-family:Helvetica;font-size:10.00;" x="82" y="124">Remove_duplicate_strings</text>
</g>
<g id="node8" class="node"><title>WORKFLOWINTERNALSINK_flattened_unique_output</title>
<polygon style="fill:#bcd2ee;stroke:black;" points="143,167 21,167 21,185 143,185 143,167"/>
<text text-anchor="middle" style="font-family:Helvetica;font-size:10.00;" x="82" y="179">flattened_unique_output</text>
</g>
<g id="edge8" class="edge"><title>Remove_duplicate_strings&#45;&gt;WORKFLOWINTERNALSINK_flattened_unique_output</title>
<path style="fill:none;stroke:black;" d="M82,131C82,138 82,147 82,156"/>
<polygon style="fill:black;stroke:black;" points="86,156 82,166 79,156 86,156"/>
</g>
<g id="node2" class="node"><title>Flatten_list</title>
<polygon style="fill:#ce5fee;stroke:black;" points="114,76 50,76 50,94 114,94 114,76"/>
<text text-anchor="middle" style="font-family:Helvetica;font-size:10.00;" x="82" y="88">Flatten_list</text>
</g>
<g id="edge6" class="edge"><title>Flatten_list&#45;&gt;Remove_duplicate_strings</title>
<path style="fill:none;stroke:black;" d="M82,95C82,97 82,99 82,101"/>
<polygon style="fill:black;stroke:black;" points="86,101 82,111 79,101 86,101"/>
</g>
<g id="node4" class="node"><title>WORKFLOWINTERNALSOURCECONTROL</title>
<polygon style="fill:#ff3f3f;stroke:black;" points="116,42 109,52 123,52 116,42"/>
</g>
<g id="node5" class="node"><title>WORKFLOWINTERNALSOURCE_input</title>
<polygon style="fill:skyblue;stroke:black;" points="101,40 63,40 63,58 101,58 101,40"/>
<text text-anchor="middle" style="font-family:Helvetica;font-size:10.00;" x="82" y="52">input</text>
</g>
<g id="edge4" class="edge"><title>WORKFLOWINTERNALSOURCE_input&#45;&gt;Flatten_list</title>
<path style="fill:none;stroke:black;" d="M82,59C82,61 82,63 82,65"/>
<polygon style="fill:black;stroke:black;" points="86,65 82,75 79,65 86,65"/>
</g>
<g id="node7" class="node"><title>WORKFLOWINTERNALSINKCONTROL</title>
<polygon style="fill:#6acd00;stroke:black;" points="154,183 161,173 147,173 154,183"/>
</g>
</g>
</svg>
