<?xml version="1.0" encoding="UTF-8" standalone="no"?>
<!DOCTYPE svg PUBLIC "-//W3C//DTD SVG 1.0//EN"
 "http://www.w3.org/TR/2001/REC-SVG-20010904/DTD/svg10.dtd">
<!-- Generated by dot version 2.2 (Fri Mar 11 00:51:40 UTC 2005)
     For user: (root) root   Title: scufl_graph    Pages: 1 -->
<svg width="231pt" height="254pt"
 viewBox = "-1 -1 230 253"
 xmlns="http://www.w3.org/2000/svg">
<g id="graph0" class="graph" style="font-family:Times-Roman;font-size:14.00;">
<title>scufl_graph</title>
<g id="graph2" class="cluster"><title>cluster_sources</title>
<polygon style="fill:none;stroke:black;stroke-dasharray:1,5;" points="127,67 216,67 216,12 127,12 127,67"/>
<text text-anchor="middle" style="font-family:Helvetica;font-size:10.00;" x="171" y="24">Workflow Inputs</text>
</g>
<g id="graph3" class="cluster"><title>cluster_sinks</title>
<polygon style="fill:none;stroke:black;stroke-dasharray:1,5;" points="39,230 139,230 139,175 39,175 39,230"/>
<text text-anchor="middle" style="font-family:Helvetica;font-size:10.00;" x="87" y="187">Workflow Outputs</text>
</g>
<g id="node1" class="node"><title>RCSBSuffix</title>
<polygon style="fill:lightsteelblue;stroke:black;" points="75,76 5,76 5,94 75,94 75,76"/>
<text text-anchor="middle" style="font-family:Helvetica;font-size:10.00;" x="40" y="88">RCSBSuffix</text>
</g>
<g id="node4" class="node"><title>AddSuffix</title>
<polygon style="fill:#ce5fee;stroke:black;" points="110,112 50,112 50,130 110,130 110,112"/>
<text text-anchor="middle" style="font-family:Helvetica;font-size:10.00;" x="80" y="124">AddSuffix</text>
</g>
<g id="edge10" class="edge"><title>RCSBSuffix&#45;&gt;AddSuffix</title>
<path style="fill:none;stroke:black;" d="M51,95C54,98 58,101 62,104"/>
<polygon style="fill:black;stroke:black;" points="64,101 69,111 59,106 64,101"/>
</g>
<g id="node2" class="node"><title>RCSBPrefix</title>
<polygon style="fill:lightsteelblue;stroke:black;" points="119,40 49,40 49,58 119,58 119,40"/>
<text text-anchor="middle" style="font-family:Helvetica;font-size:10.00;" x="84" y="52">RCSBPrefix</text>
</g>
<g id="node5" class="node"><title>AddPrefixToID</title>
<polygon style="fill:#ce5fee;stroke:black;" points="161,76 79,76 79,94 161,94 161,76"/>
<text text-anchor="middle" style="font-family:Helvetica;font-size:10.00;" x="120" y="88">AddPrefixToID</text>
</g>
<g id="edge4" class="edge"><title>RCSBPrefix&#45;&gt;AddPrefixToID</title>
<path style="fill:none;stroke:black;" d="M94,59C97,62 100,65 103,68"/>
<polygon style="fill:black;stroke:black;" points="105,65 110,75 100,70 105,65"/>
</g>
<g id="node3" class="node"><title>FetchPage</title>
<polygon style="fill:#ce5fee;stroke:black;" points="112,148 48,148 48,166 112,166 112,148"/>
<text text-anchor="middle" style="font-family:Helvetica;font-size:10.00;" x="80" y="160">FetchPage</text>
</g>
<g id="node11" class="node"><title>WORKFLOWINTERNALSINK_pdbFlatFile</title>
<polygon style="fill:#bcd2ee;stroke:black;" points="113,203 47,203 47,221 113,221 113,203"/>
<text text-anchor="middle" style="font-family:Helvetica;font-size:10.00;" x="80" y="215">pdbFlatFile</text>
</g>
<g id="edge14" class="edge"><title>FetchPage&#45;&gt;WORKFLOWINTERNALSINK_pdbFlatFile</title>
<path style="fill:none;stroke:black;" d="M80,167C80,174 80,183 80,192"/>
<polygon style="fill:black;stroke:black;" points="84,192 80,202 77,192 84,192"/>
</g>
<g id="edge12" class="edge"><title>AddSuffix&#45;&gt;FetchPage</title>
<path style="fill:none;stroke:black;" d="M80,131C80,133 80,135 80,137"/>
<polygon style="fill:black;stroke:black;" points="84,137 80,147 77,137 84,137"/>
</g>
<g id="edge8" class="edge"><title>AddPrefixToID&#45;&gt;AddSuffix</title>
<path style="fill:none;stroke:black;" d="M109,95C106,98 102,101 98,104"/>
<polygon style="fill:black;stroke:black;" points="101,106 91,111 96,101 101,106"/>
</g>
<g id="node7" class="node"><title>WORKFLOWINTERNALSOURCECONTROL</title>
<polygon style="fill:#ff3f3f;stroke:black;" points="194,42 187,52 201,52 194,42"/>
</g>
<g id="node8" class="node"><title>WORKFLOWINTERNALSOURCE_pdbID</title>
<polygon style="fill:skyblue;stroke:black;" points="177,40 135,40 135,58 177,58 177,40"/>
<text text-anchor="middle" style="font-family:Helvetica;font-size:10.00;" x="156" y="52">pdbID</text>
</g>
<g id="edge6" class="edge"><title>WORKFLOWINTERNALSOURCE_pdbID&#45;&gt;AddPrefixToID</title>
<path style="fill:none;stroke:black;" d="M146,59C143,62 140,65 137,68"/>
<polygon style="fill:black;stroke:black;" points="140,70 130,75 135,65 140,70"/>
</g>
<g id="node10" class="node"><title>WORKFLOWINTERNALSINKCONTROL</title>
<polygon style="fill:#6acd00;stroke:black;" points="124,219 131,209 117,209 124,219"/>
</g>
</g>
</svg>
