<?xml version="1.0" encoding="UTF-8" standalone="no"?>
<!DOCTYPE svg PUBLIC "-//W3C//DTD SVG 1.0//EN"
 "http://www.w3.org/TR/2001/REC-SVG-20010904/DTD/svg10.dtd">
<!-- Generated by dot version 2.2 (Fri Mar 11 00:51:40 UTC 2005)
     For user: (root) root   Title: scufl_graph    Pages: 1 -->
<svg width="124pt" height="183pt"
 viewBox = "-1 -1 123 182"
 xmlns="http://www.w3.org/2000/svg">
<g id="graph0" class="graph" style="font-family:Times-Roman;font-size:14.00;">
<title>scufl_graph</title>
<g id="graph2" class="cluster"><title>cluster_sinks</title>
<polygon style="fill:none;stroke:black;stroke-dasharray:1,5;" points="13,159 109,159 109,104 13,104 13,159"/>
<text text-anchor="middle" style="font-family:Helvetica;font-size:10.00;" x="61" y="116">Workflow Outputs</text>
</g>
<g id="node1" class="node"><title>cleanOutput</title>
<polygon style="fill:#eec391;stroke:black;" points="87,77 17,77 17,95 87,95 87,77"/>
<text text-anchor="middle" style="font-family:Helvetica;font-size:10.00;" x="52" y="89">cleanOutput</text>
</g>
<g id="node6" class="node"><title>WORKFLOWINTERNALSINK_csv</title>
<polygon style="fill:#bcd2ee;stroke:black;" points="68,132 36,132 36,150 68,150 68,132"/>
<text text-anchor="middle" style="font-family:Helvetica;font-size:10.00;" x="52" y="144">csv</text>
</g>
<g id="edge5" class="edge"><title>cleanOutput&#45;&gt;WORKFLOWINTERNALSINK_csv</title>
<path style="fill:none;stroke:black;" d="M52,96C52,103 52,112 52,121"/>
<polygon style="fill:black;stroke:black;" points="56,121 52,131 49,121 56,121"/>
</g>
<g id="node2" class="node"><title>queryMaxd</title>
<polygon style="fill:#a3cd5a;stroke:black;" points="85,41 19,41 19,59 85,59 85,41"/>
<text text-anchor="middle" style="font-family:Helvetica;font-size:10.00;" x="52" y="53">queryMaxd</text>
</g>
<g id="edge7" class="edge"><title>queryMaxd&#45;&gt;cleanOutput</title>
<path style="fill:none;stroke:black;" d="M52,60C52,62 52,64 52,66"/>
<polygon style="fill:black;stroke:black;" points="56,66 52,76 49,66 56,66"/>
</g>
<g id="node3" class="node"><title>datasetName</title>
<polygon style="fill:lightsteelblue;stroke:black;" points="90,5 14,5 14,23 90,23 90,5"/>
<text text-anchor="middle" style="font-family:Helvetica;font-size:10.00;" x="52" y="17">datasetName</text>
</g>
<g id="edge3" class="edge"><title>datasetName&#45;&gt;queryMaxd</title>
<path style="fill:none;stroke:black;" d="M52,24C52,26 52,28 52,30"/>
<polygon style="fill:black;stroke:black;" points="56,30 52,40 49,30 56,30"/>
</g>
<g id="node5" class="node"><title>WORKFLOWINTERNALSINKCONTROL</title>
<polygon style="fill:#6acd00;stroke:black;" points="86,148 93,138 79,138 86,148"/>
</g>
</g>
</svg>
