<?xml version="1.0" encoding="UTF-8" standalone="no"?>
<!DOCTYPE svg PUBLIC "-//W3C//DTD SVG 1.0//EN"
 "http://www.w3.org/TR/2001/REC-SVG-20010904/DTD/svg10.dtd">
<!-- Generated by dot version 2.2 (Fri Mar 11 00:51:40 UTC 2005)
     For user: (root) root   Title: scufl_graph    Pages: 1 -->
<svg width="355pt" height="434pt"
 viewBox = "-1 -1 354 433"
 xmlns="http://www.w3.org/2000/svg">
<g id="graph0" class="graph" style="font-family:Times-Roman;font-size:14.00;">
<title>scufl_graph</title>
<g id="graph2" class="cluster"><title>cluster_sources</title>
<polygon style="fill:none;stroke:black;stroke-dasharray:1,5;" points="177,67 279,67 279,12 177,12 177,67"/>
<text text-anchor="middle" style="font-family:Helvetica;font-size:10.00;" x="221" y="24">Workflow Inputs</text>
</g>
<g id="graph3" class="cluster"><title>cluster_sinks</title>
<polygon style="fill:none;stroke:black;stroke-dasharray:1,5;" points="89,410 275,410 275,355 89,355 89,410"/>
<text text-anchor="middle" style="font-family:Helvetica;font-size:10.00;" x="137" y="367">Workflow Outputs</text>
</g>
<g id="node1" class="node"><title>splitOn_protein_molecule_regexp</title>
<polygon style="fill:lightsteelblue;stroke:black;" points="169,40 5,40 5,58 169,58 169,40"/>
<text text-anchor="middle" style="font-family:Helvetica;font-size:10.00;" x="87" y="52">splitOn_protein_molecule_regexp</text>
</g>
<g id="node3" class="node"><title>SplitOn_protein_molecule</title>
<polygon style="fill:#ce5fee;stroke:black;" points="192,76 62,76 62,94 192,94 192,76"/>
<text text-anchor="middle" style="font-family:Helvetica;font-size:10.00;" x="127" y="88">SplitOn_protein_molecule</text>
</g>
<g id="edge26" class="edge"><title>splitOn_protein_molecule_regexp&#45;&gt;SplitOn_protein_molecule</title>
<path style="fill:none;stroke:black;" d="M98,59C101,62 105,65 109,68"/>
<polygon style="fill:black;stroke:black;" points="111,65 116,75 106,70 111,65"/>
</g>
<g id="node2" class="node"><title>Remove_duplicate_strings</title>
<polygon style="fill:#ce5fee;stroke:black;" points="242,148 108,148 108,166 242,166 242,148"/>
<text text-anchor="middle" style="font-family:Helvetica;font-size:10.00;" x="175" y="160">Remove_duplicate_strings</text>
</g>
<g id="node11" class="node"><title>Strip_xml</title>
<polygon style="fill:#eec391;stroke:black;" points="204,184 146,184 146,202 204,202 204,184"/>
<text text-anchor="middle" style="font-family:Helvetica;font-size:10.00;" x="175" y="196">Strip_xml</text>
</g>
<g id="edge12" class="edge"><title>Remove_duplicate_strings&#45;&gt;Strip_xml</title>
<path style="fill:none;stroke:black;" d="M175,167C175,169 175,171 175,173"/>
<polygon style="fill:black;stroke:black;" points="179,173 175,183 172,173 179,173"/>
</g>
<g id="node8" class="node"><title>Filter_protein_molecules</title>
<polygon style="fill:#ce5fee;stroke:black;" points="237,112 113,112 113,130 237,130 237,112"/>
<text text-anchor="middle" style="font-family:Helvetica;font-size:10.00;" x="175" y="124">Filter_protein_molecules</text>
</g>
<g id="edge14" class="edge"><title>SplitOn_protein_molecule&#45;&gt;Filter_protein_molecules</title>
<path style="fill:none;stroke:black;" d="M140,95C144,98 149,102 154,105"/>
<polygon style="fill:black;stroke:black;" points="156,102 162,111 152,108 156,102"/>
</g>
<g id="node4" class="node"><title>filter_protein_molecule_regexp</title>
<polygon style="fill:lightsteelblue;stroke:black;" points="348,76 196,76 196,94 348,94 348,76"/>
<text text-anchor="middle" style="font-family:Helvetica;font-size:10.00;" x="272" y="88">filter_protein_molecule_regexp</text>
</g>
<g id="edge22" class="edge"><title>filter_protein_molecule_regexp&#45;&gt;Filter_protein_molecules</title>
<path style="fill:none;stroke:black;" d="M246,95C235,99 222,103 211,108"/>
<polygon style="fill:black;stroke:black;" points="212,111 201,111 210,105 212,111"/>
</g>
<g id="node5" class="node"><title>Filter2</title>
<polygon style="fill:#ce5fee;stroke:black;" points="172,328 128,328 128,346 172,346 172,328"/>
<text text-anchor="middle" style="font-family:Helvetica;font-size:10.00;" x="150" y="340">Filter2</text>
</g>
<g id="node17" class="node"><title>WORKFLOWINTERNALSINK_protein_molecule</title>
<polygon style="fill:#bcd2ee;stroke:black;" points="189,383 97,383 97,401 189,401 189,383"/>
<text text-anchor="middle" style="font-family:Helvetica;font-size:10.00;" x="143" y="395">protein_molecule</text>
</g>
<g id="edge30" class="edge"><title>Filter2&#45;&gt;WORKFLOWINTERNALSINK_protein_molecule</title>
<path style="fill:none;stroke:black;" d="M149,347C148,354 147,364 146,372"/>
<polygon style="fill:black;stroke:black;" points="149,373 144,382 143,372 149,373"/>
</g>
<g id="node6" class="node"><title>UniProtOrNot</title>
<polygon style="fill:#eec391;stroke:black;" points="190,256 114,256 114,274 190,274 190,256"/>
<text text-anchor="middle" style="font-family:Helvetica;font-size:10.00;" x="152" y="268">UniProtOrNot</text>
</g>
<g id="node9" class="node"><title>FilterTrueProteinByUniProtID</title>
<polygon style="fill:#eec391;stroke:black;" points="246,292 102,292 102,310 246,310 246,292"/>
<text text-anchor="middle" style="font-family:Helvetica;font-size:10.00;" x="174" y="304">FilterTrueProteinByUniProtID</text>
</g>
<g id="edge20" class="edge"><title>UniProtOrNot&#45;&gt;FilterTrueProteinByUniProtID</title>
<path style="fill:none;stroke:black;" d="M158,275C159,277 161,280 163,282"/>
<polygon style="fill:black;stroke:black;" points="166,281 168,291 160,284 166,281"/>
</g>
<g id="node7" class="node"><title>getUniprotID</title>
<polygon style="fill:#a3cd5a;stroke:black;" points="189,220 117,220 117,238 189,238 189,220"/>
<text text-anchor="middle" style="font-family:Helvetica;font-size:10.00;" x="153" y="232">getUniprotID</text>
</g>
<g id="edge24" class="edge"><title>getUniprotID&#45;&gt;UniProtOrNot</title>
<path style="fill:none;stroke:black;" d="M153,239C153,241 153,243 153,245"/>
<polygon style="fill:black;stroke:black;" points="156,245 152,255 150,245 156,245"/>
</g>
<g id="edge10" class="edge"><title>Filter_protein_molecules&#45;&gt;Remove_duplicate_strings</title>
<path style="fill:none;stroke:black;" d="M175,131C175,133 175,135 175,137"/>
<polygon style="fill:black;stroke:black;" points="179,137 175,147 172,137 179,137"/>
</g>
<g id="edge6" class="edge"><title>FilterTrueProteinByUniProtID&#45;&gt;Filter2</title>
<path style="fill:none;stroke:black;" d="M167,311C166,313 164,316 162,319"/>
<polygon style="fill:black;stroke:black;" points="165,321 156,327 159,317 165,321"/>
</g>
<g id="node10" class="node"><title>Filter1</title>
<polygon style="fill:#ce5fee;stroke:black;" points="235,328 191,328 191,346 235,346 235,328"/>
<text text-anchor="middle" style="font-family:Helvetica;font-size:10.00;" x="213" y="340">Filter1</text>
</g>
<g id="edge8" class="edge"><title>FilterTrueProteinByUniProtID&#45;&gt;Filter1</title>
<path style="fill:none;stroke:black;" d="M185,311C188,314 191,317 195,320"/>
<polygon style="fill:black;stroke:black;" points="198,318 203,327 193,323 198,318"/>
</g>
<g id="node18" class="node"><title>WORKFLOWINTERNALSINK_uniprotID</title>
<polygon style="fill:#bcd2ee;stroke:black;" points="249,383 193,383 193,401 249,401 249,383"/>
<text text-anchor="middle" style="font-family:Helvetica;font-size:10.00;" x="221" y="395">uniprotID</text>
</g>
<g id="edge28" class="edge"><title>Filter1&#45;&gt;WORKFLOWINTERNALSINK_uniprotID</title>
<path style="fill:none;stroke:black;" d="M214,347C215,354 217,364 218,372"/>
<polygon style="fill:black;stroke:black;" points="221,372 220,382 215,373 221,372"/>
</g>
<g id="edge18" class="edge"><title>Strip_xml&#45;&gt;getUniprotID</title>
<path style="fill:none;stroke:black;" d="M169,203C168,205 166,208 164,210"/>
<polygon style="fill:black;stroke:black;" points="167,212 159,219 161,209 167,212"/>
</g>
<g id="edge16" class="edge"><title>Strip_xml&#45;&gt;FilterTrueProteinByUniProtID</title>
<path style="fill:none;stroke:black;" d="M182,203C186,207 189,213 191,219 198,243 199,252 192,275 191,278 190,280 189,282"/>
<polygon style="fill:black;stroke:black;" points="191,285 183,291 186,281 191,285"/>
</g>
<g id="node13" class="node"><title>WORKFLOWINTERNALSOURCECONTROL</title>
<polygon style="fill:#ff3f3f;stroke:black;" points="264,42 257,52 271,52 264,42"/>
</g>
<g id="node14" class="node"><title>WORKFLOWINTERNALSOURCE_input_string</title>
<polygon style="fill:skyblue;stroke:black;" points="253,40 185,40 185,58 253,58 253,40"/>
<text text-anchor="middle" style="font-family:Helvetica;font-size:10.00;" x="219" y="52">input_string</text>
</g>
<g id="edge4" class="edge"><title>WORKFLOWINTERNALSOURCE_input_string&#45;&gt;SplitOn_protein_molecule</title>
<path style="fill:none;stroke:black;" d="M202,59C197,62 191,65 185,67 181,69 177,70 173,72"/>
<polygon style="fill:black;stroke:black;" points="174,75 163,75 172,69 174,75"/>
</g>
<g id="node16" class="node"><title>WORKFLOWINTERNALSINKCONTROL</title>
<polygon style="fill:#6acd00;stroke:black;" points="260,399 267,389 253,389 260,399"/>
</g>
</g>
</svg>
