<?xml version="1.0" encoding="UTF-8" standalone="no"?>
<!DOCTYPE svg PUBLIC "-//W3C//DTD SVG 1.0//EN"
 "http://www.w3.org/TR/2001/REC-SVG-20010904/DTD/svg10.dtd">
<!-- Generated by dot version 2.2 (Fri Mar 11 00:51:40 UTC 2005)
     For user: (root) root   Title: scufl_graph    Pages: 1 -->
<svg width="176pt" height="248pt"
 viewBox = "-1 -1 175 247"
 xmlns="http://www.w3.org/2000/svg">
<g id="graph0" class="graph" style="font-family:Times-Roman;font-size:14.00;">
<title>scufl_graph</title>
<g id="node1" class="node"><title>SearchByMass</title>
<polygon style="fill:#a3cd5a;stroke:black;" points="126,77 42,77 42,95 126,95 126,77"/>
<text text-anchor="middle" style="font-family:Helvetica;font-size:10.00;" x="84" y="89">SearchByMass</text>
</g>
<g id="node5" class="node"><title>parametersXML1</title>
<polygon style="fill:#ce5fee;stroke:black;" points="130,113 38,113 38,131 130,131 130,113"/>
<text text-anchor="middle" style="font-family:Helvetica;font-size:10.00;" x="84" y="125">parametersXML1</text>
</g>
<g id="edge8" class="edge"><title>SearchByMass&#45;&gt;parametersXML1</title>
<path style="fill:none;stroke:black;" d="M84,96C84,98 84,100 84,102"/>
<polygon style="fill:black;stroke:black;" points="88,102 84,112 81,102 88,102"/>
</g>
<g id="node2" class="node"><title>parametersXML</title>
<polygon style="fill:#ce5fee;stroke:black;" points="128,41 40,41 40,59 128,59 128,41"/>
<text text-anchor="middle" style="font-family:Helvetica;font-size:10.00;" x="84" y="53">parametersXML</text>
</g>
<g id="edge14" class="edge"><title>parametersXML&#45;&gt;SearchByMass</title>
<path style="fill:none;stroke:black;" d="M84,60C84,62 84,64 84,66"/>
<polygon style="fill:black;stroke:black;" points="88,66 84,76 81,66 88,66"/>
</g>
<g id="node3" class="node"><title>Mass_Range</title>
<polygon style="fill:lightsteelblue;stroke:black;" points="79,5 5,5 5,23 79,23 79,5"/>
<text text-anchor="middle" style="font-family:Helvetica;font-size:10.00;" x="42" y="17">Mass_Range</text>
</g>
<g id="edge6" class="edge"><title>Mass_Range&#45;&gt;parametersXML</title>
<path style="fill:none;stroke:black;" d="M53,24C57,27 61,30 65,34"/>
<polygon style="fill:black;stroke:black;" points="67,31 73,40 63,37 67,31"/>
</g>
<g id="node4" class="node"><title>Accurate_Mass</title>
<polygon style="fill:lightsteelblue;stroke:black;" points="169,5 83,5 83,23 169,23 169,5"/>
<text text-anchor="middle" style="font-family:Helvetica;font-size:10.00;" x="126" y="17">Accurate_Mass</text>
</g>
<g id="edge2" class="edge"><title>Accurate_Mass&#45;&gt;parametersXML</title>
<path style="fill:none;stroke:black;" d="M115,24C111,27 107,30 103,34"/>
<polygon style="fill:black;stroke:black;" points="105,37 95,40 101,31 105,37"/>
</g>
<g id="node7" class="node"><title>parametersXML2</title>
<polygon style="fill:#ce5fee;stroke:black;" points="130,149 38,149 38,167 130,167 130,149"/>
<text text-anchor="middle" style="font-family:Helvetica;font-size:10.00;" x="84" y="161">parametersXML2</text>
</g>
<g id="edge10" class="edge"><title>parametersXML1&#45;&gt;parametersXML2</title>
<path style="fill:none;stroke:black;" d="M84,132C84,134 84,136 84,138"/>
<polygon style="fill:black;stroke:black;" points="88,138 84,148 81,138 88,138"/>
</g>
<g id="node6" class="node"><title>GetCompoundDetails</title>
<polygon style="fill:#a3cd5a;stroke:black;" points="140,185 28,185 28,203 140,203 140,185"/>
<text text-anchor="middle" style="font-family:Helvetica;font-size:10.00;" x="84" y="197">GetCompoundDetails</text>
</g>
<g id="node8" class="node"><title>parametersXML3</title>
<polygon style="fill:#ce5fee;stroke:black;" points="130,221 38,221 38,239 130,239 130,221"/>
<text text-anchor="middle" style="font-family:Helvetica;font-size:10.00;" x="84" y="233">parametersXML3</text>
</g>
<g id="edge4" class="edge"><title>GetCompoundDetails&#45;&gt;parametersXML3</title>
<path style="fill:none;stroke:black;" d="M84,204C84,206 84,208 84,210"/>
<polygon style="fill:black;stroke:black;" points="88,210 84,220 81,210 88,210"/>
</g>
<g id="edge12" class="edge"><title>parametersXML2&#45;&gt;GetCompoundDetails</title>
<path style="fill:none;stroke:black;" d="M84,168C84,170 84,172 84,174"/>
<polygon style="fill:black;stroke:black;" points="88,174 84,184 81,174 88,174"/>
</g>
</g>
</svg>
