<?xml version="1.0" encoding="UTF-8" standalone="no"?>
<!DOCTYPE svg PUBLIC "-//W3C//DTD SVG 1.0//EN"
 "http://www.w3.org/TR/2001/REC-SVG-20010904/DTD/svg10.dtd">
<!-- Generated by dot version 2.2 (Fri Mar 11 00:51:40 UTC 2005)
     For user: (root) root   Title: scufl_graph    Pages: 1 -->
<svg width="261pt" height="542pt"
 viewBox = "-1 -1 260 541"
 xmlns="http://www.w3.org/2000/svg">
<g id="graph0" class="graph" style="font-family:Times-Roman;font-size:14.00;">
<title>scufl_graph</title>
<g id="graph2" class="cluster"><title>cluster_sources</title>
<polygon style="fill:none;stroke:black;stroke-dasharray:1,5;" points="148,67 246,67 246,12 148,12 148,67"/>
<text text-anchor="middle" style="font-family:Helvetica;font-size:10.00;" x="192" y="24">Workflow Inputs</text>
</g>
<g id="graph3" class="cluster"><title>cluster_sinks</title>
<polygon style="fill:none;stroke:black;stroke-dasharray:1,5;" points="84,518 180,518 180,463 84,463 84,518"/>
<text text-anchor="middle" style="font-family:Helvetica;font-size:10.00;" x="132" y="475">Workflow Outputs</text>
</g>
<g id="node1" class="node"><title>String_Constant</title>
<polygon style="fill:lightsteelblue;stroke:black;" points="93,76 5,76 5,94 93,94 93,76"/>
<text text-anchor="middle" style="font-family:Helvetica;font-size:10.00;" x="49" y="88">String_Constant</text>
</g>
<g id="node5" class="node"><title>parametersXML1</title>
<polygon style="fill:#ce5fee;stroke:black;" points="141,112 49,112 49,130 141,130 141,112"/>
<text text-anchor="middle" style="font-family:Helvetica;font-size:10.00;" x="95" y="124">parametersXML1</text>
</g>
<g id="edge4" class="edge"><title>String_Constant&#45;&gt;parametersXML1</title>
<path style="fill:none;stroke:black;" d="M62,95C66,98 70,102 75,105"/>
<polygon style="fill:black;stroke:black;" points="77,102 83,111 73,108 77,102"/>
</g>
<g id="node2" class="node"><title>XPath_From_Text</title>
<polygon style="fill:#ce5fee;stroke:black;" points="171,400 75,400 75,418 171,418 171,400"/>
<text text-anchor="middle" style="font-family:Helvetica;font-size:10.00;" x="123" y="412">XPath_From_Text</text>
</g>
<g id="node4" class="node"><title>merge</title>
<polygon style="fill:#ce5fee;stroke:black;" points="145,436 101,436 101,454 145,454 145,436"/>
<text text-anchor="middle" style="font-family:Helvetica;font-size:10.00;" x="123" y="448">merge</text>
</g>
<g id="edge6" class="edge"><title>XPath_From_Text&#45;&gt;merge</title>
<path style="fill:none;stroke:black;" d="M123,419C123,421 123,423 123,425"/>
<polygon style="fill:black;stroke:black;" points="127,425 123,435 120,425 127,425"/>
</g>
<g id="node3" class="node"><title>xpath</title>
<polygon style="fill:lightsteelblue;stroke:black;" points="172,364 130,364 130,382 172,382 172,364"/>
<text text-anchor="middle" style="font-family:Helvetica;font-size:10.00;" x="151" y="376">xpath</text>
</g>
<g id="edge30" class="edge"><title>xpath&#45;&gt;XPath_From_Text</title>
<path style="fill:none;stroke:black;" d="M143,383C141,385 139,388 136,391"/>
<polygon style="fill:black;stroke:black;" points="139,393 130,399 133,389 139,393"/>
</g>
<g id="node20" class="node"><title>WORKFLOWINTERNALSINK_synonyms</title>
<polygon style="fill:#bcd2ee;stroke:black;" points="154,491 92,491 92,509 154,509 154,491"/>
<text text-anchor="middle" style="font-family:Helvetica;font-size:10.00;" x="123" y="503">synonyms</text>
</g>
<g id="edge32" class="edge"><title>merge&#45;&gt;WORKFLOWINTERNALSINK_synonyms</title>
<path style="fill:none;stroke:black;" d="M123,455C123,462 123,471 123,480"/>
<polygon style="fill:black;stroke:black;" points="127,480 123,490 120,480 127,480"/>
</g>
<g id="node10" class="node"><title>getLiteEntity</title>
<polygon style="fill:#a3cd5a;stroke:black;" points="131,148 59,148 59,166 131,166 131,148"/>
<text text-anchor="middle" style="font-family:Helvetica;font-size:10.00;" x="95" y="160">getLiteEntity</text>
</g>
<g id="edge12" class="edge"><title>parametersXML1&#45;&gt;getLiteEntity</title>
<path style="fill:none;stroke:black;" d="M95,131C95,133 95,135 95,137"/>
<polygon style="fill:black;stroke:black;" points="99,137 95,147 92,137 99,137"/>
</g>
<g id="node6" class="node"><title>returnXML1</title>
<polygon style="fill:#ce5fee;stroke:black;" points="129,256 61,256 61,274 129,274 129,256"/>
<text text-anchor="middle" style="font-family:Helvetica;font-size:10.00;" x="95" y="268">returnXML1</text>
</g>
<g id="node9" class="node"><title>parametersXML</title>
<polygon style="fill:#ce5fee;stroke:black;" points="139,292 51,292 51,310 139,310 139,292"/>
<text text-anchor="middle" style="font-family:Helvetica;font-size:10.00;" x="95" y="304">parametersXML</text>
</g>
<g id="edge20" class="edge"><title>returnXML1&#45;&gt;parametersXML</title>
<path style="fill:none;stroke:black;" d="M95,275C95,277 95,279 95,281"/>
<polygon style="fill:black;stroke:black;" points="99,281 95,291 92,281 99,281"/>
</g>
<g id="node7" class="node"><title>resultXML1</title>
<polygon style="fill:#ce5fee;stroke:black;" points="128,184 62,184 62,202 128,202 128,184"/>
<text text-anchor="middle" style="font-family:Helvetica;font-size:10.00;" x="95" y="196">resultXML1</text>
</g>
<g id="node8" class="node"><title>returnXML</title>
<polygon style="fill:#ce5fee;stroke:black;" points="126,220 64,220 64,238 126,238 126,220"/>
<text text-anchor="middle" style="font-family:Helvetica;font-size:10.00;" x="95" y="232">returnXML</text>
</g>
<g id="edge16" class="edge"><title>resultXML1&#45;&gt;returnXML</title>
<path style="fill:none;stroke:black;" d="M95,203C95,205 95,207 95,209"/>
<polygon style="fill:black;stroke:black;" points="99,209 95,219 92,209 99,209"/>
</g>
<g id="edge22" class="edge"><title>returnXML&#45;&gt;returnXML1</title>
<path style="fill:none;stroke:black;" d="M95,239C95,241 95,243 95,245"/>
<polygon style="fill:black;stroke:black;" points="99,245 95,255 92,245 99,245"/>
</g>
<g id="node14" class="node"><title>getCompleteEntity</title>
<polygon style="fill:#a3cd5a;stroke:black;" points="144,328 46,328 46,346 144,346 144,328"/>
<text text-anchor="middle" style="font-family:Helvetica;font-size:10.00;" x="95" y="340">getCompleteEntity</text>
</g>
<g id="edge14" class="edge"><title>parametersXML&#45;&gt;getCompleteEntity</title>
<path style="fill:none;stroke:black;" d="M95,311C95,313 95,315 95,317"/>
<polygon style="fill:black;stroke:black;" points="99,317 95,327 92,317 99,317"/>
</g>
<g id="edge10" class="edge"><title>getLiteEntity&#45;&gt;resultXML1</title>
<path style="fill:none;stroke:black;" d="M95,167C95,169 95,171 95,173"/>
<polygon style="fill:black;stroke:black;" points="99,173 95,183 92,173 99,173"/>
</g>
<g id="node11" class="node"><title>split_search_list</title>
<polygon style="fill:#ce5fee;stroke:black;" points="185,76 97,76 97,94 185,94 185,76"/>
<text text-anchor="middle" style="font-family:Helvetica;font-size:10.00;" x="141" y="88">split_search_list</text>
</g>
<g id="edge28" class="edge"><title>split_search_list&#45;&gt;parametersXML1</title>
<path style="fill:none;stroke:black;" d="M128,95C124,98 120,102 115,105"/>
<polygon style="fill:black;stroke:black;" points="117,108 107,111 113,102 117,108"/>
</g>
<g id="node12" class="node"><title>String_Constant1</title>
<polygon style="fill:lightsteelblue;stroke:black;" points="140,40 46,40 46,58 140,58 140,40"/>
<text text-anchor="middle" style="font-family:Helvetica;font-size:10.00;" x="93" y="52">String_Constant1</text>
</g>
<g id="edge26" class="edge"><title>String_Constant1&#45;&gt;split_search_list</title>
<path style="fill:none;stroke:black;" d="M106,59C110,62 115,66 120,69"/>
<polygon style="fill:black;stroke:black;" points="122,66 128,75 118,72 122,66"/>
</g>
<g id="node13" class="node"><title>resultXML</title>
<polygon style="fill:#ce5fee;stroke:black;" points="126,364 64,364 64,382 126,382 126,364"/>
<text text-anchor="middle" style="font-family:Helvetica;font-size:10.00;" x="95" y="376">resultXML</text>
</g>
<g id="edge18" class="edge"><title>resultXML&#45;&gt;XPath_From_Text</title>
<path style="fill:none;stroke:black;" d="M103,383C105,385 107,388 109,391"/>
<polygon style="fill:black;stroke:black;" points="112,389 116,399 107,394 112,389"/>
</g>
<g id="edge8" class="edge"><title>getCompleteEntity&#45;&gt;resultXML</title>
<path style="fill:none;stroke:black;" d="M95,347C95,349 95,351 95,353"/>
<polygon style="fill:black;stroke:black;" points="99,353 95,363 92,353 99,353"/>
</g>
<g id="node16" class="node"><title>WORKFLOWINTERNALSOURCECONTROL</title>
<polygon style="fill:#ff3f3f;stroke:black;" points="231,42 224,52 238,52 231,42"/>
</g>
<g id="node17" class="node"><title>WORKFLOWINTERNALSOURCE_search_list</title>
<polygon style="fill:skyblue;stroke:black;" points="220,40 156,40 156,58 220,58 220,40"/>
<text text-anchor="middle" style="font-family:Helvetica;font-size:10.00;" x="188" y="52">search_list</text>
</g>
<g id="edge24" class="edge"><title>WORKFLOWINTERNALSOURCE_search_list&#45;&gt;split_search_list</title>
<path style="fill:none;stroke:black;" d="M175,59C171,62 166,66 161,69"/>
<polygon style="fill:black;stroke:black;" points="163,72 153,75 159,66 163,72"/>
</g>
<g id="node19" class="node"><title>WORKFLOWINTERNALSINKCONTROL</title>
<polygon style="fill:#6acd00;stroke:black;" points="165,507 172,497 158,497 165,507"/>
</g>
</g>
</svg>
