<?xml version="1.0" encoding="UTF-8" standalone="no"?>
<!DOCTYPE svg PUBLIC "-//W3C//DTD SVG 1.0//EN"
 "http://www.w3.org/TR/2001/REC-SVG-20010904/DTD/svg10.dtd">
<!-- Generated by dot version 2.2 (Fri Mar 11 00:51:40 UTC 2005)
     For user: (root) root   Title: scufl_graph    Pages: 1 -->
<svg width="290pt" height="380pt"
 viewBox = "-1 -1 289 379"
 xmlns="http://www.w3.org/2000/svg">
<g id="graph0" class="graph" style="font-family:Times-Roman;font-size:14.00;">
<title>scufl_graph</title>
<g id="graph2" class="cluster"><title>cluster_Nested_Workflow1Nested_Workflow1</title>
<polygon style="fill:aliceblue;stroke:black;" points="163,356 275,356 275,175 163,175 163,356"/>
<text text-anchor="middle" style="font-family:Helvetica;font-size:10.00;" x="213" y="187">Nested_Workflow1</text>
</g>
<g id="graph3" class="cluster"><title>cluster_Nested_Workflow1sources</title>
<polygon style="fill:none;stroke:black;stroke-dasharray:1,5;" points="174,257 263,257 263,202 174,202 174,257"/>
<text text-anchor="middle" style="font-family:Helvetica;font-size:10.00;" x="218" y="214">Workflow Inputs</text>
</g>
<g id="graph4" class="cluster"><title>cluster_Nested_Workflow1sinks</title>
<polygon style="fill:none;stroke:black;stroke-dasharray:1,5;" points="171,348 267,348 267,293 171,293 171,348"/>
<text text-anchor="middle" style="font-family:Helvetica;font-size:10.00;" x="219" y="305">Workflow Outputs</text>
</g>
<g id="graph5" class="cluster"><title>cluster_sources</title>
<polygon style="fill:none;stroke:black;stroke-dasharray:1,5;" points="145,67 239,67 239,12 145,12 145,67"/>
<text text-anchor="middle" style="font-family:Helvetica;font-size:10.00;" x="189" y="24">Workflow Inputs</text>
</g>
<g id="graph6" class="cluster"><title>cluster_sinks</title>
<polygon style="fill:none;stroke:black;stroke-dasharray:1,5;" points="39,348 155,348 155,293 39,293 39,348"/>
<text text-anchor="middle" style="font-family:Helvetica;font-size:10.00;" x="87" y="305">Workflow Outputs</text>
</g>
<g id="node1" class="node"><title>contentXML</title>
<polygon style="fill:#ce5fee;stroke:black;" points="218,112 148,112 148,130 218,130 218,112"/>
<text text-anchor="middle" style="font-family:Helvetica;font-size:10.00;" x="183" y="124">contentXML</text>
</g>
<g id="node4" class="node"><title>runNCBIBlast</title>
<polygon style="fill:#a3cd5a;stroke:black;" points="185,148 109,148 109,166 185,166 185,148"/>
<text text-anchor="middle" style="font-family:Helvetica;font-size:10.00;" x="147" y="160">runNCBIBlast</text>
</g>
<g id="edge13" class="edge"><title>contentXML&#45;&gt;runNCBIBlast</title>
<path style="fill:none;stroke:black;" d="M173,131C170,134 167,137 164,140"/>
<polygon style="fill:black;stroke:black;" points="167,142 157,147 162,137 167,142"/>
</g>
<g id="node2" class="node"><title>paramsXML</title>
<polygon style="fill:#ce5fee;stroke:black;" points="144,112 74,112 74,130 144,130 144,112"/>
<text text-anchor="middle" style="font-family:Helvetica;font-size:10.00;" x="109" y="124">paramsXML</text>
</g>
<g id="edge15" class="edge"><title>paramsXML&#45;&gt;runNCBIBlast</title>
<path style="fill:none;stroke:black;" d="M119,131C122,134 126,137 130,140"/>
<polygon style="fill:black;stroke:black;" points="132,137 137,147 127,142 132,137"/>
</g>
<g id="node3" class="node"><title>WSArrayofDataXML</title>
<polygon style="fill:#ce5fee;stroke:black;" points="236,76 130,76 130,94 236,94 236,76"/>
<text text-anchor="middle" style="font-family:Helvetica;font-size:10.00;" x="183" y="88">WSArrayofDataXML</text>
</g>
<g id="edge11" class="edge"><title>WSArrayofDataXML&#45;&gt;contentXML</title>
<path style="fill:none;stroke:black;" d="M183,95C183,97 183,99 183,101"/>
<polygon style="fill:black;stroke:black;" points="187,101 183,111 180,101 187,101"/>
</g>
<g id="node5" class="node"><title>poll</title>
<polygon style="fill:#a3cd5a;stroke:black;" points="83,230 51,230 51,248 83,248 83,230"/>
<text text-anchor="middle" style="font-family:Helvetica;font-size:10.00;" x="67" y="242">poll</text>
</g>
<g id="edge25" class="edge"><title>runNCBIBlast&#45;&gt;poll</title>
<path style="fill:none;stroke:black;" d="M138,167C124,180 99,205 83,222"/>
<polygon style="fill:black;stroke:black;" points="86,224 76,229 81,219 86,224"/>
</g>
<g id="node10" class="node"><title>Nested_Workflow1WORKFLOWINTERNALSOURCE_job</title>
<polygon style="fill:skyblue;stroke:black;" points="216,230 186,230 186,248 216,248 216,230"/>
<text text-anchor="middle" style="font-family:Helvetica;font-size:10.00;" x="201" y="242">job</text>
</g>
<g id="edge23" class="edge"><title>runNCBIBlast&#45;&gt;Nested_Workflow1WORKFLOWINTERNALSOURCE_job</title>
<path style="fill:none;stroke:black;" d="M175,167C179,169 183,172 186,175 196,187 200,205 201,219"/>
<polygon style="fill:black;stroke:black;" points="205,219 201,229 198,219 205,219"/>
</g>
<g id="node23" class="node"><title>WORKFLOWINTERNALSINK_jobid</title>
<polygon style="fill:#bcd2ee;stroke:black;" points="129,321 91,321 91,339 129,339 129,321"/>
<text text-anchor="middle" style="font-family:Helvetica;font-size:10.00;" x="110" y="333">jobid</text>
</g>
<g id="edge27" class="edge"><title>runNCBIBlast&#45;&gt;WORKFLOWINTERNALSINK_jobid</title>
<path style="fill:none;stroke:black;" d="M145,167C139,194 122,273 114,310"/>
<polygon style="fill:black;stroke:black;" points="117,311 112,320 111,310 117,311"/>
</g>
<g id="node16" class="node"><title>Byte___to_String</title>
<polygon style="fill:#ce5fee;stroke:black;" points="113,266 21,266 21,284 113,284 113,266"/>
<text text-anchor="middle" style="font-family:Helvetica;font-size:10.00;" x="67" y="278">Byte___to_String</text>
</g>
<g id="edge21" class="edge"><title>poll&#45;&gt;Byte___to_String</title>
<path style="fill:none;stroke:black;" d="M67,249C67,251 67,253 67,255"/>
<polygon style="fill:black;stroke:black;" points="71,255 67,265 64,255 71,255"/>
</g>
<g id="node7" class="node"><title>Nested_Workflow1checkStatus</title>
<polygon style="fill:#a3cd5a;stroke:black;" points="241,266 171,266 171,284 241,284 241,266"/>
<text text-anchor="middle" style="font-family:Helvetica;font-size:10.00;" x="206" y="278">checkStatus</text>
</g>
<g id="node13" class="node"><title>Nested_Workflow1WORKFLOWINTERNALSINK_status</title>
<polygon style="fill:#bcd2ee;stroke:black;" points="228,321 184,321 184,339 228,339 228,321"/>
<text text-anchor="middle" style="font-family:Helvetica;font-size:10.00;" x="206" y="333">status</text>
</g>
<g id="edge7" class="edge"><title>Nested_Workflow1checkStatus&#45;&gt;Nested_Workflow1WORKFLOWINTERNALSINK_status</title>
<path style="fill:none;stroke:black;" d="M206,285C206,292 206,301 206,310"/>
<polygon style="fill:black;stroke:black;" points="210,310 206,320 203,310 210,310"/>
</g>
<g id="node9" class="node"><title>Nested_Workflow1WORKFLOWINTERNALSOURCECONTROL</title>
<polygon style="fill:#ff3f3f;stroke:black;" points="237,232 230,242 244,242 237,232"/>
</g>
<g id="edge5" class="edge"><title>Nested_Workflow1WORKFLOWINTERNALSOURCE_job&#45;&gt;Nested_Workflow1checkStatus</title>
<path style="fill:none;stroke:black;" d="M202,249C202,251 203,253 203,255"/>
<polygon style="fill:black;stroke:black;" points="206,255 205,265 200,256 206,255"/>
</g>
<g id="node12" class="node"><title>Nested_Workflow1WORKFLOWINTERNALSINKCONTROL</title>
<polygon style="fill:#6acd00;stroke:black;" points="245,337 252,327 238,327 245,337"/>
</g>
<g id="node22" class="node"><title>WORKFLOWINTERNALSINK_result</title>
<polygon style="fill:#bcd2ee;stroke:black;" points="87,321 47,321 47,339 87,339 87,321"/>
<text text-anchor="middle" style="font-family:Helvetica;font-size:10.00;" x="67" y="333">result</text>
</g>
<g id="edge19" class="edge"><title>Byte___to_String&#45;&gt;WORKFLOWINTERNALSINK_result</title>
<path style="fill:none;stroke:black;" d="M67,285C67,292 67,301 67,310"/>
<polygon style="fill:black;stroke:black;" points="71,310 67,320 64,310 71,310"/>
</g>
<g id="node18" class="node"><title>WORKFLOWINTERNALSOURCECONTROL</title>
<polygon style="fill:#ff3f3f;stroke:black;" points="224,42 217,52 231,52 224,42"/>
</g>
<g id="node19" class="node"><title>WORKFLOWINTERNALSOURCE_sequence</title>
<polygon style="fill:skyblue;stroke:black;" points="213,40 153,40 153,58 213,58 213,40"/>
<text text-anchor="middle" style="font-family:Helvetica;font-size:10.00;" x="183" y="52">sequence</text>
</g>
<g id="edge17" class="edge"><title>WORKFLOWINTERNALSOURCE_sequence&#45;&gt;WSArrayofDataXML</title>
<path style="fill:none;stroke:black;" d="M183,59C183,61 183,63 183,65"/>
<polygon style="fill:black;stroke:black;" points="187,65 183,75 180,65 187,65"/>
</g>
<g id="node21" class="node"><title>WORKFLOWINTERNALSINKCONTROL</title>
<polygon style="fill:#6acd00;stroke:black;" points="140,337 147,327 133,327 140,337"/>
</g>
<g id="node33" class="node"><title>Nested_Workflow1</title>
<polygon style="fill:lightgoldenrodyellow;stroke:black;" points="105,148 5,148 5,166 105,166 105,148"/>
<text text-anchor="middle" style="font-family:Helvetica;font-size:10.00;" x="55" y="160">Nested_Workflow1</text>
</g>
<g id="edge29" class="edge"><title>Nested_Workflow1&#45;&gt;poll</title>
<path style="fill:none;stroke:gray;" d="M56,167C59,180 62,204 65,221"/>
<ellipse cx="66" cy="225" rx="4" ry="4" style="fill:none;stroke:gray;"/>
</g>
</g>
</svg>
