<?xml version="1.0" encoding="UTF-8" standalone="no"?>
<!DOCTYPE svg PUBLIC "-//W3C//DTD SVG 1.0//EN"
 "http://www.w3.org/TR/2001/REC-SVG-20010904/DTD/svg10.dtd">
<!-- Generated by dot version 2.2 (Fri Mar 11 00:51:40 UTC 2005)
     For user: (root) root   Title: scufl_graph    Pages: 1 -->
<svg width="148pt" height="182pt"
 viewBox = "-1 -1 147 181"
 xmlns="http://www.w3.org/2000/svg">
<g id="graph0" class="graph" style="font-family:Times-Roman;font-size:14.00;">
<title>scufl_graph</title>
<g id="graph2" class="cluster"><title>cluster_sources</title>
<polygon style="fill:none;stroke:black;stroke-dasharray:1,5;" points="13,67 133,67 133,12 13,12 13,67"/>
<text text-anchor="middle" style="font-family:Helvetica;font-size:10.00;" x="57" y="24">Workflow Inputs</text>
</g>
<g id="graph3" class="cluster"><title>cluster_sinks</title>
<polygon style="fill:none;stroke:black;stroke-dasharray:1,5;" points="25,158 121,158 121,103 25,103 25,158"/>
<text text-anchor="middle" style="font-family:Helvetica;font-size:10.00;" x="73" y="115">Workflow Outputs</text>
</g>
<g id="node1" class="node"><title>Transcribe_DNA</title>
<polygon style="fill:#ce5fee;stroke:black;" points="108,76 20,76 20,94 108,94 108,76"/>
<text text-anchor="middle" style="font-family:Helvetica;font-size:10.00;" x="64" y="88">Transcribe_DNA</text>
</g>
<g id="node7" class="node"><title>WORKFLOWINTERNALSINK_output</title>
<polygon style="fill:#bcd2ee;stroke:black;" points="86,131 42,131 42,149 86,149 86,131"/>
<text text-anchor="middle" style="font-family:Helvetica;font-size:10.00;" x="64" y="143">output</text>
</g>
<g id="edge6" class="edge"><title>Transcribe_DNA&#45;&gt;WORKFLOWINTERNALSINK_output</title>
<path style="fill:none;stroke:black;" d="M64,95C64,102 64,111 64,120"/>
<polygon style="fill:black;stroke:black;" points="68,120 64,130 61,120 68,120"/>
</g>
<g id="node3" class="node"><title>WORKFLOWINTERNALSOURCECONTROL</title>
<polygon style="fill:#ff3f3f;stroke:black;" points="118,42 111,52 125,52 118,42"/>
</g>
<g id="node4" class="node"><title>WORKFLOWINTERNALSOURCE_DNA_sequence</title>
<polygon style="fill:skyblue;stroke:black;" points="107,40 21,40 21,58 107,58 107,40"/>
<text text-anchor="middle" style="font-family:Helvetica;font-size:10.00;" x="64" y="52">DNA_sequence</text>
</g>
<g id="edge4" class="edge"><title>WORKFLOWINTERNALSOURCE_DNA_sequence&#45;&gt;Transcribe_DNA</title>
<path style="fill:none;stroke:black;" d="M64,59C64,61 64,63 64,65"/>
<polygon style="fill:black;stroke:black;" points="68,65 64,75 61,65 68,65"/>
</g>
<g id="node6" class="node"><title>WORKFLOWINTERNALSINKCONTROL</title>
<polygon style="fill:#6acd00;stroke:black;" points="101,147 108,137 94,137 101,147"/>
</g>
</g>
</svg>
