<?xml version="1.0" encoding="UTF-8" standalone="no"?>
<!DOCTYPE svg PUBLIC "-//W3C//DTD SVG 1.0//EN"
 "http://www.w3.org/TR/2001/REC-SVG-20010904/DTD/svg10.dtd">
<!-- Generated by dot version 2.2 (Fri Mar 11 00:51:40 UTC 2005)
     For user: (root) root   Title: scufl_graph    Pages: 1 -->
<svg width="392pt" height="1121pt"
 viewBox = "-1 -1 391 1120"
 xmlns="http://www.w3.org/2000/svg">
<g id="graph0" class="graph" style="font-family:Times-Roman;font-size:14.00;">
<title>scufl_graph</title>
<g id="graph2" class="cluster"><title>cluster_extractGeneNamesextractGeneNames</title>
<polygon style="fill:aliceblue;stroke:black;" points="78,357 300,357 300,68 78,68 78,357"/>
<text text-anchor="middle" style="font-family:Helvetica;font-size:10.00;" x="129" y="80">extractGeneNames</text>
</g>
<g id="graph3" class="cluster"><title>cluster_extractGeneNamessources</title>
<polygon style="fill:none;stroke:black;stroke-dasharray:1,5;" points="194,150 292,150 292,95 194,95 194,150"/>
<text text-anchor="middle" style="font-family:Helvetica;font-size:10.00;" x="238" y="107">Workflow Inputs</text>
</g>
<g id="graph4" class="cluster"><title>cluster_extractGeneNamessinks</title>
<polygon style="fill:none;stroke:black;stroke-dasharray:1,5;" points="147,349 251,349 251,294 147,294 147,349"/>
<text text-anchor="middle" style="font-family:Helvetica;font-size:10.00;" x="195" y="306">Workflow Outputs</text>
</g>
<g id="graph5" class="cluster"><title>cluster_writeSBMLwriteSBML</title>
<polygon style="fill:aliceblue;stroke:black;" points="13,1006 377,1006 377,609 13,609 13,1006"/>
<text text-anchor="middle" style="font-family:Helvetica;font-size:10.00;" x="46" y="621">writeSBML</text>
</g>
<g id="graph6" class="cluster"><title>cluster_writeSBMLsources</title>
<polygon style="fill:none;stroke:black;stroke-dasharray:1,5;" points="133,691 369,691 369,636 133,636 133,691"/>
<text text-anchor="middle" style="font-family:Helvetica;font-size:10.00;" x="177" y="648">Workflow Inputs</text>
</g>
<g id="graph7" class="cluster"><title>cluster_writeSBMLsinks</title>
<polygon style="fill:none;stroke:black;stroke-dasharray:1,5;" points="66,998 188,998 188,943 66,943 66,998"/>
<text text-anchor="middle" style="font-family:Helvetica;font-size:10.00;" x="114" y="955">Workflow Outputs</text>
</g>
<g id="graph8" class="cluster"><title>cluster_sinks</title>
<polygon style="fill:none;stroke:black;stroke-dasharray:1,5;" points="65,1097 185,1097 185,1042 65,1042 65,1097"/>
<text text-anchor="middle" style="font-family:Helvetica;font-size:10.00;" x="113" y="1054">Workflow Outputs</text>
</g>
<g id="node1" class="node"><title>FileLocation</title>
<polygon style="fill:lightsteelblue;stroke:black;" points="307,5 237,5 237,23 307,23 307,5"/>
<text text-anchor="middle" style="font-family:Helvetica;font-size:10.00;" x="272" y="17">FileLocation</text>
</g>
<g id="node8" class="node"><title>getSBMLFile</title>
<polygon style="fill:#ce5fee;stroke:black;" points="309,41 235,41 235,59 309,59 309,41"/>
<text text-anchor="middle" style="font-family:Helvetica;font-size:10.00;" x="272" y="53">getSBMLFile</text>
</g>
<g id="edge65" class="edge"><title>FileLocation&#45;&gt;getSBMLFile</title>
<path style="fill:none;stroke:black;" d="M272,24C272,26 272,28 272,30"/>
<polygon style="fill:black;stroke:black;" points="276,30 272,40 269,30 276,30"/>
</g>
<g id="node2" class="node"><title>createDictionary</title>
<polygon style="fill:#eec391;stroke:black;" points="215,402 127,402 127,420 215,420 215,402"/>
<text text-anchor="middle" style="font-family:Helvetica;font-size:10.00;" x="171" y="414">createDictionary</text>
</g>
<g id="node3" class="node"><title>swapAffyIds</title>
<polygon style="fill:#eec391;stroke:black;" points="221,510 151,510 151,528 221,528 221,510"/>
<text text-anchor="middle" style="font-family:Helvetica;font-size:10.00;" x="186" y="522">swapAffyIds</text>
</g>
<g id="edge71" class="edge"><title>createDictionary&#45;&gt;swapAffyIds</title>
<path style="fill:none;stroke:black;" d="M172,421C175,438 180,476 184,499"/>
<polygon style="fill:black;stroke:black;" points="187,499 185,509 181,499 187,499"/>
</g>
<g id="node5" class="node"><title>addColorToValues</title>
<polygon style="fill:#eec391;stroke:black;" points="257,582 159,582 159,600 257,600 257,582"/>
<text text-anchor="middle" style="font-family:Helvetica;font-size:10.00;" x="208" y="594">addColorToValues</text>
</g>
<g id="edge93" class="edge"><title>swapAffyIds&#45;&gt;addColorToValues</title>
<path style="fill:none;stroke:black;" d="M175,529C171,533 167,539 164,545 161,554 160,558 164,565 166,569 170,572 173,575"/>
<polygon style="fill:black;stroke:black;" points="176,573 182,581 172,578 176,573"/>
</g>
<g id="node7" class="node"><title>calcExpressionRange</title>
<polygon style="fill:#eec391;stroke:black;" points="278,546 166,546 166,564 278,564 278,546"/>
<text text-anchor="middle" style="font-family:Helvetica;font-size:10.00;" x="222" y="558">calcExpressionRange</text>
</g>
<g id="edge95" class="edge"><title>swapAffyIds&#45;&gt;calcExpressionRange</title>
<path style="fill:none;stroke:black;" d="M196,529C199,532 202,535 205,538"/>
<polygon style="fill:black;stroke:black;" points="207,535 212,545 202,540 207,535"/>
</g>
<g id="node4" class="node"><title>extractExpressData</title>
<polygon style="fill:#eec391;stroke:black;" points="289,474 185,474 185,492 289,492 289,474"/>
<text text-anchor="middle" style="font-family:Helvetica;font-size:10.00;" x="237" y="486">extractExpressData</text>
</g>
<g id="edge75" class="edge"><title>extractExpressData&#45;&gt;swapAffyIds</title>
<path style="fill:none;stroke:black;" d="M223,493C219,496 213,500 209,503"/>
<polygon style="fill:black;stroke:black;" points="210,506 200,509 206,501 210,506"/>
</g>
<g id="node48" class="node"><title>writeSBMLWORKFLOWINTERNALSOURCE_colouredExpressionValues</title>
<polygon style="fill:skyblue;stroke:black;" points="275,664 141,664 141,682 275,682 275,664"/>
<text text-anchor="middle" style="font-family:Helvetica;font-size:10.00;" x="208" y="676">colouredExpressionValues</text>
</g>
<g id="edge67" class="edge"><title>addColorToValues&#45;&gt;writeSBMLWORKFLOWINTERNALSOURCE_colouredExpressionValues</title>
<path style="fill:none;stroke:black;" d="M208,601C208,613 208,637 208,653"/>
<polygon style="fill:black;stroke:black;" points="212,653 208,663 205,653 212,653"/>
</g>
<g id="node6" class="node"><title>merge</title>
<polygon style="fill:#eec391;stroke:black;" points="263,402 219,402 219,420 263,420 263,402"/>
<text text-anchor="middle" style="font-family:Helvetica;font-size:10.00;" x="241" y="414">merge</text>
</g>
<g id="node9" class="node"><title>queryMaxd</title>
<polygon style="fill:#a3cd5a;stroke:black;" points="273,438 207,438 207,456 273,456 273,438"/>
<text text-anchor="middle" style="font-family:Helvetica;font-size:10.00;" x="240" y="450">queryMaxd</text>
</g>
<g id="edge89" class="edge"><title>merge&#45;&gt;queryMaxd</title>
<path style="fill:none;stroke:black;" d="M241,421C241,423 241,425 241,427"/>
<polygon style="fill:black;stroke:black;" points="244,427 240,437 238,427 244,427"/>
</g>
<g id="edge69" class="edge"><title>calcExpressionRange&#45;&gt;addColorToValues</title>
<path style="fill:none;stroke:black;" d="M218,565C217,567 216,569 216,571"/>
<polygon style="fill:black;stroke:black;" points="219,573 212,581 212,570 219,573"/>
</g>
<g id="node19" class="node"><title>extractGeneNamesWORKFLOWINTERNALSOURCE_sbmlString</title>
<polygon style="fill:skyblue;stroke:black;" points="266,123 202,123 202,141 266,141 266,123"/>
<text text-anchor="middle" style="font-family:Helvetica;font-size:10.00;" x="234" y="135">sbmlString</text>
</g>
<g id="edge85" class="edge"><title>getSBMLFile&#45;&gt;extractGeneNamesWORKFLOWINTERNALSOURCE_sbmlString</title>
<path style="fill:none;stroke:black;" d="M267,60C261,72 250,97 242,113"/>
<polygon style="fill:black;stroke:black;" points="245,114 238,122 239,111 245,114"/>
</g>
<g id="node47" class="node"><title>writeSBMLWORKFLOWINTERNALSOURCE_sbmlString</title>
<polygon style="fill:skyblue;stroke:black;" points="343,664 279,664 279,682 343,682 343,664"/>
<text text-anchor="middle" style="font-family:Helvetica;font-size:10.00;" x="311" y="676">sbmlString</text>
</g>
<g id="edge87" class="edge"><title>getSBMLFile&#45;&gt;writeSBMLWORKFLOWINTERNALSOURCE_sbmlString</title>
<path style="fill:none;stroke:black;" d="M285,60C288,62 291,65 293,68 315,108 311,123 311,168 311,168 311,168 311,555 311,590 311,630 311,653"/>
<polygon style="fill:black;stroke:black;" points="315,653 311,663 308,653 315,653"/>
</g>
<g id="edge91" class="edge"><title>queryMaxd&#45;&gt;extractExpressData</title>
<path style="fill:none;stroke:black;" d="M239,457C239,459 239,461 239,463"/>
<polygon style="fill:black;stroke:black;" points="242,463 238,473 236,463 242,463"/>
</g>
<g id="node11" class="node"><title>extractGeneNamesextractGeneNames</title>
<polygon style="fill:#eec391;stroke:black;" points="241,267 139,267 139,285 241,285 241,267"/>
<text text-anchor="middle" style="font-family:Helvetica;font-size:10.00;" x="190" y="279">extractGeneNames</text>
</g>
<g id="node22" class="node"><title>extractGeneNamesWORKFLOWINTERNALSINK_geneNames</title>
<polygon style="fill:#bcd2ee;stroke:black;" points="225,322 155,322 155,340 225,340 225,322"/>
<text text-anchor="middle" style="font-family:Helvetica;font-size:10.00;" x="190" y="334">geneNames</text>
</g>
<g id="edge19" class="edge"><title>extractGeneNamesextractGeneNames&#45;&gt;extractGeneNamesWORKFLOWINTERNALSINK_geneNames</title>
<path style="fill:none;stroke:black;" d="M190,286C190,293 190,302 190,311"/>
<polygon style="fill:black;stroke:black;" points="194,311 190,321 187,311 194,311"/>
</g>
<g id="node12" class="node"><title>extractGeneNamesgetModel</title>
<polygon style="fill:palegreen;stroke:black;" points="212,195 154,195 154,213 212,213 212,195"/>
<text text-anchor="middle" style="font-family:Helvetica;font-size:10.00;" x="183" y="207">getModel</text>
</g>
<g id="node14" class="node"><title>extractGeneNamesgetListOfSpecies</title>
<polygon style="fill:palegreen;stroke:black;" points="184,231 92,231 92,249 184,249 184,231"/>
<text text-anchor="middle" style="font-family:Helvetica;font-size:10.00;" x="138" y="243">getListOfSpecies</text>
</g>
<g id="edge9" class="edge"><title>extractGeneNamesgetModel&#45;&gt;extractGeneNamesgetListOfSpecies</title>
<path style="fill:none;stroke:black;" d="M171,214C167,217 162,220 158,224"/>
<polygon style="fill:black;stroke:black;" points="160,227 150,230 156,221 160,227"/>
</g>
<g id="node16" class="node"><title>extractGeneNamesgetNumSpecies</title>
<polygon style="fill:palegreen;stroke:black;" points="274,231 188,231 188,249 274,249 274,231"/>
<text text-anchor="middle" style="font-family:Helvetica;font-size:10.00;" x="231" y="243">getNumSpecies</text>
</g>
<g id="edge11" class="edge"><title>extractGeneNamesgetModel&#45;&gt;extractGeneNamesgetNumSpecies</title>
<path style="fill:none;stroke:black;" d="M193,214C197,218 202,221 206,225"/>
<polygon style="fill:black;stroke:black;" points="208,222 215,230 205,228 208,222"/>
</g>
<g id="node13" class="node"><title>extractGeneNamesreadSBMLFromString</title>
<polygon style="fill:palegreen;stroke:black;" points="239,159 127,159 127,177 239,177 239,159"/>
<text text-anchor="middle" style="font-family:Helvetica;font-size:10.00;" x="183" y="171">readSBMLFromString</text>
</g>
<g id="edge15" class="edge"><title>extractGeneNamesreadSBMLFromString&#45;&gt;extractGeneNamesgetModel</title>
<path style="fill:none;stroke:black;" d="M183,178C183,180 183,182 183,184"/>
<polygon style="fill:black;stroke:black;" points="187,184 183,194 180,184 187,184"/>
</g>
<g id="edge7" class="edge"><title>extractGeneNamesgetListOfSpecies&#45;&gt;extractGeneNamesextractGeneNames</title>
<path style="fill:none;stroke:black;" d="M152,250C157,253 162,257 168,261"/>
<polygon style="fill:black;stroke:black;" points="169,258 176,266 166,264 169,258"/>
</g>
<g id="node15" class="node"><title>extractGeneNamescreateSbmlReader</title>
<polygon style="fill:palegreen;stroke:black;" points="186,123 86,123 86,141 186,141 186,123"/>
<text text-anchor="middle" style="font-family:Helvetica;font-size:10.00;" x="136" y="135">createSbmlReader</text>
</g>
<g id="edge5" class="edge"><title>extractGeneNamescreateSbmlReader&#45;&gt;extractGeneNamesreadSBMLFromString</title>
<path style="fill:none;stroke:black;" d="M149,142C153,145 158,149 163,152"/>
<polygon style="fill:black;stroke:black;" points="165,149 171,158 161,155 165,149"/>
</g>
<g id="edge13" class="edge"><title>extractGeneNamesgetNumSpecies&#45;&gt;extractGeneNamesextractGeneNames</title>
<path style="fill:none;stroke:black;" d="M219,250C216,253 212,256 208,259"/>
<polygon style="fill:black;stroke:black;" points="210,262 200,266 205,257 210,262"/>
</g>
<g id="node18" class="node"><title>extractGeneNamesWORKFLOWINTERNALSOURCECONTROL</title>
<polygon style="fill:#ff3f3f;stroke:black;" points="277,125 270,135 284,135 277,125"/>
</g>
<g id="edge17" class="edge"><title>extractGeneNamesWORKFLOWINTERNALSOURCE_sbmlString&#45;&gt;extractGeneNamesreadSBMLFromString</title>
<path style="fill:none;stroke:black;" d="M218,142C213,145 207,148 201,152"/>
<polygon style="fill:black;stroke:black;" points="203,155 193,158 199,149 203,155"/>
</g>
<g id="node21" class="node"><title>extractGeneNamesWORKFLOWINTERNALSINKCONTROL</title>
<polygon style="fill:#6acd00;stroke:black;" points="236,338 243,328 229,328 236,338"/>
</g>
<g id="edge77" class="edge"><title>extractGeneNamesWORKFLOWINTERNALSINK_geneNames&#45;&gt;createDictionary</title>
<path style="fill:none;stroke:black;" d="M186,341C183,347 179,357 176,365 174,373 173,383 172,391"/>
<polygon style="fill:black;stroke:black;" points="175,391 171,401 169,391 175,391"/>
</g>
<g id="node73" class="node"><title>getAffyIds</title>
<polygon style="fill:#a3cd5a;stroke:black;" points="240,366 178,366 178,384 240,384 240,366"/>
<text text-anchor="middle" style="font-family:Helvetica;font-size:10.00;" x="209" y="378">getAffyIds</text>
</g>
<g id="edge79" class="edge"><title>extractGeneNamesWORKFLOWINTERNALSINK_geneNames&#45;&gt;getAffyIds</title>
<path style="fill:none;stroke:black;" d="M194,341C196,345 198,351 201,356"/>
<polygon style="fill:black;stroke:black;" points="204,354 205,365 198,357 204,354"/>
</g>
<g id="node32" class="node"><title>writeSBMLwriteAnnotation</title>
<polygon style="fill:#eec391;stroke:black;" points="271,808 185,808 185,826 271,826 271,808"/>
<text text-anchor="middle" style="font-family:Helvetica;font-size:10.00;" x="228" y="820">writeAnnotation</text>
</g>
<g id="node41" class="node"><title>writeSBMLsetAnnotation</title>
<polygon style="fill:palegreen;stroke:black;" points="267,844 189,844 189,862 267,862 267,844"/>
<text text-anchor="middle" style="font-family:Helvetica;font-size:10.00;" x="228" y="856">setAnnotation</text>
</g>
<g id="edge52" class="edge"><title>writeSBMLwriteAnnotation&#45;&gt;writeSBMLsetAnnotation</title>
<path style="fill:none;stroke:black;" d="M228,827C228,829 228,831 228,833"/>
<polygon style="fill:black;stroke:black;" points="232,833 228,843 225,833 232,833"/>
</g>
<g id="node33" class="node"><title>writeSBMLcreateSBMLReader</title>
<polygon style="fill:palegreen;stroke:black;" points="125,664 21,664 21,682 125,682 125,664"/>
<text text-anchor="middle" style="font-family:Helvetica;font-size:10.00;" x="73" y="676">createSBMLReader</text>
</g>
<g id="node34" class="node"><title>writeSBMLreadSBMLFromString</title>
<polygon style="fill:palegreen;stroke:black;" points="367,700 255,700 255,718 367,718 367,700"/>
<text text-anchor="middle" style="font-family:Helvetica;font-size:10.00;" x="311" y="712">readSBMLFromString</text>
</g>
<g id="edge32" class="edge"><title>writeSBMLcreateSBMLReader&#45;&gt;writeSBMLreadSBMLFromString</title>
<path style="fill:none;stroke:black;" d="M100,683C110,686 122,689 132,691 169,698 210,703 245,705"/>
<polygon style="fill:black;stroke:black;" points="245,702 255,706 245,708 245,702"/>
</g>
<g id="node38" class="node"><title>writeSBMLgetModel</title>
<polygon style="fill:palegreen;stroke:black;" points="344,736 286,736 286,754 344,754 344,736"/>
<text text-anchor="middle" style="font-family:Helvetica;font-size:10.00;" x="315" y="748">getModel</text>
</g>
<g id="edge46" class="edge"><title>writeSBMLreadSBMLFromString&#45;&gt;writeSBMLgetModel</title>
<path style="fill:none;stroke:black;" d="M312,719C312,721 312,723 312,725"/>
<polygon style="fill:black;stroke:black;" points="315,725 314,735 309,726 315,725"/>
</g>
<g id="node35" class="node"><title>writeSBMLwriteToString</title>
<polygon style="fill:palegreen;stroke:black;" points="155,916 81,916 81,934 155,934 155,916"/>
<text text-anchor="middle" style="font-family:Helvetica;font-size:10.00;" x="118" y="928">writeToString</text>
</g>
<g id="node51" class="node"><title>writeSBMLWORKFLOWINTERNALSINK_newSBMLString</title>
<polygon style="fill:#bcd2ee;stroke:black;" points="162,971 74,971 74,989 162,989 162,971"/>
<text text-anchor="middle" style="font-family:Helvetica;font-size:10.00;" x="118" y="983">newSBMLString</text>
</g>
<g id="edge54" class="edge"><title>writeSBMLwriteToString&#45;&gt;writeSBMLWORKFLOWINTERNALSINK_newSBMLString</title>
<path style="fill:none;stroke:black;" d="M118,935C118,942 118,951 118,960"/>
<polygon style="fill:black;stroke:black;" points="122,960 118,970 115,960 122,960"/>
</g>
<g id="node36" class="node"><title>writeSBMLcreateSBMLDocument</title>
<polygon style="fill:palegreen;stroke:black;" points="189,772 73,772 73,790 189,790 189,772"/>
<text text-anchor="middle" style="font-family:Helvetica;font-size:10.00;" x="131" y="784">createSBMLDocument</text>
</g>
<g id="edge30" class="edge"><title>writeSBMLcreateSBMLDocument&#45;&gt;writeSBMLwriteToString</title>
<path style="fill:none;stroke:black;" d="M103,791C96,795 89,800 85,807 70,834 114,875 115,879 118,887 119,897 119,905"/>
<polygon style="fill:black;stroke:black;" points="123,905 119,915 116,905 123,905"/>
</g>
<g id="node40" class="node"><title>writeSBMLgetNamespaces</title>
<polygon style="fill:palegreen;stroke:black;" points="175,808 87,808 87,826 175,826 175,808"/>
<text text-anchor="middle" style="font-family:Helvetica;font-size:10.00;" x="131" y="820">getNamespaces</text>
</g>
<g id="edge26" class="edge"><title>writeSBMLcreateSBMLDocument&#45;&gt;writeSBMLgetNamespaces</title>
<path style="fill:none;stroke:black;" d="M131,791C131,793 131,795 131,797"/>
<polygon style="fill:black;stroke:black;" points="135,797 131,807 128,797 135,797"/>
</g>
<g id="node42" class="node"><title>writeSBMLsetModel</title>
<polygon style="fill:palegreen;stroke:black;" points="208,880 152,880 152,898 208,898 208,880"/>
<text text-anchor="middle" style="font-family:Helvetica;font-size:10.00;" x="180" y="892">setModel</text>
</g>
<g id="edge28" class="edge"><title>writeSBMLcreateSBMLDocument&#45;&gt;writeSBMLsetModel</title>
<path style="fill:none;stroke:black;" d="M159,791C166,795 173,800 177,807 184,817 183,848 182,869"/>
<polygon style="fill:black;stroke:black;" points="185,869 181,879 179,869 185,869"/>
</g>
<g id="node37" class="node"><title>writeSBMLunsetAnnotation</title>
<polygon style="fill:palegreen;stroke:black;" points="363,808 275,808 275,826 363,826 363,808"/>
<text text-anchor="middle" style="font-family:Helvetica;font-size:10.00;" x="319" y="820">unsetAnnotation</text>
</g>
<g id="edge50" class="edge"><title>writeSBMLunsetAnnotation&#45;&gt;writeSBMLsetAnnotation</title>
<path style="fill:none;stroke:black;" d="M295,827C285,831 273,835 261,840"/>
<polygon style="fill:black;stroke:black;" points="263,843 252,843 260,837 263,843"/>
</g>
<g id="edge42" class="edge"><title>writeSBMLgetModel&#45;&gt;writeSBMLunsetAnnotation</title>
<path style="fill:none;stroke:black;" d="M316,755C317,765 318,783 318,797"/>
<polygon style="fill:black;stroke:black;" points="321,797 319,807 315,797 321,797"/>
</g>
<g id="node39" class="node"><title>writeSBMLgetAnnotation</title>
<polygon style="fill:palegreen;stroke:black;" points="314,772 236,772 236,790 314,790 314,772"/>
<text text-anchor="middle" style="font-family:Helvetica;font-size:10.00;" x="275" y="784">getAnnotation</text>
</g>
<g id="edge38" class="edge"><title>writeSBMLgetModel&#45;&gt;writeSBMLgetAnnotation</title>
<path style="fill:none;stroke:black;" d="M304,755C301,758 297,761 293,764"/>
<polygon style="fill:black;stroke:black;" points="296,766 286,771 291,761 296,766"/>
</g>
<g id="edge40" class="edge"><title>writeSBMLgetModel&#45;&gt;writeSBMLsetModel</title>
<path style="fill:none;stroke:black;" d="M326,755C339,766 357,786 365,807 367,816 370,820 365,827 324,887 283,874 218,883"/>
<polygon style="fill:black;stroke:black;" points="218,886 208,885 217,880 218,886"/>
</g>
<g id="edge36" class="edge"><title>writeSBMLgetAnnotation&#45;&gt;writeSBMLwriteAnnotation</title>
<path style="fill:none;stroke:black;" d="M262,791C258,794 253,798 248,801"/>
<polygon style="fill:black;stroke:black;" points="250,804 240,807 246,798 250,804"/>
</g>
<g id="edge56" class="edge"><title>writeSBMLgetAnnotation&#45;&gt;writeSBMLunsetAnnotation</title>
<path style="fill:none;stroke:gray;" d="M287,791C291,794 296,798 301,802"/>
<ellipse cx="304" cy="804" rx="4" ry="4" style="fill:none;stroke:gray;"/>
</g>
<g id="node43" class="node"><title>writeSBMLadd</title>
<polygon style="fill:palegreen;stroke:black;" points="158,844 126,844 126,862 158,862 158,844"/>
<text text-anchor="middle" style="font-family:Helvetica;font-size:10.00;" x="142" y="856">add</text>
</g>
<g id="edge44" class="edge"><title>writeSBMLgetNamespaces&#45;&gt;writeSBMLadd</title>
<path style="fill:none;stroke:black;" d="M134,827C134,829 135,831 136,833"/>
<polygon style="fill:black;stroke:black;" points="139,832 139,843 133,834 139,832"/>
</g>
<g id="edge60" class="edge"><title>writeSBMLsetAnnotation&#45;&gt;writeSBMLsetModel</title>
<path style="fill:none;stroke:gray;" d="M215,863C210,866 205,870 200,874"/>
<ellipse cx="196" cy="877" rx="4" ry="4" style="fill:none;stroke:gray;"/>
</g>
<g id="edge62" class="edge"><title>writeSBMLsetModel&#45;&gt;writeSBMLwriteToString</title>
<path style="fill:none;stroke:gray;" d="M163,899C156,903 149,907 142,911"/>
<ellipse cx="138" cy="913" rx="4" ry="4" style="fill:none;stroke:gray;"/>
</g>
<g id="edge58" class="edge"><title>writeSBMLadd&#45;&gt;writeSBMLsetModel</title>
<path style="fill:none;stroke:gray;" d="M152,863C156,866 160,870 164,873"/>
<ellipse cx="167" cy="876" rx="4" ry="4" style="fill:none;stroke:gray;"/>
</g>
<g id="node44" class="node"><title>writeSBMLcreateSbmlWriter</title>
<polygon style="fill:palegreen;stroke:black;" points="113,880 21,880 21,898 113,898 113,880"/>
<text text-anchor="middle" style="font-family:Helvetica;font-size:10.00;" x="67" y="892">createSbmlWriter</text>
</g>
<g id="edge34" class="edge"><title>writeSBMLcreateSbmlWriter&#45;&gt;writeSBMLwriteToString</title>
<path style="fill:none;stroke:black;" d="M81,899C85,902 91,906 95,909"/>
<polygon style="fill:black;stroke:black;" points="98,907 104,915 94,912 98,907"/>
</g>
<g id="node46" class="node"><title>writeSBMLWORKFLOWINTERNALSOURCECONTROL</title>
<polygon style="fill:#ff3f3f;stroke:black;" points="354,666 347,676 361,676 354,666"/>
</g>
<g id="edge48" class="edge"><title>writeSBMLWORKFLOWINTERNALSOURCE_sbmlString&#45;&gt;writeSBMLreadSBMLFromString</title>
<path style="fill:none;stroke:black;" d="M311,683C311,685 311,687 311,689"/>
<polygon style="fill:black;stroke:black;" points="315,689 311,699 308,689 315,689"/>
</g>
<g id="edge24" class="edge"><title>writeSBMLWORKFLOWINTERNALSOURCE_colouredExpressionValues&#45;&gt;writeSBMLwriteAnnotation</title>
<path style="fill:none;stroke:black;" d="M209,683C213,706 221,766 225,797"/>
<polygon style="fill:black;stroke:black;" points="228,797 227,807 222,798 228,797"/>
</g>
<g id="node50" class="node"><title>writeSBMLWORKFLOWINTERNALSINKCONTROL</title>
<polygon style="fill:#6acd00;stroke:black;" points="173,987 180,977 166,977 173,987"/>
</g>
<g id="node72" class="node"><title>createImage</title>
<polygon style="fill:#a3cd5a;stroke:black;" points="132,1015 60,1015 60,1033 132,1033 132,1015"/>
<text text-anchor="middle" style="font-family:Helvetica;font-size:10.00;" x="96" y="1027">createImage</text>
</g>
<g id="edge97" class="edge"><title>writeSBMLWORKFLOWINTERNALSINK_newSBMLString&#45;&gt;createImage</title>
<path style="fill:none;stroke:black;" d="M113,990C111,994 108,1000 106,1005"/>
<polygon style="fill:black;stroke:black;" points="109,1007 101,1014 103,1004 109,1007"/>
</g>
<g id="node76" class="node"><title>WORKFLOWINTERNALSINK_sbml</title>
<polygon style="fill:#bcd2ee;stroke:black;" points="159,1070 121,1070 121,1088 159,1088 159,1070"/>
<text text-anchor="middle" style="font-family:Helvetica;font-size:10.00;" x="140" y="1082">sbml</text>
</g>
<g id="edge99" class="edge"><title>writeSBMLWORKFLOWINTERNALSINK_newSBMLString&#45;&gt;WORKFLOWINTERNALSINK_sbml</title>
<path style="fill:none;stroke:black;" d="M125,990C129,996 134,1005 136,1014 140,1029 141,1046 141,1059"/>
<polygon style="fill:black;stroke:black;" points="145,1059 141,1069 138,1059 145,1059"/>
</g>
<g id="node77" class="node"><title>WORKFLOWINTERNALSINK_image</title>
<polygon style="fill:#bcd2ee;stroke:black;" points="117,1070 73,1070 73,1088 117,1088 117,1070"/>
<text text-anchor="middle" style="font-family:Helvetica;font-size:10.00;" x="95" y="1082">image</text>
</g>
<g id="edge73" class="edge"><title>createImage&#45;&gt;WORKFLOWINTERNALSINK_image</title>
<path style="fill:none;stroke:black;" d="M96,1034C96,1041 96,1050 96,1059"/>
<polygon style="fill:black;stroke:black;" points="99,1059 95,1069 93,1059 99,1059"/>
</g>
<g id="edge81" class="edge"><title>getAffyIds&#45;&gt;createDictionary</title>
<path style="fill:none;stroke:black;" d="M199,385C196,388 192,391 188,394"/>
<polygon style="fill:black;stroke:black;" points="191,396 181,401 186,391 191,396"/>
</g>
<g id="edge83" class="edge"><title>getAffyIds&#45;&gt;merge</title>
<path style="fill:none;stroke:black;" d="M218,385C220,388 223,390 225,393"/>
<polygon style="fill:black;stroke:black;" points="228,391 232,401 223,396 228,391"/>
</g>
<g id="node75" class="node"><title>WORKFLOWINTERNALSINKCONTROL</title>
<polygon style="fill:#6acd00;stroke:black;" points="170,1086 177,1076 163,1076 170,1086"/>
</g>
</g>
</svg>
