<?xml version="1.0" encoding="UTF-8" standalone="no"?>
<!DOCTYPE svg PUBLIC "-//W3C//DTD SVG 1.0//EN"
 "http://www.w3.org/TR/2001/REC-SVG-20010904/DTD/svg10.dtd">
<!-- Generated by dot version 2.2 (Fri Mar 11 00:51:40 UTC 2005)
     For user: (root) root   Title: scufl_graph    Pages: 1 -->
<svg width="72pt" height="68pt"
 viewBox = "-1 -1 71 67"
 xmlns="http://www.w3.org/2000/svg">
<g id="graph0" class="graph" style="font-family:Times-Roman;font-size:14.00;">
<title>scufl_graph</title>
<g id="node1" class="node"><title>p1</title>
<polygon style="fill:lightgoldenrodyellow;stroke:black;" points="49,5 21,5 21,23 49,23 49,5"/>
<text text-anchor="middle" style="font-family:Helvetica;font-size:10.00;" x="35" y="17">p1</text>
</g>
<g id="node2" class="node"><title>p2</title>
<polygon style="fill:lightgoldenrodyellow;stroke:black;" points="33,41 5,41 5,59 33,59 33,41"/>
<text text-anchor="middle" style="font-family:Helvetica;font-size:10.00;" x="19" y="53">p2</text>
</g>
<g id="edge2" class="edge"><title>p1&#45;&gt;p2</title>
<path style="fill:none;stroke:black;" d="M31,24C30,26 29,29 28,31"/>
<polygon style="fill:black;stroke:black;" points="31,33 23,40 25,30 31,33"/>
</g>
<g id="node3" class="node"><title>p3</title>
<polygon style="fill:lightgoldenrodyellow;stroke:black;" points="65,41 37,41 37,59 65,59 65,41"/>
<text text-anchor="middle" style="font-family:Helvetica;font-size:10.00;" x="51" y="53">p3</text>
</g>
<g id="edge4" class="edge"><title>p1&#45;&gt;p3</title>
<path style="fill:none;stroke:black;" d="M39,24C40,26 41,29 42,31"/>
<polygon style="fill:black;stroke:black;" points="45,30 47,40 39,33 45,30"/>
</g>
</g>
</svg>
