<?xml version="1.0" encoding="UTF-8" standalone="no"?>
<!DOCTYPE svg PUBLIC "-//W3C//DTD SVG 1.0//EN"
 "http://www.w3.org/TR/2001/REC-SVG-20010904/DTD/svg10.dtd">
<!-- Generated by dot version 2.2 (Fri Mar 11 00:51:40 UTC 2005)
     For user: (root) root   Title: scufl_graph    Pages: 1 -->
<svg width="214pt" height="219pt"
 viewBox = "-1 -1 213 218"
 xmlns="http://www.w3.org/2000/svg">
<g id="graph0" class="graph" style="font-family:Times-Roman;font-size:14.00;">
<title>scufl_graph</title>
<g id="graph2" class="cluster"><title>cluster_sinks</title>
<polygon style="fill:none;stroke:black;stroke-dasharray:1,5;" points="13,195 199,195 199,140 13,140 13,195"/>
<text text-anchor="middle" style="font-family:Helvetica;font-size:10.00;" x="61" y="152">Workflow Outputs</text>
</g>
<g id="node1" class="node"><title>run_eSearch</title>
<polygon style="fill:#a3cd5a;stroke:black;" points="144,77 70,77 70,95 144,95 144,77"/>
<text text-anchor="middle" style="font-family:Helvetica;font-size:10.00;" x="107" y="89">run_eSearch</text>
</g>
<g id="node6" class="node"><title>eSearch_output_splitter</title>
<polygon style="fill:#ce5fee;stroke:black;" points="168,113 46,113 46,131 168,131 168,113"/>
<text text-anchor="middle" style="font-family:Helvetica;font-size:10.00;" x="107" y="125">eSearch_output_splitter</text>
</g>
<g id="edge17" class="edge"><title>run_eSearch&#45;&gt;eSearch_output_splitter</title>
<path style="fill:none;stroke:black;" d="M107,96C107,98 107,100 107,102"/>
<polygon style="fill:black;stroke:black;" points="111,102 107,112 104,102 111,102"/>
</g>
<g id="node2" class="node"><title>eSearch_input_merger</title>
<polygon style="fill:#ce5fee;stroke:black;" points="166,41 48,41 48,59 166,59 166,41"/>
<text text-anchor="middle" style="font-family:Helvetica;font-size:10.00;" x="107" y="53">eSearch_input_merger</text>
</g>
<g id="edge7" class="edge"><title>eSearch_input_merger&#45;&gt;run_eSearch</title>
<path style="fill:none;stroke:black;" d="M107,60C107,62 107,64 107,66"/>
<polygon style="fill:black;stroke:black;" points="111,66 107,76 104,66 111,66"/>
</g>
<g id="node3" class="node"><title>Database</title>
<polygon style="fill:lightsteelblue;stroke:black;" points="80,5 22,5 22,23 80,23 80,5"/>
<text text-anchor="middle" style="font-family:Helvetica;font-size:10.00;" x="51" y="17">Database</text>
</g>
<g id="edge5" class="edge"><title>Database&#45;&gt;eSearch_input_merger</title>
<path style="fill:none;stroke:black;" d="M66,24C71,27 77,31 83,35"/>
<polygon style="fill:black;stroke:black;" points="85,32 92,40 82,38 85,32"/>
</g>
<g id="node4" class="node"><title>rettype</title>
<polygon style="fill:lightsteelblue;stroke:black;" points="130,5 84,5 84,23 130,23 130,5"/>
<text text-anchor="middle" style="font-family:Helvetica;font-size:10.00;" x="107" y="17">rettype</text>
</g>
<g id="edge15" class="edge"><title>rettype&#45;&gt;eSearch_input_merger</title>
<path style="fill:none;stroke:black;" d="M107,24C107,26 107,28 107,30"/>
<polygon style="fill:black;stroke:black;" points="111,30 107,40 104,30 111,30"/>
</g>
<g id="node5" class="node"><title>DOI</title>
<polygon style="fill:lightsteelblue;stroke:black;" points="168,5 134,5 134,23 168,23 168,5"/>
<text text-anchor="middle" style="font-family:Helvetica;font-size:10.00;" x="151" y="17">DOI</text>
</g>
<g id="edge3" class="edge"><title>DOI&#45;&gt;eSearch_input_merger</title>
<path style="fill:none;stroke:black;" d="M139,24C135,27 131,30 127,34"/>
<polygon style="fill:black;stroke:black;" points="129,37 119,40 125,31 129,37"/>
</g>
<g id="node9" class="node"><title>WORKFLOWINTERNALSINK_PMID</title>
<polygon style="fill:#bcd2ee;stroke:black;" points="173,168 131,168 131,186 173,186 173,168"/>
<text text-anchor="middle" style="font-family:Helvetica;font-size:10.00;" x="152" y="180">PMID</text>
</g>
<g id="edge9" class="edge"><title>eSearch_output_splitter&#45;&gt;WORKFLOWINTERNALSINK_PMID</title>
<path style="fill:none;stroke:black;" d="M120,132C123,134 126,137 129,140 133,146 138,152 142,158"/>
<polygon style="fill:black;stroke:black;" points="145,157 147,167 139,160 145,157"/>
</g>
<g id="node10" class="node"><title>WORKFLOWINTERNALSINK_stack</title>
<polygon style="fill:#bcd2ee;stroke:black;" points="127,168 87,168 87,186 127,186 127,168"/>
<text text-anchor="middle" style="font-family:Helvetica;font-size:10.00;" x="107" y="180">stack</text>
</g>
<g id="edge13" class="edge"><title>eSearch_output_splitter&#45;&gt;WORKFLOWINTERNALSINK_stack</title>
<path style="fill:none;stroke:black;" d="M107,132C107,139 107,148 107,157"/>
<polygon style="fill:black;stroke:black;" points="111,157 107,167 104,157 111,157"/>
</g>
<g id="node11" class="node"><title>WORKFLOWINTERNALSINK_translation</title>
<polygon style="fill:#bcd2ee;stroke:black;" points="83,168 21,168 21,186 83,186 83,168"/>
<text text-anchor="middle" style="font-family:Helvetica;font-size:10.00;" x="52" y="180">translation</text>
</g>
<g id="edge11" class="edge"><title>eSearch_output_splitter&#45;&gt;WORKFLOWINTERNALSINK_translation</title>
<path style="fill:none;stroke:black;" d="M95,132C92,134 88,137 85,140 79,146 72,153 67,159"/>
<polygon style="fill:black;stroke:black;" points="69,162 60,167 64,157 69,162"/>
</g>
<g id="node8" class="node"><title>WORKFLOWINTERNALSINKCONTROL</title>
<polygon style="fill:#6acd00;stroke:black;" points="184,184 191,174 177,174 184,184"/>
</g>
</g>
</svg>
