<?xml version="1.0" encoding="UTF-8" standalone="no"?>
<!DOCTYPE svg PUBLIC "-//W3C//DTD SVG 1.0//EN"
 "http://www.w3.org/TR/2001/REC-SVG-20010904/DTD/svg10.dtd">
<!-- Generated by dot version 2.2 (Fri Mar 11 00:51:40 UTC 2005)
     For user: (root) root   Title: scufl_graph    Pages: 1 -->
<svg width="456pt" height="182pt"
 viewBox = "-1 -1 455 181"
 xmlns="http://www.w3.org/2000/svg">
<g id="graph0" class="graph" style="font-family:Times-Roman;font-size:14.00;">
<title>scufl_graph</title>
<g id="graph2" class="cluster"><title>cluster_sources</title>
<polygon style="fill:none;stroke:black;stroke-dasharray:1,5;" points="223,67 441,67 441,12 223,12 223,67"/>
<text text-anchor="middle" style="font-family:Helvetica;font-size:10.00;" x="267" y="24">Workflow Inputs</text>
</g>
<g id="graph3" class="cluster"><title>cluster_sinks</title>
<polygon style="fill:none;stroke:black;stroke-dasharray:1,5;" points="158,158 294,158 294,103 158,103 158,158"/>
<text text-anchor="middle" style="font-family:Helvetica;font-size:10.00;" x="206" y="115">Workflow Outputs</text>
</g>
<g id="node1" class="node"><title>Default_input_type</title>
<polygon style="fill:lightsteelblue;stroke:black;" points="105,40 5,40 5,58 105,58 105,40"/>
<text text-anchor="middle" style="font-family:Helvetica;font-size:10.00;" x="55" y="52">Default_input_type</text>
</g>
<g id="node2" class="node"><title>NErecognize</title>
<polygon style="fill:#a3cd5a;stroke:black;" points="254,76 180,76 180,94 254,94 254,76"/>
<text text-anchor="middle" style="font-family:Helvetica;font-size:10.00;" x="217" y="88">NErecognize</text>
</g>
<g id="edge8" class="edge"><title>Default_input_type&#45;&gt;NErecognize</title>
<path style="fill:none;stroke:black;" d="M78,59C87,62 97,65 107,67 127,72 151,76 170,79"/>
<polygon style="fill:black;stroke:black;" points="171,76 180,81 170,82 171,76"/>
</g>
<g id="node10" class="node"><title>WORKFLOWINTERNALSINK_discovered_entities</title>
<polygon style="fill:#bcd2ee;stroke:black;" points="268,131 166,131 166,149 268,149 268,131"/>
<text text-anchor="middle" style="font-family:Helvetica;font-size:10.00;" x="217" y="143">discovered_entities</text>
</g>
<g id="edge12" class="edge"><title>NErecognize&#45;&gt;WORKFLOWINTERNALSINK_discovered_entities</title>
<path style="fill:none;stroke:black;" d="M217,95C217,102 217,111 217,120"/>
<polygon style="fill:black;stroke:black;" points="221,120 217,130 214,120 221,120"/>
</g>
<g id="node3" class="node"><title>Default_output_type</title>
<polygon style="fill:lightsteelblue;stroke:black;" points="215,40 109,40 109,58 215,58 215,40"/>
<text text-anchor="middle" style="font-family:Helvetica;font-size:10.00;" x="162" y="52">Default_output_type</text>
</g>
<g id="edge10" class="edge"><title>Default_output_type&#45;&gt;NErecognize</title>
<path style="fill:none;stroke:black;" d="M177,59C182,62 188,66 193,70"/>
<polygon style="fill:black;stroke:black;" points="195,67 202,75 192,73 195,67"/>
</g>
<g id="node5" class="node"><title>WORKFLOWINTERNALSOURCECONTROL</title>
<polygon style="fill:#ff3f3f;stroke:black;" points="426,42 419,52 433,52 426,42"/>
</g>
<g id="node6" class="node"><title>WORKFLOWINTERNALSOURCE_input_from_lucene</title>
<polygon style="fill:skyblue;stroke:black;" points="415,40 317,40 317,58 415,58 415,40"/>
<text text-anchor="middle" style="font-family:Helvetica;font-size:10.00;" x="366" y="52">input_from_lucene</text>
</g>
<g id="edge4" class="edge"><title>WORKFLOWINTERNALSOURCE_input_from_lucene&#45;&gt;NErecognize</title>
<path style="fill:none;stroke:black;" d="M342,59C333,62 324,65 315,67 298,72 281,76 264,78"/>
<polygon style="fill:black;stroke:black;" points="264,81 254,80 263,75 264,81"/>
</g>
<g id="node7" class="node"><title>WORKFLOWINTERNALSOURCE_learned_model</title>
<polygon style="fill:skyblue;stroke:black;" points="313,40 231,40 231,58 313,58 313,40"/>
<text text-anchor="middle" style="font-family:Helvetica;font-size:10.00;" x="272" y="52">learned_model</text>
</g>
<g id="edge6" class="edge"><title>WORKFLOWINTERNALSOURCE_learned_model&#45;&gt;NErecognize</title>
<path style="fill:none;stroke:black;" d="M257,59C252,62 246,66 241,70"/>
<polygon style="fill:black;stroke:black;" points="242,73 232,75 239,67 242,73"/>
</g>
<g id="node9" class="node"><title>WORKFLOWINTERNALSINKCONTROL</title>
<polygon style="fill:#6acd00;stroke:black;" points="279,147 286,137 272,137 279,147"/>
</g>
</g>
</svg>
