<?xml version="1.0" encoding="UTF-8" standalone="no"?>
<!DOCTYPE svg PUBLIC "-//W3C//DTD SVG 1.0//EN"
 "http://www.w3.org/TR/2001/REC-SVG-20010904/DTD/svg10.dtd">
<!-- Generated by dot version 2.2 (Fri Mar 11 00:51:40 UTC 2005)
     For user: (root) root   Title: scufl_graph    Pages: 1 -->
<svg width="243pt" height="326pt"
 viewBox = "-1 -1 242 325"
 xmlns="http://www.w3.org/2000/svg">
<g id="graph0" class="graph" style="font-family:Times-Roman;font-size:14.00;">
<title>scufl_graph</title>
<g id="graph2" class="cluster"><title>cluster_sources</title>
<polygon style="fill:none;stroke:black;stroke-dasharray:1,5;" points="75,67 175,67 175,12 75,12 75,67"/>
<text text-anchor="middle" style="font-family:Helvetica;font-size:10.00;" x="119" y="24">Workflow Inputs</text>
</g>
<g id="graph3" class="cluster"><title>cluster_sinks</title>
<polygon style="fill:none;stroke:black;stroke-dasharray:1,5;" points="62,302 228,302 228,247 62,247 62,302"/>
<text text-anchor="middle" style="font-family:Helvetica;font-size:10.00;" x="110" y="259">Workflow Outputs</text>
</g>
<g id="node1" class="node"><title>Add1000</title>
<polygon style="fill:#eec391;stroke:black;" points="61,148 5,148 5,166 61,166 61,148"/>
<text text-anchor="middle" style="font-family:Helvetica;font-size:10.00;" x="33" y="160">Add1000</text>
</g>
<g id="node6" class="node"><title>dbSNP</title>
<polygon style="fill:#d1eeed;stroke:black;" points="126,184 78,184 78,202 126,202 126,184"/>
<text text-anchor="middle" style="font-family:Helvetica;font-size:10.00;" x="102" y="196">dbSNP</text>
</g>
<g id="edge4" class="edge"><title>Add1000&#45;&gt;dbSNP</title>
<path style="fill:none;stroke:black;" d="M51,167C58,171 66,175 74,178"/>
<polygon style="fill:black;stroke:black;" points="76,175 83,183 73,181 76,175"/>
</g>
<g id="node2" class="node"><title>ForceListType</title>
<polygon style="fill:#ce5fee;stroke:black;" points="155,76 77,76 77,94 155,94 155,76"/>
<text text-anchor="middle" style="font-family:Helvetica;font-size:10.00;" x="116" y="88">ForceListType</text>
</g>
<g id="node3" class="node"><title>NCBI36</title>
<polygon style="fill:#d1eeed;stroke:black;" points="142,112 90,112 90,130 142,130 142,112"/>
<text text-anchor="middle" style="font-family:Helvetica;font-size:10.00;" x="116" y="124">NCBI36</text>
</g>
<g id="edge12" class="edge"><title>ForceListType&#45;&gt;NCBI36</title>
<path style="fill:none;stroke:black;" d="M116,95C116,97 116,99 116,101"/>
<polygon style="fill:black;stroke:black;" points="120,101 116,111 113,101 120,101"/>
</g>
<g id="node13" class="node"><title>WORKFLOWINTERNALSINK_GeneIDList</title>
<polygon style="fill:#bcd2ee;stroke:black;" points="202,275 136,275 136,293 202,293 202,275"/>
<text text-anchor="middle" style="font-family:Helvetica;font-size:10.00;" x="169" y="287">GeneIDList</text>
</g>
<g id="edge10" class="edge"><title>ForceListType&#45;&gt;WORKFLOWINTERNALSINK_GeneIDList</title>
<path style="fill:none;stroke:black;" d="M129,95C134,99 140,105 144,111 156,130 162,136 162,157 162,157 162,157 162,193 162,218 165,246 167,264"/>
<polygon style="fill:black;stroke:black;" points="170,264 168,274 164,264 170,264"/>
</g>
<g id="edge16" class="edge"><title>NCBI36&#45;&gt;Add1000</title>
<path style="fill:none;stroke:black;" d="M94,131C85,135 74,139 64,143"/>
<polygon style="fill:black;stroke:black;" points="66,146 55,147 63,140 66,146"/>
</g>
<g id="node4" class="node"><title>Subtract1000</title>
<polygon style="fill:#eec391;stroke:black;" points="139,148 65,148 65,166 139,166 139,148"/>
<text text-anchor="middle" style="font-family:Helvetica;font-size:10.00;" x="102" y="160">Subtract1000</text>
</g>
<g id="edge18" class="edge"><title>NCBI36&#45;&gt;Subtract1000</title>
<path style="fill:none;stroke:black;" d="M112,131C111,133 110,135 110,137"/>
<polygon style="fill:black;stroke:black;" points="113,139 106,147 106,136 113,139"/>
</g>
<g id="edge14" class="edge"><title>NCBI36&#45;&gt;dbSNP</title>
<path style="fill:none;stroke:black;" d="M129,131C134,135 139,141 141,147 145,156 145,160 141,167 139,171 137,174 133,177"/>
<polygon style="fill:black;stroke:black;" points="135,180 125,183 131,174 135,180"/>
</g>
<g id="edge20" class="edge"><title>Subtract1000&#45;&gt;dbSNP</title>
<path style="fill:none;stroke:black;" d="M102,167C102,169 102,171 102,173"/>
<polygon style="fill:black;stroke:black;" points="106,173 102,183 99,173 106,173"/>
</g>
<g id="node5" class="node"><title>CreateReport</title>
<polygon style="fill:#eec391;stroke:black;" points="140,220 64,220 64,238 140,238 140,220"/>
<text text-anchor="middle" style="font-family:Helvetica;font-size:10.00;" x="102" y="232">CreateReport</text>
</g>
<g id="node12" class="node"><title>WORKFLOWINTERNALSINK_ReportList</title>
<polygon style="fill:#bcd2ee;stroke:black;" points="132,275 70,275 70,293 132,293 132,275"/>
<text text-anchor="middle" style="font-family:Helvetica;font-size:10.00;" x="101" y="287">ReportList</text>
</g>
<g id="edge8" class="edge"><title>CreateReport&#45;&gt;WORKFLOWINTERNALSINK_ReportList</title>
<path style="fill:none;stroke:black;" d="M102,239C102,246 102,255 102,264"/>
<polygon style="fill:black;stroke:black;" points="105,264 101,274 99,264 105,264"/>
</g>
<g id="edge24" class="edge"><title>dbSNP&#45;&gt;CreateReport</title>
<path style="fill:none;stroke:black;" d="M98,203C98,205 98,207 98,209"/>
<polygon style="fill:black;stroke:black;" points="102,209 98,219 95,209 102,209"/>
</g>
<g id="edge26" class="edge"><title>dbSNP&#45;&gt;CreateReport</title>
<path style="fill:none;stroke:black;" d="M103,203C103,205 103,207 103,209"/>
<polygon style="fill:black;stroke:black;" points="107,209 103,219 100,209 107,209"/>
</g>
<g id="edge28" class="edge"><title>dbSNP&#45;&gt;CreateReport</title>
<path style="fill:none;stroke:black;" d="M106,203C106,205 106,207 106,209"/>
<polygon style="fill:black;stroke:black;" points="110,209 106,219 103,209 110,209"/>
</g>
<g id="edge22" class="edge"><title>dbSNP&#45;&gt;CreateReport</title>
<path style="fill:none;stroke:black;" d="M101,203C101,205 101,207 101,209"/>
<polygon style="fill:black;stroke:black;" points="105,209 101,219 98,209 105,209"/>
</g>
<g id="node8" class="node"><title>WORKFLOWINTERNALSOURCECONTROL</title>
<polygon style="fill:#ff3f3f;stroke:black;" points="160,42 153,52 167,52 160,42"/>
</g>
<g id="node9" class="node"><title>WORKFLOWINTERNALSOURCE_GeneIDList</title>
<polygon style="fill:skyblue;stroke:black;" points="149,40 83,40 83,58 149,58 149,40"/>
<text text-anchor="middle" style="font-family:Helvetica;font-size:10.00;" x="116" y="52">GeneIDList</text>
</g>
<g id="edge6" class="edge"><title>WORKFLOWINTERNALSOURCE_GeneIDList&#45;&gt;ForceListType</title>
<path style="fill:none;stroke:black;" d="M116,59C116,61 116,63 116,65"/>
<polygon style="fill:black;stroke:black;" points="120,65 116,75 113,65 120,65"/>
</g>
<g id="node11" class="node"><title>WORKFLOWINTERNALSINKCONTROL</title>
<polygon style="fill:#6acd00;stroke:black;" points="213,291 220,281 206,281 213,291"/>
</g>
</g>
</svg>
