<?xml version="1.0" encoding="UTF-8" standalone="no"?>
<!DOCTYPE svg PUBLIC "-//W3C//DTD SVG 1.0//EN"
 "http://www.w3.org/TR/2001/REC-SVG-20010904/DTD/svg10.dtd">
<!-- Generated by dot version 2.2 (Fri Mar 11 00:51:40 UTC 2005)
     For user: (root) root   Title: scufl_graph    Pages: 1 -->
<svg width="409pt" height="363pt"
 viewBox = "-1 -1 408 362"
 xmlns="http://www.w3.org/2000/svg">
<g id="graph0" class="graph" style="font-family:Times-Roman;font-size:14.00;">
<title>scufl_graph</title>
<g id="graph2" class="cluster"><title>cluster_sinks</title>
<polygon style="fill:none;stroke:black;stroke-dasharray:1,5;" points="118,339 394,339 394,284 118,284 118,339"/>
<text text-anchor="middle" style="font-family:Helvetica;font-size:10.00;" x="166" y="296">Workflow Outputs</text>
</g>
<g id="node1" class="node"><title>GetUniqueHomolog</title>
<polygon style="fill:#eec391;stroke:black;" points="312,41 208,41 208,59 312,59 312,41"/>
<text text-anchor="middle" style="font-family:Helvetica;font-size:10.00;" x="260" y="53">GetUniqueHomolog</text>
</g>
<g id="node4" class="node"><title>getRNsequence</title>
<polygon style="fill:#d1eeed;stroke:black;" points="93,77 5,77 5,95 93,95 93,77"/>
<text text-anchor="middle" style="font-family:Helvetica;font-size:10.00;" x="49" y="89">getRNsequence</text>
</g>
<g id="edge9" class="edge"><title>GetUniqueHomolog&#45;&gt;getRNsequence</title>
<path style="fill:none;stroke:black;" d="M208,58C178,63 140,68 103,74"/>
<polygon style="fill:black;stroke:black;" points="103,77 93,76 102,71 103,77"/>
</g>
<g id="node5" class="node"><title>getMMsequence</title>
<polygon style="fill:#d1eeed;stroke:black;" points="187,77 97,77 97,95 187,95 187,77"/>
<text text-anchor="middle" style="font-family:Helvetica;font-size:10.00;" x="142" y="89">getMMsequence</text>
</g>
<g id="edge7" class="edge"><title>GetUniqueHomolog&#45;&gt;getMMsequence</title>
<path style="fill:none;stroke:black;" d="M229,60C215,64 199,69 184,73"/>
<polygon style="fill:black;stroke:black;" points="185,76 174,76 183,70 185,76"/>
</g>
<g id="node6" class="node"><title>getHSsequence</title>
<polygon style="fill:#d1eeed;stroke:black;" points="279,77 191,77 191,95 279,95 279,77"/>
<text text-anchor="middle" style="font-family:Helvetica;font-size:10.00;" x="235" y="89">getHSsequence</text>
</g>
<g id="edge5" class="edge"><title>GetUniqueHomolog&#45;&gt;getHSsequence</title>
<path style="fill:none;stroke:black;" d="M253,60C252,62 250,65 248,68"/>
<polygon style="fill:black;stroke:black;" points="251,70 242,76 245,66 251,70"/>
</g>
<g id="node14" class="node"><title>WORKFLOWINTERNALSINK_HSapIDs</title>
<polygon style="fill:#bcd2ee;stroke:black;" points="248,312 192,312 192,330 248,330 248,312"/>
<text text-anchor="middle" style="font-family:Helvetica;font-size:10.00;" x="220" y="324">HSapIDs</text>
</g>
<g id="edge31" class="edge"><title>GetUniqueHomolog&#45;&gt;WORKFLOWINTERNALSINK_HSapIDs</title>
<path style="fill:none;stroke:black;" d="M270,60C274,64 278,70 281,76 288,95 286,102 286,122 286,122 286,122 286,230 286,239 254,280 235,303"/>
<polygon style="fill:black;stroke:black;" points="237,306 228,311 232,301 237,306"/>
</g>
<g id="node15" class="node"><title>WORKFLOWINTERNALSINK_MMusIDs</title>
<polygon style="fill:#bcd2ee;stroke:black;" points="310,312 252,312 252,330 310,330 310,312"/>
<text text-anchor="middle" style="font-family:Helvetica;font-size:10.00;" x="281" y="324">MMusIDs</text>
</g>
<g id="edge33" class="edge"><title>GetUniqueHomolog&#45;&gt;WORKFLOWINTERNALSINK_MMusIDs</title>
<path style="fill:none;stroke:black;" d="M275,60C280,64 286,70 290,76 299,95 296,102 296,122 296,122 296,122 296,230 296,255 291,283 286,301"/>
<polygon style="fill:black;stroke:black;" points="289,302 284,311 283,301 289,302"/>
</g>
<g id="node16" class="node"><title>WORKFLOWINTERNALSINK_RNorIDs</title>
<polygon style="fill:#bcd2ee;stroke:black;" points="368,312 314,312 314,330 368,330 368,312"/>
<text text-anchor="middle" style="font-family:Helvetica;font-size:10.00;" x="341" y="324">RNorIDs</text>
</g>
<g id="edge35" class="edge"><title>GetUniqueHomolog&#45;&gt;WORKFLOWINTERNALSINK_RNorIDs</title>
<path style="fill:none;stroke:black;" d="M284,60C301,79 323,122 323,122 323,122 323,122 323,230 323,256 330,283 335,301"/>
<polygon style="fill:black;stroke:black;" points="338,300 338,311 332,302 338,300"/>
</g>
<g id="node2" class="node"><title>FlattenImageList</title>
<polygon style="fill:#ce5fee;stroke:black;" points="201,257 111,257 111,275 201,275 201,257"/>
<text text-anchor="middle" style="font-family:Helvetica;font-size:10.00;" x="156" y="269">FlattenImageList</text>
</g>
<g id="node13" class="node"><title>WORKFLOWINTERNALSINK_outputPlot</title>
<polygon style="fill:#bcd2ee;stroke:black;" points="188,312 126,312 126,330 188,330 188,312"/>
<text text-anchor="middle" style="font-family:Helvetica;font-size:10.00;" x="157" y="324">outputPlot</text>
</g>
<g id="edge29" class="edge"><title>FlattenImageList&#45;&gt;WORKFLOWINTERNALSINK_outputPlot</title>
<path style="fill:none;stroke:black;" d="M156,276C156,283 156,292 156,301"/>
<polygon style="fill:black;stroke:black;" points="159,301 157,311 153,301 159,301"/>
</g>
<g id="node3" class="node"><title>CreateFasta</title>
<polygon style="fill:#eec391;stroke:black;" points="177,113 107,113 107,131 177,131 177,113"/>
<text text-anchor="middle" style="font-family:Helvetica;font-size:10.00;" x="142" y="125">CreateFasta</text>
</g>
<g id="node8" class="node"><title>seqret</title>
<polygon style="fill:lightgoldenrodyellow;stroke:black;" points="165,149 121,149 121,167 165,167 165,149"/>
<text text-anchor="middle" style="font-family:Helvetica;font-size:10.00;" x="143" y="161">seqret</text>
</g>
<g id="edge3" class="edge"><title>CreateFasta&#45;&gt;seqret</title>
<path style="fill:none;stroke:black;" d="M142,132C142,134 142,136 142,138"/>
<polygon style="fill:black;stroke:black;" points="145,138 143,148 139,138 145,138"/>
</g>
<g id="edge17" class="edge"><title>getRNsequence&#45;&gt;CreateFasta</title>
<path style="fill:none;stroke:black;" d="M74,96C84,100 97,104 108,108"/>
<polygon style="fill:black;stroke:black;" points="109,105 117,112 106,111 109,105"/>
</g>
<g id="edge15" class="edge"><title>getMMsequence&#45;&gt;CreateFasta</title>
<path style="fill:none;stroke:black;" d="M142,96C142,98 142,100 142,102"/>
<polygon style="fill:black;stroke:black;" points="146,102 142,112 139,102 146,102"/>
</g>
<g id="edge13" class="edge"><title>getHSsequence&#45;&gt;CreateFasta</title>
<path style="fill:none;stroke:black;" d="M210,96C200,100 187,104 176,108"/>
<polygon style="fill:black;stroke:black;" points="178,111 167,112 175,105 178,111"/>
</g>
<g id="node7" class="node"><title>hsapiens_gene_ensembl</title>
<polygon style="fill:#d1eeed;stroke:black;" points="323,5 197,5 197,23 323,23 323,5"/>
<text text-anchor="middle" style="font-family:Helvetica;font-size:10.00;" x="260" y="17">hsapiens_gene_ensembl</text>
</g>
<g id="edge23" class="edge"><title>hsapiens_gene_ensembl&#45;&gt;GetUniqueHomolog</title>
<path style="fill:none;stroke:black;" d="M257,24C257,26 257,28 257,30"/>
<polygon style="fill:black;stroke:black;" points="261,30 257,40 254,30 261,30"/>
</g>
<g id="edge19" class="edge"><title>hsapiens_gene_ensembl&#45;&gt;GetUniqueHomolog</title>
<path style="fill:none;stroke:black;" d="M260,24C260,26 260,28 260,30"/>
<polygon style="fill:black;stroke:black;" points="264,30 260,40 257,30 264,30"/>
</g>
<g id="edge21" class="edge"><title>hsapiens_gene_ensembl&#45;&gt;GetUniqueHomolog</title>
<path style="fill:none;stroke:black;" d="M263,24C263,26 263,28 263,30"/>
<polygon style="fill:black;stroke:black;" points="267,30 263,40 260,30 267,30"/>
</g>
<g id="node10" class="node"><title>emma</title>
<polygon style="fill:lightgoldenrodyellow;stroke:black;" points="167,185 123,185 123,203 167,203 167,185"/>
<text text-anchor="middle" style="font-family:Helvetica;font-size:10.00;" x="145" y="197">emma</text>
</g>
<g id="edge27" class="edge"><title>seqret&#45;&gt;emma</title>
<path style="fill:none;stroke:black;" d="M144,168C144,170 144,172 144,174"/>
<polygon style="fill:black;stroke:black;" points="148,174 144,184 141,174 148,174"/>
</g>
<g id="node9" class="node"><title>plot</title>
<polygon style="fill:lightgoldenrodyellow;stroke:black;" points="165,221 133,221 133,239 165,239 165,221"/>
<text text-anchor="middle" style="font-family:Helvetica;font-size:10.00;" x="149" y="233">plot</text>
</g>
<g id="edge25" class="edge"><title>plot&#45;&gt;FlattenImageList</title>
<path style="fill:none;stroke:black;" d="M151,240C151,242 152,244 152,246"/>
<polygon style="fill:black;stroke:black;" points="155,246 154,256 149,247 155,246"/>
</g>
<g id="edge11" class="edge"><title>emma&#45;&gt;plot</title>
<path style="fill:none;stroke:black;" d="M146,204C146,206 146,208 146,210"/>
<polygon style="fill:black;stroke:black;" points="149,210 148,220 143,211 149,210"/>
</g>
<g id="node12" class="node"><title>WORKFLOWINTERNALSINKCONTROL</title>
<polygon style="fill:#6acd00;stroke:black;" points="379,328 386,318 372,318 379,328"/>
</g>
</g>
</svg>
