<?xml version="1.0" encoding="UTF-8" standalone="no"?>
<!DOCTYPE svg PUBLIC "-//W3C//DTD SVG 1.0//EN"
 "http://www.w3.org/TR/2001/REC-SVG-20010904/DTD/svg10.dtd">
<!-- Generated by dot version 2.2 (Fri Mar 11 00:51:40 UTC 2005)
     For user: (root) root   Title: scufl_graph    Pages: 1 -->
<svg width="157pt" height="219pt"
 viewBox = "-1 -1 156 218"
 xmlns="http://www.w3.org/2000/svg">
<g id="graph0" class="graph" style="font-family:Times-Roman;font-size:14.00;">
<title>scufl_graph</title>
<g id="graph2" class="cluster"><title>cluster_sinks</title>
<polygon style="fill:none;stroke:black;stroke-dasharray:1,5;" points="36,195 142,195 142,140 36,140 36,195"/>
<text text-anchor="middle" style="font-family:Helvetica;font-size:10.00;" x="84" y="152">Workflow Outputs</text>
</g>
<g id="node1" class="node"><title>GetWeather</title>
<polygon style="fill:#a3cd5a;stroke:black;" points="115,77 45,77 45,95 115,95 115,77"/>
<text text-anchor="middle" style="font-family:Helvetica;font-size:10.00;" x="80" y="89">GetWeather</text>
</g>
<g id="node3" class="node"><title>GetWeatherResult</title>
<polygon style="fill:#ce5fee;stroke:black;" points="129,113 31,113 31,131 129,131 129,113"/>
<text text-anchor="middle" style="font-family:Helvetica;font-size:10.00;" x="80" y="125">GetWeatherResult</text>
</g>
<g id="edge9" class="edge"><title>GetWeather&#45;&gt;GetWeatherResult</title>
<path style="fill:none;stroke:black;" d="M80,96C80,98 80,100 80,102"/>
<polygon style="fill:black;stroke:black;" points="84,102 80,112 77,102 84,102"/>
</g>
<g id="node2" class="node"><title>CountryAndCity</title>
<polygon style="fill:#ce5fee;stroke:black;" points="123,41 37,41 37,59 123,59 123,41"/>
<text text-anchor="middle" style="font-family:Helvetica;font-size:10.00;" x="80" y="53">CountryAndCity</text>
</g>
<g id="edge5" class="edge"><title>CountryAndCity&#45;&gt;GetWeather</title>
<path style="fill:none;stroke:black;" d="M80,60C80,62 80,64 80,66"/>
<polygon style="fill:black;stroke:black;" points="84,66 80,76 77,66 84,66"/>
</g>
<g id="node8" class="node"><title>WORKFLOWINTERNALSINK_WeatherInfo</title>
<polygon style="fill:#bcd2ee;stroke:black;" points="116,168 44,168 44,186 116,186 116,168"/>
<text text-anchor="middle" style="font-family:Helvetica;font-size:10.00;" x="80" y="180">WeatherInfo</text>
</g>
<g id="edge11" class="edge"><title>GetWeatherResult&#45;&gt;WORKFLOWINTERNALSINK_WeatherInfo</title>
<path style="fill:none;stroke:black;" d="M80,132C80,139 80,148 80,157"/>
<polygon style="fill:black;stroke:black;" points="84,157 80,167 77,157 84,157"/>
</g>
<g id="node4" class="node"><title>CountryName</title>
<polygon style="fill:lightsteelblue;stroke:black;" points="83,5 5,5 5,23 83,23 83,5"/>
<text text-anchor="middle" style="font-family:Helvetica;font-size:10.00;" x="44" y="17">CountryName</text>
</g>
<g id="edge7" class="edge"><title>CountryName&#45;&gt;CountryAndCity</title>
<path style="fill:none;stroke:black;" d="M54,24C57,27 60,30 63,33"/>
<polygon style="fill:black;stroke:black;" points="65,30 70,40 60,35 65,30"/>
</g>
<g id="node5" class="node"><title>CityName</title>
<polygon style="fill:lightsteelblue;stroke:black;" points="147,5 87,5 87,23 147,23 147,5"/>
<text text-anchor="middle" style="font-family:Helvetica;font-size:10.00;" x="117" y="17">CityName</text>
</g>
<g id="edge3" class="edge"><title>CityName&#45;&gt;CountryAndCity</title>
<path style="fill:none;stroke:black;" d="M107,24C104,27 101,30 97,33"/>
<polygon style="fill:black;stroke:black;" points="100,35 90,40 95,30 100,35"/>
</g>
<g id="node7" class="node"><title>WORKFLOWINTERNALSINKCONTROL</title>
<polygon style="fill:#6acd00;stroke:black;" points="127,184 134,174 120,174 127,184"/>
</g>
</g>
</svg>
