<?xml version="1.0" encoding="UTF-8" standalone="no"?>
<!DOCTYPE svg PUBLIC "-//W3C//DTD SVG 1.0//EN"
 "http://www.w3.org/TR/2001/REC-SVG-20010904/DTD/svg10.dtd">
<!-- Generated by dot version 2.2 (Fri Mar 11 00:51:40 UTC 2005)
     For user: (root) root   Title: scufl_graph    Pages: 1 -->
<svg width="521pt" height="506pt"
 viewBox = "-1 -1 520 505"
 xmlns="http://www.w3.org/2000/svg">
<g id="graph0" class="graph" style="font-family:Times-Roman;font-size:14.00;">
<title>scufl_graph</title>
<g id="graph2" class="cluster"><title>cluster_sources</title>
<polygon style="fill:none;stroke:black;stroke-dasharray:1,5;" points="164,67 482,67 482,12 164,12 164,67"/>
<text text-anchor="middle" style="font-family:Helvetica;font-size:10.00;" x="208" y="24">Workflow Inputs</text>
</g>
<g id="graph3" class="cluster"><title>cluster_sinks</title>
<polygon style="fill:none;stroke:black;stroke-dasharray:1,5;" points="363,482 463,482 463,427 363,427 363,482"/>
<text text-anchor="middle" style="font-family:Helvetica;font-size:10.00;" x="411" y="439">Workflow Outputs</text>
</g>
<g id="node1" class="node"><title>step</title>
<polygon style="fill:lightsteelblue;stroke:black;" points="156,40 122,40 122,58 156,58 156,40"/>
<text text-anchor="middle" style="font-family:Helvetica;font-size:10.00;" x="139" y="52">step</text>
</g>
<g id="node22" class="node"><title>GetPeriods</title>
<polygon style="fill:#a3cd5a;stroke:black;" points="268,76 202,76 202,94 268,94 268,76"/>
<text text-anchor="middle" style="font-family:Helvetica;font-size:10.00;" x="235" y="88">GetPeriods</text>
</g>
<g id="edge66" class="edge"><title>step&#45;&gt;GetPeriods</title>
<path style="fill:none;stroke:black;" d="M150,59C154,62 158,65 163,67 172,71 182,75 192,78"/>
<polygon style="fill:black;stroke:black;" points="193,75 202,80 192,81 193,75"/>
</g>
<g id="node2" class="node"><title>delist_from</title>
<polygon style="fill:#ce5fee;stroke:black;" points="148,256 82,256 82,274 148,274 148,256"/>
<text text-anchor="middle" style="font-family:Helvetica;font-size:10.00;" x="115" y="268">delist_from</text>
</g>
<g id="node21" class="node"><title>MatrixBuilderR</title>
<polygon style="fill:#a3cd5a;stroke:black;" points="251,328 169,328 169,346 251,346 251,328"/>
<text text-anchor="middle" style="font-family:Helvetica;font-size:10.00;" x="210" y="340">MatrixBuilderR</text>
</g>
<g id="edge44" class="edge"><title>delist_from&#45;&gt;MatrixBuilderR</title>
<path style="fill:none;stroke:black;" d="M128,275C144,286 170,307 189,321"/>
<polygon style="fill:black;stroke:black;" points="191,318 197,327 187,324 191,318"/>
</g>
<g id="node3" class="node"><title>delist_period_start</title>
<polygon style="fill:#ce5fee;stroke:black;" points="255,256 157,256 157,274 255,274 255,256"/>
<text text-anchor="middle" style="font-family:Helvetica;font-size:10.00;" x="206" y="268">delist_period_start</text>
</g>
<g id="node18" class="node"><title>Calculate_weight</title>
<polygon style="fill:lightgoldenrodyellow;stroke:black;" points="311,292 219,292 219,310 311,310 311,292"/>
<text text-anchor="middle" style="font-family:Helvetica;font-size:10.00;" x="265" y="304">Calculate_weight</text>
</g>
<g id="edge50" class="edge"><title>delist_period_start&#45;&gt;Calculate_weight</title>
<path style="fill:none;stroke:black;" d="M222,275C227,278 234,282 240,286"/>
<polygon style="fill:black;stroke:black;" points="242,283 249,291 239,289 242,283"/>
</g>
<g id="node4" class="node"><title>MergeProjectNames</title>
<polygon style="fill:#ce5fee;stroke:black;" points="514,76 406,76 406,94 514,94 514,76"/>
<text text-anchor="middle" style="font-family:Helvetica;font-size:10.00;" x="460" y="88">MergeProjectNames</text>
</g>
<g id="node12" class="node"><title>Centralization_Plot</title>
<polygon style="fill:lightgoldenrodyellow;stroke:black;" points="454,400 354,400 354,418 454,418 454,400"/>
<text text-anchor="middle" style="font-family:Helvetica;font-size:10.00;" x="404" y="412">Centralization_Plot</text>
</g>
<g id="edge62" class="edge"><title>MergeProjectNames&#45;&gt;Centralization_Plot</title>
<path style="fill:none;stroke:black;" d="M464,95C469,109 478,135 478,157 478,157 478,157 478,337 478,363 454,382 434,394"/>
<polygon style="fill:black;stroke:black;" points="435,397 425,399 432,391 435,397"/>
</g>
<g id="node5" class="node"><title>delist_to</title>
<polygon style="fill:#ce5fee;stroke:black;" points="73,256 19,256 19,274 73,274 73,256"/>
<text text-anchor="middle" style="font-family:Helvetica;font-size:10.00;" x="46" y="268">delist_to</text>
</g>
<g id="edge54" class="edge"><title>delist_to&#45;&gt;MatrixBuilderR</title>
<path style="fill:none;stroke:black;" d="M61,275C81,287 120,309 159,325"/>
<polygon style="fill:black;stroke:black;" points="160,322 169,328 158,328 160,322"/>
</g>
<g id="node6" class="node"><title>delist_event_date</title>
<polygon style="fill:#ce5fee;stroke:black;" points="353,256 259,256 259,274 353,274 353,256"/>
<text text-anchor="middle" style="font-family:Helvetica;font-size:10.00;" x="306" y="268">delist_event_date</text>
</g>
<g id="edge42" class="edge"><title>delist_event_date&#45;&gt;Calculate_weight</title>
<path style="fill:none;stroke:black;" d="M295,275C291,278 288,281 284,285"/>
<polygon style="fill:black;stroke:black;" points="286,288 276,291 282,282 286,288"/>
</g>
<g id="node7" class="node"><title>delist_period_end</title>
<polygon style="fill:#ce5fee;stroke:black;" points="451,256 357,256 357,274 451,274 451,256"/>
<text text-anchor="middle" style="font-family:Helvetica;font-size:10.00;" x="404" y="268">delist_period_end</text>
</g>
<g id="node9" class="node"><title>Remove_duplicate_strings</title>
<polygon style="fill:#ce5fee;stroke:black;" points="471,292 337,292 337,310 471,310 471,292"/>
<text text-anchor="middle" style="font-family:Helvetica;font-size:10.00;" x="404" y="304">Remove_duplicate_strings</text>
</g>
<g id="edge48" class="edge"><title>delist_period_end&#45;&gt;Remove_duplicate_strings</title>
<path style="fill:none;stroke:black;" d="M404,275C404,277 404,279 404,281"/>
<polygon style="fill:black;stroke:black;" points="408,281 404,291 401,281 408,281"/>
</g>
<g id="edge46" class="edge"><title>delist_period_end&#45;&gt;Calculate_weight</title>
<path style="fill:none;stroke:black;" d="M367,275C350,279 330,284 312,289"/>
<polygon style="fill:black;stroke:black;" points="312,292 302,291 311,286 312,292"/>
</g>
<g id="node8" class="node"><title>delist_dates</title>
<polygon style="fill:#ce5fee;stroke:black;" points="439,328 369,328 369,346 439,346 439,328"/>
<text text-anchor="middle" style="font-family:Helvetica;font-size:10.00;" x="404" y="340">delist_dates</text>
</g>
<g id="edge40" class="edge"><title>delist_dates&#45;&gt;Centralization_Plot</title>
<path style="fill:none;stroke:black;" d="M404,347C404,357 404,375 404,389"/>
<polygon style="fill:black;stroke:black;" points="408,389 404,399 401,389 408,389"/>
</g>
<g id="edge24" class="edge"><title>Remove_duplicate_strings&#45;&gt;delist_dates</title>
<path style="fill:none;stroke:black;" d="M404,311C404,313 404,315 404,317"/>
<polygon style="fill:black;stroke:black;" points="408,317 404,327 401,317 408,317"/>
</g>
<g id="node10" class="node"><title>Extract_period_end</title>
<polygon style="fill:#ce5fee;stroke:black;" points="471,220 369,220 369,238 471,238 471,220"/>
<text text-anchor="middle" style="font-family:Helvetica;font-size:10.00;" x="420" y="232">Extract_period_end</text>
</g>
<g id="edge14" class="edge"><title>Extract_period_end&#45;&gt;delist_period_end</title>
<path style="fill:none;stroke:black;" d="M416,239C415,241 414,244 413,246"/>
<polygon style="fill:black;stroke:black;" points="416,248 408,255 410,245 416,248"/>
</g>
<g id="node11" class="node"><title>Extract_From</title>
<polygon style="fill:#ce5fee;stroke:black;" points="149,220 73,220 73,238 149,238 149,220"/>
<text text-anchor="middle" style="font-family:Helvetica;font-size:10.00;" x="111" y="232">Extract_From</text>
</g>
<g id="edge8" class="edge"><title>Extract_From&#45;&gt;delist_from</title>
<path style="fill:none;stroke:black;" d="M112,239C112,241 112,243 112,245"/>
<polygon style="fill:black;stroke:black;" points="115,245 114,255 109,246 115,245"/>
</g>
<g id="node31" class="node"><title>WORKFLOWINTERNALSINK_PNGoutput</title>
<polygon style="fill:#bcd2ee;stroke:black;" points="437,455 371,455 371,473 437,473 437,455"/>
<text text-anchor="middle" style="font-family:Helvetica;font-size:10.00;" x="404" y="467">PNGoutput</text>
</g>
<g id="edge52" class="edge"><title>Centralization_Plot&#45;&gt;WORKFLOWINTERNALSINK_PNGoutput</title>
<path style="fill:none;stroke:black;" d="M404,419C404,426 404,435 404,444"/>
<polygon style="fill:black;stroke:black;" points="408,444 404,454 401,444 408,444"/>
</g>
<g id="node13" class="node"><title>Calculate_Centralization</title>
<polygon style="fill:lightgoldenrodyellow;stroke:black;" points="314,364 190,364 190,382 314,382 314,364"/>
<text text-anchor="middle" style="font-family:Helvetica;font-size:10.00;" x="252" y="376">Calculate_Centralization</text>
</g>
<g id="edge6" class="edge"><title>Calculate_Centralization&#45;&gt;Centralization_Plot</title>
<path style="fill:none;stroke:black;" d="M292,383C311,387 334,392 354,397"/>
<polygon style="fill:black;stroke:black;" points="355,394 364,399 354,400 355,394"/>
</g>
<g id="node14" class="node"><title>Split_to_single_events</title>
<polygon style="fill:#ce5fee;stroke:black;" points="278,184 162,184 162,202 278,202 278,184"/>
<text text-anchor="middle" style="font-family:Helvetica;font-size:10.00;" x="220" y="196">Split_to_single_events</text>
</g>
<g id="edge32" class="edge"><title>Split_to_single_events&#45;&gt;Extract_period_end</title>
<path style="fill:none;stroke:black;" d="M273,203C298,207 329,213 359,217"/>
<polygon style="fill:black;stroke:black;" points="360,214 369,219 359,220 360,214"/>
</g>
<g id="edge26" class="edge"><title>Split_to_single_events&#45;&gt;Extract_From</title>
<path style="fill:none;stroke:black;" d="M191,203C178,207 163,212 150,216"/>
<polygon style="fill:black;stroke:black;" points="151,219 140,219 149,213 151,219"/>
</g>
<g id="node15" class="node"><title>Extract_period_start</title>
<polygon style="fill:#ce5fee;stroke:black;" points="259,220 153,220 153,238 259,238 259,220"/>
<text text-anchor="middle" style="font-family:Helvetica;font-size:10.00;" x="206" y="232">Extract_period_start</text>
</g>
<g id="edge38" class="edge"><title>Split_to_single_events&#45;&gt;Extract_period_start</title>
<path style="fill:none;stroke:black;" d="M216,203C215,205 214,207 214,209"/>
<polygon style="fill:black;stroke:black;" points="217,211 210,219 210,208 217,211"/>
</g>
<g id="node16" class="node"><title>Extract_event_date</title>
<polygon style="fill:#ce5fee;stroke:black;" points="365,220 263,220 263,238 365,238 365,220"/>
<text text-anchor="middle" style="font-family:Helvetica;font-size:10.00;" x="314" y="232">Extract_event_date</text>
</g>
<g id="edge30" class="edge"><title>Split_to_single_events&#45;&gt;Extract_event_date</title>
<path style="fill:none;stroke:black;" d="M245,203C256,207 268,211 280,216"/>
<polygon style="fill:black;stroke:black;" points="281,213 289,219 278,219 281,213"/>
</g>
<g id="node17" class="node"><title>Extract_To</title>
<polygon style="fill:#ce5fee;stroke:black;" points="69,220 5,220 5,238 69,238 69,220"/>
<text text-anchor="middle" style="font-family:Helvetica;font-size:10.00;" x="37" y="232">Extract_To</text>
</g>
<g id="edge28" class="edge"><title>Split_to_single_events&#45;&gt;Extract_To</title>
<path style="fill:none;stroke:black;" d="M162,202C137,206 108,211 79,217"/>
<polygon style="fill:black;stroke:black;" points="79,220 69,219 78,214 79,220"/>
</g>
<g id="edge16" class="edge"><title>Extract_period_start&#45;&gt;delist_period_start</title>
<path style="fill:none;stroke:black;" d="M206,239C206,241 206,243 206,245"/>
<polygon style="fill:black;stroke:black;" points="210,245 206,255 203,245 210,245"/>
</g>
<g id="edge12" class="edge"><title>Extract_event_date&#45;&gt;delist_event_date</title>
<path style="fill:none;stroke:black;" d="M312,239C312,241 311,243 310,245"/>
<polygon style="fill:black;stroke:black;" points="313,246 308,255 307,245 313,246"/>
</g>
<g id="edge10" class="edge"><title>Extract_To&#45;&gt;delist_to</title>
<path style="fill:none;stroke:black;" d="M39,239C39,241 40,243 41,245"/>
<polygon style="fill:black;stroke:black;" points="44,245 43,255 38,246 44,245"/>
</g>
<g id="edge36" class="edge"><title>Calculate_weight&#45;&gt;MatrixBuilderR</title>
<path style="fill:none;stroke:black;" d="M250,311C245,314 239,318 234,322"/>
<polygon style="fill:black;stroke:black;" points="235,325 225,327 232,319 235,325"/>
</g>
<g id="node19" class="node"><title>split_periods</title>
<polygon style="fill:#ce5fee;stroke:black;" points="271,112 199,112 199,130 271,130 271,112"/>
<text text-anchor="middle" style="font-family:Helvetica;font-size:10.00;" x="235" y="124">split_periods</text>
</g>
<g id="node20" class="node"><title>EventsForProjectsInPeriod</title>
<polygon style="fill:#a3cd5a;stroke:black;" points="302,148 168,148 168,166 302,166 302,148"/>
<text text-anchor="middle" style="font-family:Helvetica;font-size:10.00;" x="235" y="160">EventsForProjectsInPeriod</text>
</g>
<g id="edge64" class="edge"><title>split_periods&#45;&gt;EventsForProjectsInPeriod</title>
<path style="fill:none;stroke:black;" d="M235,131C235,133 235,135 235,137"/>
<polygon style="fill:black;stroke:black;" points="239,137 235,147 232,137 239,137"/>
</g>
<g id="edge58" class="edge"><title>EventsForProjectsInPeriod&#45;&gt;Split_to_single_events</title>
<path style="fill:none;stroke:black;" d="M231,167C230,169 229,171 228,174"/>
<polygon style="fill:black;stroke:black;" points="231,175 224,183 225,172 231,175"/>
</g>
<g id="edge20" class="edge"><title>MatrixBuilderR&#45;&gt;Calculate_Centralization</title>
<path style="fill:none;stroke:black;" d="M221,347C225,350 229,353 233,357"/>
<polygon style="fill:black;stroke:black;" points="235,354 241,363 231,360 235,354"/>
</g>
<g id="edge18" class="edge"><title>GetPeriods&#45;&gt;split_periods</title>
<path style="fill:none;stroke:black;" d="M235,95C235,97 235,99 235,101"/>
<polygon style="fill:black;stroke:black;" points="239,101 235,111 232,101 239,101"/>
</g>
<g id="node24" class="node"><title>WORKFLOWINTERNALSOURCECONTROL</title>
<polygon style="fill:#ff3f3f;stroke:black;" points="467,42 460,52 474,52 467,42"/>
</g>
<g id="node25" class="node"><title>WORKFLOWINTERNALSOURCE_Start_Date</title>
<polygon style="fill:skyblue;stroke:black;" points="300,40 236,40 236,58 300,58 300,40"/>
<text text-anchor="middle" style="font-family:Helvetica;font-size:10.00;" x="268" y="52">Start_Date</text>
</g>
<g id="edge34" class="edge"><title>WORKFLOWINTERNALSOURCE_Start_Date&#45;&gt;GetPeriods</title>
<path style="fill:none;stroke:black;" d="M259,59C256,62 253,65 251,68"/>
<polygon style="fill:black;stroke:black;" points="254,70 244,75 249,65 254,70"/>
</g>
<g id="node26" class="node"><title>WORKFLOWINTERNALSOURCE_End_Date</title>
<polygon style="fill:skyblue;stroke:black;" points="232,40 172,40 172,58 232,58 232,40"/>
<text text-anchor="middle" style="font-family:Helvetica;font-size:10.00;" x="202" y="52">End_Date</text>
</g>
<g id="edge4" class="edge"><title>WORKFLOWINTERNALSOURCE_End_Date&#45;&gt;GetPeriods</title>
<path style="fill:none;stroke:black;" d="M211,59C214,62 217,65 219,68"/>
<polygon style="fill:black;stroke:black;" points="221,65 226,75 216,70 221,65"/>
</g>
<g id="node27" class="node"><title>WORKFLOWINTERNALSOURCE_Project_list</title>
<polygon style="fill:skyblue;stroke:black;" points="456,40 390,40 390,58 456,58 456,40"/>
<text text-anchor="middle" style="font-family:Helvetica;font-size:10.00;" x="423" y="52">Project_list</text>
</g>
<g id="edge60" class="edge"><title>WORKFLOWINTERNALSOURCE_Project_list&#45;&gt;MergeProjectNames</title>
<path style="fill:none;stroke:black;" d="M433,59C436,62 439,65 443,68"/>
<polygon style="fill:black;stroke:black;" points="445,65 450,75 440,70 445,65"/>
</g>
<g id="edge22" class="edge"><title>WORKFLOWINTERNALSOURCE_Project_list&#45;&gt;EventsForProjectsInPeriod</title>
<path style="fill:none;stroke:black;" d="M406,59C373,77 300,120 261,142"/>
<polygon style="fill:black;stroke:black;" points="262,145 252,147 259,139 262,145"/>
</g>
<g id="node28" class="node"><title>WORKFLOWINTERNALSOURCE_sliding_window</title>
<polygon style="fill:skyblue;stroke:black;" points="386,40 304,40 304,58 386,58 386,40"/>
<text text-anchor="middle" style="font-family:Helvetica;font-size:10.00;" x="345" y="52">sliding_window</text>
</g>
<g id="edge56" class="edge"><title>WORKFLOWINTERNALSOURCE_sliding_window&#45;&gt;GetPeriods</title>
<path style="fill:none;stroke:black;" d="M324,59C317,62 309,65 302,67 294,70 286,72 278,74"/>
<polygon style="fill:black;stroke:black;" points="279,77 268,77 277,71 279,77"/>
</g>
<g id="node30" class="node"><title>WORKFLOWINTERNALSINKCONTROL</title>
<polygon style="fill:#6acd00;stroke:black;" points="448,471 455,461 441,461 448,471"/>
</g>
</g>
</svg>
