<?xml version="1.0" encoding="UTF-8" standalone="no"?>
<!DOCTYPE svg PUBLIC "-//W3C//DTD SVG 1.0//EN"
 "http://www.w3.org/TR/2001/REC-SVG-20010904/DTD/svg10.dtd">
<!-- Generated by dot version 2.2 (Fri Mar 11 00:51:40 UTC 2005)
     For user: (root) root   Title: scufl_graph    Pages: 1 -->
<svg width="156pt" height="254pt"
 viewBox = "-1 -1 155 253"
 xmlns="http://www.w3.org/2000/svg">
<g id="graph0" class="graph" style="font-family:Times-Roman;font-size:14.00;">
<title>scufl_graph</title>
<g id="graph2" class="cluster"><title>cluster_sources</title>
<polygon style="fill:none;stroke:black;stroke-dasharray:1,5;" points="29,67 119,67 119,12 29,12 29,67"/>
<text text-anchor="middle" style="font-family:Helvetica;font-size:10.00;" x="73" y="24">Workflow Inputs</text>
</g>
<g id="graph3" class="cluster"><title>cluster_sinks</title>
<polygon style="fill:none;stroke:black;stroke-dasharray:1,5;" points="13,230 141,230 141,175 13,175 13,230"/>
<text text-anchor="middle" style="font-family:Helvetica;font-size:10.00;" x="61" y="187">Workflow Outputs</text>
</g>
<g id="node1" class="node"><title>Fail_if_false</title>
<polygon style="fill:#ce5fee;stroke:black;" points="73,76 5,76 5,94 73,94 73,76"/>
<text text-anchor="middle" style="font-family:Helvetica;font-size:10.00;" x="39" y="88">Fail_if_false</text>
</g>
<g id="node3" class="node"><title>tempF</title>
<polygon style="fill:lightsteelblue;stroke:black;" points="66,112 22,112 22,130 66,130 66,112"/>
<text text-anchor="middle" style="font-family:Helvetica;font-size:10.00;" x="44" y="124">tempF</text>
</g>
<g id="edge18" class="edge"><title>Fail_if_false&#45;&gt;tempF</title>
<path style="fill:none;stroke:gray;" d="M40,95C40,97 41,100 41,103"/>
<ellipse cx="42" cy="107" rx="4" ry="4" style="fill:none;stroke:gray;"/>
</g>
<g id="node2" class="node"><title>Fail_if_true</title>
<polygon style="fill:#ce5fee;stroke:black;" points="143,76 77,76 77,94 143,94 143,76"/>
<text text-anchor="middle" style="font-family:Helvetica;font-size:10.00;" x="110" y="88">Fail_if_true</text>
</g>
<g id="node4" class="node"><title>tempC</title>
<polygon style="fill:lightsteelblue;stroke:black;" points="127,112 81,112 81,130 127,130 127,112"/>
<text text-anchor="middle" style="font-family:Helvetica;font-size:10.00;" x="104" y="124">tempC</text>
</g>
<g id="edge16" class="edge"><title>Fail_if_true&#45;&gt;tempC</title>
<path style="fill:none;stroke:gray;" d="M108,95C108,97 108,100 107,103"/>
<ellipse cx="106" cy="107" rx="4" ry="4" style="fill:none;stroke:gray;"/>
</g>
<g id="node6" class="node"><title>FtoC</title>
<polygon style="fill:#a3cd5a;stroke:black;" points="63,148 25,148 25,166 63,166 63,148"/>
<text text-anchor="middle" style="font-family:Helvetica;font-size:10.00;" x="44" y="160">FtoC</text>
</g>
<g id="edge14" class="edge"><title>tempF&#45;&gt;FtoC</title>
<path style="fill:none;stroke:black;" d="M44,131C44,133 44,135 44,137"/>
<polygon style="fill:black;stroke:black;" points="48,137 44,147 41,137 48,137"/>
</g>
<g id="node5" class="node"><title>CtoF</title>
<polygon style="fill:#a3cd5a;stroke:black;" points="112,148 74,148 74,166 112,166 112,148"/>
<text text-anchor="middle" style="font-family:Helvetica;font-size:10.00;" x="93" y="160">CtoF</text>
</g>
<g id="edge12" class="edge"><title>tempC&#45;&gt;CtoF</title>
<path style="fill:none;stroke:black;" d="M101,131C101,133 100,135 99,137"/>
<polygon style="fill:black;stroke:black;" points="102,138 96,147 96,136 102,138"/>
</g>
<g id="node12" class="node"><title>WORKFLOWINTERNALSINK_tempF</title>
<polygon style="fill:#bcd2ee;stroke:black;" points="115,203 71,203 71,221 115,221 115,203"/>
<text text-anchor="middle" style="font-family:Helvetica;font-size:10.00;" x="93" y="215">tempF</text>
</g>
<g id="edge8" class="edge"><title>CtoF&#45;&gt;WORKFLOWINTERNALSINK_tempF</title>
<path style="fill:none;stroke:black;" d="M93,167C93,174 93,183 93,192"/>
<polygon style="fill:black;stroke:black;" points="97,192 93,202 90,192 97,192"/>
</g>
<g id="node13" class="node"><title>WORKFLOWINTERNALSINK_tempC</title>
<polygon style="fill:#bcd2ee;stroke:black;" points="67,203 21,203 21,221 67,221 67,203"/>
<text text-anchor="middle" style="font-family:Helvetica;font-size:10.00;" x="44" y="215">tempC</text>
</g>
<g id="edge10" class="edge"><title>FtoC&#45;&gt;WORKFLOWINTERNALSINK_tempC</title>
<path style="fill:none;stroke:black;" d="M44,167C44,174 44,183 44,192"/>
<polygon style="fill:black;stroke:black;" points="48,192 44,202 41,192 48,192"/>
</g>
<g id="node8" class="node"><title>WORKFLOWINTERNALSOURCECONTROL</title>
<polygon style="fill:#ff3f3f;stroke:black;" points="104,42 97,52 111,52 104,42"/>
</g>
<g id="node9" class="node"><title>WORKFLOWINTERNALSOURCE_condition</title>
<polygon style="fill:skyblue;stroke:black;" points="93,40 37,40 37,58 93,58 93,40"/>
<text text-anchor="middle" style="font-family:Helvetica;font-size:10.00;" x="65" y="52">condition</text>
</g>
<g id="edge4" class="edge"><title>WORKFLOWINTERNALSOURCE_condition&#45;&gt;Fail_if_false</title>
<path style="fill:none;stroke:black;" d="M58,59C56,61 54,64 52,67"/>
<polygon style="fill:black;stroke:black;" points="55,69 46,75 49,65 55,69"/>
</g>
<g id="edge6" class="edge"><title>WORKFLOWINTERNALSOURCE_condition&#45;&gt;Fail_if_true</title>
<path style="fill:none;stroke:black;" d="M77,59C81,62 86,65 90,69"/>
<polygon style="fill:black;stroke:black;" points="92,66 98,75 88,72 92,66"/>
</g>
<g id="node11" class="node"><title>WORKFLOWINTERNALSINKCONTROL</title>
<polygon style="fill:#6acd00;stroke:black;" points="126,219 133,209 119,209 126,219"/>
</g>
</g>
</svg>
