<?xml version="1.0" encoding="UTF-8" standalone="no"?>
<!DOCTYPE svg PUBLIC "-//W3C//DTD SVG 1.0//EN"
 "http://www.w3.org/TR/2001/REC-SVG-20010904/DTD/svg10.dtd">
<!-- Generated by dot version 2.2 (Fri Mar 11 00:51:40 UTC 2005)
     For user: (root) root   Title: scufl_graph    Pages: 1 -->
<svg width="202pt" height="290pt"
 viewBox = "-1 -1 201 289"
 xmlns="http://www.w3.org/2000/svg">
<g id="graph0" class="graph" style="font-family:Times-Roman;font-size:14.00;">
<title>scufl_graph</title>
<g id="graph2" class="cluster"><title>cluster_sources</title>
<polygon style="fill:none;stroke:black;stroke-dasharray:1,5;" points="55,67 163,67 163,12 55,12 55,67"/>
<text text-anchor="middle" style="font-family:Helvetica;font-size:10.00;" x="99" y="24">Workflow Inputs</text>
</g>
<g id="graph3" class="cluster"><title>cluster_sinks</title>
<polygon style="fill:none;stroke:black;stroke-dasharray:1,5;" points="69,266 165,266 165,211 69,211 69,266"/>
<text text-anchor="middle" style="font-family:Helvetica;font-size:10.00;" x="117" y="223">Workflow Outputs</text>
</g>
<g id="node1" class="node"><title>Beanshell_scripting_host</title>
<polygon style="fill:#eec391;stroke:black;" points="164,184 36,184 36,202 164,202 164,184"/>
<text text-anchor="middle" style="font-family:Helvetica;font-size:10.00;" x="100" y="196">Beanshell_scripting_host</text>
</g>
<g id="node10" class="node"><title>WORKFLOWINTERNALSINK_Graph</title>
<polygon style="fill:#bcd2ee;stroke:black;" points="122,239 78,239 78,257 122,257 122,239"/>
<text text-anchor="middle" style="font-family:Helvetica;font-size:10.00;" x="100" y="251">Graph</text>
</g>
<g id="edge12" class="edge"><title>Beanshell_scripting_host&#45;&gt;WORKFLOWINTERNALSINK_Graph</title>
<path style="fill:none;stroke:black;" d="M100,203C100,210 100,219 100,228"/>
<polygon style="fill:black;stroke:black;" points="104,228 100,238 97,228 104,228"/>
</g>
<g id="node2" class="node"><title>GeneIlluminator_GetGraph</title>
<polygon style="fill:#ffb80f;stroke:black;" points="168,112 32,112 32,130 168,130 168,112"/>
<text text-anchor="middle" style="font-family:Helvetica;font-size:10.00;" x="100" y="124">GeneIlluminator_GetGraph</text>
</g>
<g id="node4" class="node"><title>Parse_Moby_Data_b64_encoded_svgz</title>
<polygon style="fill:white;stroke:black;" points="195,148 5,148 5,166 195,166 195,148"/>
<text text-anchor="middle" style="font-family:Helvetica;font-size:10.00;" x="100" y="160">Parse_Moby_Data_b64_encoded_svgz</text>
</g>
<g id="edge6" class="edge"><title>GeneIlluminator_GetGraph&#45;&gt;Parse_Moby_Data_b64_encoded_svgz</title>
<path style="fill:none;stroke:black;" d="M100,131C100,133 100,135 100,137"/>
<polygon style="fill:black;stroke:black;" points="104,137 100,147 97,137 104,137"/>
</g>
<g id="node3" class="node"><title>Object</title>
<polygon style="fill:gold;stroke:black;" points="122,76 78,76 78,94 122,94 122,76"/>
<text text-anchor="middle" style="font-family:Helvetica;font-size:10.00;" x="100" y="88">Object</text>
</g>
<g id="edge8" class="edge"><title>Object&#45;&gt;GeneIlluminator_GetGraph</title>
<path style="fill:none;stroke:black;" d="M100,95C100,97 100,99 100,101"/>
<polygon style="fill:black;stroke:black;" points="104,101 100,111 97,101 104,101"/>
</g>
<g id="edge10" class="edge"><title>Parse_Moby_Data_b64_encoded_svgz&#45;&gt;Beanshell_scripting_host</title>
<path style="fill:none;stroke:black;" d="M100,167C100,169 100,171 100,173"/>
<polygon style="fill:black;stroke:black;" points="104,173 100,183 97,173 104,173"/>
</g>
<g id="node6" class="node"><title>WORKFLOWINTERNALSOURCECONTROL</title>
<polygon style="fill:#ff3f3f;stroke:black;" points="148,42 141,52 155,52 148,42"/>
</g>
<g id="node7" class="node"><title>WORKFLOWINTERNALSOURCE_GeneSymbol</title>
<polygon style="fill:skyblue;stroke:black;" points="137,40 63,40 63,58 137,58 137,40"/>
<text text-anchor="middle" style="font-family:Helvetica;font-size:10.00;" x="100" y="52">GeneSymbol</text>
</g>
<g id="edge4" class="edge"><title>WORKFLOWINTERNALSOURCE_GeneSymbol&#45;&gt;Object</title>
<path style="fill:none;stroke:black;" d="M100,59C100,61 100,63 100,65"/>
<polygon style="fill:black;stroke:black;" points="104,65 100,75 97,65 104,65"/>
</g>
<g id="node9" class="node"><title>WORKFLOWINTERNALSINKCONTROL</title>
<polygon style="fill:#6acd00;stroke:black;" points="141,255 148,245 134,245 141,255"/>
</g>
</g>
</svg>
