<?xml version="1.0" encoding="UTF-8" standalone="no"?>
<!DOCTYPE svg PUBLIC "-//W3C//DTD SVG 1.0//EN"
 "http://www.w3.org/TR/2001/REC-SVG-20010904/DTD/svg10.dtd">
<!-- Generated by dot version 2.2 (Fri Mar 11 00:51:40 UTC 2005)
     For user: (root) root   Title: scufl_graph    Pages: 1 -->
<svg width="496pt" height="532pt"
 viewBox = "-1 -1 495 531"
 xmlns="http://www.w3.org/2000/svg">
<g id="graph0" class="graph" style="font-family:Times-Roman;font-size:14.00;">
<title>scufl_graph</title>
<g id="graph2" class="cluster"><title>cluster_Biooptimize_queryBiooptimize_query</title>
<polygon style="fill:aliceblue;stroke:black;" points="13,256 259,256 259,75 13,75 13,256"/>
<text text-anchor="middle" style="font-family:Helvetica;font-size:10.00;" x="62" y="87">Biooptimize_query</text>
</g>
<g id="graph3" class="cluster"><title>cluster_Biooptimize_querysources</title>
<polygon style="fill:none;stroke:black;stroke-dasharray:1,5;" points="145,157 251,157 251,102 145,102 145,157"/>
<text text-anchor="middle" style="font-family:Helvetica;font-size:10.00;" x="189" y="114">Workflow Inputs</text>
</g>
<g id="graph4" class="cluster"><title>cluster_Biooptimize_querysinks</title>
<polygon style="fill:none;stroke:black;stroke-dasharray:1,5;" points="93,248 251,248 251,193 93,193 93,248"/>
<text text-anchor="middle" style="font-family:Helvetica;font-size:10.00;" x="141" y="205">Workflow Outputs</text>
</g>
<g id="graph5" class="cluster"><title>cluster_RetrieveRetrieve</title>
<polygon style="fill:aliceblue;stroke:black;" points="139,445 481,445 481,264 139,264 139,445"/>
<text text-anchor="middle" style="font-family:Helvetica;font-size:10.00;" x="165" y="276">Retrieve</text>
</g>
<g id="graph6" class="cluster"><title>cluster_Retrievesources</title>
<polygon style="fill:none;stroke:black;stroke-dasharray:1,5;" points="147,346 473,346 473,291 147,291 147,346"/>
<text text-anchor="middle" style="font-family:Helvetica;font-size:10.00;" x="191" y="303">Workflow Inputs</text>
</g>
<g id="graph7" class="cluster"><title>cluster_Retrievesinks</title>
<polygon style="fill:none;stroke:black;stroke-dasharray:1,5;" points="253,437 393,437 393,382 253,382 253,437"/>
<text text-anchor="middle" style="font-family:Helvetica;font-size:10.00;" x="301" y="394">Workflow Outputs</text>
</g>
<g id="graph8" class="cluster"><title>cluster_sources</title>
<polygon style="fill:none;stroke:black;stroke-dasharray:1,5;" points="143,67 473,67 473,12 143,12 143,67"/>
<text text-anchor="middle" style="font-family:Helvetica;font-size:10.00;" x="187" y="24">Workflow Inputs</text>
</g>
<g id="graph9" class="cluster"><title>cluster_sinks</title>
<polygon style="fill:none;stroke:black;stroke-dasharray:1,5;" points="253,508 393,508 393,453 253,453 253,508"/>
<text text-anchor="middle" style="font-family:Helvetica;font-size:10.00;" x="301" y="465">Workflow Outputs</text>
</g>
<g id="node2" class="node"><title>Biooptimize_queryLucene_year_priorities</title>
<polygon style="fill:lightsteelblue;stroke:black;" points="137,130 21,130 21,148 137,148 137,130"/>
<text text-anchor="middle" style="font-family:Helvetica;font-size:10.00;" x="79" y="142">Lucene_year_priorities</text>
</g>
<g id="node3" class="node"><title>Biooptimize_queryPrioritise_lucene_query</title>
<polygon style="fill:#eec391;stroke:black;" points="223,166 103,166 103,184 223,184 223,166"/>
<text text-anchor="middle" style="font-family:Helvetica;font-size:10.00;" x="163" y="178">Prioritise_lucene_query</text>
</g>
<g id="edge5" class="edge"><title>Biooptimize_queryLucene_year_priorities&#45;&gt;Biooptimize_queryPrioritise_lucene_query</title>
<path style="fill:none;stroke:black;" d="M102,149C111,153 122,157 132,161"/>
<polygon style="fill:black;stroke:black;" points="133,158 141,165 130,164 133,158"/>
</g>
<g id="node9" class="node"><title>Biooptimize_queryWORKFLOWINTERNALSINK_optimized_lucene_query</title>
<polygon style="fill:#bcd2ee;stroke:black;" points="225,221 101,221 101,239 225,239 225,221"/>
<text text-anchor="middle" style="font-family:Helvetica;font-size:10.00;" x="163" y="233">optimized_lucene_query</text>
</g>
<g id="edge9" class="edge"><title>Biooptimize_queryPrioritise_lucene_query&#45;&gt;Biooptimize_queryWORKFLOWINTERNALSINK_optimized_lucene_query</title>
<path style="fill:none;stroke:black;" d="M163,185C163,192 163,201 163,210"/>
<polygon style="fill:black;stroke:black;" points="167,210 163,220 160,210 167,210"/>
</g>
<g id="node5" class="node"><title>Biooptimize_queryWORKFLOWINTERNALSOURCECONTROL</title>
<polygon style="fill:#ff3f3f;stroke:black;" points="236,132 229,142 243,142 236,132"/>
</g>
<g id="node6" class="node"><title>Biooptimize_queryWORKFLOWINTERNALSOURCE_query_string</title>
<polygon style="fill:skyblue;stroke:black;" points="225,130 153,130 153,148 225,148 225,130"/>
<text text-anchor="middle" style="font-family:Helvetica;font-size:10.00;" x="189" y="142">query_string</text>
</g>
<g id="edge7" class="edge"><title>Biooptimize_queryWORKFLOWINTERNALSOURCE_query_string&#45;&gt;Biooptimize_queryPrioritise_lucene_query</title>
<path style="fill:none;stroke:black;" d="M182,149C180,151 178,154 176,157"/>
<polygon style="fill:black;stroke:black;" points="179,159 170,165 173,155 179,159"/>
</g>
<g id="node8" class="node"><title>Biooptimize_queryWORKFLOWINTERNALSINKCONTROL</title>
<polygon style="fill:#6acd00;stroke:black;" points="236,237 243,227 229,227 236,237"/>
</g>
<g id="node17" class="node"><title>RetrieveWORKFLOWINTERNALSOURCE_queryString</title>
<polygon style="fill:skyblue;stroke:black;" points="223,319 155,319 155,337 223,337 223,319"/>
<text text-anchor="middle" style="font-family:Helvetica;font-size:10.00;" x="189" y="331">queryString</text>
</g>
<g id="edge28" class="edge"><title>Biooptimize_queryWORKFLOWINTERNALSINK_optimized_lucene_query&#45;&gt;RetrieveWORKFLOWINTERNALSOURCE_queryString</title>
<path style="fill:none;stroke:black;" d="M166,240C170,256 178,288 183,308"/>
<polygon style="fill:black;stroke:black;" points="186,307 186,318 180,309 186,307"/>
</g>
<g id="node14" class="node"><title>Retrievesearch</title>
<polygon style="fill:#a3cd5a;stroke:black;" points="337,355 291,355 291,373 337,373 337,355"/>
<text text-anchor="middle" style="font-family:Helvetica;font-size:10.00;" x="314" y="367">search</text>
</g>
<g id="node23" class="node"><title>RetrieveWORKFLOWINTERNALSINK_relevant_documents</title>
<polygon style="fill:#bcd2ee;stroke:black;" points="367,410 261,410 261,428 367,428 367,410"/>
<text text-anchor="middle" style="font-family:Helvetica;font-size:10.00;" x="314" y="422">relevant_documents</text>
</g>
<g id="edge22" class="edge"><title>Retrievesearch&#45;&gt;RetrieveWORKFLOWINTERNALSINK_relevant_documents</title>
<path style="fill:none;stroke:black;" d="M314,374C314,381 314,390 314,399"/>
<polygon style="fill:black;stroke:black;" points="318,399 314,409 311,399 318,399"/>
</g>
<g id="node16" class="node"><title>RetrieveWORKFLOWINTERNALSOURCECONTROL</title>
<polygon style="fill:#ff3f3f;stroke:black;" points="458,321 451,331 465,331 458,321"/>
</g>
<g id="edge18" class="edge"><title>RetrieveWORKFLOWINTERNALSOURCE_queryString&#45;&gt;Retrievesearch</title>
<path style="fill:none;stroke:black;" d="M205,338C212,341 219,344 225,346 243,353 264,357 281,360"/>
<polygon style="fill:black;stroke:black;" points="281,357 291,361 281,363 281,357"/>
</g>
<g id="node18" class="node"><title>RetrieveWORKFLOWINTERNALSOURCE_document_index</title>
<polygon style="fill:skyblue;stroke:black;" points="317,319 227,319 227,337 317,337 317,319"/>
<text text-anchor="middle" style="font-family:Helvetica;font-size:10.00;" x="272" y="331">document_index</text>
</g>
<g id="edge14" class="edge"><title>RetrieveWORKFLOWINTERNALSOURCE_document_index&#45;&gt;Retrievesearch</title>
<path style="fill:none;stroke:black;" d="M283,338C287,341 291,344 295,348"/>
<polygon style="fill:black;stroke:black;" points="297,345 303,354 293,351 297,345"/>
</g>
<g id="node19" class="node"><title>RetrieveWORKFLOWINTERNALSOURCE_search_field</title>
<polygon style="fill:skyblue;stroke:black;" points="391,319 321,319 321,337 391,337 391,319"/>
<text text-anchor="middle" style="font-family:Helvetica;font-size:10.00;" x="356" y="331">search_field</text>
</g>
<g id="edge20" class="edge"><title>RetrieveWORKFLOWINTERNALSOURCE_search_field&#45;&gt;Retrievesearch</title>
<path style="fill:none;stroke:black;" d="M345,338C341,341 337,344 333,348"/>
<polygon style="fill:black;stroke:black;" points="335,351 325,354 331,345 335,351"/>
</g>
<g id="node20" class="node"><title>RetrieveWORKFLOWINTERNALSOURCE_maxHits</title>
<polygon style="fill:skyblue;stroke:black;" points="447,319 395,319 395,337 447,337 447,319"/>
<text text-anchor="middle" style="font-family:Helvetica;font-size:10.00;" x="421" y="331">maxHits</text>
</g>
<g id="edge16" class="edge"><title>RetrieveWORKFLOWINTERNALSOURCE_maxHits&#45;&gt;Retrievesearch</title>
<path style="fill:none;stroke:black;" d="M409,338C404,341 399,344 393,346 379,352 361,356 347,359"/>
<polygon style="fill:black;stroke:black;" points="347,362 337,361 346,356 347,362"/>
</g>
<g id="node22" class="node"><title>RetrieveWORKFLOWINTERNALSINKCONTROL</title>
<polygon style="fill:#6acd00;stroke:black;" points="378,426 385,416 371,416 378,426"/>
</g>
<g id="node37" class="node"><title>WORKFLOWINTERNALSINK_relevant_documents</title>
<polygon style="fill:#bcd2ee;stroke:black;" points="367,481 261,481 261,499 367,499 367,481"/>
<text text-anchor="middle" style="font-family:Helvetica;font-size:10.00;" x="314" y="493">relevant_documents</text>
</g>
<g id="edge36" class="edge"><title>RetrieveWORKFLOWINTERNALSINK_relevant_documents&#45;&gt;WORKFLOWINTERNALSINK_relevant_documents</title>
<path style="fill:none;stroke:black;" d="M314,429C314,439 314,457 314,470"/>
<polygon style="fill:black;stroke:black;" points="318,470 314,480 311,470 318,470"/>
</g>
<g id="node30" class="node"><title>WORKFLOWINTERNALSOURCECONTROL</title>
<polygon style="fill:#ff3f3f;stroke:black;" points="458,42 451,52 465,52 458,42"/>
</g>
<g id="node31" class="node"><title>WORKFLOWINTERNALSOURCE_query_string</title>
<polygon style="fill:skyblue;stroke:black;" points="223,40 151,40 151,58 223,58 223,40"/>
<text text-anchor="middle" style="font-family:Helvetica;font-size:10.00;" x="187" y="52">query_string</text>
</g>
<g id="edge26" class="edge"><title>WORKFLOWINTERNALSOURCE_query_string&#45;&gt;Biooptimize_queryWORKFLOWINTERNALSOURCE_query_string</title>
<path style="fill:none;stroke:black;" d="M187,59C188,73 188,100 189,119"/>
<polygon style="fill:black;stroke:black;" points="193,119 189,129 186,119 193,119"/>
</g>
<g id="node32" class="node"><title>WORKFLOWINTERNALSOURCE_document_index</title>
<polygon style="fill:skyblue;stroke:black;" points="317,40 227,40 227,58 317,58 317,40"/>
<text text-anchor="middle" style="font-family:Helvetica;font-size:10.00;" x="272" y="52">document_index</text>
</g>
<g id="edge30" class="edge"><title>WORKFLOWINTERNALSOURCE_document_index&#45;&gt;RetrieveWORKFLOWINTERNALSOURCE_document_index</title>
<path style="fill:none;stroke:black;" d="M272,59C272,99 272,253 272,308"/>
<polygon style="fill:black;stroke:black;" points="276,308 272,318 269,308 276,308"/>
</g>
<g id="node33" class="node"><title>WORKFLOWINTERNALSOURCE_search_field</title>
<polygon style="fill:skyblue;stroke:black;" points="391,40 321,40 321,58 391,58 391,40"/>
<text text-anchor="middle" style="font-family:Helvetica;font-size:10.00;" x="356" y="52">search_field</text>
</g>
<g id="edge34" class="edge"><title>WORKFLOWINTERNALSOURCE_search_field&#45;&gt;RetrieveWORKFLOWINTERNALSOURCE_search_field</title>
<path style="fill:none;stroke:black;" d="M356,59C356,99 356,253 356,308"/>
<polygon style="fill:black;stroke:black;" points="360,308 356,318 353,308 360,308"/>
</g>
<g id="node34" class="node"><title>WORKFLOWINTERNALSOURCE_maxHits</title>
<polygon style="fill:skyblue;stroke:black;" points="447,40 395,40 395,58 447,58 447,40"/>
<text text-anchor="middle" style="font-family:Helvetica;font-size:10.00;" x="421" y="52">maxHits</text>
</g>
<g id="edge32" class="edge"><title>WORKFLOWINTERNALSOURCE_maxHits&#45;&gt;RetrieveWORKFLOWINTERNALSOURCE_maxHits</title>
<path style="fill:none;stroke:black;" d="M421,59C421,99 421,253 421,308"/>
<polygon style="fill:black;stroke:black;" points="425,308 421,318 418,308 425,308"/>
</g>
<g id="node36" class="node"><title>WORKFLOWINTERNALSINKCONTROL</title>
<polygon style="fill:#6acd00;stroke:black;" points="378,497 385,487 371,487 378,497"/>
</g>
</g>
</svg>
