<?xml version="1.0" encoding="UTF-8" standalone="no"?>
<!DOCTYPE svg PUBLIC "-//W3C//DTD SVG 1.0//EN"
 "http://www.w3.org/TR/2001/REC-SVG-20010904/DTD/svg10.dtd">
<!-- Generated by dot version 2.2 (Fri Mar 11 00:51:40 UTC 2005)
     For user: (root) root   Title: scufl_graph    Pages: 1 -->
<svg width="320pt" height="218pt"
 viewBox = "-1 -1 319 217"
 xmlns="http://www.w3.org/2000/svg">
<g id="graph0" class="graph" style="font-family:Times-Roman;font-size:14.00;">
<title>scufl_graph</title>
<g id="graph2" class="cluster"><title>cluster_sources</title>
<polygon style="fill:none;stroke:black;stroke-dasharray:1,5;" points="133,67 243,67 243,12 133,12 133,67"/>
<text text-anchor="middle" style="font-family:Helvetica;font-size:10.00;" x="177" y="24">Workflow Inputs</text>
</g>
<g id="graph3" class="cluster"><title>cluster_sinks</title>
<polygon style="fill:none;stroke:black;stroke-dasharray:1,5;" points="115,194 305,194 305,139 115,139 115,194"/>
<text text-anchor="middle" style="font-family:Helvetica;font-size:10.00;" x="163" y="151">Workflow Outputs</text>
</g>
<g id="node1" class="node"><title>Get_Protein_FASTA</title>
<polygon style="fill:#ce5fee;stroke:black;" points="231,76 127,76 127,94 231,94 231,76"/>
<text text-anchor="middle" style="font-family:Helvetica;font-size:10.00;" x="179" y="88">Get_Protein_FASTA</text>
</g>
<g id="node2" class="node"><title>searchSimple</title>
<polygon style="fill:#a3cd5a;stroke:black;" points="111,112 35,112 35,130 111,130 111,112"/>
<text text-anchor="middle" style="font-family:Helvetica;font-size:10.00;" x="73" y="124">searchSimple</text>
</g>
<g id="edge10" class="edge"><title>Get_Protein_FASTA&#45;&gt;searchSimple</title>
<path style="fill:none;stroke:black;" d="M151,95C138,99 124,104 111,108"/>
<polygon style="fill:black;stroke:black;" points="112,111 101,111 110,105 112,111"/>
</g>
<g id="node5" class="node"><title>pscan</title>
<polygon style="fill:lightgoldenrodyellow;stroke:black;" points="157,112 115,112 115,130 157,130 157,112"/>
<text text-anchor="middle" style="font-family:Helvetica;font-size:10.00;" x="136" y="124">pscan</text>
</g>
<g id="edge8" class="edge"><title>Get_Protein_FASTA&#45;&gt;pscan</title>
<path style="fill:none;stroke:black;" d="M167,95C163,98 160,101 156,105"/>
<polygon style="fill:black;stroke:black;" points="158,108 148,111 154,102 158,108"/>
</g>
<g id="node6" class="node"><title>patmatmotifs</title>
<polygon style="fill:lightgoldenrodyellow;stroke:black;" points="235,112 161,112 161,130 235,130 235,112"/>
<text text-anchor="middle" style="font-family:Helvetica;font-size:10.00;" x="198" y="124">patmatmotifs</text>
</g>
<g id="edge6" class="edge"><title>Get_Protein_FASTA&#45;&gt;patmatmotifs</title>
<path style="fill:none;stroke:black;" d="M184,95C185,97 187,100 188,102"/>
<polygon style="fill:black;stroke:black;" points="191,101 193,111 185,104 191,101"/>
</g>
<g id="node12" class="node"><title>WORKFLOWINTERNALSINK_fastaSequence</title>
<polygon style="fill:#bcd2ee;stroke:black;" points="279,167 197,167 197,185 279,185 279,167"/>
<text text-anchor="middle" style="font-family:Helvetica;font-size:10.00;" x="238" y="179">fastaSequence</text>
</g>
<g id="edge16" class="edge"><title>Get_Protein_FASTA&#45;&gt;WORKFLOWINTERNALSINK_fastaSequence</title>
<path style="fill:none;stroke:black;" d="M217,95C225,98 232,104 237,111 246,124 245,142 243,156"/>
<polygon style="fill:black;stroke:black;" points="246,157 241,166 240,156 246,157"/>
</g>
<g id="node13" class="node"><title>WORKFLOWINTERNALSINK_blast_report</title>
<polygon style="fill:#bcd2ee;stroke:black;" points="193,167 123,167 123,185 193,185 193,167"/>
<text text-anchor="middle" style="font-family:Helvetica;font-size:10.00;" x="158" y="179">blast_report</text>
</g>
<g id="edge18" class="edge"><title>searchSimple&#45;&gt;WORKFLOWINTERNALSINK_blast_report</title>
<path style="fill:none;stroke:black;" d="M88,131C100,139 120,151 134,160"/>
<polygon style="fill:black;stroke:black;" points="137,158 143,166 133,163 137,158"/>
</g>
<g id="node3" class="node"><title>database</title>
<polygon style="fill:lightsteelblue;stroke:black;" points="63,76 5,76 5,94 63,94 63,76"/>
<text text-anchor="middle" style="font-family:Helvetica;font-size:10.00;" x="34" y="88">database</text>
</g>
<g id="edge12" class="edge"><title>database&#45;&gt;searchSimple</title>
<path style="fill:none;stroke:black;" d="M45,95C48,98 51,101 55,104"/>
<polygon style="fill:black;stroke:black;" points="58,102 63,111 53,107 58,102"/>
</g>
<g id="node4" class="node"><title>program</title>
<polygon style="fill:lightsteelblue;stroke:black;" points="121,76 67,76 67,94 121,94 121,76"/>
<text text-anchor="middle" style="font-family:Helvetica;font-size:10.00;" x="94" y="88">program</text>
</g>
<g id="edge14" class="edge"><title>program&#45;&gt;searchSimple</title>
<path style="fill:none;stroke:black;" d="M88,95C87,97 85,100 84,102"/>
<polygon style="fill:black;stroke:black;" points="87,104 79,111 81,101 87,104"/>
</g>
<g id="node8" class="node"><title>WORKFLOWINTERNALSOURCECONTROL</title>
<polygon style="fill:#ff3f3f;stroke:black;" points="228,42 221,52 235,52 228,42"/>
</g>
<g id="node9" class="node"><title>WORKFLOWINTERNALSOURCE_geneIdentifier</title>
<polygon style="fill:skyblue;stroke:black;" points="217,40 141,40 141,58 217,58 217,40"/>
<text text-anchor="middle" style="font-family:Helvetica;font-size:10.00;" x="179" y="52">geneIdentifier</text>
</g>
<g id="edge4" class="edge"><title>WORKFLOWINTERNALSOURCE_geneIdentifier&#45;&gt;Get_Protein_FASTA</title>
<path style="fill:none;stroke:black;" d="M179,59C179,61 179,63 179,65"/>
<polygon style="fill:black;stroke:black;" points="183,65 179,75 176,65 183,65"/>
</g>
<g id="node11" class="node"><title>WORKFLOWINTERNALSINKCONTROL</title>
<polygon style="fill:#6acd00;stroke:black;" points="290,183 297,173 283,173 290,183"/>
</g>
</g>
</svg>
