<?xml version="1.0" encoding="UTF-8" standalone="no"?>
<!DOCTYPE svg PUBLIC "-//W3C//DTD SVG 1.0//EN"
 "http://www.w3.org/TR/2001/REC-SVG-20010904/DTD/svg10.dtd">
<!-- Generated by dot version 2.2 (Fri Mar 11 00:51:40 UTC 2005)
     For user: (root) root   Title: scufl_graph    Pages: 1 -->
<svg width="511pt" height="398pt"
 viewBox = "-1 -1 510 397"
 xmlns="http://www.w3.org/2000/svg">
<g id="graph0" class="graph" style="font-family:Times-Roman;font-size:14.00;">
<title>scufl_graph</title>
<g id="graph2" class="cluster"><title>cluster_sources</title>
<polygon style="fill:none;stroke:black;stroke-dasharray:1,5;" points="13,67 281,67 281,12 13,12 13,67"/>
<text text-anchor="middle" style="font-family:Helvetica;font-size:10.00;" x="57" y="24">Workflow Inputs</text>
</g>
<g id="graph3" class="cluster"><title>cluster_sinks</title>
<polygon style="fill:none;stroke:black;stroke-dasharray:1,5;" points="154,374 496,374 496,319 154,319 154,374"/>
<text text-anchor="middle" style="font-family:Helvetica;font-size:10.00;" x="202" y="331">Workflow Outputs</text>
</g>
<g id="node1" class="node"><title>GetInAndOrthologsFromRefSeq</title>
<polygon style="fill:#ffb80f;stroke:black;" points="214,148 56,148 56,166 214,166 214,148"/>
<text text-anchor="middle" style="font-family:Helvetica;font-size:10.00;" x="135" y="160">GetInAndOrthologsFromRefSeq</text>
</g>
<g id="node3" class="node"><title>buildMultipleAlignmentWithMAFFT</title>
<polygon style="fill:#ffb80f;stroke:black;" points="425,184 257,184 257,202 425,202 425,184"/>
<text text-anchor="middle" style="font-family:Helvetica;font-size:10.00;" x="341" y="196">buildMultipleAlignmentWithMAFFT</text>
</g>
<g id="edge30" class="edge"><title>GetInAndOrthologsFromRefSeq&#45;&gt;buildMultipleAlignmentWithMAFFT</title>
<path style="fill:none;stroke:black;" d="M189,167C216,171 248,177 276,181"/>
<polygon style="fill:black;stroke:black;" points="277,178 286,183 276,184 277,178"/>
</g>
<g id="node19" class="node"><title>WORKFLOWINTERNALSINK_fasta</title>
<polygon style="fill:#bcd2ee;stroke:black;" points="200,347 162,347 162,365 200,365 200,347"/>
<text text-anchor="middle" style="font-family:Helvetica;font-size:10.00;" x="181" y="359">fasta</text>
</g>
<g id="edge40" class="edge"><title>GetInAndOrthologsFromRefSeq&#45;&gt;WORKFLOWINTERNALSINK_fasta</title>
<path style="fill:none;stroke:black;" d="M113,167C91,178 59,199 59,229 59,229 59,229 59,265 59,311 116,337 152,348"/>
<polygon style="fill:black;stroke:black;" points="153,345 162,351 151,351 153,345"/>
</g>
<g id="node2" class="node"><title>GetConservedDomainsFromFastaAlignment</title>
<polygon style="fill:#ffb80f;stroke:black;" points="447,220 235,220 235,238 447,238 447,220"/>
<text text-anchor="middle" style="font-family:Helvetica;font-size:10.00;" x="341" y="232">GetConservedDomainsFromFastaAlignment</text>
</g>
<g id="node4" class="node"><title>BuildPhylogeneticTreeFromFastaAlignment</title>
<polygon style="fill:#ffb80f;stroke:black;" points="444,256 238,256 238,274 444,274 444,256"/>
<text text-anchor="middle" style="font-family:Helvetica;font-size:10.00;" x="341" y="268">BuildPhylogeneticTreeFromFastaAlignment</text>
</g>
<g id="edge10" class="edge"><title>GetConservedDomainsFromFastaAlignment&#45;&gt;BuildPhylogeneticTreeFromFastaAlignment</title>
<path style="fill:none;stroke:black;" d="M341,239C341,241 341,243 341,245"/>
<polygon style="fill:black;stroke:black;" points="345,245 341,255 338,245 345,245"/>
</g>
<g id="node8" class="node"><title>RunSifter</title>
<polygon style="fill:#ffb80f;stroke:black;" points="260,292 202,292 202,310 260,310 260,292"/>
<text text-anchor="middle" style="font-family:Helvetica;font-size:10.00;" x="231" y="304">RunSifter</text>
</g>
<g id="edge28" class="edge"><title>GetConservedDomainsFromFastaAlignment&#45;&gt;RunSifter</title>
<path style="fill:none;stroke:black;" d="M278,239C259,243 242,248 236,255 230,262 229,272 229,281"/>
<polygon style="fill:black;stroke:black;" points="233,281 229,291 226,281 233,281"/>
</g>
<g id="node22" class="node"><title>WORKFLOWINTERNALSINK_alignment2</title>
<polygon style="fill:#bcd2ee;stroke:black;" points="426,347 362,347 362,365 426,365 426,347"/>
<text text-anchor="middle" style="font-family:Helvetica;font-size:10.00;" x="394" y="359">alignment2</text>
</g>
<g id="edge38" class="edge"><title>GetConservedDomainsFromFastaAlignment&#45;&gt;WORKFLOWINTERNALSINK_alignment2</title>
<path style="fill:none;stroke:black;" d="M405,239C424,243 441,248 446,255 451,263 448,267 446,275 439,299 423,323 410,338"/>
<polygon style="fill:black;stroke:black;" points="412,341 403,346 407,336 412,341"/>
</g>
<g id="edge16" class="edge"><title>buildMultipleAlignmentWithMAFFT&#45;&gt;GetConservedDomainsFromFastaAlignment</title>
<path style="fill:none;stroke:black;" d="M341,203C341,205 341,207 341,209"/>
<polygon style="fill:black;stroke:black;" points="345,209 341,219 338,209 345,209"/>
</g>
<g id="node20" class="node"><title>WORKFLOWINTERNALSINK_mafft</title>
<polygon style="fill:#bcd2ee;stroke:black;" points="470,347 430,347 430,365 470,365 470,347"/>
<text text-anchor="middle" style="font-family:Helvetica;font-size:10.00;" x="450" y="359">mafft</text>
</g>
<g id="edge48" class="edge"><title>buildMultipleAlignmentWithMAFFT&#45;&gt;WORKFLOWINTERNALSINK_mafft</title>
<path style="fill:none;stroke:black;" d="M409,203C427,207 443,212 449,219 476,253 464,308 456,336"/>
<polygon style="fill:black;stroke:black;" points="459,337 453,346 453,335 459,337"/>
</g>
<g id="edge8" class="edge"><title>BuildPhylogeneticTreeFromFastaAlignment&#45;&gt;RunSifter</title>
<path style="fill:none;stroke:black;" d="M312,275C299,279 284,284 270,288"/>
<polygon style="fill:black;stroke:black;" points="271,291 260,291 269,285 271,291"/>
</g>
<g id="node23" class="node"><title>WORKFLOWINTERNALSINK_tree</title>
<polygon style="fill:#bcd2ee;stroke:black;" points="358,347 324,347 324,365 358,365 358,347"/>
<text text-anchor="middle" style="font-family:Helvetica;font-size:10.00;" x="341" y="359">tree</text>
</g>
<g id="edge36" class="edge"><title>BuildPhylogeneticTreeFromFastaAlignment&#45;&gt;WORKFLOWINTERNALSINK_tree</title>
<path style="fill:none;stroke:black;" d="M341,275C341,289 341,317 341,336"/>
<polygon style="fill:black;stroke:black;" points="345,336 341,346 338,336 345,336"/>
</g>
<g id="node5" class="node"><title>Integer</title>
<polygon style="fill:gold;stroke:black;" points="174,76 126,76 126,94 174,94 174,76"/>
<text text-anchor="middle" style="font-family:Helvetica;font-size:10.00;" x="150" y="88">Integer</text>
</g>
<g id="node10" class="node"><title>AminoAcidSequence</title>
<polygon style="fill:gold;stroke:black;" points="190,112 80,112 80,130 190,130 190,112"/>
<text text-anchor="middle" style="font-family:Helvetica;font-size:10.00;" x="135" y="124">AminoAcidSequence</text>
</g>
<g id="edge12" class="edge"><title>Integer&#45;&gt;AminoAcidSequence</title>
<path style="fill:none;stroke:black;" d="M146,95C145,97 144,99 143,102"/>
<polygon style="fill:black;stroke:black;" points="146,103 139,111 140,100 146,103"/>
</g>
<g id="node6" class="node"><title>String</title>
<polygon style="fill:gold;stroke:black;" points="121,76 79,76 79,94 121,94 121,76"/>
<text text-anchor="middle" style="font-family:Helvetica;font-size:10.00;" x="100" y="88">String</text>
</g>
<g id="edge14" class="edge"><title>String&#45;&gt;AminoAcidSequence</title>
<path style="fill:none;stroke:black;" d="M110,95C113,98 116,101 119,104"/>
<polygon style="fill:black;stroke:black;" points="121,101 126,111 116,106 121,101"/>
</g>
<g id="node7" class="node"><title>gene_name</title>
<polygon style="fill:gold;stroke:black;" points="262,112 194,112 194,130 262,130 262,112"/>
<text text-anchor="middle" style="font-family:Helvetica;font-size:10.00;" x="228" y="124">gene_name</text>
</g>
<g id="edge18" class="edge"><title>gene_name&#45;&gt;GetInAndOrthologsFromRefSeq</title>
<path style="fill:none;stroke:black;" d="M203,131C193,135 180,139 169,143"/>
<polygon style="fill:black;stroke:black;" points="171,146 160,147 168,140 171,146"/>
</g>
<g id="edge32" class="edge"><title>gene_name&#45;&gt;RunSifter</title>
<path style="fill:none;stroke:black;" d="M226,131C224,145 221,171 221,193 221,193 221,193 221,229 221,253 218,265 223,281"/>
<polygon style="fill:black;stroke:black;" points="226,280 226,291 220,282 226,280"/>
</g>
<g id="node21" class="node"><title>WORKFLOWINTERNALSINK_gos</title>
<polygon style="fill:#bcd2ee;stroke:black;" points="266,347 234,347 234,365 266,365 266,347"/>
<text text-anchor="middle" style="font-family:Helvetica;font-size:10.00;" x="250" y="359">gos</text>
</g>
<g id="edge42" class="edge"><title>RunSifter&#45;&gt;WORKFLOWINTERNALSINK_gos</title>
<path style="fill:none;stroke:black;" d="M234,311C237,318 240,328 243,337"/>
<polygon style="fill:black;stroke:black;" points="246,335 247,346 240,338 246,335"/>
</g>
<g id="node24" class="node"><title>WORKFLOWINTERNALSINK_pli</title>
<polygon style="fill:#bcd2ee;stroke:black;" points="230,347 204,347 204,365 230,365 230,347"/>
<text text-anchor="middle" style="font-family:Helvetica;font-size:10.00;" x="217" y="359">pli</text>
</g>
<g id="edge46" class="edge"><title>RunSifter&#45;&gt;WORKFLOWINTERNALSINK_pli</title>
<path style="fill:none;stroke:black;" d="M229,311C227,318 224,328 222,336"/>
<polygon style="fill:black;stroke:black;" points="225,337 220,346 219,336 225,337"/>
</g>
<g id="node25" class="node"><title>WORKFLOWINTERNALSINK_forester</title>
<polygon style="fill:#bcd2ee;stroke:black;" points="320,347 270,347 270,365 320,365 320,347"/>
<text text-anchor="middle" style="font-family:Helvetica;font-size:10.00;" x="295" y="359">forester</text>
</g>
<g id="edge44" class="edge"><title>RunSifter&#45;&gt;WORKFLOWINTERNALSINK_forester</title>
<path style="fill:none;stroke:black;" d="M254,311C259,313 264,316 268,319 274,324 280,331 284,337"/>
<polygon style="fill:black;stroke:black;" points="287,336 290,346 282,340 287,336"/>
</g>
<g id="node9" class="node"><title>organism</title>
<polygon style="fill:gold;stroke:black;" points="76,112 18,112 18,130 76,130 76,112"/>
<text text-anchor="middle" style="font-family:Helvetica;font-size:10.00;" x="47" y="124">organism</text>
</g>
<g id="edge20" class="edge"><title>organism&#45;&gt;GetInAndOrthologsFromRefSeq</title>
<path style="fill:none;stroke:black;" d="M71,131C81,135 92,139 103,143"/>
<polygon style="fill:black;stroke:black;" points="104,140 112,147 101,146 104,140"/>
</g>
<g id="edge34" class="edge"><title>organism&#45;&gt;RunSifter</title>
<path style="fill:none;stroke:black;" d="M47,131C47,141 48,156 54,167 98,242 130,256 198,287"/>
<polygon style="fill:black;stroke:black;" points="199,284 207,291 196,290 199,284"/>
</g>
<g id="edge6" class="edge"><title>AminoAcidSequence&#45;&gt;GetInAndOrthologsFromRefSeq</title>
<path style="fill:none;stroke:black;" d="M135,131C135,133 135,135 135,137"/>
<polygon style="fill:black;stroke:black;" points="139,137 135,147 132,137 139,137"/>
</g>
<g id="node12" class="node"><title>WORKFLOWINTERNALSOURCECONTROL</title>
<polygon style="fill:#ff3f3f;stroke:black;" points="266,42 259,52 273,52 266,42"/>
</g>
<g id="node13" class="node"><title>WORKFLOWINTERNALSOURCE_organsim</title>
<polygon style="fill:skyblue;stroke:black;" points="79,40 21,40 21,58 79,58 79,40"/>
<text text-anchor="middle" style="font-family:Helvetica;font-size:10.00;" x="50" y="52">organsim</text>
</g>
<g id="edge22" class="edge"><title>WORKFLOWINTERNALSOURCE_organsim&#45;&gt;organism</title>
<path style="fill:none;stroke:black;" d="M50,59C49,69 48,87 48,101"/>
<polygon style="fill:black;stroke:black;" points="51,101 47,111 45,101 51,101"/>
</g>
<g id="node14" class="node"><title>WORKFLOWINTERNALSOURCE_gene_name</title>
<polygon style="fill:skyblue;stroke:black;" points="255,40 187,40 187,58 255,58 255,40"/>
<text text-anchor="middle" style="font-family:Helvetica;font-size:10.00;" x="221" y="52">gene_name</text>
</g>
<g id="edge4" class="edge"><title>WORKFLOWINTERNALSOURCE_gene_name&#45;&gt;gene_name</title>
<path style="fill:none;stroke:black;" d="M222,59C223,69 225,87 226,101"/>
<polygon style="fill:black;stroke:black;" points="229,101 227,111 223,101 229,101"/>
</g>
<g id="node15" class="node"><title>WORKFLOWINTERNALSOURCE_seq</title>
<polygon style="fill:skyblue;stroke:black;" points="115,40 83,40 83,58 115,58 115,40"/>
<text text-anchor="middle" style="font-family:Helvetica;font-size:10.00;" x="99" y="52">seq</text>
</g>
<g id="edge24" class="edge"><title>WORKFLOWINTERNALSOURCE_seq&#45;&gt;String</title>
<path style="fill:none;stroke:black;" d="M99,59C99,61 99,63 99,65"/>
<polygon style="fill:black;stroke:black;" points="102,65 100,75 96,65 102,65"/>
</g>
<g id="node16" class="node"><title>WORKFLOWINTERNALSOURCE_seq_length</title>
<polygon style="fill:skyblue;stroke:black;" points="183,40 119,40 119,58 183,58 183,40"/>
<text text-anchor="middle" style="font-family:Helvetica;font-size:10.00;" x="151" y="52">seq_length</text>
</g>
<g id="edge26" class="edge"><title>WORKFLOWINTERNALSOURCE_seq_length&#45;&gt;Integer</title>
<path style="fill:none;stroke:black;" d="M151,59C151,61 151,63 151,65"/>
<polygon style="fill:black;stroke:black;" points="154,65 150,75 148,65 154,65"/>
</g>
<g id="node18" class="node"><title>WORKFLOWINTERNALSINKCONTROL</title>
<polygon style="fill:#6acd00;stroke:black;" points="481,363 488,353 474,353 481,363"/>
</g>
</g>
</svg>
